<?xml version="1.0" encoding="UTF-8" standalone="no"?>
<svg width="100px" height="13px" viewBox="0 0 100 13" version="1.1" xmlns="http://www.w3.org/2000/svg" xmlns:xlink="http://www.w3.org/1999/xlink" xmlns:sketch="http://www.bohemiancoding.com/sketch/ns">
    <!-- Generator: Sketch 3.1.1 (8761) - http://www.bohemiancoding.com/sketch -->
    <title>The drug wants it.</title>
    <desc>Created with Sketch.</desc>
    <defs></defs>
    <g id="Page-1" stroke="none" stroke-width="1" fill="none" fill-rule="evenodd" sketch:type="MSPage">
        <path d="M3.81445312,10 L2.81835938,10 L2.81835938,2.31835938 L0.10546875,2.31835938 L0.10546875,1.43359375 L6.52734375,1.43359375 L6.52734375,2.31835938 L3.81445312,2.31835938 L3.81445312,10 Z M12.0644531,10 L12.0644531,5.84570312 C12.0644531,5.32226301 11.9453137,4.93164191 11.7070312,4.67382812 C11.4687488,4.41601434 11.0957057,4.28710938 10.5878906,4.28710938 C9.912106,4.28710938 9.41894687,4.47070129 9.10839844,4.83789062 C8.79785001,5.20507996 8.64257812,5.80663645 8.64257812,6.64257813 L8.64257812,10 L7.66992188,10 L7.66992188,0.8828125 L8.64257812,0.8828125 L8.64257812,3.64257812 C8.64257812,3.97461104 8.62695328,4.24999891 8.59570312,4.46875 L8.65429688,4.46875 C8.84570408,4.16015471 9.11816229,3.91699308 9.47167969,3.73925781 C9.82519708,3.56152255 10.2285134,3.47265625 10.6816406,3.47265625 C11.4668008,3.47265625 12.0556621,3.65917782 12.4482422,4.03222656 C12.8408223,4.4052753 13.0371094,4.99804281 13.0371094,5.81054688 L13.0371094,10 L12.0644531,10 Z M17.7480469,10.1171875 C16.7988234,10.1171875 16.0498074,9.82812789 15.5009766,9.25 C14.9521457,8.67187211 14.6777344,7.86914576 14.6777344,6.84179688 C14.6777344,5.80663545 14.9326146,4.98437805 15.4423828,4.375 C15.952151,3.76562195 16.6367145,3.4609375 17.4960938,3.4609375 C18.3007853,3.4609375 18.9374977,3.72558329 19.40625,4.25488281 C19.8750023,4.78418233 20.109375,5.48241754 20.109375,6.34960938 L20.109375,6.96484375 L15.6855469,6.96484375 C15.7050782,7.71875377 15.895506,8.29101367 16.2568359,8.68164062 C16.6181659,9.07226758 17.1269498,9.26757812 17.7832031,9.26757812 C18.4746128,9.26757812 19.1581997,9.12304832 19.8339844,8.83398438 L19.8339844,9.70117188 C19.4902327,9.84961012 19.1650406,9.95605437 18.8583984,10.0205078 C18.5517563,10.0849613 18.1816428,10.1171875 17.7480469,10.1171875 L17.7480469,10.1171875 Z M17.484375,4.27539062 C16.9687474,4.27539062 16.5576187,4.4433577 16.2509766,4.77929688 C15.9443344,5.11523605 15.7636721,5.58007516 15.7089844,6.17382812 L19.0664062,6.17382812 C19.0664062,5.56054381 18.9296889,5.09082194 18.65625,4.76464844 C18.3828111,4.43847493 17.99219,4.27539062 17.484375,4.27539062 L17.484375,4.27539062 Z M29.2558594,9.13867188 L29.203125,9.13867188 C28.753904,9.79101889 28.0820357,10.1171875 27.1875,10.1171875 C26.3476521,10.1171875 25.6943383,9.830081 25.2275391,9.25585938 C24.7607399,8.68163775 24.5273438,7.86523967 24.5273438,6.80664062 C24.5273438,5.74804158 24.7617164,4.92578418 25.2304688,4.33984375 C25.6992211,3.75390332 26.3515583,3.4609375 27.1875,3.4609375 C28.0585981,3.4609375 28.7265602,3.77734059 29.1914062,4.41015625 L29.2675781,4.41015625 L29.2265625,3.94726562 L29.203125,3.49609375 L29.203125,0.8828125 L30.1757812,0.8828125 L30.1757812,10 L29.3847656,10 L29.2558594,9.13867188 Z M27.3105469,9.30273438 C27.9746127,9.30273438 28.4560532,9.12207212 28.7548828,8.76074219 C29.0537124,8.39941226 29.203125,7.81641027 29.203125,7.01171875 L29.203125,6.80664062 C29.203125,5.89647982 29.0517593,5.24707226 28.7490234,4.85839844 C28.4462875,4.46972462 27.9628939,4.27539062 27.2988281,4.27539062 C26.7285128,4.27539062 26.2919937,4.4970681 25.9892578,4.94042969 C25.6865219,5.38379128 25.5351562,6.00976158 25.5351562,6.81835938 C25.5351562,7.63867598 25.6855454,8.25781041 25.9863281,8.67578125 C26.2871109,9.09375209 26.7285127,9.30273438 27.3105469,9.30273438 L27.3105469,9.30273438 Z M35.1679688,3.4609375 C35.4531264,3.4609375 35.7089832,3.48437477 35.9355469,3.53125 L35.8007812,4.43359375 C35.5351549,4.37499971 35.3007823,4.34570312 35.0976562,4.34570312 C34.5781224,4.34570312 34.1337909,4.55663852 33.7646484,4.97851562 C33.395506,5.40039273 33.2109375,5.92577811 33.2109375,6.5546875 L33.2109375,10 L32.2382812,10 L32.2382812,3.578125 L33.0410156,3.578125 L33.1523438,4.76757812 L33.1992188,4.76757812 C33.4375012,4.34960729 33.7246077,4.02734488 34.0605469,3.80078125 C34.3964861,3.57421762 34.765623,3.4609375 35.1679688,3.4609375 L35.1679688,3.4609375 Z M38.0507812,3.578125 L38.0507812,7.74414062 C38.0507812,8.26758074 38.1699207,8.65820184 38.4082031,8.91601562 C38.6464856,9.17382941 39.0195287,9.30273438 39.5273438,9.30273438 C40.1992221,9.30273438 40.6904281,9.11914246 41.0009766,8.75195312 C41.311525,8.38476379 41.4667969,7.78516041 41.4667969,6.953125 L41.4667969,3.578125 L42.4394531,3.578125 L42.4394531,10 L41.6367188,10 L41.4960938,9.13867188 L41.4433594,9.13867188 C41.2441396,9.45507971 40.9677752,9.69726479 40.6142578,9.86523438 C40.2607404,10.033204 39.8574241,10.1171875 39.4042969,10.1171875 C38.623043,10.1171875 38.0380879,9.93164248 37.6494141,9.56054688 C37.2607402,9.18945127 37.0664062,8.59570721 37.0664062,7.77929688 L37.0664062,3.578125 L38.0507812,3.578125 Z M49.7578125,3.578125 L49.7578125,4.19335938 L48.5683594,4.33398438 C48.6777349,4.47070381 48.7753902,4.64941296 48.8613281,4.87011719 C48.9472661,5.09082142 48.9902344,5.33984236 48.9902344,5.6171875 C48.9902344,6.24609689 48.7753928,6.748045 48.3457031,7.12304688 C47.9160135,7.49804875 47.3261756,7.68554688 46.5761719,7.68554688 C46.3847647,7.68554688 46.205079,7.66992203 46.0371094,7.63867188 C45.6230448,7.85742297 45.4160156,8.13281084 45.4160156,8.46484375 C45.4160156,8.64062588 45.4882805,8.77050739 45.6328125,8.85449219 C45.7773445,8.93847698 46.0253889,8.98046875 46.3769531,8.98046875 L47.5136719,8.98046875 C48.2089879,8.98046875 48.7431622,9.12695166 49.1162109,9.41992188 C49.4892597,9.71289209 49.6757812,10.1386691 49.6757812,10.6972656 C49.6757812,11.4082067 49.3906279,11.9501934 48.8203125,12.3232422 C48.2499971,12.6962909 47.4179742,12.8828125 46.3242188,12.8828125 C45.4843708,12.8828125 44.8369163,12.7265641 44.3818359,12.4140625 C43.9267555,12.1015609 43.6992188,11.6601591 43.6992188,11.0898438 C43.6992188,10.6992168 43.8242175,10.3613296 44.0742188,10.0761719 C44.32422,9.7910142 44.675779,9.59765676 45.1289062,9.49609375 C44.9648429,9.42187463 44.827149,9.30664141 44.7158203,9.15039062 C44.6044916,8.99413984 44.5488281,8.81250104 44.5488281,8.60546875 C44.5488281,8.37109258 44.6113275,8.1660165 44.7363281,7.99023438 C44.8613287,7.81445225 45.0585924,7.64453207 45.328125,7.48046875 C44.9960921,7.34374932 44.725587,7.11132977 44.5166016,6.78320312 C44.3076161,6.45507648 44.203125,6.08008023 44.203125,5.65820312 C44.203125,4.95507461 44.4140604,4.41308784 44.8359375,4.03222656 C45.2578146,3.65136528 45.8554649,3.4609375 46.6289062,3.4609375 C46.9648454,3.4609375 47.2675768,3.49999961 47.5371094,3.578125 L49.7578125,3.578125 Z M44.6367188,11.078125 C44.6367188,11.425783 44.7832017,11.6894522 45.0761719,11.8691406 C45.3691421,12.048829 45.7890598,12.1386719 46.3359375,12.1386719 C47.1523478,12.1386719 47.756834,12.0166028 48.1494141,11.7724609 C48.5419942,11.5283191 48.7382812,11.1972677 48.7382812,10.7792969 C48.7382812,10.4316389 48.6308604,10.1904304 48.4160156,10.0556641 C48.2011708,9.92089776 47.796878,9.85351562 47.203125,9.85351562 L46.0371094,9.85351562 C45.5957009,9.85351562 45.2519544,9.95898332 45.0058594,10.1699219 C44.7597644,10.3808604 44.6367188,10.6835918 44.6367188,11.078125 L44.6367188,11.078125 Z M45.1640625,5.63476562 C45.1640625,6.08398662 45.2910144,6.42382697 45.5449219,6.65429688 C45.7988294,6.88476678 46.1523415,7 46.6054688,7 C47.5546922,7 48.0292969,6.53906711 48.0292969,5.6171875 C48.0292969,4.65233893 47.5488329,4.16992188 46.5878906,4.16992188 C46.1308571,4.16992188 45.7792981,4.29296752 45.5332031,4.5390625 C45.2871081,4.78515748 45.1640625,5.1503882 45.1640625,5.63476562 L45.1640625,5.63476562 Z M59.4375,10 L58.2597656,6.23242188 C58.1855465,6.00195197 58.046876,5.47851971 57.84375,4.66210938 L57.796875,4.66210938 C57.6406242,5.34570654 57.5039068,5.87304502 57.3867187,6.24414062 L56.1738281,10 L55.0488281,10 L53.296875,3.578125 L54.3164062,3.578125 C54.7304708,5.19141432 55.0458974,6.41991766 55.2626953,7.26367188 C55.4794933,8.10742609 55.6035155,8.67577979 55.6347656,8.96875 L55.6816406,8.96875 C55.7246096,8.74609264 55.7939448,8.45800958 55.8896484,8.10449219 C55.985352,7.75097479 56.068359,7.47070416 56.1386719,7.26367188 L57.3164062,3.578125 L58.3710937,3.578125 L59.5195312,7.26367188 C59.7382823,7.93555023 59.8867184,8.49999771 59.9648437,8.95703125 L60.0117187,8.95703125 C60.0273438,8.81640555 60.0693356,8.59961084 60.1376953,8.30664062 C60.206055,8.01367041 60.6132775,6.4375143 61.359375,3.578125 L62.3671875,3.578125 L60.5917969,10 L59.4375,10 Z M67.4765625,10 L67.2832031,9.0859375 L67.2363281,9.0859375 C66.916014,9.48828326 66.5966813,9.76074147 66.2783203,9.90332031 C65.9599593,10.0458992 65.5625024,10.1171875 65.0859375,10.1171875 C64.4492156,10.1171875 63.9501971,9.95312664 63.5888672,9.625 C63.2275373,9.29687336 63.046875,8.83008115 63.046875,8.22460938 C63.046875,6.92772789 64.083974,6.24804719 66.1582031,6.18554688 L67.2480469,6.15039062 L67.2480469,5.75195312 C67.2480469,5.24804436 67.1396495,4.87597776 66.9228516,4.63574219 C66.7060536,4.39550661 66.3593774,4.27539062 65.8828125,4.27539062 C65.3476536,4.27539062 64.7421909,4.43945148 64.0664062,4.76757812 L63.7675781,4.0234375 C64.083986,3.85156164 64.4306622,3.71679736 64.8076172,3.61914062 C65.1845722,3.52148389 65.5624981,3.47265625 65.9414062,3.47265625 C66.7070351,3.47265625 67.2744122,3.64257643 67.6435547,3.98242188 C68.0126972,4.32226732 68.1972656,4.86718375 68.1972656,5.6171875 L68.1972656,10 L67.4765625,10 Z M65.2792969,9.31445312 C65.8847687,9.31445312 66.3603498,9.14843916 66.7060547,8.81640625 C67.0517595,8.48437334 67.2246094,8.01953424 67.2246094,7.421875 L67.2246094,6.84179688 L66.2519531,6.8828125 C65.4785118,6.91015639 64.9209001,7.03027237 64.5791016,7.24316406 C64.237303,7.45605575 64.0664062,7.78710713 64.0664062,8.23632812 C64.0664062,8.58789238 64.1728505,8.85546783 64.3857422,9.0390625 C64.5986339,9.22265717 64.8964825,9.31445312 65.2792969,9.31445312 L65.2792969,9.31445312 Z M74.5957031,10 L74.5957031,5.84570312 C74.5957031,5.32226301 74.4765637,4.93164191 74.2382812,4.67382812 C73.9999988,4.41601434 73.6269557,4.28710938 73.1191406,4.28710938 C72.4472623,4.28710938 71.9550797,4.46874818 71.6425781,4.83203125 C71.3300766,5.19531432 71.1738281,5.7949177 71.1738281,6.63085938 L71.1738281,10 L70.2011719,10 L70.2011719,3.578125 L70.9921875,3.578125 L71.1503906,4.45703125 L71.1972656,4.45703125 C71.3964854,4.14062342 71.6757795,3.89550868 72.0351562,3.72167969 C72.394533,3.54785069 72.7949197,3.4609375 73.2363281,3.4609375 C74.0097695,3.4609375 74.5917949,3.64745907 74.9824219,4.02050781 C75.3730488,4.39355655 75.5683594,4.99023027 75.5683594,5.81054688 L75.5683594,10 L74.5957031,10 Z M79.640625,9.31445312 C79.8125009,9.31445312 79.9785148,9.30175794 80.1386719,9.27636719 C80.2988289,9.25097644 80.4257808,9.22460951 80.5195312,9.19726562 L80.5195312,9.94140625 C80.414062,9.99218775 80.2587901,10.0341795 80.0537109,10.0673828 C79.8486318,10.1005861 79.6640633,10.1171875 79.5,10.1171875 C78.2578063,10.1171875 77.6367188,9.46289717 77.6367188,8.15429688 L77.6367188,4.33398438 L76.7167969,4.33398438 L76.7167969,3.86523438 L77.6367188,3.4609375 L78.046875,2.08984375 L78.609375,2.08984375 L78.609375,3.578125 L80.4726562,3.578125 L80.4726562,4.33398438 L78.609375,4.33398438 L78.609375,8.11328125 C78.609375,8.50000193 78.701171,8.79687396 78.8847656,9.00390625 C79.0683603,9.21093854 79.3203109,9.31445312 79.640625,9.31445312 L79.640625,9.31445312 Z M85.9453125,8.24804688 C85.9453125,8.84570611 85.7226585,9.306639 85.2773438,9.63085938 C84.832029,9.95507975 84.2070353,10.1171875 83.4023438,10.1171875 C82.550777,10.1171875 81.8867211,9.98242322 81.4101562,9.71289062 L81.4101562,8.81054688 C81.7187515,8.96679766 82.0498029,9.0898433 82.4033203,9.1796875 C82.7568377,9.2695317 83.0976546,9.31445312 83.4257812,9.31445312 C83.9335963,9.31445312 84.3242174,9.23339925 84.5976562,9.07128906 C84.8710951,8.90917888 85.0078125,8.66211104 85.0078125,8.33007812 C85.0078125,8.08007687 84.8994151,7.86621183 84.6826172,7.68847656 C84.4658192,7.5107413 84.0429719,7.30078246 83.4140625,7.05859375 C82.8164033,6.83593639 82.3916028,6.64160239 82.1396484,6.47558594 C81.8876941,6.30956948 81.7001959,6.1210948 81.5771484,5.91015625 C81.4541009,5.6992177 81.3925781,5.44726709 81.3925781,5.15429688 C81.3925781,4.63085676 81.6054666,4.21777495 82.03125,3.91503906 C82.4570334,3.61230317 83.0410119,3.4609375 83.7832031,3.4609375 C84.4746128,3.4609375 85.1503873,3.60156109 85.8105469,3.8828125 L85.4648438,4.67382812 C84.8203093,4.4082018 84.2363307,4.27539062 83.7128906,4.27539062 C83.2519508,4.27539062 82.904298,4.34765553 82.6699219,4.4921875 C82.4355457,4.63671947 82.3183594,4.83593623 82.3183594,5.08984375 C82.3183594,5.26171961 82.3623042,5.40820252 82.4501953,5.52929688 C82.5380864,5.65039123 82.6796865,5.76562445 82.875,5.875 C83.0703135,5.98437555 83.4453097,6.14257709 84,6.34960938 C84.7617226,6.62695451 85.2763658,6.90624859 85.5439453,7.1875 C85.8115248,7.46875141 85.9453125,7.8222635 85.9453125,8.24804688 L85.9453125,8.24804688 Z M91.6171875,10 L90.6445312,10 L90.6445312,3.578125 L91.6171875,3.578125 L91.6171875,10 Z M90.5625,1.83789062 C90.5625,1.61523326 90.617187,1.45214896 90.7265625,1.34863281 C90.835938,1.24511667 90.9726554,1.19335938 91.1367188,1.19335938 C91.2929695,1.19335938 91.4277338,1.24609322 91.5410156,1.3515625 C91.6542974,1.45703178 91.7109375,1.61913953 91.7109375,1.83789062 C91.7109375,2.05664172 91.6542974,2.21972603 91.5410156,2.32714844 C91.4277338,2.43457085 91.2929695,2.48828125 91.1367188,2.48828125 C90.9726554,2.48828125 90.835938,2.43457085 90.7265625,2.32714844 C90.617187,2.21972603 90.5625,2.05664172 90.5625,1.83789062 L90.5625,1.83789062 Z M95.7539062,9.31445312 C95.9257821,9.31445312 96.0917961,9.30175794 96.2519531,9.27636719 C96.4121102,9.25097644 96.539062,9.22460951 96.6328125,9.19726562 L96.6328125,9.94140625 C96.5273432,9.99218775 96.3720713,10.0341795 96.1669922,10.0673828 C95.961913,10.1005861 95.7773446,10.1171875 95.6132812,10.1171875 C94.3710875,10.1171875 93.75,9.46289717 93.75,8.15429688 L93.75,4.33398438 L92.8300781,4.33398438 L92.8300781,3.86523438 L93.75,3.4609375 L94.1601562,2.08984375 L94.7226562,2.08984375 L94.7226562,3.578125 L96.5859375,3.578125 L96.5859375,4.33398438 L94.7226562,4.33398438 L94.7226562,8.11328125 C94.7226562,8.50000193 94.8144522,8.79687396 94.9980469,9.00390625 C95.1816415,9.21093854 95.4335921,9.31445312 95.7539062,9.31445312 L95.7539062,9.31445312 Z M97.7753906,9.37890625 C97.7753906,9.11718619 97.8349603,8.91894599 97.9541016,8.78417969 C98.0732428,8.64941339 98.2441395,8.58203125 98.4667969,8.58203125 C98.6933605,8.58203125 98.8701166,8.64941339 98.9970703,8.78417969 C99.1240241,8.91894599 99.1875,9.11718619 99.1875,9.37890625 C99.1875,9.63281377 99.1230475,9.82812432 98.9941406,9.96484375 C98.8652337,10.1015632 98.6894542,10.1699219 98.4667969,10.1699219 C98.2675771,10.1699219 98.1025397,10.1083991 97.9716797,9.98535156 C97.8408197,9.86230407 97.7753906,9.66015766 97.7753906,9.37890625 L97.7753906,9.37890625 Z" id="The-drug-wants-it." fill="#000000" sketch:type="MSShapeGroup"></path>
    </g>
</svg>