<?xml version="1.0" encoding="UTF-8" standalone="no"?>
<svg width="44px" height="11px" viewBox="0 0 44 11" version="1.1" xmlns="http://www.w3.org/2000/svg" xmlns:xlink="http://www.w3.org/1999/xlink" xmlns:sketch="http://www.bohemiancoding.com/sketch/ns">
    <!-- Generator: Sketch 3.1.1 (8761) - http://www.bohemiancoding.com/sketch -->
    <title>Murder.</title>
    <desc>Created with Sketch.</desc>
    <defs></defs>
    <g id="Page-1" stroke="none" stroke-width="1" fill="none" fill-rule="evenodd" sketch:type="MSPage">
        <path d="M3.96875,10 L1.0625,2.40625 L1.015625,2.40625 C1.07031277,3.00781551 1.09765625,3.72265211 1.09765625,4.55078125 L1.09765625,10 L0.177734375,10 L0.177734375,1.43359375 L1.67773438,1.43359375 L4.390625,8.5 L4.4375,8.5 L7.17382812,1.43359375 L8.66210938,1.43359375 L8.66210938,10 L7.66601562,10 L7.66601562,4.48046875 C7.66601562,3.84765309 7.6933591,3.16015996 7.74804688,2.41796875 L7.70117188,2.41796875 L4.77148438,10 L3.96875,10 Z M11.7792969,3.578125 L11.7792969,7.74414062 C11.7792969,8.26758074 11.8984363,8.65820184 12.1367188,8.91601562 C12.3750012,9.17382941 12.7480443,9.30273438 13.2558594,9.30273438 C13.9277377,9.30273438 14.4189438,9.11914246 14.7294922,8.75195312 C15.0400406,8.38476379 15.1953125,7.78516041 15.1953125,6.953125 L15.1953125,3.578125 L16.1679688,3.578125 L16.1679688,10 L15.3652344,10 L15.2246094,9.13867188 L15.171875,9.13867188 C14.9726553,9.45507971 14.6962908,9.69726479 14.3427734,9.86523438 C13.989256,10.033204 13.5859398,10.1171875 13.1328125,10.1171875 C12.3515586,10.1171875 11.7666035,9.93164248 11.3779297,9.56054688 C10.9892559,9.18945127 10.7949219,8.59570721 10.7949219,7.77929688 L10.7949219,3.578125 L11.7792969,3.578125 Z M21.1601562,3.4609375 C21.4453139,3.4609375 21.7011707,3.48437477 21.9277344,3.53125 L21.7929688,4.43359375 C21.5273424,4.37499971 21.2929698,4.34570312 21.0898438,4.34570312 C20.5703099,4.34570312 20.1259784,4.55663852 19.7568359,4.97851562 C19.3876935,5.40039273 19.203125,5.92577811 19.203125,6.5546875 L19.203125,10 L18.2304688,10 L18.2304688,3.578125 L19.0332031,3.578125 L19.1445312,4.76757812 L19.1914062,4.76757812 C19.4296887,4.34960729 19.7167952,4.02734488 20.0527344,3.80078125 C20.3886736,3.57421762 20.7578105,3.4609375 21.1601562,3.4609375 L21.1601562,3.4609375 Z M27.2597656,9.13867188 L27.2070312,9.13867188 C26.7578103,9.79101889 26.085942,10.1171875 25.1914062,10.1171875 C24.3515583,10.1171875 23.6982445,9.830081 23.2314453,9.25585938 C22.7646461,8.68163775 22.53125,7.86523967 22.53125,6.80664062 C22.53125,5.74804158 22.7656227,4.92578418 23.234375,4.33984375 C23.7031273,3.75390332 24.3554646,3.4609375 25.1914062,3.4609375 C26.0625044,3.4609375 26.7304664,3.77734059 27.1953125,4.41015625 L27.2714844,4.41015625 L27.2304688,3.94726562 L27.2070312,3.49609375 L27.2070312,0.8828125 L28.1796875,0.8828125 L28.1796875,10 L27.3886719,10 L27.2597656,9.13867188 Z M25.3144531,9.30273438 C25.9785189,9.30273438 26.4599594,9.12207212 26.7587891,8.76074219 C27.0576187,8.39941226 27.2070312,7.81641027 27.2070312,7.01171875 L27.2070312,6.80664062 C27.2070312,5.89647982 27.0556656,5.24707226 26.7529297,4.85839844 C26.4501938,4.46972462 25.9668002,4.27539062 25.3027344,4.27539062 C24.732419,4.27539062 24.2959,4.4970681 23.9931641,4.94042969 C23.6904282,5.38379128 23.5390625,6.00976158 23.5390625,6.81835938 C23.5390625,7.63867598 23.6894516,8.25781041 23.9902344,8.67578125 C24.2910171,9.09375209 24.732419,9.30273438 25.3144531,9.30273438 L25.3144531,9.30273438 Z M32.9550781,10.1171875 C32.0058546,10.1171875 31.2568387,9.82812789 30.7080078,9.25 C30.1591769,8.67187211 29.8847656,7.86914576 29.8847656,6.84179688 C29.8847656,5.80663545 30.1396459,4.98437805 30.6494141,4.375 C31.1591822,3.76562195 31.8437457,3.4609375 32.703125,3.4609375 C33.5078165,3.4609375 34.1445289,3.72558329 34.6132812,4.25488281 C35.0820336,4.78418233 35.3164062,5.48241754 35.3164062,6.34960938 L35.3164062,6.96484375 L30.8925781,6.96484375 C30.9121095,7.71875377 31.1025373,8.29101367 31.4638672,8.68164062 C31.8251971,9.07226758 32.3339811,9.26757812 32.9902344,9.26757812 C33.6816441,9.26757812 34.365231,9.12304832 35.0410156,8.83398438 L35.0410156,9.70117188 C34.6972639,9.84961012 34.3720718,9.95605437 34.0654297,10.0205078 C33.7587875,10.0849613 33.388674,10.1171875 32.9550781,10.1171875 L32.9550781,10.1171875 Z M32.6914062,4.27539062 C32.1757787,4.27539062 31.76465,4.4433577 31.4580078,4.77929688 C31.1513657,5.11523605 30.9707034,5.58007516 30.9160156,6.17382812 L34.2734375,6.17382812 C34.2734375,5.56054381 34.1367201,5.09082194 33.8632812,4.76464844 C33.5898424,4.43847493 33.1992213,4.27539062 32.6914062,4.27539062 L32.6914062,4.27539062 Z M39.9042969,3.4609375 C40.1894546,3.4609375 40.4453114,3.48437477 40.671875,3.53125 L40.5371094,4.43359375 C40.271483,4.37499971 40.0371104,4.34570312 39.8339844,4.34570312 C39.3144505,4.34570312 38.870119,4.55663852 38.5009766,4.97851562 C38.1318341,5.40039273 37.9472656,5.92577811 37.9472656,6.5546875 L37.9472656,10 L36.9746094,10 L36.9746094,3.578125 L37.7773438,3.578125 L37.8886719,4.76757812 L37.9355469,4.76757812 C38.1738293,4.34960729 38.4609358,4.02734488 38.796875,3.80078125 C39.1328142,3.57421762 39.5019511,3.4609375 39.9042969,3.4609375 L39.9042969,3.4609375 Z M41.7324219,9.37890625 C41.7324219,9.11718619 41.7919916,8.91894599 41.9111328,8.78417969 C42.030274,8.64941339 42.2011708,8.58203125 42.4238281,8.58203125 C42.6503918,8.58203125 42.8271478,8.64941339 42.9541016,8.78417969 C43.0810553,8.91894599 43.1445312,9.11718619 43.1445312,9.37890625 C43.1445312,9.63281377 43.0800788,9.82812432 42.9511719,9.96484375 C42.822265,10.1015632 42.6464855,10.1699219 42.4238281,10.1699219 C42.2246084,10.1699219 42.059571,10.1083991 41.9287109,9.98535156 C41.7978509,9.86230407 41.7324219,9.66015766 41.7324219,9.37890625 L41.7324219,9.37890625 Z" id="Murder." fill="#000000" sketch:type="MSShapeGroup"></path>
    </g>
</svg>