<?xml version="1.0" encoding="UTF-8" standalone="no"?>
<svg width="154px" height="13px" viewBox="0 0 154 13" version="1.1" xmlns="http://www.w3.org/2000/svg" xmlns:xlink="http://www.w3.org/1999/xlink" xmlns:sketch="http://www.bohemiancoding.com/sketch/ns">
    <!-- Generator: Sketch 3.1.1 (8761) - http://www.bohemiancoding.com/sketch -->
    <title>But the drug wants m</title>
    <desc>Created with Sketch.</desc>
    <defs></defs>
    <g id="Page-1" stroke="none" stroke-width="1" fill="none" fill-rule="evenodd" sketch:type="MSPage">
        <path d="M0.177734375,1.43359375 L2.59765625,1.43359375 C3.73438068,1.43359375 4.55663809,1.60351393 5.06445312,1.94335938 C5.57226816,2.28320482 5.82617187,2.82030883 5.82617187,3.5546875 C5.82617187,4.06250254 5.68457173,4.48144366 5.40136719,4.81152344 C5.11816265,5.14160321 4.70508084,5.35546826 4.16210938,5.453125 L4.16210938,5.51171875 C5.46289713,5.73437611 6.11328125,6.41796303 6.11328125,7.5625 C6.11328125,8.32812883 5.85449478,8.9257791 5.33691406,9.35546875 C4.81933335,9.7851584 4.09570777,10 3.16601562,10 L0.177734375,10 L0.177734375,1.43359375 Z M1.17382812,5.1015625 L2.81445312,5.1015625 C3.51758164,5.1015625 4.02343596,4.99121204 4.33203125,4.77050781 C4.64062654,4.54980358 4.79492188,4.17773699 4.79492188,3.65429688 C4.79492188,3.17382572 4.62304859,2.8271495 4.27929688,2.61425781 C3.93554516,2.40136612 3.38867562,2.29492188 2.63867188,2.29492188 L1.17382812,2.29492188 L1.17382812,5.1015625 Z M1.17382813,5.9453125 L1.17382813,9.15039062 L2.9609375,9.15039062 C3.65234721,9.15039062 4.17284981,9.0166029 4.52246094,8.74902344 C4.87207206,8.48144397 5.046875,8.06250285 5.046875,7.4921875 C5.046875,6.96093484 4.86816585,6.57031375 4.51074219,6.3203125 C4.15331853,6.07031125 3.60937865,5.9453125 2.87890625,5.9453125 L1.17382813,5.9453125 Z M8.72070312,3.578125 L8.72070312,7.74414062 C8.72070312,8.26758074 8.83984256,8.65820184 9.078125,8.91601562 C9.31640744,9.17382941 9.68945059,9.30273438 10.1972656,9.30273438 C10.869144,9.30273438 11.36035,9.11914246 11.6708984,8.75195312 C11.9814469,8.38476379 12.1367188,7.78516041 12.1367188,6.953125 L12.1367188,3.578125 L13.109375,3.578125 L13.109375,10 L12.3066406,10 L12.1660156,9.13867188 L12.1132812,9.13867188 C11.9140615,9.45507971 11.6376971,9.69726479 11.2841797,9.86523438 C10.9306623,10.033204 10.527346,10.1171875 10.0742188,10.1171875 C9.29296484,10.1171875 8.70800976,9.93164248 8.31933594,9.56054688 C7.93066212,9.18945127 7.73632812,8.59570721 7.73632812,7.77929688 L7.73632812,3.578125 L8.72070312,3.578125 Z M17.2460938,9.31445312 C17.4179696,9.31445312 17.5839836,9.30175794 17.7441406,9.27636719 C17.9042977,9.25097644 18.0312495,9.22460951 18.125,9.19726562 L18.125,9.94140625 C18.0195307,9.99218775 17.8642588,10.0341795 17.6591797,10.0673828 C17.4541005,10.1005861 17.2695321,10.1171875 17.1054688,10.1171875 C15.863275,10.1171875 15.2421875,9.46289717 15.2421875,8.15429688 L15.2421875,4.33398438 L14.3222656,4.33398438 L14.3222656,3.86523438 L15.2421875,3.4609375 L15.6523438,2.08984375 L16.2148438,2.08984375 L16.2148438,3.578125 L18.078125,3.578125 L18.078125,4.33398438 L16.2148438,4.33398438 L16.2148438,8.11328125 C16.2148438,8.50000193 16.3066397,8.79687396 16.4902344,9.00390625 C16.673829,9.21093854 16.9257796,9.31445312 17.2460938,9.31445312 L17.2460938,9.31445312 Z M24.5996094,9.31445312 C24.7714852,9.31445312 24.9374992,9.30175794 25.0976562,9.27636719 C25.2578133,9.25097644 25.3847652,9.22460951 25.4785156,9.19726562 L25.4785156,9.94140625 C25.3730463,9.99218775 25.2177745,10.0341795 25.0126953,10.0673828 C24.8076162,10.1005861 24.6230477,10.1171875 24.4589844,10.1171875 C23.2167907,10.1171875 22.5957031,9.46289717 22.5957031,8.15429688 L22.5957031,4.33398438 L21.6757812,4.33398438 L21.6757812,3.86523438 L22.5957031,3.4609375 L23.0058594,2.08984375 L23.5683594,2.08984375 L23.5683594,3.578125 L25.4316406,3.578125 L25.4316406,4.33398438 L23.5683594,4.33398438 L23.5683594,8.11328125 C23.5683594,8.50000193 23.6601553,8.79687396 23.84375,9.00390625 C24.0273447,9.21093854 24.2792953,9.31445312 24.5996094,9.31445312 L24.5996094,9.31445312 Z M31.15625,10 L31.15625,5.84570312 C31.15625,5.32226301 31.0371106,4.93164191 30.7988281,4.67382812 C30.5605457,4.41601434 30.1875025,4.28710938 29.6796875,4.28710938 C29.0039029,4.28710938 28.5107437,4.47070129 28.2001953,4.83789062 C27.8896469,5.20507996 27.734375,5.80663645 27.734375,6.64257813 L27.734375,10 L26.7617188,10 L26.7617188,0.8828125 L27.734375,0.8828125 L27.734375,3.64257812 C27.734375,3.97461104 27.7187502,4.24999891 27.6875,4.46875 L27.7460938,4.46875 C27.937501,4.16015471 28.2099592,3.91699308 28.5634766,3.73925781 C28.916994,3.56152255 29.3203102,3.47265625 29.7734375,3.47265625 C30.5585977,3.47265625 31.147459,3.65917782 31.5400391,4.03222656 C31.9326192,4.4052753 32.1289062,4.99804281 32.1289062,5.81054688 L32.1289062,10 L31.15625,10 Z M36.8398438,10.1171875 C35.8906203,10.1171875 35.1416043,9.82812789 34.5927734,9.25 C34.0439426,8.67187211 33.7695312,7.86914576 33.7695312,6.84179688 C33.7695312,5.80663545 34.0244115,4.98437805 34.5341797,4.375 C35.0439479,3.76562195 35.7285113,3.4609375 36.5878906,3.4609375 C37.3925821,3.4609375 38.0292945,3.72558329 38.4980469,4.25488281 C38.9667992,4.78418233 39.2011719,5.48241754 39.2011719,6.34960938 L39.2011719,6.96484375 L34.7773438,6.96484375 C34.7968751,7.71875377 34.9873029,8.29101367 35.3486328,8.68164062 C35.7099627,9.07226758 36.2187467,9.26757812 36.875,9.26757812 C37.5664097,9.26757812 38.2499966,9.12304832 38.9257812,8.83398438 L38.9257812,9.70117188 C38.5820295,9.84961012 38.2568375,9.95605437 37.9501953,10.0205078 C37.6435532,10.0849613 37.2734397,10.1171875 36.8398438,10.1171875 L36.8398438,10.1171875 Z M36.5761719,4.27539062 C36.0605443,4.27539062 35.6494156,4.4433577 35.3427734,4.77929688 C35.0361313,5.11523605 34.855469,5.58007516 34.8007812,6.17382812 L38.1582031,6.17382812 C38.1582031,5.56054381 38.0214857,5.09082194 37.7480469,4.76464844 C37.474608,4.43847493 37.0839869,4.27539062 36.5761719,4.27539062 L36.5761719,4.27539062 Z M48.3476562,9.13867188 L48.2949219,9.13867188 C47.8457009,9.79101889 47.1738326,10.1171875 46.2792969,10.1171875 C45.4394489,10.1171875 44.7861351,9.830081 44.3193359,9.25585938 C43.8525367,8.68163775 43.6191406,7.86523967 43.6191406,6.80664062 C43.6191406,5.74804158 43.8535133,4.92578418 44.3222656,4.33984375 C44.791018,3.75390332 45.4433552,3.4609375 46.2792969,3.4609375 C47.150395,3.4609375 47.8183571,3.77734059 48.2832031,4.41015625 L48.359375,4.41015625 L48.3183594,3.94726562 L48.2949219,3.49609375 L48.2949219,0.8828125 L49.2675781,0.8828125 L49.2675781,10 L48.4765625,10 L48.3476562,9.13867188 Z M46.4023438,9.30273438 C47.0664096,9.30273438 47.5478501,9.12207212 47.8466797,8.76074219 C48.1455093,8.39941226 48.2949219,7.81641027 48.2949219,7.01171875 L48.2949219,6.80664062 C48.2949219,5.89647982 48.1435562,5.24707226 47.8408203,4.85839844 C47.5380844,4.46972462 47.0546908,4.27539062 46.390625,4.27539062 C45.8203096,4.27539062 45.3837906,4.4970681 45.0810547,4.94042969 C44.7783188,5.38379128 44.6269531,6.00976158 44.6269531,6.81835938 C44.6269531,7.63867598 44.7773422,8.25781041 45.078125,8.67578125 C45.3789078,9.09375209 45.8203096,9.30273438 46.4023438,9.30273438 L46.4023438,9.30273438 Z M54.2597656,3.4609375 C54.5449233,3.4609375 54.8007801,3.48437477 55.0273438,3.53125 L54.8925781,4.43359375 C54.6269518,4.37499971 54.3925791,4.34570312 54.1894531,4.34570312 C53.6699193,4.34570312 53.2255878,4.55663852 52.8564453,4.97851562 C52.4873028,5.40039273 52.3027344,5.92577811 52.3027344,6.5546875 L52.3027344,10 L51.3300781,10 L51.3300781,3.578125 L52.1328125,3.578125 L52.2441406,4.76757812 L52.2910156,4.76757812 C52.5292981,4.34960729 52.8164046,4.02734488 53.1523438,3.80078125 C53.4882829,3.57421762 53.8574199,3.4609375 54.2597656,3.4609375 L54.2597656,3.4609375 Z M57.1425781,3.578125 L57.1425781,7.74414062 C57.1425781,8.26758074 57.2617176,8.65820184 57.5,8.91601562 C57.7382824,9.17382941 58.1113256,9.30273438 58.6191406,9.30273438 C59.291019,9.30273438 59.782225,9.11914246 60.0927734,8.75195312 C60.4033219,8.38476379 60.5585938,7.78516041 60.5585938,6.953125 L60.5585938,3.578125 L61.53125,3.578125 L61.53125,10 L60.7285156,10 L60.5878906,9.13867188 L60.5351562,9.13867188 C60.3359365,9.45507971 60.0595721,9.69726479 59.7060547,9.86523438 C59.3525373,10.033204 58.949221,10.1171875 58.4960938,10.1171875 C57.7148398,10.1171875 57.1298848,9.93164248 56.7412109,9.56054688 C56.3525371,9.18945127 56.1582031,8.59570721 56.1582031,7.77929688 L56.1582031,3.578125 L57.1425781,3.578125 Z M68.8496094,3.578125 L68.8496094,4.19335938 L67.6601562,4.33398438 C67.7695318,4.47070381 67.8671871,4.64941296 67.953125,4.87011719 C68.0390629,5.09082142 68.0820312,5.33984236 68.0820312,5.6171875 C68.0820312,6.24609689 67.8671896,6.748045 67.4375,7.12304688 C67.0078104,7.49804875 66.4179725,7.68554688 65.6679688,7.68554688 C65.4765615,7.68554688 65.2968758,7.66992203 65.1289062,7.63867188 C64.7148417,7.85742297 64.5078125,8.13281084 64.5078125,8.46484375 C64.5078125,8.64062588 64.5800774,8.77050739 64.7246094,8.85449219 C64.8691413,8.93847698 65.1171857,8.98046875 65.46875,8.98046875 L66.6054688,8.98046875 C67.3007847,8.98046875 67.8349591,9.12695166 68.2080078,9.41992188 C68.5810566,9.71289209 68.7675781,10.1386691 68.7675781,10.6972656 C68.7675781,11.4082067 68.4824247,11.9501934 67.9121094,12.3232422 C67.341794,12.6962909 66.5097711,12.8828125 65.4160156,12.8828125 C64.5761677,12.8828125 63.9287132,12.7265641 63.4736328,12.4140625 C63.0185524,12.1015609 62.7910156,11.6601591 62.7910156,11.0898438 C62.7910156,10.6992168 62.9160144,10.3613296 63.1660156,10.0761719 C63.4160169,9.7910142 63.7675759,9.59765676 64.2207031,9.49609375 C64.0566398,9.42187463 63.9189459,9.30664141 63.8076172,9.15039062 C63.6962885,8.99413984 63.640625,8.81250104 63.640625,8.60546875 C63.640625,8.37109258 63.7031244,8.1660165 63.828125,7.99023438 C63.9531256,7.81445225 64.1503893,7.64453207 64.4199219,7.48046875 C64.087889,7.34374932 63.8173839,7.11132977 63.6083984,6.78320312 C63.399413,6.45507648 63.2949219,6.08008023 63.2949219,5.65820312 C63.2949219,4.95507461 63.5058573,4.41308784 63.9277344,4.03222656 C64.3496115,3.65136528 64.9472618,3.4609375 65.7207031,3.4609375 C66.0566423,3.4609375 66.3593737,3.49999961 66.6289062,3.578125 L68.8496094,3.578125 Z M63.7285156,11.078125 C63.7285156,11.425783 63.8749985,11.6894522 64.1679688,11.8691406 C64.460939,12.048829 64.8808566,12.1386719 65.4277344,12.1386719 C66.2441447,12.1386719 66.8486308,12.0166028 67.2412109,11.7724609 C67.633791,11.5283191 67.8300781,11.1972677 67.8300781,10.7792969 C67.8300781,10.4316389 67.7226573,10.1904304 67.5078125,10.0556641 C67.2929677,9.92089776 66.8886748,9.85351562 66.2949219,9.85351562 L65.1289062,9.85351562 C64.6874978,9.85351562 64.3437512,9.95898332 64.0976562,10.1699219 C63.8515613,10.3808604 63.7285156,10.6835918 63.7285156,11.078125 L63.7285156,11.078125 Z M64.2558594,5.63476562 C64.2558594,6.08398662 64.3828112,6.42382697 64.6367188,6.65429688 C64.8906263,6.88476678 65.2441384,7 65.6972656,7 C66.6464891,7 67.1210938,6.53906711 67.1210938,5.6171875 C67.1210938,4.65233893 66.6406298,4.16992188 65.6796875,4.16992188 C65.222654,4.16992188 64.871095,4.29296752 64.625,4.5390625 C64.378905,4.78515748 64.2558594,5.1503882 64.2558594,5.63476562 L64.2558594,5.63476562 Z M78.5292969,10 L77.3515625,6.23242188 C77.2773434,6.00195197 77.1386729,5.47851971 76.9355469,4.66210938 L76.8886719,4.66210938 C76.7324211,5.34570654 76.5957037,5.87304502 76.4785156,6.24414062 L75.265625,10 L74.140625,10 L72.3886719,3.578125 L73.4082031,3.578125 C73.8222677,5.19141432 74.1376942,6.41991766 74.3544922,7.26367188 C74.5712901,8.10742609 74.6953123,8.67577979 74.7265625,8.96875 L74.7734375,8.96875 C74.8164065,8.74609264 74.8857417,8.45800958 74.9814453,8.10449219 C75.0771489,7.75097479 75.1601559,7.47070416 75.2304688,7.26367188 L76.4082031,3.578125 L77.4628906,3.578125 L78.6113281,7.26367188 C78.8300792,7.93555023 78.9785152,8.49999771 79.0566406,8.95703125 L79.1035156,8.95703125 C79.1191407,8.81640555 79.1611325,8.59961084 79.2294922,8.30664062 C79.2978519,8.01367041 79.7050744,6.4375143 80.4511719,3.578125 L81.4589844,3.578125 L79.6835938,10 L78.5292969,10 Z M86.5683594,10 L86.375,9.0859375 L86.328125,9.0859375 C86.0078109,9.48828326 85.6884782,9.76074147 85.3701172,9.90332031 C85.0517562,10.0458992 84.6542993,10.1171875 84.1777344,10.1171875 C83.5410124,10.1171875 83.041994,9.95312664 82.6806641,9.625 C82.3193341,9.29687336 82.1386719,8.83008115 82.1386719,8.22460938 C82.1386719,6.92772789 83.1757709,6.24804719 85.25,6.18554688 L86.3398438,6.15039062 L86.3398438,5.75195312 C86.3398438,5.24804436 86.2314464,4.87597776 86.0146484,4.63574219 C85.7978505,4.39550661 85.4511743,4.27539062 84.9746094,4.27539062 C84.4394504,4.27539062 83.8339878,4.43945148 83.1582031,4.76757812 L82.859375,4.0234375 C83.1757828,3.85156164 83.5224591,3.71679736 83.8994141,3.61914062 C84.2763691,3.52148389 84.654295,3.47265625 85.0332031,3.47265625 C85.798832,3.47265625 86.3662091,3.64257643 86.7353516,3.98242188 C87.104494,4.32226732 87.2890625,4.86718375 87.2890625,5.6171875 L87.2890625,10 L86.5683594,10 Z M84.3710938,9.31445312 C84.9765655,9.31445312 85.4521467,9.14843916 85.7978516,8.81640625 C86.1435564,8.48437334 86.3164062,8.01953424 86.3164062,7.421875 L86.3164062,6.84179688 L85.34375,6.8828125 C84.5703086,6.91015639 84.012697,7.03027237 83.6708984,7.24316406 C83.3290999,7.45605575 83.1582031,7.78710713 83.1582031,8.23632812 C83.1582031,8.58789238 83.2646474,8.85546783 83.4775391,9.0390625 C83.6904308,9.22265717 83.9882793,9.31445312 84.3710938,9.31445312 L84.3710938,9.31445312 Z M93.6875,10 L93.6875,5.84570312 C93.6875,5.32226301 93.5683606,4.93164191 93.3300781,4.67382812 C93.0917957,4.41601434 92.7187525,4.28710938 92.2109375,4.28710938 C91.5390591,4.28710938 91.0468766,4.46874818 90.734375,4.83203125 C90.4218734,5.19531432 90.265625,5.7949177 90.265625,6.63085938 L90.265625,10 L89.2929688,10 L89.2929688,3.578125 L90.0839844,3.578125 L90.2421875,4.45703125 L90.2890625,4.45703125 C90.4882822,4.14062342 90.7675763,3.89550868 91.1269531,3.72167969 C91.4863299,3.54785069 91.8867165,3.4609375 92.328125,3.4609375 C93.1015664,3.4609375 93.6835918,3.64745907 94.0742188,4.02050781 C94.4648457,4.39355655 94.6601562,4.99023027 94.6601562,5.81054688 L94.6601562,10 L93.6875,10 Z M98.7324219,9.31445312 C98.9042977,9.31445312 99.0703117,9.30175794 99.2304687,9.27636719 C99.3906258,9.25097644 99.5175777,9.22460951 99.6113281,9.19726562 L99.6113281,9.94140625 C99.5058588,9.99218775 99.350587,10.0341795 99.1455078,10.0673828 C98.9404287,10.1005861 98.7558602,10.1171875 98.5917969,10.1171875 C97.3496032,10.1171875 96.7285156,9.46289717 96.7285156,8.15429688 L96.7285156,4.33398438 L95.8085937,4.33398438 L95.8085937,3.86523438 L96.7285156,3.4609375 L97.1386719,2.08984375 L97.7011719,2.08984375 L97.7011719,3.578125 L99.5644531,3.578125 L99.5644531,4.33398438 L97.7011719,4.33398438 L97.7011719,8.11328125 C97.7011719,8.50000193 97.7929678,8.79687396 97.9765625,9.00390625 C98.1601572,9.21093854 98.4121078,9.31445312 98.7324219,9.31445312 L98.7324219,9.31445312 Z M105.037109,8.24804688 C105.037109,8.84570611 104.814455,9.306639 104.369141,9.63085938 C103.923826,9.95507975 103.298832,10.1171875 102.494141,10.1171875 C101.642574,10.1171875 100.978518,9.98242322 100.501953,9.71289062 L100.501953,8.81054688 C100.810548,8.96679766 101.1416,9.0898433 101.495117,9.1796875 C101.848635,9.2695317 102.189451,9.31445312 102.517578,9.31445312 C103.025393,9.31445312 103.416014,9.23339925 103.689453,9.07128906 C103.962892,8.90917888 104.099609,8.66211104 104.099609,8.33007812 C104.099609,8.08007687 103.991212,7.86621183 103.774414,7.68847656 C103.557616,7.5107413 103.134769,7.30078246 102.505859,7.05859375 C101.9082,6.83593639 101.4834,6.64160239 101.231445,6.47558594 C100.979491,6.30956948 100.791993,6.1210948 100.668945,5.91015625 C100.545898,5.6992177 100.484375,5.44726709 100.484375,5.15429688 C100.484375,4.63085676 100.697263,4.21777495 101.123047,3.91503906 C101.54883,3.61230317 102.132809,3.4609375 102.875,3.4609375 C103.56641,3.4609375 104.242184,3.60156109 104.902344,3.8828125 L104.556641,4.67382812 C103.912106,4.4082018 103.328128,4.27539062 102.804688,4.27539062 C102.343748,4.27539062 101.996095,4.34765553 101.761719,4.4921875 C101.527343,4.63671947 101.410156,4.83593623 101.410156,5.08984375 C101.410156,5.26171961 101.454101,5.40820252 101.541992,5.52929688 C101.629883,5.65039123 101.771483,5.76562445 101.966797,5.875 C102.16211,5.98437555 102.537107,6.14257709 103.091797,6.34960938 C103.853519,6.62695451 104.368163,6.90624859 104.635742,7.1875 C104.903322,7.46875141 105.037109,7.8222635 105.037109,8.24804688 L105.037109,8.24804688 Z M117.921875,10 L117.921875,5.82226562 C117.921875,5.31054432 117.812501,4.92675909 117.59375,4.67089844 C117.374999,4.41503778 117.035159,4.28710938 116.574219,4.28710938 C115.968747,4.28710938 115.521486,4.46093576 115.232422,4.80859375 C114.943358,5.15625174 114.798828,5.69140264 114.798828,6.4140625 L114.798828,10 L113.826172,10 L113.826172,5.82226562 C113.826172,5.31054432 113.716798,4.92675909 113.498047,4.67089844 C113.279296,4.41503778 112.937502,4.28710938 112.472656,4.28710938 C111.863278,4.28710938 111.416994,4.46972474 111.133789,4.83496094 C110.850585,5.20019714 110.708984,5.79882396 110.708984,6.63085938 L110.708984,10 L109.736328,10 L109.736328,3.578125 L110.527344,3.578125 L110.685547,4.45703125 L110.732422,4.45703125 C110.916017,4.14452969 111.174803,3.9003915 111.508789,3.72460938 C111.842775,3.54882725 112.216795,3.4609375 112.630859,3.4609375 C113.634771,3.4609375 114.291014,3.82421512 114.599609,4.55078125 L114.646484,4.55078125 C114.837892,4.21484207 115.115233,3.94921973 115.478516,3.75390625 C115.841799,3.55859277 116.255857,3.4609375 116.720703,3.4609375 C117.447269,3.4609375 117.991209,3.64745907 118.352539,4.02050781 C118.713869,4.39355655 118.894531,4.99023027 118.894531,5.81054688 L118.894531,10 L117.921875,10 Z M121.8125,3.578125 L121.8125,7.74414062 C121.8125,8.26758074 121.931639,8.65820184 122.169922,8.91601562 C122.408204,9.17382941 122.781247,9.30273438 123.289062,9.30273438 C123.960941,9.30273438 124.452147,9.11914246 124.762695,8.75195312 C125.073244,8.38476379 125.228516,7.78516041 125.228516,6.953125 L125.228516,3.578125 L126.201172,3.578125 L126.201172,10 L125.398438,10 L125.257812,9.13867188 L125.205078,9.13867188 C125.005858,9.45507971 124.729494,9.69726479 124.375977,9.86523438 C124.022459,10.033204 123.619143,10.1171875 123.166016,10.1171875 C122.384762,10.1171875 121.799807,9.93164248 121.411133,9.56054688 C121.022459,9.18945127 120.828125,8.59570721 120.828125,7.77929688 L120.828125,3.578125 L121.8125,3.578125 Z M131.193359,3.4609375 C131.478517,3.4609375 131.734374,3.48437477 131.960938,3.53125 L131.826172,4.43359375 C131.560546,4.37499971 131.326173,4.34570312 131.123047,4.34570312 C130.603513,4.34570312 130.159182,4.55663852 129.790039,4.97851562 C129.420897,5.40039273 129.236328,5.92577811 129.236328,6.5546875 L129.236328,10 L128.263672,10 L128.263672,3.578125 L129.066406,3.578125 L129.177734,4.76757812 L129.224609,4.76757812 C129.462892,4.34960729 129.749998,4.02734488 130.085938,3.80078125 C130.421877,3.57421762 130.791014,3.4609375 131.193359,3.4609375 L131.193359,3.4609375 Z M137.292969,9.13867188 L137.240234,9.13867188 C136.791013,9.79101889 136.119145,10.1171875 135.224609,10.1171875 C134.384761,10.1171875 133.731448,9.830081 133.264648,9.25585938 C132.797849,8.68163775 132.564453,7.86523967 132.564453,6.80664062 C132.564453,5.74804158 132.798826,4.92578418 133.267578,4.33984375 C133.73633,3.75390332 134.388668,3.4609375 135.224609,3.4609375 C136.095707,3.4609375 136.76367,3.77734059 137.228516,4.41015625 L137.304688,4.41015625 L137.263672,3.94726562 L137.240234,3.49609375 L137.240234,0.8828125 L138.212891,0.8828125 L138.212891,10 L137.421875,10 L137.292969,9.13867188 Z M135.347656,9.30273438 C136.011722,9.30273438 136.493163,9.12207212 136.791992,8.76074219 C137.090822,8.39941226 137.240234,7.81641027 137.240234,7.01171875 L137.240234,6.80664062 C137.240234,5.89647982 137.088869,5.24707226 136.786133,4.85839844 C136.483397,4.46972462 136.000003,4.27539062 135.335938,4.27539062 C134.765622,4.27539062 134.329103,4.4970681 134.026367,4.94042969 C133.723631,5.38379128 133.572266,6.00976158 133.572266,6.81835938 C133.572266,7.63867598 133.722655,8.25781041 134.023438,8.67578125 C134.32422,9.09375209 134.765622,9.30273438 135.347656,9.30273438 L135.347656,9.30273438 Z M142.988281,10.1171875 C142.039058,10.1171875 141.290042,9.82812789 140.741211,9.25 C140.19238,8.67187211 139.917969,7.86914576 139.917969,6.84179688 C139.917969,5.80663545 140.172849,4.98437805 140.682617,4.375 C141.192385,3.76562195 141.876949,3.4609375 142.736328,3.4609375 C143.54102,3.4609375 144.177732,3.72558329 144.646484,4.25488281 C145.115237,4.78418233 145.349609,5.48241754 145.349609,6.34960938 L145.349609,6.96484375 L140.925781,6.96484375 C140.945313,7.71875377 141.13574,8.29101367 141.49707,8.68164062 C141.8584,9.07226758 142.367184,9.26757812 143.023438,9.26757812 C143.714847,9.26757812 144.398434,9.12304832 145.074219,8.83398438 L145.074219,9.70117188 C144.730467,9.84961012 144.405275,9.95605437 144.098633,10.0205078 C143.791991,10.0849613 143.421877,10.1171875 142.988281,10.1171875 L142.988281,10.1171875 Z M142.724609,4.27539062 C142.208982,4.27539062 141.797853,4.4433577 141.491211,4.77929688 C141.184569,5.11523605 141.003907,5.58007516 140.949219,6.17382812 L144.306641,6.17382812 C144.306641,5.56054381 144.169923,5.09082194 143.896484,4.76464844 C143.623046,4.43847493 143.232424,4.27539062 142.724609,4.27539062 L142.724609,4.27539062 Z M149.9375,3.4609375 C150.222658,3.4609375 150.478514,3.48437477 150.705078,3.53125 L150.570312,4.43359375 C150.304686,4.37499971 150.070314,4.34570312 149.867188,4.34570312 C149.347654,4.34570312 148.903322,4.55663852 148.53418,4.97851562 C148.165037,5.40039273 147.980469,5.92577811 147.980469,6.5546875 L147.980469,10 L147.007812,10 L147.007812,3.578125 L147.810547,3.578125 L147.921875,4.76757812 L147.96875,4.76757812 C148.207032,4.34960729 148.494139,4.02734488 148.830078,3.80078125 C149.166017,3.57421762 149.535154,3.4609375 149.9375,3.4609375 L149.9375,3.4609375 Z M151.765625,9.37890625 C151.765625,9.11718619 151.825195,8.91894599 151.944336,8.78417969 C152.063477,8.64941339 152.234374,8.58203125 152.457031,8.58203125 C152.683595,8.58203125 152.860351,8.64941339 152.987305,8.78417969 C153.114258,8.91894599 153.177734,9.11718619 153.177734,9.37890625 C153.177734,9.63281377 153.113282,9.82812432 152.984375,9.96484375 C152.855468,10.1015632 152.679689,10.1699219 152.457031,10.1699219 C152.257812,10.1699219 152.092774,10.1083991 151.961914,9.98535156 C151.831054,9.86230407 151.765625,9.66015766 151.765625,9.37890625 L151.765625,9.37890625 Z" id="But-the-drug-wants-m" fill="#000000" sketch:type="MSShapeGroup"></path>
    </g>
</svg>