<?xml version="1.0" encoding="UTF-8" standalone="no"?>
<svg width="71px" height="13px" viewBox="0 0 71 13" version="1.1" xmlns="http://www.w3.org/2000/svg" xmlns:xlink="http://www.w3.org/1999/xlink" xmlns:sketch="http://www.bohemiancoding.com/sketch/ns">
    <!-- Generator: Sketch 3.1.1 (8761) - http://www.bohemiancoding.com/sketch -->
    <title>Dad is funny.</title>
    <desc>Created with Sketch.</desc>
    <defs></defs>
    <g id="Page-1" stroke="none" stroke-width="1" fill="none" fill-rule="evenodd" sketch:type="MSPage">
        <path d="M7.015625,5.63476562 C7.015625,7.0488352 6.63183978,8.12987907 5.86425781,8.87792969 C5.09667585,9.6259803 3.99219471,10 2.55078125,10 L0.177734375,10 L0.177734375,1.43359375 L2.80273438,1.43359375 C4.13477229,1.43359375 5.16991818,1.80273068 5.90820312,2.54101562 C6.64648807,3.27930057 7.015625,4.31054025 7.015625,5.63476562 L7.015625,5.63476562 Z M5.9609375,5.66992188 C5.9609375,4.55272879 5.68066687,3.71094033 5.12011719,3.14453125 C4.55956751,2.57812217 3.72656803,2.29492188 2.62109375,2.29492188 L1.17382812,2.29492188 L1.17382812,9.13867188 L2.38671875,9.13867188 C3.57422469,9.13867188 4.46679389,8.84668261 5.06445312,8.26269531 C5.66211236,7.67870802 5.9609375,6.81445885 5.9609375,5.66992188 L5.9609375,5.66992188 Z M12.7285156,10 L12.5351562,9.0859375 L12.4882812,9.0859375 C12.1679671,9.48828326 11.8486344,9.76074147 11.5302734,9.90332031 C11.2119125,10.0458992 10.8144555,10.1171875 10.3378906,10.1171875 C9.70116869,10.1171875 9.20215024,9.95312664 8.84082031,9.625 C8.47949038,9.29687336 8.29882812,8.83008115 8.29882812,8.22460938 C8.29882812,6.92772789 9.33592713,6.24804719 11.4101562,6.18554688 L12.5,6.15039062 L12.5,5.75195312 C12.5,5.24804436 12.3916026,4.87597776 12.1748047,4.63574219 C11.9580067,4.39550661 11.6113305,4.27539062 11.1347656,4.27539062 C10.5996067,4.27539062 9.994144,4.43945148 9.31835938,4.76757812 L9.01953125,4.0234375 C9.33593908,3.85156164 9.6826153,3.71679736 10.0595703,3.61914062 C10.4365253,3.52148389 10.8144512,3.47265625 11.1933594,3.47265625 C11.9589882,3.47265625 12.5263653,3.64257643 12.8955078,3.98242188 C13.2646503,4.32226732 13.4492188,4.86718375 13.4492188,5.6171875 L13.4492188,10 L12.7285156,10 Z M10.53125,9.31445312 C11.1367218,9.31445312 11.612303,9.14843916 11.9580078,8.81640625 C12.3037127,8.48437334 12.4765625,8.01953424 12.4765625,7.421875 L12.4765625,6.84179688 L11.5039062,6.8828125 C10.7304649,6.91015639 10.1728533,7.03027237 9.83105469,7.24316406 C9.4892561,7.45605575 9.31835938,7.78710713 9.31835938,8.23632812 C9.31835938,8.58789238 9.42480362,8.85546783 9.63769531,9.0390625 C9.850587,9.22265717 10.1484356,9.31445312 10.53125,9.31445312 L10.53125,9.31445312 Z M19.8242188,9.13867188 L19.7714844,9.13867188 C19.3222634,9.79101889 18.6503951,10.1171875 17.7558594,10.1171875 C16.9160114,10.1171875 16.2626976,9.830081 15.7958984,9.25585938 C15.3290992,8.68163775 15.0957031,7.86523967 15.0957031,6.80664062 C15.0957031,5.74804158 15.3300758,4.92578418 15.7988281,4.33984375 C16.2675805,3.75390332 16.9199177,3.4609375 17.7558594,3.4609375 C18.6269575,3.4609375 19.2949196,3.77734059 19.7597656,4.41015625 L19.8359375,4.41015625 L19.7949219,3.94726562 L19.7714844,3.49609375 L19.7714844,0.8828125 L20.7441406,0.8828125 L20.7441406,10 L19.953125,10 L19.8242188,9.13867188 Z M17.8789062,9.30273438 C18.5429721,9.30273438 19.0244126,9.12207212 19.3232422,8.76074219 C19.6220718,8.39941226 19.7714844,7.81641027 19.7714844,7.01171875 L19.7714844,6.80664062 C19.7714844,5.89647982 19.6201187,5.24707226 19.3173828,4.85839844 C19.0146469,4.46972462 18.5312533,4.27539062 17.8671875,4.27539062 C17.2968721,4.27539062 16.8603531,4.4970681 16.5576172,4.94042969 C16.2548813,5.38379128 16.1035156,6.00976158 16.1035156,6.81835938 C16.1035156,7.63867598 16.2539047,8.25781041 16.5546875,8.67578125 C16.8554703,9.09375209 17.2968721,9.30273438 17.8789062,9.30273438 L17.8789062,9.30273438 Z M26.8964844,10 L25.9238281,10 L25.9238281,3.578125 L26.8964844,3.578125 L26.8964844,10 Z M25.8417969,1.83789062 C25.8417969,1.61523326 25.8964838,1.45214896 26.0058594,1.34863281 C26.1152349,1.24511667 26.2519523,1.19335938 26.4160156,1.19335938 C26.5722664,1.19335938 26.7070307,1.24609322 26.8203125,1.3515625 C26.9335943,1.45703178 26.9902344,1.61913953 26.9902344,1.83789062 C26.9902344,2.05664172 26.9335943,2.21972603 26.8203125,2.32714844 C26.7070307,2.43457085 26.5722664,2.48828125 26.4160156,2.48828125 C26.2519523,2.48828125 26.1152349,2.43457085 26.0058594,2.32714844 C25.8964838,2.21972603 25.8417969,2.05664172 25.8417969,1.83789062 L25.8417969,1.83789062 Z M33.1015625,8.24804688 C33.1015625,8.84570611 32.8789085,9.306639 32.4335938,9.63085938 C31.988279,9.95507975 31.3632853,10.1171875 30.5585938,10.1171875 C29.707027,10.1171875 29.0429711,9.98242322 28.5664062,9.71289062 L28.5664062,8.81054688 C28.8750015,8.96679766 29.2060529,9.0898433 29.5595703,9.1796875 C29.9130877,9.2695317 30.2539046,9.31445312 30.5820312,9.31445312 C31.0898463,9.31445312 31.4804674,9.23339925 31.7539062,9.07128906 C32.0273451,8.90917888 32.1640625,8.66211104 32.1640625,8.33007812 C32.1640625,8.08007687 32.0556651,7.86621183 31.8388672,7.68847656 C31.6220692,7.5107413 31.1992219,7.30078246 30.5703125,7.05859375 C29.9726533,6.83593639 29.5478528,6.64160239 29.2958984,6.47558594 C29.0439441,6.30956948 28.8564459,6.1210948 28.7333984,5.91015625 C28.6103509,5.6992177 28.5488281,5.44726709 28.5488281,5.15429688 C28.5488281,4.63085676 28.7617166,4.21777495 29.1875,3.91503906 C29.6132834,3.61230317 30.1972619,3.4609375 30.9394531,3.4609375 C31.6308628,3.4609375 32.3066373,3.60156109 32.9667969,3.8828125 L32.6210938,4.67382812 C31.9765593,4.4082018 31.3925807,4.27539062 30.8691406,4.27539062 C30.4082008,4.27539062 30.060548,4.34765553 29.8261719,4.4921875 C29.5917957,4.63671947 29.4746094,4.83593623 29.4746094,5.08984375 C29.4746094,5.26171961 29.5185542,5.40820252 29.6064453,5.52929688 C29.6943364,5.65039123 29.8359365,5.76562445 30.03125,5.875 C30.2265635,5.98437555 30.6015597,6.14257709 31.15625,6.34960938 C31.9179726,6.62695451 32.4326158,6.90624859 32.7001953,7.1875 C32.9677748,7.46875141 33.1015625,7.8222635 33.1015625,8.24804688 L33.1015625,8.24804688 Z M40.6953125,4.33398438 L39.0605469,4.33398438 L39.0605469,10 L38.0878906,10 L38.0878906,4.33398438 L36.9394531,4.33398438 L36.9394531,3.89453125 L38.0878906,3.54296875 L38.0878906,3.18554688 C38.0878906,1.60741398 38.7773369,0.818359375 40.15625,0.818359375 C40.4960954,0.818359375 40.894529,0.886718066 41.3515625,1.0234375 L41.0996094,1.80273438 C40.7246075,1.68164002 40.4042982,1.62109375 40.1386719,1.62109375 C39.7714825,1.62109375 39.5000009,1.74316284 39.3242188,1.98730469 C39.1484366,2.23144653 39.0605469,2.62304418 39.0605469,3.16210938 L39.0605469,3.578125 L40.6953125,3.578125 L40.6953125,4.33398438 Z M42.78125,3.578125 L42.78125,7.74414062 C42.78125,8.26758074 42.9003894,8.65820184 43.1386719,8.91601562 C43.3769543,9.17382941 43.7499975,9.30273438 44.2578125,9.30273438 C44.9296909,9.30273438 45.4208969,9.11914246 45.7314453,8.75195312 C46.0419937,8.38476379 46.1972656,7.78516041 46.1972656,6.953125 L46.1972656,3.578125 L47.1699219,3.578125 L47.1699219,10 L46.3671875,10 L46.2265625,9.13867188 L46.1738281,9.13867188 C45.9746084,9.45507971 45.698244,9.69726479 45.3447266,9.86523438 C44.9912092,10.033204 44.5878929,10.1171875 44.1347656,10.1171875 C43.3535117,10.1171875 42.7685566,9.93164248 42.3798828,9.56054688 C41.991209,9.18945127 41.796875,8.59570721 41.796875,7.77929688 L41.796875,3.578125 L42.78125,3.578125 Z M53.6269531,10 L53.6269531,5.84570312 C53.6269531,5.32226301 53.5078137,4.93164191 53.2695312,4.67382812 C53.0312488,4.41601434 52.6582057,4.28710938 52.1503906,4.28710938 C51.4785123,4.28710938 50.9863297,4.46874818 50.6738281,4.83203125 C50.3613266,5.19531432 50.2050781,5.7949177 50.2050781,6.63085938 L50.2050781,10 L49.2324219,10 L49.2324219,3.578125 L50.0234375,3.578125 L50.1816406,4.45703125 L50.2285156,4.45703125 C50.4277354,4.14062342 50.7070295,3.89550868 51.0664062,3.72167969 C51.425783,3.54785069 51.8261697,3.4609375 52.2675781,3.4609375 C53.0410195,3.4609375 53.6230449,3.64745907 54.0136719,4.02050781 C54.4042988,4.39355655 54.5996094,4.99023027 54.5996094,5.81054688 L54.5996094,10 L53.6269531,10 Z M60.9921875,10 L60.9921875,5.84570312 C60.9921875,5.32226301 60.8730481,4.93164191 60.6347656,4.67382812 C60.3964832,4.41601434 60.02344,4.28710938 59.515625,4.28710938 C58.8437466,4.28710938 58.3515641,4.46874818 58.0390625,4.83203125 C57.7265609,5.19531432 57.5703125,5.7949177 57.5703125,6.63085938 L57.5703125,10 L56.5976562,10 L56.5976562,3.578125 L57.3886719,3.578125 L57.546875,4.45703125 L57.59375,4.45703125 C57.7929697,4.14062342 58.0722638,3.89550868 58.4316406,3.72167969 C58.7910174,3.54785069 59.191404,3.4609375 59.6328125,3.4609375 C60.4062539,3.4609375 60.9882793,3.64745907 61.3789062,4.02050781 C61.7695332,4.39355655 61.9648438,4.99023027 61.9648438,5.81054688 L61.9648438,10 L60.9921875,10 Z M62.9433594,3.578125 L63.9863281,3.578125 L65.3925781,7.24023438 C65.7011734,8.07617605 65.8925778,8.67968564 65.9667969,9.05078125 L66.0136719,9.05078125 C66.0644534,8.8515615 66.1708976,8.5107446 66.3330078,8.02832031 C66.495118,7.54589603 67.0253861,6.06251242 67.9238281,3.578125 L68.9667969,3.578125 L66.2070312,10.890625 C65.9335924,11.6132849 65.6142596,12.125975 65.2490234,12.4287109 C64.8837872,12.7314468 64.4355495,12.8828125 63.9042969,12.8828125 C63.6074204,12.8828125 63.3144546,12.8496097 63.0253906,12.7832031 L63.0253906,12.0039062 C63.2402354,12.0507815 63.4804674,12.0742188 63.7460938,12.0742188 C64.4140658,12.0742188 64.8906236,11.6992225 65.1757812,10.9492188 L65.5332031,10.0351562 L62.9433594,3.578125 Z M69.3886719,9.37890625 C69.3886719,9.11718619 69.4482416,8.91894599 69.5673828,8.78417969 C69.686524,8.64941339 69.8574208,8.58203125 70.0800781,8.58203125 C70.3066418,8.58203125 70.4833978,8.64941339 70.6103516,8.78417969 C70.7373053,8.91894599 70.8007812,9.11718619 70.8007812,9.37890625 C70.8007812,9.63281377 70.7363288,9.82812432 70.6074219,9.96484375 C70.478515,10.1015632 70.3027355,10.1699219 70.0800781,10.1699219 C69.8808584,10.1699219 69.715821,10.1083991 69.5849609,9.98535156 C69.4541009,9.86230407 69.3886719,9.66015766 69.3886719,9.37890625 L69.3886719,9.37890625 Z" id="Dad-is-funny." fill="#000000" sketch:type="MSShapeGroup"></path>
    </g>
</svg>