<?xml version="1.0" encoding="UTF-8" standalone="no"?>
<svg width="105px" height="13px" viewBox="0 0 105 13" version="1.1" xmlns="http://www.w3.org/2000/svg" xmlns:xlink="http://www.w3.org/1999/xlink" xmlns:sketch="http://www.bohemiancoding.com/sketch/ns">
    <!-- Generator: Sketch 3.1.1 (8761) - http://www.bohemiancoding.com/sketch -->
    <title>Blood of strangers.</title>
    <desc>Created with Sketch.</desc>
    <defs></defs>
    <g id="Page-1" stroke="none" stroke-width="1" fill="none" fill-rule="evenodd" sketch:type="MSPage">
        <path d="M0.177734375,1.43359375 L2.59765625,1.43359375 C3.73438068,1.43359375 4.55663809,1.60351393 5.06445312,1.94335938 C5.57226816,2.28320482 5.82617188,2.82030883 5.82617188,3.5546875 C5.82617188,4.06250254 5.68457173,4.48144366 5.40136719,4.81152344 C5.11816265,5.14160321 4.70508084,5.35546826 4.16210938,5.453125 L4.16210938,5.51171875 C5.46289713,5.73437611 6.11328125,6.41796303 6.11328125,7.5625 C6.11328125,8.32812883 5.85449478,8.9257791 5.33691406,9.35546875 C4.81933335,9.7851584 4.09570777,10 3.16601563,10 L0.177734375,10 L0.177734375,1.43359375 Z M1.17382813,5.1015625 L2.81445312,5.1015625 C3.51758164,5.1015625 4.02343596,4.99121204 4.33203125,4.77050781 C4.64062654,4.54980358 4.79492188,4.17773699 4.79492188,3.65429688 C4.79492188,3.17382572 4.62304859,2.8271495 4.27929688,2.61425781 C3.93554516,2.40136612 3.38867562,2.29492188 2.63867188,2.29492188 L1.17382813,2.29492188 L1.17382813,5.1015625 Z M1.17382812,5.9453125 L1.17382812,9.15039062 L2.9609375,9.15039062 C3.65234721,9.15039062 4.17284981,9.0166029 4.52246094,8.74902344 C4.87207206,8.48144397 5.046875,8.06250285 5.046875,7.4921875 C5.046875,6.96093484 4.86816585,6.57031375 4.51074219,6.3203125 C4.15331853,6.07031125 3.60937865,5.9453125 2.87890625,5.9453125 L1.17382812,5.9453125 Z M8.77929688,10 L7.80664062,10 L7.80664062,0.8828125 L8.77929688,0.8828125 L8.77929688,10 Z M16.3847656,6.78320312 C16.3847656,7.83008336 16.1210964,8.647458 15.59375,9.23535156 C15.0664036,9.82324513 14.3378953,10.1171875 13.4082031,10.1171875 C12.8339815,10.1171875 12.324221,9.98242322 11.8789062,9.71289062 C11.4335915,9.44335803 11.089845,9.05664314 10.8476562,8.55273438 C10.6054675,8.04882561 10.484375,7.45898775 10.484375,6.78320312 C10.484375,5.73632289 10.7460911,4.92090136 11.2695312,4.33691406 C11.7929714,3.75292677 12.5195266,3.4609375 13.4492188,3.4609375 C14.3476607,3.4609375 15.0615208,3.75976264 15.5908203,4.35742188 C16.1201198,4.95508111 16.3847656,5.76366678 16.3847656,6.78320312 L16.3847656,6.78320312 Z M11.4921875,6.78320312 C11.4921875,7.60351973 11.6562484,8.22851348 11.984375,8.65820312 C12.3125016,9.08789277 12.7949187,9.30273438 13.4316406,9.30273438 C14.0683626,9.30273438 14.5517562,9.08886933 14.8818359,8.66113281 C15.2119157,8.2333963 15.3769531,7.607426 15.3769531,6.78320312 C15.3769531,5.96679279 15.2119157,5.34668181 14.8818359,4.92285156 C14.5517562,4.49902132 14.0644563,4.28710938 13.4199219,4.28710938 C12.7831999,4.28710938 12.302736,4.49609166 11.9785156,4.9140625 C11.6542953,5.33203334 11.4921875,5.95507398 11.4921875,6.78320312 L11.4921875,6.78320312 Z M23.6328125,6.78320312 C23.6328125,7.83008336 23.3691433,8.647458 22.8417969,9.23535156 C22.3144505,9.82324513 21.5859421,10.1171875 20.65625,10.1171875 C20.0820284,10.1171875 19.5722679,9.98242322 19.1269531,9.71289062 C18.6816384,9.44335803 18.3378918,9.05664314 18.0957031,8.55273438 C17.8535144,8.04882561 17.7324219,7.45898775 17.7324219,6.78320312 C17.7324219,5.73632289 17.994138,4.92090136 18.5175781,4.33691406 C19.0410182,3.75292677 19.7675735,3.4609375 20.6972656,3.4609375 C21.5957076,3.4609375 22.3095677,3.75976264 22.8388672,4.35742188 C23.3681667,4.95508111 23.6328125,5.76366678 23.6328125,6.78320312 L23.6328125,6.78320312 Z M18.7402344,6.78320312 C18.7402344,7.60351973 18.9042952,8.22851348 19.2324219,8.65820312 C19.5605485,9.08789277 20.0429656,9.30273438 20.6796875,9.30273438 C21.3164094,9.30273438 21.799803,9.08886933 22.1298828,8.66113281 C22.4599626,8.2333963 22.625,7.607426 22.625,6.78320312 C22.625,5.96679279 22.4599626,5.34668181 22.1298828,4.92285156 C21.799803,4.49902132 21.3125032,4.28710938 20.6679688,4.28710938 C20.0312468,4.28710938 19.5507829,4.49609166 19.2265625,4.9140625 C18.9023421,5.33203334 18.7402344,5.95507398 18.7402344,6.78320312 L18.7402344,6.78320312 Z M29.7089844,9.13867188 L29.65625,9.13867188 C29.207029,9.79101889 28.5351607,10.1171875 27.640625,10.1171875 C26.8007771,10.1171875 26.1474633,9.830081 25.6806641,9.25585938 C25.2138649,8.68163775 24.9804688,7.86523967 24.9804688,6.80664062 C24.9804688,5.74804158 25.2148414,4.92578418 25.6835938,4.33984375 C26.1523461,3.75390332 26.8046833,3.4609375 27.640625,3.4609375 C28.5117231,3.4609375 29.1796852,3.77734059 29.6445312,4.41015625 L29.7207031,4.41015625 L29.6796875,3.94726562 L29.65625,3.49609375 L29.65625,0.8828125 L30.6289062,0.8828125 L30.6289062,10 L29.8378906,10 L29.7089844,9.13867188 Z M27.7636719,9.30273438 C28.4277377,9.30273438 28.9091782,9.12207212 29.2080078,8.76074219 C29.5068374,8.39941226 29.65625,7.81641027 29.65625,7.01171875 L29.65625,6.80664062 C29.65625,5.89647982 29.5048843,5.24707226 29.2021484,4.85839844 C28.8994125,4.46972462 28.4160189,4.27539062 27.7519531,4.27539062 C27.1816378,4.27539062 26.7451187,4.4970681 26.4423828,4.94042969 C26.1396469,5.38379128 25.9882812,6.00976158 25.9882812,6.81835938 C25.9882812,7.63867598 26.1386704,8.25781041 26.4394531,8.67578125 C26.7402359,9.09375209 27.1816377,9.30273438 27.7636719,9.30273438 L27.7636719,9.30273438 Z M41.3515625,6.78320312 C41.3515625,7.83008336 41.0878933,8.647458 40.5605469,9.23535156 C40.0332005,9.82324513 39.3046921,10.1171875 38.375,10.1171875 C37.8007784,10.1171875 37.2910179,9.98242322 36.8457031,9.71289062 C36.4003884,9.44335803 36.0566418,9.05664314 35.8144531,8.55273438 C35.5722644,8.04882561 35.4511719,7.45898775 35.4511719,6.78320312 C35.4511719,5.73632289 35.712888,4.92090136 36.2363281,4.33691406 C36.7597682,3.75292677 37.4863235,3.4609375 38.4160156,3.4609375 C39.3144576,3.4609375 40.0283177,3.75976264 40.5576172,4.35742188 C41.0869167,4.95508111 41.3515625,5.76366678 41.3515625,6.78320312 L41.3515625,6.78320312 Z M36.4589844,6.78320312 C36.4589844,7.60351973 36.6230452,8.22851348 36.9511719,8.65820312 C37.2792985,9.08789277 37.7617156,9.30273438 38.3984375,9.30273438 C39.0351594,9.30273438 39.518553,9.08886933 39.8486328,8.66113281 C40.1787126,8.2333963 40.34375,7.607426 40.34375,6.78320312 C40.34375,5.96679279 40.1787126,5.34668181 39.8486328,4.92285156 C39.518553,4.49902132 39.0312532,4.28710938 38.3867188,4.28710938 C37.7499968,4.28710938 37.2695329,4.49609166 36.9453125,4.9140625 C36.6210921,5.33203334 36.4589844,5.95507398 36.4589844,6.78320312 L36.4589844,6.78320312 Z M45.9511719,4.33398438 L44.3164062,4.33398438 L44.3164062,10 L43.34375,10 L43.34375,4.33398438 L42.1953125,4.33398438 L42.1953125,3.89453125 L43.34375,3.54296875 L43.34375,3.18554688 C43.34375,1.60741398 44.0331962,0.818359375 45.4121094,0.818359375 C45.7519548,0.818359375 46.1503883,0.886718066 46.6074219,1.0234375 L46.3554688,1.80273438 C45.9804669,1.68164002 45.6601576,1.62109375 45.3945312,1.62109375 C45.0273419,1.62109375 44.7558603,1.74316284 44.5800781,1.98730469 C44.404296,2.23144653 44.3164062,2.62304418 44.3164062,3.16210938 L44.3164062,3.578125 L45.9511719,3.578125 L45.9511719,4.33398438 Z M54.3828125,8.24804688 C54.3828125,8.84570611 54.1601585,9.306639 53.7148438,9.63085938 C53.269529,9.95507975 52.6445353,10.1171875 51.8398438,10.1171875 C50.988277,10.1171875 50.3242211,9.98242322 49.8476562,9.71289062 L49.8476562,8.81054688 C50.1562515,8.96679766 50.4873029,9.0898433 50.8408203,9.1796875 C51.1943377,9.2695317 51.5351546,9.31445312 51.8632812,9.31445312 C52.3710963,9.31445312 52.7617174,9.23339925 53.0351562,9.07128906 C53.3085951,8.90917888 53.4453125,8.66211104 53.4453125,8.33007812 C53.4453125,8.08007688 53.3369151,7.86621183 53.1201172,7.68847656 C52.9033192,7.5107413 52.4804719,7.30078246 51.8515625,7.05859375 C51.2539033,6.83593639 50.8291028,6.64160239 50.5771484,6.47558594 C50.3251941,6.30956948 50.1376959,6.1210948 50.0146484,5.91015625 C49.8916009,5.6992177 49.8300781,5.44726709 49.8300781,5.15429688 C49.8300781,4.63085676 50.0429666,4.21777495 50.46875,3.91503906 C50.8945334,3.61230317 51.4785119,3.4609375 52.2207031,3.4609375 C52.9121128,3.4609375 53.5878873,3.60156109 54.2480469,3.8828125 L53.9023438,4.67382812 C53.2578093,4.4082018 52.6738307,4.27539062 52.1503906,4.27539062 C51.6894508,4.27539062 51.341798,4.34765553 51.1074219,4.4921875 C50.8730457,4.63671947 50.7558594,4.83593623 50.7558594,5.08984375 C50.7558594,5.26171961 50.7998042,5.40820252 50.8876953,5.52929688 C50.9755864,5.65039123 51.1171865,5.76562445 51.3125,5.875 C51.5078135,5.98437555 51.8828097,6.14257709 52.4375,6.34960938 C53.1992226,6.62695451 53.7138658,6.90624859 53.9814453,7.1875 C54.2490248,7.46875141 54.3828125,7.8222635 54.3828125,8.24804688 L54.3828125,8.24804688 Z M58.0390625,9.31445312 C58.2109384,9.31445312 58.3769523,9.30175794 58.5371094,9.27636719 C58.6972664,9.25097644 58.8242183,9.22460951 58.9179688,9.19726562 L58.9179688,9.94140625 C58.8124995,9.99218775 58.6572276,10.0341795 58.4521484,10.0673828 C58.2470693,10.1005861 58.0625008,10.1171875 57.8984375,10.1171875 C56.6562438,10.1171875 56.0351562,9.46289717 56.0351562,8.15429688 L56.0351562,4.33398438 L55.1152344,4.33398438 L55.1152344,3.86523438 L56.0351562,3.4609375 L56.4453125,2.08984375 L57.0078125,2.08984375 L57.0078125,3.578125 L58.8710938,3.578125 L58.8710938,4.33398438 L57.0078125,4.33398438 L57.0078125,8.11328125 C57.0078125,8.50000193 57.0996085,8.79687396 57.2832031,9.00390625 C57.4667978,9.21093854 57.7187484,9.31445312 58.0390625,9.31445312 L58.0390625,9.31445312 Z M63.1308594,3.4609375 C63.4160171,3.4609375 63.6718739,3.48437477 63.8984375,3.53125 L63.7636719,4.43359375 C63.4980455,4.37499971 63.2636729,4.34570312 63.0605469,4.34570312 C62.541013,4.34570312 62.0966815,4.55663852 61.7275391,4.97851562 C61.3583966,5.40039273 61.1738281,5.92577811 61.1738281,6.5546875 L61.1738281,10 L60.2011719,10 L60.2011719,3.578125 L61.0039062,3.578125 L61.1152344,4.76757812 L61.1621094,4.76757812 C61.4003918,4.34960729 61.6874983,4.02734488 62.0234375,3.80078125 C62.3593767,3.57421762 62.7285136,3.4609375 63.1308594,3.4609375 L63.1308594,3.4609375 Z M68.8085938,10 L68.6152344,9.0859375 L68.5683594,9.0859375 C68.2480453,9.48828326 67.9287125,9.76074147 67.6103516,9.90332031 C67.2919906,10.0458992 66.8945336,10.1171875 66.4179688,10.1171875 C65.7812468,10.1171875 65.2822284,9.95312664 64.9208984,9.625 C64.5595685,9.29687336 64.3789062,8.83008115 64.3789062,8.22460938 C64.3789062,6.92772789 65.4160053,6.24804719 67.4902344,6.18554688 L68.5800781,6.15039062 L68.5800781,5.75195312 C68.5800781,5.24804436 68.4716808,4.87597776 68.2548828,4.63574219 C68.0380849,4.39550661 67.6914086,4.27539062 67.2148438,4.27539062 C66.6796848,4.27539062 66.0742221,4.43945148 65.3984375,4.76757812 L65.0996094,4.0234375 C65.4160172,3.85156164 65.7626934,3.71679736 66.1396484,3.61914062 C66.5166034,3.52148389 66.8945294,3.47265625 67.2734375,3.47265625 C68.0390663,3.47265625 68.6064435,3.64257643 68.9755859,3.98242188 C69.3447284,4.32226732 69.5292969,4.86718375 69.5292969,5.6171875 L69.5292969,10 L68.8085938,10 Z M66.6113281,9.31445312 C67.2167999,9.31445312 67.6923811,9.14843916 68.0380859,8.81640625 C68.3837908,8.48437334 68.5566406,8.01953424 68.5566406,7.421875 L68.5566406,6.84179688 L67.5839844,6.8828125 C66.810543,6.91015639 66.2529314,7.03027237 65.9111328,7.24316406 C65.5693342,7.45605575 65.3984375,7.78710713 65.3984375,8.23632812 C65.3984375,8.58789238 65.5048817,8.85546783 65.7177734,9.0390625 C65.9306651,9.22265717 66.2285137,9.31445312 66.6113281,9.31445312 L66.6113281,9.31445312 Z M75.9277344,10 L75.9277344,5.84570312 C75.9277344,5.32226301 75.8085949,4.93164191 75.5703125,4.67382812 C75.3320301,4.41601434 74.9589869,4.28710938 74.4511719,4.28710938 C73.7792935,4.28710938 73.2871109,4.46874818 72.9746094,4.83203125 C72.6621078,5.19531432 72.5058594,5.7949177 72.5058594,6.63085938 L72.5058594,10 L71.5332031,10 L71.5332031,3.578125 L72.3242188,3.578125 L72.4824219,4.45703125 L72.5292969,4.45703125 C72.7285166,4.14062342 73.0078107,3.89550868 73.3671875,3.72167969 C73.7265643,3.54785069 74.1269509,3.4609375 74.5683594,3.4609375 C75.3418007,3.4609375 75.9238262,3.64745907 76.3144531,4.02050781 C76.7050801,4.39355655 76.9003906,4.99023027 76.9003906,5.81054688 L76.9003906,10 L75.9277344,10 Z M84.1542969,3.578125 L84.1542969,4.19335938 L82.9648438,4.33398438 C83.0742193,4.47070381 83.1718746,4.64941296 83.2578125,4.87011719 C83.3437504,5.09082142 83.3867188,5.33984236 83.3867188,5.6171875 C83.3867188,6.24609689 83.1718771,6.748045 82.7421875,7.12304688 C82.3124979,7.49804875 81.72266,7.68554688 80.9726562,7.68554688 C80.781249,7.68554688 80.6015633,7.66992203 80.4335938,7.63867188 C80.0195292,7.85742297 79.8125,8.13281084 79.8125,8.46484375 C79.8125,8.64062588 79.8847649,8.77050739 80.0292969,8.85449219 C80.1738288,8.93847698 80.4218732,8.98046875 80.7734375,8.98046875 L81.9101562,8.98046875 C82.6054722,8.98046875 83.1396466,9.12695166 83.5126953,9.41992188 C83.8857441,9.71289209 84.0722656,10.1386691 84.0722656,10.6972656 C84.0722656,11.4082067 83.7871122,11.9501934 83.2167969,12.3232422 C82.6464815,12.6962909 81.8144586,12.8828125 80.7207031,12.8828125 C79.8808552,12.8828125 79.2334007,12.7265641 78.7783203,12.4140625 C78.3232399,12.1015609 78.0957031,11.6601591 78.0957031,11.0898438 C78.0957031,10.6992168 78.2207019,10.3613296 78.4707031,10.0761719 C78.7207044,9.7910142 79.0722634,9.59765676 79.5253906,9.49609375 C79.3613273,9.42187463 79.2236334,9.30664141 79.1123047,9.15039062 C79.000976,8.99413984 78.9453125,8.81250104 78.9453125,8.60546875 C78.9453125,8.37109258 79.0078119,8.1660165 79.1328125,7.99023438 C79.2578131,7.81445225 79.4550768,7.64453207 79.7246094,7.48046875 C79.3925765,7.34374932 79.1220714,7.11132977 78.9130859,6.78320312 C78.7041005,6.45507648 78.5996094,6.08008023 78.5996094,5.65820312 C78.5996094,4.95507461 78.8105448,4.41308784 79.2324219,4.03222656 C79.654299,3.65136528 80.2519493,3.4609375 81.0253906,3.4609375 C81.3613298,3.4609375 81.6640612,3.49999961 81.9335938,3.578125 L84.1542969,3.578125 Z M79.0332031,11.078125 C79.0332031,11.425783 79.179686,11.6894522 79.4726562,11.8691406 C79.7656265,12.048829 80.1855441,12.1386719 80.7324219,12.1386719 C81.5488322,12.1386719 82.1533183,12.0166028 82.5458984,11.7724609 C82.9384785,11.5283191 83.1347656,11.1972677 83.1347656,10.7792969 C83.1347656,10.4316389 83.0273448,10.1904304 82.8125,10.0556641 C82.5976552,9.92089776 82.1933623,9.85351562 81.5996094,9.85351562 L80.4335938,9.85351562 C79.9921853,9.85351562 79.6484387,9.95898332 79.4023438,10.1699219 C79.1562488,10.3808604 79.0332031,10.6835918 79.0332031,11.078125 L79.0332031,11.078125 Z M79.5605469,5.63476562 C79.5605469,6.08398662 79.6874987,6.42382697 79.9414062,6.65429688 C80.1953138,6.88476678 80.5488259,7 81.0019531,7 C81.9511766,7 82.4257812,6.53906711 82.4257812,5.6171875 C82.4257812,4.65233893 81.9453173,4.16992188 80.984375,4.16992188 C80.5273415,4.16992188 80.1757825,4.29296752 79.9296875,4.5390625 C79.6835925,4.78515748 79.5605469,5.1503882 79.5605469,5.63476562 L79.5605469,5.63476562 Z M88.1855469,10.1171875 C87.2363234,10.1171875 86.4873074,9.82812789 85.9384766,9.25 C85.3896457,8.67187211 85.1152344,7.86914576 85.1152344,6.84179688 C85.1152344,5.80663545 85.3701146,4.98437805 85.8798828,4.375 C86.389651,3.76562195 87.0742145,3.4609375 87.9335938,3.4609375 C88.7382853,3.4609375 89.3749977,3.72558329 89.84375,4.25488281 C90.3125023,4.78418233 90.546875,5.48241754 90.546875,6.34960938 L90.546875,6.96484375 L86.1230469,6.96484375 C86.1425782,7.71875377 86.333006,8.29101367 86.6943359,8.68164062 C87.0556659,9.07226758 87.5644498,9.26757812 88.2207031,9.26757812 C88.9121128,9.26757812 89.5956997,9.12304832 90.2714844,8.83398438 L90.2714844,9.70117188 C89.9277327,9.84961012 89.6025406,9.95605437 89.2958984,10.0205078 C88.9892563,10.0849613 88.6191428,10.1171875 88.1855469,10.1171875 L88.1855469,10.1171875 Z M87.921875,4.27539062 C87.4062474,4.27539062 86.9951187,4.4433577 86.6884766,4.77929688 C86.3818344,5.11523605 86.2011721,5.58007516 86.1464844,6.17382812 L89.5039062,6.17382812 C89.5039062,5.56054381 89.3671889,5.09082194 89.09375,4.76464844 C88.8203111,4.43847493 88.42969,4.27539062 87.921875,4.27539062 L87.921875,4.27539062 Z M95.1347656,3.4609375 C95.4199233,3.4609375 95.6757801,3.48437477 95.9023438,3.53125 L95.7675781,4.43359375 C95.5019518,4.37499971 95.2675791,4.34570312 95.0644531,4.34570312 C94.5449193,4.34570312 94.1005878,4.55663852 93.7314453,4.97851562 C93.3623028,5.40039273 93.1777344,5.92577811 93.1777344,6.5546875 L93.1777344,10 L92.2050781,10 L92.2050781,3.578125 L93.0078125,3.578125 L93.1191406,4.76757812 L93.1660156,4.76757812 C93.4042981,4.34960729 93.6914046,4.02734488 94.0273438,3.80078125 C94.3632829,3.57421762 94.7324199,3.4609375 95.1347656,3.4609375 L95.1347656,3.4609375 Z M101.246094,8.24804688 C101.246094,8.84570611 101.02344,9.306639 100.578125,9.63085938 C100.13281,9.95507975 99.5078165,10.1171875 98.703125,10.1171875 C97.8515582,10.1171875 97.1875024,9.98242322 96.7109375,9.71289062 L96.7109375,8.81054688 C97.0195328,8.96679766 97.3505842,9.0898433 97.7041016,9.1796875 C98.057619,9.2695317 98.3984359,9.31445312 98.7265625,9.31445312 C99.2343775,9.31445312 99.6249986,9.23339925 99.8984375,9.07128906 C100.171876,8.90917888 100.308594,8.66211104 100.308594,8.33007812 C100.308594,8.08007688 100.200196,7.86621183 99.9833984,7.68847656 C99.7666005,7.5107413 99.3437531,7.30078246 98.7148438,7.05859375 C98.1171845,6.83593639 97.6923841,6.64160239 97.4404297,6.47558594 C97.1884753,6.30956948 97.0009772,6.1210948 96.8779297,5.91015625 C96.7548822,5.6992177 96.6933594,5.44726709 96.6933594,5.15429688 C96.6933594,4.63085676 96.9062479,4.21777495 97.3320312,3.91503906 C97.7578146,3.61230317 98.3417932,3.4609375 99.0839844,3.4609375 C99.7753941,3.4609375 100.451169,3.60156109 101.111328,3.8828125 L100.765625,4.67382812 C100.121091,4.4082018 99.537112,4.27539062 99.0136719,4.27539062 C98.5527321,4.27539062 98.2050793,4.34765553 97.9707031,4.4921875 C97.736327,4.63671947 97.6191406,4.83593623 97.6191406,5.08984375 C97.6191406,5.26171961 97.6630855,5.40820252 97.7509766,5.52929688 C97.8388676,5.65039123 97.9804678,5.76562445 98.1757812,5.875 C98.3710947,5.98437555 98.746091,6.14257709 99.3007812,6.34960938 C100.062504,6.62695451 100.577147,6.90624859 100.844727,7.1875 C101.112306,7.46875141 101.246094,7.8222635 101.246094,8.24804688 L101.246094,8.24804688 Z M102.6875,9.37890625 C102.6875,9.11718619 102.74707,8.91894599 102.866211,8.78417969 C102.985352,8.64941339 103.156249,8.58203125 103.378906,8.58203125 C103.60547,8.58203125 103.782226,8.64941339 103.90918,8.78417969 C104.036133,8.91894599 104.099609,9.11718619 104.099609,9.37890625 C104.099609,9.63281377 104.035157,9.82812432 103.90625,9.96484375 C103.777343,10.1015632 103.601564,10.1699219 103.378906,10.1699219 C103.179687,10.1699219 103.014649,10.1083991 102.883789,9.98535156 C102.752929,9.86230407 102.6875,9.66015766 102.6875,9.37890625 L102.6875,9.37890625 Z" id="Blood-of-strangers." fill="#000000" sketch:type="MSShapeGroup"></path>
    </g>
</svg>