<?xml version="1.0" encoding="UTF-8" standalone="no"?>
<svg width="117px" height="11px" viewBox="0 0 117 11" version="1.1" xmlns="http://www.w3.org/2000/svg" xmlns:xlink="http://www.w3.org/1999/xlink" xmlns:sketch="http://www.bohemiancoding.com/sketch/ns">
    <!-- Generator: Sketch 3.1.1 (8761) - http://www.bohemiancoding.com/sketch -->
    <title>We don’t know them.</title>
    <desc>Created with Sketch.</desc>
    <defs></defs>
    <g id="Page-1" stroke="none" stroke-width="1" fill="none" fill-rule="evenodd" sketch:type="MSPage">
        <path d="M8.65429688,10 L7.66992188,10 L5.94140625,4.26367188 C5.85937459,4.00976436 5.76757863,3.68945506 5.66601562,3.30273438 C5.56445262,2.91601369 5.51171877,2.68359414 5.5078125,2.60546875 C5.42187457,3.12109633 5.28515719,3.68554381 5.09765625,4.29882812 L3.421875,10 L2.4375,10 L0.158203125,1.43359375 L1.21289062,1.43359375 L2.56640625,6.72460938 C2.75390719,7.46680059 2.89062457,8.13866887 2.9765625,8.74023438 C3.08203178,8.02538705 3.23828021,7.32617529 3.4453125,6.64257812 L4.98046875,1.43359375 L6.03515625,1.43359375 L7.64648438,6.68945312 C7.83398531,7.2949249 7.99218686,7.97851182 8.12109375,8.74023438 C8.19531287,8.1855441 8.33593646,7.50976961 8.54296875,6.71289062 L9.890625,1.43359375 L10.9453125,1.43359375 L8.65429688,10 Z M14.6132812,10.1171875 C13.6640578,10.1171875 12.9150418,9.82812789 12.3662109,9.25 C11.8173801,8.67187211 11.5429688,7.86914576 11.5429688,6.84179688 C11.5429688,5.80663545 11.797849,4.98437805 12.3076172,4.375 C12.8173854,3.76562195 13.5019488,3.4609375 14.3613281,3.4609375 C15.1660196,3.4609375 15.802732,3.72558329 16.2714844,4.25488281 C16.7402367,4.78418233 16.9746094,5.48241754 16.9746094,6.34960938 L16.9746094,6.96484375 L12.5507812,6.96484375 C12.5703126,7.71875377 12.7607404,8.29101367 13.1220703,8.68164062 C13.4834002,9.07226758 13.9921842,9.26757812 14.6484375,9.26757812 C15.3398472,9.26757812 16.0234341,9.12304832 16.6992188,8.83398438 L16.6992188,9.70117188 C16.355467,9.84961012 16.030275,9.95605437 15.7236328,10.0205078 C15.4169907,10.0849613 15.0468772,10.1171875 14.6132812,10.1171875 L14.6132812,10.1171875 Z M14.3496094,4.27539062 C13.8339818,4.27539062 13.4228531,4.4433577 13.1162109,4.77929688 C12.8095688,5.11523605 12.6289065,5.58007516 12.5742188,6.17382812 L15.9316406,6.17382812 C15.9316406,5.56054381 15.7949232,5.09082194 15.5214844,4.76464844 C15.2480455,4.43847493 14.8574244,4.27539062 14.3496094,4.27539062 L14.3496094,4.27539062 Z M26.1210938,9.13867188 L26.0683594,9.13867188 C25.6191384,9.79101889 24.9472701,10.1171875 24.0527344,10.1171875 C23.2128864,10.1171875 22.5595726,9.830081 22.0927734,9.25585938 C21.6259742,8.68163775 21.3925781,7.86523967 21.3925781,6.80664062 C21.3925781,5.74804158 21.6269508,4.92578418 22.0957031,4.33984375 C22.5644555,3.75390332 23.2167927,3.4609375 24.0527344,3.4609375 C24.9238325,3.4609375 25.5917946,3.77734059 26.0566406,4.41015625 L26.1328125,4.41015625 L26.0917969,3.94726562 L26.0683594,3.49609375 L26.0683594,0.8828125 L27.0410156,0.8828125 L27.0410156,10 L26.25,10 L26.1210938,9.13867188 Z M24.1757812,9.30273438 C24.8398471,9.30273438 25.3212876,9.12207212 25.6201172,8.76074219 C25.9189468,8.39941226 26.0683594,7.81641027 26.0683594,7.01171875 L26.0683594,6.80664062 C26.0683594,5.89647982 25.9169937,5.24707226 25.6142578,4.85839844 C25.3115219,4.46972462 24.8281283,4.27539062 24.1640625,4.27539062 C23.5937471,4.27539062 23.1572281,4.4970681 22.8544922,4.94042969 C22.5517563,5.38379128 22.4003906,6.00976158 22.4003906,6.81835938 C22.4003906,7.63867598 22.5507797,8.25781041 22.8515625,8.67578125 C23.1523453,9.09375209 23.5937471,9.30273438 24.1757812,9.30273438 L24.1757812,9.30273438 Z M34.6464844,6.78320312 C34.6464844,7.83008336 34.3828151,8.647458 33.8554688,9.23535156 C33.3281224,9.82324513 32.599614,10.1171875 31.6699219,10.1171875 C31.0957003,10.1171875 30.5859397,9.98242322 30.140625,9.71289062 C29.6953103,9.44335803 29.3515637,9.05664314 29.109375,8.55273438 C28.8671863,8.04882561 28.7460938,7.45898775 28.7460938,6.78320312 C28.7460938,5.73632289 29.0078099,4.92090136 29.53125,4.33691406 C30.0546901,3.75292677 30.7812454,3.4609375 31.7109375,3.4609375 C32.6093795,3.4609375 33.3232395,3.75976264 33.8525391,4.35742188 C34.3818386,4.95508111 34.6464844,5.76366678 34.6464844,6.78320312 L34.6464844,6.78320312 Z M29.7539063,6.78320312 C29.7539063,7.60351973 29.9179671,8.22851348 30.2460938,8.65820312 C30.5742204,9.08789277 31.0566374,9.30273438 31.6933594,9.30273438 C32.3300813,9.30273438 32.8134749,9.08886933 33.1435547,8.66113281 C33.4736345,8.2333963 33.6386719,7.607426 33.6386719,6.78320312 C33.6386719,5.96679279 33.4736345,5.34668181 33.1435547,4.92285156 C32.8134749,4.49902132 32.3261751,4.28710938 31.6816406,4.28710938 C31.0449187,4.28710938 30.5644547,4.49609166 30.2402344,4.9140625 C29.916014,5.33203334 29.7539063,5.95507398 29.7539063,6.78320312 L29.7539063,6.78320312 Z M40.7460938,10 L40.7460938,5.84570312 C40.7460938,5.32226301 40.6269543,4.93164191 40.3886719,4.67382812 C40.1503894,4.41601434 39.7773463,4.28710938 39.2695312,4.28710938 C38.5976529,4.28710938 38.1054703,4.46874818 37.7929688,4.83203125 C37.4804672,5.19531432 37.3242188,5.7949177 37.3242188,6.63085938 L37.3242188,10 L36.3515625,10 L36.3515625,3.578125 L37.1425781,3.578125 L37.3007812,4.45703125 L37.3476562,4.45703125 C37.546876,4.14062342 37.8261701,3.89550868 38.1855469,3.72167969 C38.5449237,3.54785069 38.9453103,3.4609375 39.3867188,3.4609375 C40.1601601,3.4609375 40.7421855,3.64745907 41.1328125,4.02050781 C41.5234395,4.39355655 41.71875,4.99023027 41.71875,5.81054688 L41.71875,10 L40.7460938,10 Z M44.3789062,1.43359375 L44.4667969,1.5625 C44.3652339,1.95312695 44.218751,2.40722397 44.0273438,2.92480469 C43.8359365,3.4423854 43.6367198,3.9238259 43.4296875,4.36914062 L42.7148438,4.36914062 C42.9882826,3.25585381 43.1874994,2.27734797 43.3125,1.43359375 L44.3789062,1.43359375 Z M47.7128906,9.31445312 C47.8847665,9.31445312 48.0507804,9.30175794 48.2109375,9.27636719 C48.3710946,9.25097644 48.4980464,9.22460951 48.5917969,9.19726562 L48.5917969,9.94140625 C48.4863276,9.99218775 48.3310557,10.0341795 48.1259766,10.0673828 C47.9208974,10.1005861 47.7363289,10.1171875 47.5722656,10.1171875 C46.3300719,10.1171875 45.7089844,9.46289717 45.7089844,8.15429688 L45.7089844,4.33398438 L44.7890625,4.33398438 L44.7890625,3.86523438 L45.7089844,3.4609375 L46.1191406,2.08984375 L46.6816406,2.08984375 L46.6816406,3.578125 L48.5449219,3.578125 L48.5449219,4.33398438 L46.6816406,4.33398438 L46.6816406,8.11328125 C46.6816406,8.50000193 46.7734366,8.79687396 46.9570312,9.00390625 C47.1406259,9.21093854 47.3925765,9.31445312 47.7128906,9.31445312 L47.7128906,9.31445312 Z M53.953125,6.71289062 C54.1210946,6.47460818 54.3769514,6.16211131 54.7207031,5.77539062 L56.7949219,3.578125 L57.9492188,3.578125 L55.3476562,6.31445312 L58.1308594,10 L56.953125,10 L54.6855469,6.96484375 L53.953125,7.59765625 L53.953125,10 L52.9921875,10 L52.9921875,0.8828125 L53.953125,0.8828125 L53.953125,5.71679688 C53.953125,5.9316417 53.9375002,6.26366963 53.90625,6.71289062 L53.953125,6.71289062 Z M63.6855469,10 L63.6855469,5.84570312 C63.6855469,5.32226301 63.5664074,4.93164191 63.328125,4.67382812 C63.0898426,4.41601434 62.7167994,4.28710938 62.2089844,4.28710938 C61.537106,4.28710938 61.0449234,4.46874818 60.7324219,4.83203125 C60.4199203,5.19531432 60.2636719,5.7949177 60.2636719,6.63085938 L60.2636719,10 L59.2910156,10 L59.2910156,3.578125 L60.0820313,3.578125 L60.2402344,4.45703125 L60.2871094,4.45703125 C60.4863291,4.14062342 60.7656232,3.89550868 61.125,3.72167969 C61.4843768,3.54785069 61.8847634,3.4609375 62.3261719,3.4609375 C63.0996132,3.4609375 63.6816387,3.64745907 64.0722656,4.02050781 C64.4628926,4.39355655 64.6582031,4.99023027 64.6582031,5.81054688 L64.6582031,10 L63.6855469,10 Z M72.1992188,6.78320312 C72.1992188,7.83008336 71.9355495,8.647458 71.4082031,9.23535156 C70.8808567,9.82324513 70.1523484,10.1171875 69.2226562,10.1171875 C68.6484346,10.1171875 68.1386741,9.98242322 67.6933594,9.71289062 C67.2480446,9.44335803 66.9042981,9.05664314 66.6621094,8.55273438 C66.4199207,8.04882561 66.2988281,7.45898775 66.2988281,6.78320312 C66.2988281,5.73632289 66.5605443,4.92090136 67.0839844,4.33691406 C67.6074245,3.75292677 68.3339797,3.4609375 69.2636719,3.4609375 C70.1621139,3.4609375 70.8759739,3.75976264 71.4052734,4.35742188 C71.934573,4.95508111 72.1992188,5.76366678 72.1992188,6.78320312 L72.1992188,6.78320312 Z M67.3066406,6.78320312 C67.3066406,7.60351973 67.4707015,8.22851348 67.7988281,8.65820312 C68.1269548,9.08789277 68.6093718,9.30273438 69.2460938,9.30273438 C69.8828157,9.30273438 70.3662093,9.08886933 70.6962891,8.66113281 C71.0263688,8.2333963 71.1914062,7.607426 71.1914062,6.78320312 C71.1914062,5.96679279 71.0263688,5.34668181 70.6962891,4.92285156 C70.3662093,4.49902132 69.8789095,4.28710938 69.234375,4.28710938 C68.5976531,4.28710938 68.1171891,4.49609166 67.7929688,4.9140625 C67.4687484,5.33203334 67.3066406,5.95507398 67.3066406,6.78320312 L67.3066406,6.78320312 Z M78.9082031,10 L77.7304688,6.23242188 C77.6562496,6.00195197 77.5175791,5.47851971 77.3144531,4.66210938 L77.2675781,4.66210938 C77.1113273,5.34570654 76.97461,5.87304502 76.8574219,6.24414062 L75.6445312,10 L74.5195312,10 L72.7675781,3.578125 L73.7871094,3.578125 C74.2011739,5.19141432 74.5166005,6.41991766 74.7333984,7.26367188 C74.9501964,8.10742609 75.0742186,8.67577979 75.1054688,8.96875 L75.1523438,8.96875 C75.1953127,8.74609264 75.264648,8.45800958 75.3603516,8.10449219 C75.4560552,7.75097479 75.5390621,7.47070416 75.609375,7.26367188 L76.7871094,3.578125 L77.8417969,3.578125 L78.9902344,7.26367188 C79.2089855,7.93555023 79.3574215,8.49999771 79.4355469,8.95703125 L79.4824219,8.95703125 C79.498047,8.81640555 79.5400387,8.59961084 79.6083984,8.30664062 C79.6767582,8.01367041 80.0839806,6.4375143 80.8300781,3.578125 L81.8378906,3.578125 L80.0625,10 L78.9082031,10 Z M88.1894531,9.31445312 C88.361329,9.31445312 88.5273429,9.30175794 88.6875,9.27636719 C88.8476571,9.25097644 88.9746089,9.22460951 89.0683594,9.19726562 L89.0683594,9.94140625 C88.9628901,9.99218775 88.8076182,10.0341795 88.6025391,10.0673828 C88.3974599,10.1005861 88.2128914,10.1171875 88.0488281,10.1171875 C86.8066344,10.1171875 86.1855469,9.46289717 86.1855469,8.15429688 L86.1855469,4.33398438 L85.265625,4.33398438 L85.265625,3.86523438 L86.1855469,3.4609375 L86.5957031,2.08984375 L87.1582031,2.08984375 L87.1582031,3.578125 L89.0214844,3.578125 L89.0214844,4.33398438 L87.1582031,4.33398438 L87.1582031,8.11328125 C87.1582031,8.50000193 87.2499991,8.79687396 87.4335938,9.00390625 C87.6171884,9.21093854 87.869139,9.31445312 88.1894531,9.31445312 L88.1894531,9.31445312 Z M94.7460938,10 L94.7460938,5.84570312 C94.7460938,5.32226301 94.6269543,4.93164191 94.3886719,4.67382812 C94.1503894,4.41601434 93.7773463,4.28710938 93.2695312,4.28710938 C92.5937466,4.28710938 92.1005875,4.47070129 91.7900391,4.83789062 C91.4794906,5.20507996 91.3242188,5.80663645 91.3242188,6.64257813 L91.3242188,10 L90.3515625,10 L90.3515625,0.8828125 L91.3242188,0.8828125 L91.3242188,3.64257812 C91.3242188,3.97461104 91.3085939,4.24999891 91.2773438,4.46875 L91.3359375,4.46875 C91.5273447,4.16015471 91.7998029,3.91699308 92.1533203,3.73925781 C92.5068377,3.56152255 92.910154,3.47265625 93.3632812,3.47265625 C94.1484414,3.47265625 94.7373027,3.65917782 95.1298828,4.03222656 C95.5224629,4.4052753 95.71875,4.99804281 95.71875,5.81054688 L95.71875,10 L94.7460938,10 Z M100.429688,10.1171875 C99.480464,10.1171875 98.7314481,9.82812789 98.1826172,9.25 C97.6337863,8.67187211 97.359375,7.86914576 97.359375,6.84179688 C97.359375,5.80663545 97.6142553,4.98437805 98.1240234,4.375 C98.6337916,3.76562195 99.3183551,3.4609375 100.177734,3.4609375 C100.982426,3.4609375 101.619138,3.72558329 102.087891,4.25488281 C102.556643,4.78418233 102.791016,5.48241754 102.791016,6.34960938 L102.791016,6.96484375 L98.3671875,6.96484375 C98.3867188,7.71875377 98.5771466,8.29101367 98.9384766,8.68164062 C99.2998065,9.07226758 99.8085905,9.26757812 100.464844,9.26757812 C101.156253,9.26757812 101.83984,9.12304832 102.515625,8.83398438 L102.515625,9.70117188 C102.171873,9.84961012 101.846681,9.95605437 101.540039,10.0205078 C101.233397,10.0849613 100.863283,10.1171875 100.429688,10.1171875 L100.429688,10.1171875 Z M100.166016,4.27539062 C99.650388,4.27539062 99.2392593,4.4433577 98.9326172,4.77929688 C98.625975,5.11523605 98.4453128,5.58007516 98.390625,6.17382812 L101.748047,6.17382812 C101.748047,5.56054381 101.611329,5.09082194 101.337891,4.76464844 C101.064452,4.43847493 100.673831,4.27539062 100.166016,4.27539062 L100.166016,4.27539062 Z M112.634766,10 L112.634766,5.82226562 C112.634766,5.31054432 112.525392,4.92675909 112.306641,4.67089844 C112.08789,4.41503778 111.748049,4.28710938 111.287109,4.28710938 C110.681638,4.28710938 110.234376,4.46093576 109.945312,4.80859375 C109.656249,5.15625174 109.511719,5.69140264 109.511719,6.4140625 L109.511719,10 L108.539062,10 L108.539062,5.82226562 C108.539062,5.31054432 108.429689,4.92675909 108.210938,4.67089844 C107.992186,4.41503778 107.650393,4.28710938 107.185547,4.28710938 C106.576169,4.28710938 106.129884,4.46972474 105.84668,4.83496094 C105.563475,5.20019714 105.421875,5.79882396 105.421875,6.63085938 L105.421875,10 L104.449219,10 L104.449219,3.578125 L105.240234,3.578125 L105.398438,4.45703125 L105.445312,4.45703125 C105.628907,4.14452969 105.887694,3.9003915 106.22168,3.72460938 C106.555666,3.54882725 106.929685,3.4609375 107.34375,3.4609375 C108.347661,3.4609375 109.003905,3.82421512 109.3125,4.55078125 L109.359375,4.55078125 C109.550782,4.21484207 109.828123,3.94921973 110.191406,3.75390625 C110.554689,3.55859277 110.968748,3.4609375 111.433594,3.4609375 C112.16016,3.4609375 112.7041,3.64745907 113.06543,4.02050781 C113.42676,4.39355655 113.607422,4.99023027 113.607422,5.81054688 L113.607422,10 L112.634766,10 Z M115.470703,9.37890625 C115.470703,9.11718619 115.530273,8.91894599 115.649414,8.78417969 C115.768555,8.64941339 115.939452,8.58203125 116.162109,8.58203125 C116.388673,8.58203125 116.565429,8.64941339 116.692383,8.78417969 C116.819337,8.91894599 116.882812,9.11718619 116.882812,9.37890625 C116.882812,9.63281377 116.81836,9.82812432 116.689453,9.96484375 C116.560546,10.1015632 116.384767,10.1699219 116.162109,10.1699219 C115.96289,10.1699219 115.797852,10.1083991 115.666992,9.98535156 C115.536132,9.86230407 115.470703,9.66015766 115.470703,9.37890625 L115.470703,9.37890625 Z" id="We-don’t-know-them." fill="#000000" sketch:type="MSShapeGroup"></path>
    </g>
</svg>