<?xml version="1.0" encoding="UTF-8" standalone="no"?>
<svg width="24px" height="11px" viewBox="0 0 24 11" version="1.1" xmlns="http://www.w3.org/2000/svg" xmlns:xlink="http://www.w3.org/1999/xlink" xmlns:sketch="http://www.bohemiancoding.com/sketch/ns">
    <!-- Generator: Sketch 3.1.1 (8761) - http://www.bohemiancoding.com/sketch -->
    <title>Tick.</title>
    <desc>Created with Sketch.</desc>
    <defs></defs>
    <g id="Page-1" stroke="none" stroke-width="1" fill="none" fill-rule="evenodd" sketch:type="MSPage">
        <path d="M3.81445312,10 L2.81835938,10 L2.81835938,2.31835938 L0.10546875,2.31835938 L0.10546875,1.43359375 L6.52734375,1.43359375 L6.52734375,2.31835938 L3.81445312,2.31835938 L3.81445312,10 Z M8.64257812,10 L7.66992188,10 L7.66992188,3.578125 L8.64257812,3.578125 L8.64257812,10 Z M7.58789062,1.83789062 C7.58789062,1.61523326 7.64257758,1.45214896 7.75195312,1.34863281 C7.86132867,1.24511667 7.99804605,1.19335938 8.16210938,1.19335938 C8.31836016,1.19335938 8.45312443,1.24609322 8.56640625,1.3515625 C8.67968807,1.45703178 8.73632812,1.61913953 8.73632812,1.83789062 C8.73632812,2.05664172 8.67968807,2.21972603 8.56640625,2.32714844 C8.45312443,2.43457085 8.31836016,2.48828125 8.16210938,2.48828125 C7.99804605,2.48828125 7.86132867,2.43457085 7.75195312,2.32714844 C7.64257758,2.21972603 7.58789062,2.05664172 7.58789062,1.83789062 L7.58789062,1.83789062 Z M13.2714844,10.1171875 C12.3417922,10.1171875 11.6220729,9.83105755 11.1123047,9.25878906 C10.6025365,8.68652058 10.3476562,7.87695836 10.3476562,6.83007812 C10.3476562,5.755854 10.6064427,4.92578418 11.1240234,4.33984375 C11.6416042,3.75390332 12.3789015,3.4609375 13.3359375,3.4609375 C13.6445328,3.4609375 13.9531235,3.49414029 14.2617188,3.56054688 C14.570314,3.62695346 14.8124991,3.70507768 14.9882812,3.79492188 L14.6894531,4.62109375 C14.4746083,4.53515582 14.2402356,4.46386747 13.9863281,4.40722656 C13.7324206,4.35058565 13.5078135,4.32226562 13.3125,4.32226562 C12.007806,4.32226562 11.3554688,5.15428855 11.3554688,6.81835938 C11.3554688,7.60742582 11.5146468,8.21288852 11.8330078,8.63476562 C12.1513688,9.05664273 12.6230438,9.26757812 13.2480469,9.26757812 C13.7832058,9.26757812 14.3320284,9.1523449 14.8945312,8.921875 L14.8945312,9.78320312 C14.4648416,10.0058605 13.9238314,10.1171875 13.2714844,10.1171875 L13.2714844,10.1171875 Z M17.3789062,6.71289062 C17.5468758,6.47460818 17.8027327,6.16211131 18.1464844,5.77539062 L20.2207031,3.578125 L21.375,3.578125 L18.7734375,6.31445312 L21.5566406,10 L20.3789062,10 L18.1113281,6.96484375 L17.3789062,7.59765625 L17.3789062,10 L16.4179688,10 L16.4179688,0.8828125 L17.3789062,0.8828125 L17.3789062,5.71679688 C17.3789062,5.9316417 17.3632814,6.26366963 17.3320312,6.71289062 L17.3789062,6.71289062 Z M22.5761719,9.37890625 C22.5761719,9.11718619 22.6357416,8.91894599 22.7548828,8.78417969 C22.874024,8.64941339 23.0449208,8.58203125 23.2675781,8.58203125 C23.4941418,8.58203125 23.6708978,8.64941339 23.7978516,8.78417969 C23.9248053,8.91894599 23.9882812,9.11718619 23.9882812,9.37890625 C23.9882812,9.63281377 23.9238288,9.82812432 23.7949219,9.96484375 C23.666015,10.1015632 23.4902355,10.1699219 23.2675781,10.1699219 C23.0683584,10.1699219 22.903321,10.1083991 22.7724609,9.98535156 C22.6416009,9.86230407 22.5761719,9.66015766 22.5761719,9.37890625 L22.5761719,9.37890625 Z" id="Tick." fill="#000000" sketch:type="MSShapeGroup"></path>
    </g>
</svg>