<?xml version="1.0" encoding="UTF-8" standalone="no"?>
<svg width="25px" height="10px" viewBox="0 0 25 10" version="1.1" xmlns="http://www.w3.org/2000/svg" xmlns:xlink="http://www.w3.org/1999/xlink" xmlns:sketch="http://www.bohemiancoding.com/sketch/ns">
    <!-- Generator: Sketch 3.1.1 (8761) - http://www.bohemiancoding.com/sketch -->
    <title>TICK</title>
    <desc>Created with Sketch.</desc>
    <defs></defs>
    <g id="Page-1" stroke="none" stroke-width="1" fill="none" fill-rule="evenodd" sketch:type="MSPage">
        <path d="M3.81445312,9 L2.81835937,9 L2.81835937,1.31835938 L0.10546875,1.31835938 L0.10546875,0.43359375 L6.52734375,0.43359375 L6.52734375,1.31835938 L3.81445312,1.31835938 L3.81445312,9 Z M7.81640625,9 L7.81640625,0.43359375 L8.8125,0.43359375 L8.8125,9 L7.81640625,9 Z M14.8300781,1.20117188 C13.8886672,1.20117188 13.1455105,1.5146453 12.6005859,2.14160156 C12.0556613,2.76855782 11.7832031,3.62694768 11.7832031,4.71679688 C11.7832031,5.83789623 12.0458958,6.70409851 12.5712891,7.31542969 C13.0966823,7.92676087 13.8456983,8.23242188 14.8183594,8.23242188 C15.4160186,8.23242188 16.0976524,8.12500107 16.8632812,7.91015625 L16.8632812,8.78320312 C16.2695283,9.00586049 15.5371137,9.1171875 14.6660156,9.1171875 C13.4042906,9.1171875 12.4306675,8.73437883 11.7451172,7.96875 C11.0595669,7.20312117 10.7167969,6.11524143 10.7167969,4.70507812 C10.7167969,3.82226121 10.8818343,3.04883145 11.2119141,2.38476562 C11.5419938,1.7206998 12.0185516,1.20898617 12.6416016,0.849609375 C13.2646516,0.490232578 13.9980427,0.310546875 14.8417969,0.310546875 C15.7402389,0.310546875 16.5253873,0.474607734 17.1972656,0.802734375 L16.7753906,1.65820312 C16.1269499,1.3535141 15.4785189,1.20117188 14.8300781,1.20117188 L14.8300781,1.20117188 Z M24.9199219,9 L23.7480469,9 L20.625,4.84570312 L19.7285156,5.64257812 L19.7285156,9 L18.7324219,9 L18.7324219,0.43359375 L19.7285156,0.43359375 L19.7285156,4.68164062 L23.6132812,0.43359375 L24.7910156,0.43359375 L21.3457031,4.15429688 L24.9199219,9 Z" id="TICK" fill="#000000" sketch:type="MSShapeGroup"></path>
    </g>
</svg>