<?xml version="1.0" encoding="UTF-8" standalone="no"?>
<svg width="60px" height="3px" viewBox="0 0 60 3" version="1.1" xmlns="http://www.w3.org/2000/svg" xmlns:xlink="http://www.w3.org/1999/xlink" xmlns:sketch="http://www.bohemiancoding.com/sketch/ns">
    <!-- Generator: Sketch 3.1.1 (8761) - http://www.bohemiancoding.com/sketch -->
    <title>Slice 2</title>
    <desc>Created with Sketch.</desc>
    <defs></defs>
    <g id="Page-1" stroke="none" stroke-width="1" fill="none" fill-rule="evenodd" sketch:type="MSPage">
        <path d="M-6.64257812,1.71679688 L-4.35742188,-2.56640625 L-3.27929688,-2.56640625 L-6.13867188,2.67773438 L-6.13867188,6 L-7.14648438,6 L-7.14648438,2.72460938 L-10,-2.56640625 L-8.91015625,-2.56640625 L-6.64257812,1.71679688 Z M2.69726562,2.78320312 C2.69726562,3.83008336 2.43359639,4.647458 1.90625,5.23535156 C1.37890361,5.82324513 0.650395273,6.1171875 -0.279296875,6.1171875 C-0.853518496,6.1171875 -1.36327902,5.98242322 -1.80859375,5.71289062 C-2.25390848,5.44335803 -2.59765504,5.05664314 -2.83984375,4.55273438 C-3.08203246,4.04882561 -3.203125,3.45898775 -3.203125,2.78320312 C-3.203125,1.73632289 -2.94140887,0.920901357 -2.41796875,0.336914062 C-1.89452863,-0.247073232 -1.1679734,-0.5390625 -0.23828125,-0.5390625 C0.660160742,-0.5390625 1.37402079,-0.240237363 1.90332031,0.357421875 C2.43261983,0.955081113 2.69726562,1.76366678 2.69726562,2.78320312 L2.69726562,2.78320312 Z M-2.1953125,2.78320312 C-2.1953125,3.60351973 -2.03125164,4.22851348 -1.703125,4.65820312 C-1.37499836,5.08789277 -0.892581309,5.30273438 -0.255859375,5.30273438 C0.380862559,5.30273438 0.864256162,5.08886933 1.19433594,4.66113281 C1.52441571,4.2333963 1.68945312,3.607426 1.68945312,2.78320312 C1.68945312,1.96679279 1.52441571,1.34668181 1.19433594,0.922851562 C0.864256162,0.499021318 0.376956348,0.287109375 -0.267578125,0.287109375 C-0.904300059,0.287109375 -1.384764,0.49609166 -1.70898438,0.9140625 C-2.03320475,1.33203334 -2.1953125,1.95507398 -2.1953125,2.78320312 L-2.1953125,2.78320312 Z M5.31640625,-0.421875 L5.31640625,3.74414062 C5.31640625,4.26758074 5.43554568,4.65820184 5.67382812,4.91601562 C5.91211057,5.17382941 6.28515371,5.30273438 6.79296875,5.30273438 C7.46484711,5.30273438 7.95605313,5.11914246 8.26660156,4.75195312 C8.57714999,4.38476379 8.73242188,3.78516041 8.73242188,2.953125 L8.73242188,-0.421875 L9.70507812,-0.421875 L9.70507812,6 L8.90234375,6 L8.76171875,5.13867188 L8.70898438,5.13867188 C8.50976463,5.45507971 8.23340021,5.69726479 7.87988281,5.86523438 C7.52636542,6.03320396 7.12304914,6.1171875 6.66992188,6.1171875 C5.88866797,6.1171875 5.30371288,5.93164248 4.91503906,5.56054688 C4.52636524,5.18945127 4.33203125,4.59570721 4.33203125,3.77929688 L4.33203125,-0.421875 L5.31640625,-0.421875 Z M18.8339844,6 L18.640625,5.0859375 L18.59375,5.0859375 C18.2734359,5.48828326 17.9541032,5.76074147 17.6357422,5.90332031 C17.3173812,6.04589915 16.9199243,6.1171875 16.4433594,6.1171875 C15.8066374,6.1171875 15.307619,5.95312664 14.9462891,5.625 C14.5849591,5.29687336 14.4042969,4.83008115 14.4042969,4.22460938 C14.4042969,2.92772789 15.4413959,2.24804719 17.515625,2.18554688 L18.6054688,2.15039062 L18.6054688,1.75195312 C18.6054688,1.24804436 18.4970714,0.875977764 18.2802734,0.635742188 C18.0634755,0.395506611 17.7167993,0.275390625 17.2402344,0.275390625 C16.7050754,0.275390625 16.0996128,0.439451484 15.4238281,0.767578125 L15.125,0.0234375 C15.4414078,-0.148438359 15.7880841,-0.283202637 16.1650391,-0.380859375 C16.5419941,-0.478516113 16.91992,-0.52734375 17.2988281,-0.52734375 C18.064457,-0.52734375 18.6318341,-0.357423574 19.0009766,-0.017578125 C19.370119,0.322267324 19.5546875,0.86718375 19.5546875,1.6171875 L19.5546875,6 L18.8339844,6 Z M16.6367188,5.31445312 C17.2421905,5.31445312 17.7177717,5.14843916 18.0634766,4.81640625 C18.4091814,4.48437334 18.5820312,4.01953424 18.5820312,3.421875 L18.5820312,2.84179688 L17.609375,2.8828125 C16.8359336,2.91015639 16.278322,3.03027237 15.9365234,3.24316406 C15.5947249,3.45605575 15.4238281,3.78710713 15.4238281,4.23632812 C15.4238281,4.58789238 15.5302724,4.85546783 15.7431641,5.0390625 C15.9560558,5.22265717 16.2539043,5.31445312 16.6367188,5.31445312 L16.6367188,5.31445312 Z M24.4882812,-0.5390625 C24.7734389,-0.5390625 25.0292957,-0.515625234 25.2558594,-0.46875 L25.1210938,0.43359375 C24.8554674,0.374999707 24.6210948,0.345703125 24.4179688,0.345703125 C23.8984349,0.345703125 23.4541034,0.556638516 23.0849609,0.978515625 C22.7158185,1.40039273 22.53125,1.92577811 22.53125,2.5546875 L22.53125,6 L21.5585938,6 L21.5585938,-0.421875 L22.3613281,-0.421875 L22.4726562,0.767578125 L22.5195312,0.767578125 C22.7578137,0.349607285 23.0449202,0.0273448828 23.3808594,-0.19921875 C23.7167986,-0.425782383 24.0859355,-0.5390625 24.4882812,-0.5390625 L24.4882812,-0.5390625 Z M28.9296875,6.1171875 C27.980464,6.1171875 27.2314481,5.82812789 26.6826172,5.25 C26.1337863,4.67187211 25.859375,3.86914576 25.859375,2.84179688 C25.859375,1.80663545 26.1142553,0.984378047 26.6240234,0.375 C27.1337916,-0.234378047 27.8183551,-0.5390625 28.6777344,-0.5390625 C29.4824259,-0.5390625 30.1191383,-0.274416709 30.5878906,0.254882812 C31.056643,0.784182334 31.2910156,1.48241754 31.2910156,2.34960938 L31.2910156,2.96484375 L26.8671875,2.96484375 C26.8867188,3.71875377 27.0771466,4.29101367 27.4384766,4.68164062 C27.7998065,5.07226758 28.3085905,5.26757812 28.9648438,5.26757812 C29.6562535,5.26757812 30.3398404,5.12304832 31.015625,4.83398438 L31.015625,5.70117188 C30.6718733,5.84961012 30.3466812,5.95605437 30.0400391,6.02050781 C29.7333969,6.08496126 29.3632834,6.1171875 28.9296875,6.1171875 L28.9296875,6.1171875 Z M28.6660156,0.275390625 C28.150388,0.275390625 27.7392593,0.443357695 27.4326172,0.779296875 C27.125975,1.11523605 26.9453128,1.58007516 26.890625,2.17382812 L30.2480469,2.17382812 C30.2480469,1.56054381 30.1113295,1.09082194 29.8378906,0.764648438 C29.5644518,0.438474932 29.1738307,0.275390625 28.6660156,0.275390625 L28.6660156,0.275390625 Z M40.015625,6 L39.8222656,5.0859375 L39.7753906,5.0859375 C39.4550765,5.48828326 39.1357438,5.76074147 38.8173828,5.90332031 C38.4990218,6.04589915 38.1015649,6.1171875 37.625,6.1171875 C36.9882781,6.1171875 36.4892596,5.95312664 36.1279297,5.625 C35.7665998,5.29687336 35.5859375,4.83008115 35.5859375,4.22460938 C35.5859375,2.92772789 36.6230365,2.24804719 38.6972656,2.18554688 L39.7871094,2.15039062 L39.7871094,1.75195312 C39.7871094,1.24804436 39.678712,0.875977764 39.4619141,0.635742188 C39.2451161,0.395506611 38.8984399,0.275390625 38.421875,0.275390625 C37.8867161,0.275390625 37.2812534,0.439451484 36.6054688,0.767578125 L36.3066406,0.0234375 C36.6230485,-0.148438359 36.9697247,-0.283202637 37.3466797,-0.380859375 C37.7236347,-0.478516113 38.1015606,-0.52734375 38.4804688,-0.52734375 C39.2460976,-0.52734375 39.8134747,-0.357423574 40.1826172,-0.017578125 C40.5517597,0.322267324 40.7363281,0.86718375 40.7363281,1.6171875 L40.7363281,6 L40.015625,6 Z M37.8183594,5.31445312 C38.4238312,5.31445312 38.8994123,5.14843916 39.2451172,4.81640625 C39.590822,4.48437334 39.7636719,4.01953424 39.7636719,3.421875 L39.7636719,2.84179688 L38.7910156,2.8828125 C38.0175743,2.91015639 37.4599626,3.03027237 37.1181641,3.24316406 C36.7763655,3.45605575 36.6054688,3.78710713 36.6054688,4.23632812 C36.6054688,4.58789238 36.711913,4.85546783 36.9248047,5.0390625 C37.1376964,5.22265717 37.435545,5.31445312 37.8183594,5.31445312 L37.8183594,5.31445312 Z M43.7128906,6 L42.7402344,6 L42.7402344,-3.1171875 L43.7128906,-3.1171875 L43.7128906,6 Z M51.3183594,2.78320312 C51.3183594,3.83008336 51.0546901,4.647458 50.5273438,5.23535156 C49.9999974,5.82324513 49.271489,6.1171875 48.3417969,6.1171875 C47.7675753,6.1171875 47.2578147,5.98242322 46.8125,5.71289062 C46.3671853,5.44335803 46.0234387,5.05664314 45.78125,4.55273438 C45.5390613,4.04882561 45.4179688,3.45898775 45.4179688,2.78320312 C45.4179688,1.73632289 45.6796849,0.920901357 46.203125,0.336914062 C46.7265651,-0.247073232 47.4531204,-0.5390625 48.3828125,-0.5390625 C49.2812545,-0.5390625 49.9951145,-0.240237363 50.5244141,0.357421875 C51.0537136,0.955081113 51.3183594,1.76366678 51.3183594,2.78320312 L51.3183594,2.78320312 Z M46.4257812,2.78320312 C46.4257812,3.60351973 46.5898421,4.22851348 46.9179687,4.65820312 C47.2460954,5.08789277 47.7285124,5.30273438 48.3652344,5.30273438 C49.0019563,5.30273438 49.4853499,5.08886933 49.8154297,4.66113281 C50.1455095,4.2333963 50.3105469,3.607426 50.3105469,2.78320312 C50.3105469,1.96679279 50.1455095,1.34668181 49.8154297,0.922851562 C49.4853499,0.499021318 48.9980501,0.287109375 48.3535156,0.287109375 C47.7167937,0.287109375 47.2363297,0.49609166 46.9121094,0.9140625 C46.587889,1.33203334 46.4257812,1.95507398 46.4257812,2.78320312 L46.4257812,2.78320312 Z M57.4179688,6 L57.4179688,1.84570312 C57.4179688,1.32226301 57.2988293,0.931641914 57.0605469,0.673828125 C56.8222644,0.416014336 56.4492213,0.287109375 55.9414063,0.287109375 C55.2695279,0.287109375 54.7773453,0.468748184 54.4648438,0.83203125 C54.1523422,1.19531432 53.9960938,1.7949177 53.9960938,2.63085938 L53.9960938,6 L53.0234375,6 L53.0234375,-0.421875 L53.8144531,-0.421875 L53.9726563,0.45703125 L54.0195313,0.45703125 C54.218751,0.140623418 54.4980451,-0.104491318 54.8574219,-0.278320312 C55.2167987,-0.452149307 55.6171853,-0.5390625 56.0585938,-0.5390625 C56.8320351,-0.5390625 57.4140605,-0.352540928 57.8046875,0.0205078125 C58.1953145,0.393556553 58.390625,0.990230273 58.390625,1.81054688 L58.390625,6 L57.4179688,6 Z M63.1015625,6.1171875 C62.152339,6.1171875 61.4033231,5.82812789 60.8544922,5.25 C60.3056613,4.67187211 60.03125,3.86914576 60.03125,2.84179688 C60.03125,1.80663545 60.2861303,0.984378047 60.7958984,0.375 C61.3056666,-0.234378047 61.9902301,-0.5390625 62.8496094,-0.5390625 C63.6543009,-0.5390625 64.2910133,-0.274416709 64.7597656,0.254882812 C65.228518,0.784182334 65.4628906,1.48241754 65.4628906,2.34960938 L65.4628906,2.96484375 L61.0390625,2.96484375 C61.0585938,3.71875377 61.2490216,4.29101367 61.6103516,4.68164062 C61.9716815,5.07226758 62.4804655,5.26757812 63.1367188,5.26757812 C63.8281285,5.26757812 64.5117154,5.12304832 65.1875,4.83398438 L65.1875,5.70117188 C64.8437483,5.84961012 64.5185562,5.95605437 64.2119141,6.02050781 C63.9052719,6.08496126 63.5351584,6.1171875 63.1015625,6.1171875 L63.1015625,6.1171875 Z M62.8378906,0.275390625 C62.322263,0.275390625 61.9111343,0.443357695 61.6044922,0.779296875 C61.29785,1.11523605 61.1171878,1.58007516 61.0625,2.17382812 L64.4199219,2.17382812 C64.4199219,1.56054381 64.2832045,1.09082194 64.0097656,0.764648438 C63.7363268,0.438474932 63.3457057,0.275390625 62.8378906,0.275390625 L62.8378906,0.275390625 Z M66.9804688,5.37890625 C66.9804688,5.11718619 67.0400385,4.91894599 67.1591797,4.78417969 C67.2783209,4.64941339 67.4492176,4.58203125 67.671875,4.58203125 C67.8984386,4.58203125 68.0751947,4.64941339 68.2021484,4.78417969 C68.3291022,4.91894599 68.3925781,5.11718619 68.3925781,5.37890625 C68.3925781,5.63281377 68.3281256,5.82812432 68.1992188,5.96484375 C68.0703119,6.10156318 67.8945324,6.16992188 67.671875,6.16992188 C67.4726553,6.16992188 67.3076178,6.10839905 67.1767578,5.98535156 C67.0458978,5.86230407 66.9804688,5.66015766 66.9804688,5.37890625 L66.9804688,5.37890625 Z" id="You-are-alone." fill="#000000" sketch:type="MSShapeGroup"></path>
    </g>
</svg>