<?xml version="1.0" encoding="UTF-8" standalone="no"?>
<svg width="89px" height="11px" viewBox="0 0 89 11" version="1.1" xmlns="http://www.w3.org/2000/svg" xmlns:xlink="http://www.w3.org/1999/xlink" xmlns:sketch="http://www.bohemiancoding.com/sketch/ns">
    <!-- Generator: Sketch 3.1.1 (8761) - http://www.bohemiancoding.com/sketch -->
    <title>With the others.</title>
    <desc>Created with Sketch.</desc>
    <defs></defs>
    <g id="Page-1" stroke="none" stroke-width="1" fill="none" fill-rule="evenodd" sketch:type="MSPage">
        <path d="M8.65429688,10 L7.66992188,10 L5.94140625,4.26367188 C5.85937459,4.00976436 5.76757863,3.68945506 5.66601562,3.30273438 C5.56445262,2.91601369 5.51171877,2.68359414 5.5078125,2.60546875 C5.42187457,3.12109633 5.28515719,3.68554381 5.09765625,4.29882812 L3.421875,10 L2.4375,10 L0.158203125,1.43359375 L1.21289062,1.43359375 L2.56640625,6.72460938 C2.75390719,7.46680059 2.89062457,8.13866887 2.9765625,8.74023438 C3.08203178,8.02538705 3.23828021,7.32617529 3.4453125,6.64257812 L4.98046875,1.43359375 L6.03515625,1.43359375 L7.64648438,6.68945312 C7.83398531,7.2949249 7.99218686,7.97851182 8.12109375,8.74023438 C8.19531287,8.1855441 8.33593646,7.50976961 8.54296875,6.71289062 L9.890625,1.43359375 L10.9453125,1.43359375 L8.65429688,10 Z M13.1132812,10 L12.140625,10 L12.140625,3.578125 L13.1132812,3.578125 L13.1132812,10 Z M12.0585938,1.83789062 C12.0585938,1.61523326 12.1132807,1.45214896 12.2226562,1.34863281 C12.3320318,1.24511667 12.4687492,1.19335938 12.6328125,1.19335938 C12.7890633,1.19335938 12.9238276,1.24609322 13.0371094,1.3515625 C13.1503912,1.45703178 13.2070312,1.61913953 13.2070312,1.83789062 C13.2070312,2.05664172 13.1503912,2.21972603 13.0371094,2.32714844 C12.9238276,2.43457085 12.7890633,2.48828125 12.6328125,2.48828125 C12.4687492,2.48828125 12.3320318,2.43457085 12.2226562,2.32714844 C12.1132807,2.21972603 12.0585938,2.05664172 12.0585938,1.83789062 L12.0585938,1.83789062 Z M17.25,9.31445312 C17.4218759,9.31445312 17.5878898,9.30175794 17.7480469,9.27636719 C17.9082039,9.25097644 18.0351558,9.22460951 18.1289062,9.19726562 L18.1289062,9.94140625 C18.023437,9.99218775 17.8681651,10.0341795 17.6630859,10.0673828 C17.4580068,10.1005861 17.2734383,10.1171875 17.109375,10.1171875 C15.8671813,10.1171875 15.2460938,9.46289717 15.2460938,8.15429688 L15.2460938,4.33398438 L14.3261719,4.33398438 L14.3261719,3.86523438 L15.2460938,3.4609375 L15.65625,2.08984375 L16.21875,2.08984375 L16.21875,3.578125 L18.0820312,3.578125 L18.0820312,4.33398438 L16.21875,4.33398438 L16.21875,8.11328125 C16.21875,8.50000193 16.310546,8.79687396 16.4941406,9.00390625 C16.6777353,9.21093854 16.9296859,9.31445312 17.25,9.31445312 L17.25,9.31445312 Z M23.8066406,10 L23.8066406,5.84570312 C23.8066406,5.32226301 23.6875012,4.93164191 23.4492188,4.67382812 C23.2109363,4.41601434 22.8378932,4.28710938 22.3300781,4.28710938 C21.6542935,4.28710938 21.1611344,4.47070129 20.8505859,4.83789062 C20.5400375,5.20507996 20.3847656,5.80663645 20.3847656,6.64257813 L20.3847656,10 L19.4121094,10 L19.4121094,0.8828125 L20.3847656,0.8828125 L20.3847656,3.64257812 C20.3847656,3.97461104 20.3691408,4.24999891 20.3378906,4.46875 L20.3964844,4.46875 C20.5878916,4.16015471 20.8603498,3.91699308 21.2138672,3.73925781 C21.5673846,3.56152255 21.9707009,3.47265625 22.4238281,3.47265625 C23.2089883,3.47265625 23.7978496,3.65917782 24.1904297,4.03222656 C24.5830098,4.4052753 24.7792969,4.99804281 24.7792969,5.81054688 L24.7792969,10 L23.8066406,10 Z M31.96875,9.31445312 C32.1406259,9.31445312 32.3066398,9.30175794 32.4667969,9.27636719 C32.6269539,9.25097644 32.7539058,9.22460951 32.8476562,9.19726562 L32.8476562,9.94140625 C32.742187,9.99218775 32.5869151,10.0341795 32.3818359,10.0673828 C32.1767568,10.1005861 31.9921883,10.1171875 31.828125,10.1171875 C30.5859313,10.1171875 29.9648438,9.46289717 29.9648438,8.15429688 L29.9648438,4.33398438 L29.0449219,4.33398438 L29.0449219,3.86523438 L29.9648438,3.4609375 L30.375,2.08984375 L30.9375,2.08984375 L30.9375,3.578125 L32.8007812,3.578125 L32.8007812,4.33398438 L30.9375,4.33398438 L30.9375,8.11328125 C30.9375,8.50000193 31.029296,8.79687396 31.2128906,9.00390625 C31.3964853,9.21093854 31.6484359,9.31445312 31.96875,9.31445312 L31.96875,9.31445312 Z M38.5253906,10 L38.5253906,5.84570312 C38.5253906,5.32226301 38.4062512,4.93164191 38.1679688,4.67382812 C37.9296863,4.41601434 37.5566432,4.28710938 37.0488281,4.28710938 C36.3730435,4.28710938 35.8798844,4.47070129 35.5693359,4.83789062 C35.2587875,5.20507996 35.1035156,5.80663645 35.1035156,6.64257813 L35.1035156,10 L34.1308594,10 L34.1308594,0.8828125 L35.1035156,0.8828125 L35.1035156,3.64257812 C35.1035156,3.97461104 35.0878908,4.24999891 35.0566406,4.46875 L35.1152344,4.46875 C35.3066416,4.16015471 35.5790998,3.91699308 35.9326172,3.73925781 C36.2861346,3.56152255 36.6894509,3.47265625 37.1425781,3.47265625 C37.9277383,3.47265625 38.5165996,3.65917782 38.9091797,4.03222656 C39.3017598,4.4052753 39.4980469,4.99804281 39.4980469,5.81054688 L39.4980469,10 L38.5253906,10 Z M44.2089844,10.1171875 C43.2597609,10.1171875 42.5107449,9.82812789 41.9619141,9.25 C41.4130832,8.67187211 41.1386719,7.86914576 41.1386719,6.84179688 C41.1386719,5.80663545 41.3935521,4.98437805 41.9033203,4.375 C42.4130885,3.76562195 43.097652,3.4609375 43.9570312,3.4609375 C44.7617228,3.4609375 45.3984352,3.72558329 45.8671875,4.25488281 C46.3359398,4.78418233 46.5703125,5.48241754 46.5703125,6.34960938 L46.5703125,6.96484375 L42.1464844,6.96484375 C42.1660157,7.71875377 42.3564435,8.29101367 42.7177734,8.68164062 C43.0791034,9.07226758 43.5878873,9.26757812 44.2441406,9.26757812 C44.9355503,9.26757812 45.6191372,9.12304832 46.2949219,8.83398438 L46.2949219,9.70117188 C45.9511702,9.84961012 45.6259781,9.95605437 45.3193359,10.0205078 C45.0126938,10.0849613 44.6425803,10.1171875 44.2089844,10.1171875 L44.2089844,10.1171875 Z M43.9453125,4.27539062 C43.4296849,4.27539062 43.0185562,4.4433577 42.7119141,4.77929688 C42.4052719,5.11523605 42.2246096,5.58007516 42.1699219,6.17382812 L45.5273438,6.17382812 C45.5273438,5.56054381 45.3906264,5.09082194 45.1171875,4.76464844 C44.8437486,4.43847493 44.4531275,4.27539062 43.9453125,4.27539062 L43.9453125,4.27539062 Z M56.8886719,6.78320312 C56.8886719,7.83008336 56.6250026,8.647458 56.0976562,9.23535156 C55.5703099,9.82324513 54.8418015,10.1171875 53.9121094,10.1171875 C53.3378878,10.1171875 52.8281272,9.98242322 52.3828125,9.71289062 C51.9374978,9.44335803 51.5937512,9.05664314 51.3515625,8.55273438 C51.1093738,8.04882561 50.9882812,7.45898775 50.9882812,6.78320312 C50.9882812,5.73632289 51.2499974,4.92090136 51.7734375,4.33691406 C52.2968776,3.75292677 53.0234329,3.4609375 53.953125,3.4609375 C54.851567,3.4609375 55.565427,3.75976264 56.0947266,4.35742188 C56.6240261,4.95508111 56.8886719,5.76366678 56.8886719,6.78320312 L56.8886719,6.78320312 Z M51.9960938,6.78320312 C51.9960938,7.60351973 52.1601546,8.22851348 52.4882812,8.65820312 C52.8164079,9.08789277 53.2988249,9.30273438 53.9355469,9.30273438 C54.5722688,9.30273438 55.0556624,9.08886933 55.3857422,8.66113281 C55.715822,8.2333963 55.8808594,7.607426 55.8808594,6.78320312 C55.8808594,5.96679279 55.715822,5.34668181 55.3857422,4.92285156 C55.0556624,4.49902132 54.5683626,4.28710938 53.9238281,4.28710938 C53.2871062,4.28710938 52.8066422,4.49609166 52.4824219,4.9140625 C52.1582015,5.33203334 51.9960938,5.95507398 51.9960938,6.78320312 L51.9960938,6.78320312 Z M60.6679688,9.31445312 C60.8398446,9.31445312 61.0058586,9.30175794 61.1660156,9.27636719 C61.3261727,9.25097644 61.4531245,9.22460951 61.546875,9.19726562 L61.546875,9.94140625 C61.4414057,9.99218775 61.2861338,10.0341795 61.0810547,10.0673828 C60.8759755,10.1005861 60.6914071,10.1171875 60.5273438,10.1171875 C59.28515,10.1171875 58.6640625,9.46289717 58.6640625,8.15429688 L58.6640625,4.33398438 L57.7441406,4.33398438 L57.7441406,3.86523438 L58.6640625,3.4609375 L59.0742188,2.08984375 L59.6367188,2.08984375 L59.6367188,3.578125 L61.5,3.578125 L61.5,4.33398438 L59.6367188,4.33398438 L59.6367188,8.11328125 C59.6367188,8.50000193 59.7285147,8.79687396 59.9121094,9.00390625 C60.095704,9.21093854 60.3476546,9.31445312 60.6679688,9.31445312 L60.6679688,9.31445312 Z M67.2246094,10 L67.2246094,5.84570312 C67.2246094,5.32226301 67.1054699,4.93164191 66.8671875,4.67382812 C66.6289051,4.41601434 66.2558619,4.28710938 65.7480469,4.28710938 C65.0722622,4.28710938 64.5791031,4.47070129 64.2685547,4.83789062 C63.9580063,5.20507996 63.8027344,5.80663645 63.8027344,6.64257813 L63.8027344,10 L62.8300781,10 L62.8300781,0.8828125 L63.8027344,0.8828125 L63.8027344,3.64257812 C63.8027344,3.97461104 63.7871095,4.24999891 63.7558594,4.46875 L63.8144531,4.46875 C64.0058603,4.16015471 64.2783185,3.91699308 64.6318359,3.73925781 C64.9853533,3.56152255 65.3886696,3.47265625 65.8417969,3.47265625 C66.6269571,3.47265625 67.2158183,3.65917782 67.6083984,4.03222656 C68.0009785,4.4052753 68.1972656,4.99804281 68.1972656,5.81054688 L68.1972656,10 L67.2246094,10 Z M72.9082031,10.1171875 C71.9589796,10.1171875 71.2099637,9.82812789 70.6611328,9.25 C70.1123019,8.67187211 69.8378906,7.86914576 69.8378906,6.84179688 C69.8378906,5.80663545 70.0927709,4.98437805 70.6025391,4.375 C71.1123072,3.76562195 71.7968707,3.4609375 72.65625,3.4609375 C73.4609415,3.4609375 74.0976539,3.72558329 74.5664062,4.25488281 C75.0351586,4.78418233 75.2695312,5.48241754 75.2695312,6.34960938 L75.2695312,6.96484375 L70.8457031,6.96484375 C70.8652345,7.71875377 71.0556623,8.29101367 71.4169922,8.68164062 C71.7783221,9.07226758 72.2871061,9.26757812 72.9433594,9.26757812 C73.6347691,9.26757812 74.318356,9.12304832 74.9941406,8.83398438 L74.9941406,9.70117188 C74.6503889,9.84961012 74.3251968,9.95605437 74.0185547,10.0205078 C73.7119125,10.0849613 73.341799,10.1171875 72.9082031,10.1171875 L72.9082031,10.1171875 Z M72.6445312,4.27539062 C72.1289037,4.27539062 71.717775,4.4433577 71.4111328,4.77929688 C71.1044907,5.11523605 70.9238284,5.58007516 70.8691406,6.17382812 L74.2265625,6.17382812 C74.2265625,5.56054381 74.0898451,5.09082194 73.8164062,4.76464844 C73.5429674,4.43847493 73.1523463,4.27539062 72.6445312,4.27539062 L72.6445312,4.27539062 Z M79.8574219,3.4609375 C80.1425796,3.4609375 80.3984364,3.48437477 80.625,3.53125 L80.4902344,4.43359375 C80.224608,4.37499971 79.9902354,4.34570312 79.7871094,4.34570312 C79.2675755,4.34570312 78.823244,4.55663852 78.4541016,4.97851562 C78.0849591,5.40039273 77.9003906,5.92577811 77.9003906,6.5546875 L77.9003906,10 L76.9277344,10 L76.9277344,3.578125 L77.7304688,3.578125 L77.8417969,4.76757812 L77.8886719,4.76757812 C78.1269543,4.34960729 78.4140608,4.02734488 78.75,3.80078125 C79.0859392,3.57421762 79.4550761,3.4609375 79.8574219,3.4609375 L79.8574219,3.4609375 Z M85.96875,8.24804688 C85.96875,8.84570611 85.746096,9.306639 85.3007812,9.63085938 C84.8554665,9.95507975 84.2304728,10.1171875 83.4257812,10.1171875 C82.5742145,10.1171875 81.9101586,9.98242322 81.4335938,9.71289062 L81.4335938,8.81054688 C81.742189,8.96679766 82.0732404,9.0898433 82.4267578,9.1796875 C82.7802752,9.2695317 83.1210921,9.31445312 83.4492188,9.31445312 C83.9570338,9.31445312 84.3476549,9.23339925 84.6210938,9.07128906 C84.8945326,8.90917888 85.03125,8.66211104 85.03125,8.33007812 C85.03125,8.08007687 84.9228526,7.86621183 84.7060547,7.68847656 C84.4892567,7.5107413 84.0664094,7.30078246 83.4375,7.05859375 C82.8398408,6.83593639 82.4150403,6.64160239 82.1630859,6.47558594 C81.9111316,6.30956948 81.7236334,6.1210948 81.6005859,5.91015625 C81.4775384,5.6992177 81.4160156,5.44726709 81.4160156,5.15429688 C81.4160156,4.63085676 81.6289041,4.21777495 82.0546875,3.91503906 C82.4804709,3.61230317 83.0644494,3.4609375 83.8066406,3.4609375 C84.4980503,3.4609375 85.1738248,3.60156109 85.8339844,3.8828125 L85.4882812,4.67382812 C84.8437468,4.4082018 84.2597682,4.27539062 83.7363281,4.27539062 C83.2753883,4.27539062 82.9277355,4.34765553 82.6933594,4.4921875 C82.4589832,4.63671947 82.3417969,4.83593623 82.3417969,5.08984375 C82.3417969,5.26171961 82.3857417,5.40820252 82.4736328,5.52929688 C82.5615239,5.65039123 82.703124,5.76562445 82.8984375,5.875 C83.093751,5.98437555 83.4687472,6.14257709 84.0234375,6.34960938 C84.7851601,6.62695451 85.2998033,6.90624859 85.5673828,7.1875 C85.8349623,7.46875141 85.96875,7.8222635 85.96875,8.24804688 L85.96875,8.24804688 Z M87.4101562,9.37890625 C87.4101562,9.11718619 87.469726,8.91894599 87.5888672,8.78417969 C87.7080084,8.64941339 87.8789051,8.58203125 88.1015625,8.58203125 C88.3281261,8.58203125 88.5048822,8.64941339 88.6318359,8.78417969 C88.7587897,8.91894599 88.8222656,9.11718619 88.8222656,9.37890625 C88.8222656,9.63281377 88.7578131,9.82812432 88.6289062,9.96484375 C88.4999994,10.1015632 88.3242199,10.1699219 88.1015625,10.1699219 C87.9023428,10.1699219 87.7373053,10.1083991 87.6064453,9.98535156 C87.4755853,9.86230407 87.4101562,9.66015766 87.4101562,9.37890625 L87.4101562,9.37890625 Z" id="With-the-others." fill="#000000" sketch:type="MSShapeGroup"></path>
    </g>
</svg>