<?xml version="1.0" encoding="UTF-8" standalone="no"?>
<svg width="101px" height="13px" viewBox="0 0 101 13" version="1.1" xmlns="http://www.w3.org/2000/svg" xmlns:xlink="http://www.w3.org/1999/xlink" xmlns:sketch="http://www.bohemiancoding.com/sketch/ns">
    <!-- Generator: Sketch 3.1.1 (8761) - http://www.bohemiancoding.com/sketch -->
    <title>They took it again.</title>
    <desc>Created with Sketch.</desc>
    <defs></defs>
    <g id="Page-1" stroke="none" stroke-width="1" fill="none" fill-rule="evenodd" sketch:type="MSPage">
        <path d="M3.81445312,10.0527344 L2.81835938,10.0527344 L2.81835938,2.37109375 L0.10546875,2.37109375 L0.10546875,1.48632812 L6.52734375,1.48632812 L6.52734375,2.37109375 L3.81445312,2.37109375 L3.81445312,10.0527344 Z M12.0644531,10.0527344 L12.0644531,5.8984375 C12.0644531,5.37499738 11.9453137,4.98437629 11.7070312,4.7265625 C11.4687488,4.46874871 11.0957057,4.33984375 10.5878906,4.33984375 C9.912106,4.33984375 9.41894687,4.52343566 9.10839844,4.890625 C8.79785001,5.25781434 8.64257812,5.85937082 8.64257812,6.6953125 L8.64257812,10.0527344 L7.66992188,10.0527344 L7.66992188,0.935546875 L8.64257812,0.935546875 L8.64257812,3.6953125 C8.64257812,4.02734541 8.62695328,4.30273328 8.59570312,4.52148438 L8.65429688,4.52148438 C8.84570408,4.21288908 9.11816229,3.96972745 9.47167969,3.79199219 C9.82519708,3.61425692 10.2285134,3.52539062 10.6816406,3.52539062 C11.4668008,3.52539062 12.0556621,3.7119122 12.4482422,4.08496094 C12.8408223,4.45800968 13.0371094,5.05077719 13.0371094,5.86328125 L13.0371094,10.0527344 L12.0644531,10.0527344 Z M17.7480469,10.1699219 C16.7988234,10.1699219 16.0498074,9.88086227 15.5009766,9.30273438 C14.9521457,8.72460648 14.6777344,7.92188014 14.6777344,6.89453125 C14.6777344,5.85936982 14.9326146,5.03711242 15.4423828,4.42773438 C15.952151,3.81835633 16.6367145,3.51367188 17.4960938,3.51367188 C18.3007853,3.51367188 18.9374977,3.77831767 19.40625,4.30761719 C19.8750023,4.83691671 20.109375,5.53515191 20.109375,6.40234375 L20.109375,7.01757812 L15.6855469,7.01757812 C15.7050782,7.77148814 15.895506,8.34374805 16.2568359,8.734375 C16.6181659,9.12500195 17.1269498,9.3203125 17.7832031,9.3203125 C18.4746128,9.3203125 19.1581997,9.1757827 19.8339844,8.88671875 L19.8339844,9.75390625 C19.4902327,9.90234449 19.1650406,10.0087887 18.8583984,10.0732422 C18.5517563,10.1376956 18.1816428,10.1699219 17.7480469,10.1699219 L17.7480469,10.1699219 Z M17.484375,4.328125 C16.9687474,4.328125 16.5576187,4.49609207 16.2509766,4.83203125 C15.9443344,5.16797043 15.7636721,5.63280953 15.7089844,6.2265625 L19.0664062,6.2265625 C19.0664062,5.61327818 18.9296889,5.14355632 18.65625,4.81738281 C18.3828111,4.49120931 17.99219,4.328125 17.484375,4.328125 L17.484375,4.328125 Z M20.5078125,3.63085938 L21.5507812,3.63085938 L22.9570312,7.29296875 C23.2656265,8.12891043 23.4570309,8.73242002 23.53125,9.10351562 L23.578125,9.10351562 C23.6289065,8.90429588 23.7353508,8.56347897 23.8974609,8.08105469 C24.0595711,7.5986304 24.5898393,6.1152468 25.4882812,3.63085938 L26.53125,3.63085938 L23.7714844,10.9433594 C23.4980455,11.6660192 23.1787128,12.1787094 22.8134766,12.4814453 C22.4482404,12.7841812 22.0000027,12.9355469 21.46875,12.9355469 C21.1718735,12.9355469 20.8789077,12.9023441 20.5898438,12.8359375 L20.5898438,12.0566406 C20.8046886,12.1035159 21.0449205,12.1269531 21.3105469,12.1269531 C21.978519,12.1269531 22.4550767,11.7519569 22.7402344,11.0019531 L23.0976562,10.0878906 L20.5078125,3.63085938 Z M32.765625,9.3671875 C32.9375009,9.3671875 33.1035148,9.35449231 33.2636719,9.32910156 C33.4238289,9.30371081 33.5507808,9.27734389 33.6445312,9.25 L33.6445312,9.99414062 C33.539062,10.0449221 33.3837901,10.0869139 33.1787109,10.1201172 C32.9736318,10.1533205 32.7890633,10.1699219 32.625,10.1699219 C31.3828063,10.1699219 30.7617187,9.51563154 30.7617187,8.20703125 L30.7617187,4.38671875 L29.8417969,4.38671875 L29.8417969,3.91796875 L30.7617187,3.51367188 L31.171875,2.14257812 L31.734375,2.14257812 L31.734375,3.63085938 L33.5976562,3.63085938 L33.5976562,4.38671875 L31.734375,4.38671875 L31.734375,8.16601562 C31.734375,8.55273631 31.826171,8.84960834 32.0097656,9.05664062 C32.1933603,9.26367291 32.4453109,9.3671875 32.765625,9.3671875 L32.765625,9.3671875 Z M40.4707031,6.8359375 C40.4707031,7.88281773 40.2070339,8.70019237 39.6796875,9.28808594 C39.1523411,9.8759795 38.4238328,10.1699219 37.4941406,10.1699219 C36.919919,10.1699219 36.4101585,10.0351576 35.9648438,9.765625 C35.519529,9.4960924 35.1757825,9.10937752 34.9335938,8.60546875 C34.691405,8.10155998 34.5703125,7.51172213 34.5703125,6.8359375 C34.5703125,5.78905727 34.8320286,4.97363573 35.3554688,4.38964844 C35.8789089,3.80566114 36.6054641,3.51367188 37.5351562,3.51367188 C38.4335982,3.51367188 39.1474583,3.81249701 39.6767578,4.41015625 C40.2060573,5.00781549 40.4707031,5.81640115 40.4707031,6.8359375 L40.4707031,6.8359375 Z M35.578125,6.8359375 C35.578125,7.6562541 35.7421859,8.28124785 36.0703125,8.7109375 C36.3984391,9.14062715 36.8808562,9.35546875 37.5175781,9.35546875 C38.1543001,9.35546875 38.6376937,9.1416037 38.9677734,8.71386719 C39.2978532,8.28613067 39.4628906,7.66016037 39.4628906,6.8359375 C39.4628906,6.01952717 39.2978532,5.39941618 38.9677734,4.97558594 C38.6376937,4.55175569 38.1503938,4.33984375 37.5058594,4.33984375 C36.8691374,4.33984375 36.3886735,4.54882604 36.0644531,4.96679688 C35.7402328,5.38476771 35.578125,6.00780836 35.578125,6.8359375 L35.578125,6.8359375 Z M47.71875,6.8359375 C47.71875,7.88281773 47.4550808,8.70019237 46.9277344,9.28808594 C46.400388,9.8759795 45.6718796,10.1699219 44.7421875,10.1699219 C44.1679659,10.1699219 43.6582054,10.0351576 43.2128906,9.765625 C42.7675759,9.4960924 42.4238293,9.10937752 42.1816406,8.60546875 C41.9394519,8.10155998 41.8183594,7.51172213 41.8183594,6.8359375 C41.8183594,5.78905727 42.0800755,4.97363573 42.6035156,4.38964844 C43.1269557,3.80566114 43.853511,3.51367188 44.7832031,3.51367188 C45.6816451,3.51367188 46.3955052,3.81249701 46.9248047,4.41015625 C47.4541042,5.00781549 47.71875,5.81640115 47.71875,6.8359375 L47.71875,6.8359375 Z M42.8261719,6.8359375 C42.8261719,7.6562541 42.9902327,8.28124785 43.3183594,8.7109375 C43.646486,9.14062715 44.1289031,9.35546875 44.765625,9.35546875 C45.4023469,9.35546875 45.8857405,9.1416037 46.2158203,8.71386719 C46.5459001,8.28613067 46.7109375,7.66016037 46.7109375,6.8359375 C46.7109375,6.01952717 46.5459001,5.39941618 46.2158203,4.97558594 C45.8857405,4.55175569 45.3984407,4.33984375 44.7539062,4.33984375 C44.1171843,4.33984375 43.6367204,4.54882604 43.3125,4.96679688 C42.9882796,5.38476771 42.8261719,6.00780836 42.8261719,6.8359375 L42.8261719,6.8359375 Z M50.3847656,6.765625 C50.5527352,6.52734256 50.808592,6.21484568 51.1523438,5.828125 L53.2265625,3.63085938 L54.3808594,3.63085938 L51.7792969,6.3671875 L54.5625,10.0527344 L53.3847656,10.0527344 L51.1171875,7.01757812 L50.3847656,7.65039062 L50.3847656,10.0527344 L49.4238281,10.0527344 L49.4238281,0.935546875 L50.3847656,0.935546875 L50.3847656,5.76953125 C50.3847656,5.98437607 50.3691408,6.316404 50.3378906,6.765625 L50.3847656,6.765625 Z M59.8125,10.0527344 L58.8398438,10.0527344 L58.8398438,3.63085938 L59.8125,3.63085938 L59.8125,10.0527344 Z M58.7578125,1.890625 C58.7578125,1.66796764 58.8124995,1.50488333 58.921875,1.40136719 C59.0312505,1.29785104 59.1679679,1.24609375 59.3320312,1.24609375 C59.488282,1.24609375 59.6230463,1.2988276 59.7363281,1.40429688 C59.8496099,1.50976615 59.90625,1.67187391 59.90625,1.890625 C59.90625,2.10937609 59.8496099,2.2724604 59.7363281,2.37988281 C59.6230463,2.48730522 59.488282,2.54101562 59.3320312,2.54101562 C59.1679679,2.54101562 59.0312505,2.48730522 58.921875,2.37988281 C58.8124995,2.2724604 58.7578125,2.10937609 58.7578125,1.890625 L58.7578125,1.890625 Z M63.9492188,9.3671875 C64.1210946,9.3671875 64.2871086,9.35449231 64.4472656,9.32910156 C64.6074227,9.30371081 64.7343745,9.27734389 64.828125,9.25 L64.828125,9.99414062 C64.7226557,10.0449221 64.5673838,10.0869139 64.3623047,10.1201172 C64.1572255,10.1533205 63.9726571,10.1699219 63.8085938,10.1699219 C62.5664,10.1699219 61.9453125,9.51563154 61.9453125,8.20703125 L61.9453125,4.38671875 L61.0253906,4.38671875 L61.0253906,3.91796875 L61.9453125,3.51367188 L62.3554688,2.14257812 L62.9179688,2.14257812 L62.9179688,3.63085938 L64.78125,3.63085938 L64.78125,4.38671875 L62.9179688,4.38671875 L62.9179688,8.16601562 C62.9179688,8.55273631 63.0097647,8.84960834 63.1933594,9.05664062 C63.376954,9.26367291 63.6289046,9.3671875 63.9492188,9.3671875 L63.9492188,9.3671875 Z M73.1777344,10.0527344 L72.984375,9.13867188 L72.9375,9.13867188 C72.6171859,9.54101764 72.2978532,9.81347585 71.9794922,9.95605469 C71.6611312,10.0986335 71.2636743,10.1699219 70.7871094,10.1699219 C70.1503874,10.1699219 69.651369,10.005861 69.2900391,9.67773438 C68.9287091,9.34960773 68.7480469,8.88281553 68.7480469,8.27734375 C68.7480469,6.98046227 69.7851459,6.30078156 71.859375,6.23828125 L72.9492188,6.203125 L72.9492188,5.8046875 C72.9492188,5.30077873 72.8408214,4.92871214 72.6240234,4.68847656 C72.4072255,4.44824099 72.0605493,4.328125 71.5839844,4.328125 C71.0488254,4.328125 70.4433628,4.49218586 69.7675781,4.8203125 L69.46875,4.07617188 C69.7851578,3.90429602 70.1318341,3.76953174 70.5087891,3.671875 C70.8857441,3.57421826 71.26367,3.52539062 71.6425781,3.52539062 C72.408207,3.52539062 72.9755841,3.6953108 73.3447266,4.03515625 C73.713869,4.3750017 73.8984375,4.91991813 73.8984375,5.66992188 L73.8984375,10.0527344 L73.1777344,10.0527344 Z M70.9804688,9.3671875 C71.5859405,9.3671875 72.0615217,9.20117354 72.4072266,8.86914062 C72.7529314,8.53710771 72.9257812,8.07226861 72.9257812,7.47460938 L72.9257812,6.89453125 L71.953125,6.93554688 C71.1796836,6.96289076 70.622072,7.08300675 70.2802734,7.29589844 C69.9384749,7.50879013 69.7675781,7.8398415 69.7675781,8.2890625 C69.7675781,8.64062676 69.8740224,8.90820221 70.0869141,9.09179688 C70.2998058,9.27539154 70.5976543,9.3671875 70.9804688,9.3671875 L70.9804688,9.3671875 Z M81.1582031,3.63085938 L81.1582031,4.24609375 L79.96875,4.38671875 C80.0781255,4.52343818 80.1757808,4.70214733 80.2617188,4.92285156 C80.3476567,5.14355579 80.390625,5.39257674 80.390625,5.66992188 C80.390625,6.29883127 80.1757834,6.80077937 79.7460938,7.17578125 C79.3164041,7.55078313 78.7265662,7.73828125 77.9765625,7.73828125 C77.7851553,7.73828125 77.6054696,7.72265641 77.4375,7.69140625 C77.0234354,7.91015734 76.8164062,8.18554521 76.8164062,8.51757812 C76.8164062,8.69336025 76.8886712,8.82324177 77.0332031,8.90722656 C77.1777351,8.99121136 77.4257795,9.03320312 77.7773438,9.03320312 L78.9140625,9.03320312 C79.6093785,9.03320312 80.1435528,9.17968604 80.5166016,9.47265625 C80.8896503,9.76562646 81.0761719,10.1914035 81.0761719,10.75 C81.0761719,11.4609411 80.7910185,12.0029278 80.2207031,12.3759766 C79.6503878,12.7490253 78.8183648,12.9355469 77.7246094,12.9355469 C76.8847614,12.9355469 76.237307,12.7792984 75.7822266,12.4667969 C75.3271462,12.1542953 75.0996094,11.7128935 75.0996094,11.1425781 C75.0996094,10.7519512 75.2246081,10.4140639 75.4746094,10.1289062 C75.7246106,9.84374857 76.0761696,9.65039113 76.5292969,9.54882812 C76.3652336,9.474609 76.2275396,9.35937578 76.1162109,9.203125 C76.0048823,9.04687422 75.9492188,8.86523541 75.9492188,8.65820312 C75.9492188,8.42382695 76.0117181,8.21875088 76.1367188,8.04296875 C76.2617194,7.86718662 76.458983,7.69726645 76.7285156,7.53320312 C76.3964827,7.39648369 76.1259776,7.16406414 75.9169922,6.8359375 C75.7080068,6.50781086 75.6035156,6.13281461 75.6035156,5.7109375 C75.6035156,5.00780898 75.814451,4.46582222 76.2363281,4.08496094 C76.6582052,3.70409966 77.2558555,3.51367188 78.0292969,3.51367188 C78.3652361,3.51367188 78.6679674,3.55273398 78.9375,3.63085938 L81.1582031,3.63085938 Z M76.0371094,11.1308594 C76.0371094,11.4785174 76.1835923,11.7421866 76.4765625,11.921875 C76.7695327,12.1015634 77.1894504,12.1914062 77.7363281,12.1914062 C78.5527385,12.1914062 79.1572246,12.0693372 79.5498047,11.8251953 C79.9423848,11.5810535 80.1386719,11.2500021 80.1386719,10.8320312 C80.1386719,10.4843733 80.0312511,10.2431647 79.8164062,10.1083984 C79.6015614,9.97363214 79.1972686,9.90625 78.6035156,9.90625 L77.4375,9.90625 C76.9960915,9.90625 76.652345,10.0117177 76.40625,10.2226562 C76.160155,10.4335948 76.0371094,10.7363262 76.0371094,11.1308594 L76.0371094,11.1308594 Z M76.5644531,5.6875 C76.5644531,6.136721 76.691405,6.47656135 76.9453125,6.70703125 C77.19922,6.93750115 77.5527321,7.05273438 78.0058594,7.05273438 C78.9550829,7.05273438 79.4296875,6.59180148 79.4296875,5.66992188 C79.4296875,4.7050733 78.9492236,4.22265625 77.9882812,4.22265625 C77.5312477,4.22265625 77.1796887,4.34570189 76.9335938,4.59179688 C76.6874988,4.83789186 76.5644531,5.20312258 76.5644531,5.6875 L76.5644531,5.6875 Z M86.4257812,10.0527344 L86.2324219,9.13867188 L86.1855469,9.13867188 C85.8652328,9.54101764 85.5459,9.81347585 85.2275391,9.95605469 C84.9091781,10.0986335 84.5117211,10.1699219 84.0351562,10.1699219 C83.3984343,10.1699219 82.8994159,10.005861 82.5380859,9.67773438 C82.176756,9.34960773 81.9960938,8.88281553 81.9960938,8.27734375 C81.9960938,6.98046227 83.0331928,6.30078156 85.1074219,6.23828125 L86.1972656,6.203125 L86.1972656,5.8046875 C86.1972656,5.30077873 86.0888683,4.92871214 85.8720703,4.68847656 C85.6552724,4.44824099 85.3085961,4.328125 84.8320312,4.328125 C84.2968723,4.328125 83.6914096,4.49218586 83.015625,4.8203125 L82.7167969,4.07617188 C83.0332047,3.90429602 83.3798809,3.76953174 83.7568359,3.671875 C84.1337909,3.57421826 84.5117169,3.52539062 84.890625,3.52539062 C85.6562538,3.52539062 86.223631,3.6953108 86.5927734,4.03515625 C86.9619159,4.3750017 87.1464844,4.91991813 87.1464844,5.66992188 L87.1464844,10.0527344 L86.4257812,10.0527344 Z M84.2285156,9.3671875 C84.8339874,9.3671875 85.3095686,9.20117354 85.6552734,8.86914062 C86.0009783,8.53710771 86.1738281,8.07226861 86.1738281,7.47460938 L86.1738281,6.89453125 L85.2011719,6.93554688 C84.4277305,6.96289076 83.8701189,7.08300675 83.5283203,7.29589844 C83.1865217,7.50879013 83.015625,7.8398415 83.015625,8.2890625 C83.015625,8.64062676 83.1220692,8.90820221 83.3349609,9.09179688 C83.5478526,9.27539154 83.8457012,9.3671875 84.2285156,9.3671875 L84.2285156,9.3671875 Z M90.1230469,10.0527344 L89.1503906,10.0527344 L89.1503906,3.63085938 L90.1230469,3.63085938 L90.1230469,10.0527344 Z M89.0683594,1.890625 C89.0683594,1.66796764 89.1230463,1.50488333 89.2324219,1.40136719 C89.3417974,1.29785104 89.4785148,1.24609375 89.6425781,1.24609375 C89.7988289,1.24609375 89.9335932,1.2988276 90.046875,1.40429688 C90.1601568,1.50976615 90.2167969,1.67187391 90.2167969,1.890625 C90.2167969,2.10937609 90.1601568,2.2724604 90.046875,2.37988281 C89.9335932,2.48730522 89.7988289,2.54101562 89.6425781,2.54101562 C89.4785148,2.54101562 89.3417974,2.48730522 89.2324219,2.37988281 C89.1230463,2.2724604 89.0683594,2.10937609 89.0683594,1.890625 L89.0683594,1.890625 Z M96.5800781,10.0527344 L96.5800781,5.8984375 C96.5800781,5.37499738 96.4609387,4.98437629 96.2226562,4.7265625 C95.9843738,4.46874871 95.6113307,4.33984375 95.1035156,4.33984375 C94.4316373,4.33984375 93.9394547,4.52148256 93.6269531,4.88476562 C93.3144516,5.24804869 93.1582031,5.84765207 93.1582031,6.68359375 L93.1582031,10.0527344 L92.1855469,10.0527344 L92.1855469,3.63085938 L92.9765625,3.63085938 L93.1347656,4.50976562 L93.1816406,4.50976562 C93.3808604,4.19335779 93.6601545,3.94824306 94.0195312,3.77441406 C94.378908,3.60058507 94.7792947,3.51367188 95.2207031,3.51367188 C95.9941445,3.51367188 96.5761699,3.70019345 96.9667969,4.07324219 C97.3574238,4.44629093 97.5527344,5.04296465 97.5527344,5.86328125 L97.5527344,10.0527344 L96.5800781,10.0527344 Z M99.4101562,9.43164062 C99.4101562,9.16992057 99.469726,8.97168036 99.5888672,8.83691406 C99.7080084,8.70214776 99.8789051,8.63476562 100.101562,8.63476562 C100.328126,8.63476562 100.504882,8.70214776 100.631836,8.83691406 C100.75879,8.97168036 100.822266,9.16992057 100.822266,9.43164062 C100.822266,9.68554814 100.757813,9.88085869 100.628906,10.0175781 C100.499999,10.1542976 100.32422,10.2226562 100.101562,10.2226562 C99.9023428,10.2226562 99.7373053,10.1611334 99.6064453,10.0380859 C99.4755853,9.91503845 99.4101562,9.71289203 99.4101562,9.43164062 L99.4101562,9.43164062 Z" id="They-took-it-again." fill="#000000" sketch:type="MSShapeGroup"></path>
    </g>
</svg>