<?xml version="1.0" encoding="UTF-8" standalone="no"?>
<svg width="53px" height="13px" viewBox="0 0 53 13" version="1.1" xmlns="http://www.w3.org/2000/svg" xmlns:xlink="http://www.w3.org/1999/xlink" xmlns:sketch="http://www.bohemiancoding.com/sketch/ns">
    <!-- Generator: Sketch 3.1.1 (8761) - http://www.bohemiancoding.com/sketch -->
    <title>The drug.</title>
    <desc>Created with Sketch.</desc>
    <defs></defs>
    <g id="Page-1" stroke="none" stroke-width="1" fill="none" fill-rule="evenodd" sketch:type="MSPage">
        <path d="M3.81445312,10 L2.81835938,10 L2.81835938,2.31835938 L0.10546875,2.31835938 L0.10546875,1.43359375 L6.52734375,1.43359375 L6.52734375,2.31835938 L3.81445312,2.31835938 L3.81445312,10 Z M12.0644531,10 L12.0644531,5.84570312 C12.0644531,5.32226301 11.9453137,4.93164191 11.7070312,4.67382812 C11.4687488,4.41601434 11.0957057,4.28710938 10.5878906,4.28710938 C9.912106,4.28710938 9.41894687,4.47070129 9.10839844,4.83789062 C8.79785001,5.20507996 8.64257812,5.80663645 8.64257812,6.64257813 L8.64257812,10 L7.66992188,10 L7.66992188,0.8828125 L8.64257812,0.8828125 L8.64257812,3.64257812 C8.64257812,3.97461104 8.62695328,4.24999891 8.59570312,4.46875 L8.65429688,4.46875 C8.84570408,4.16015471 9.11816229,3.91699308 9.47167969,3.73925781 C9.82519708,3.56152255 10.2285134,3.47265625 10.6816406,3.47265625 C11.4668008,3.47265625 12.0556621,3.65917782 12.4482422,4.03222656 C12.8408223,4.4052753 13.0371094,4.99804281 13.0371094,5.81054688 L13.0371094,10 L12.0644531,10 Z M17.7480469,10.1171875 C16.7988234,10.1171875 16.0498074,9.82812789 15.5009766,9.25 C14.9521457,8.67187211 14.6777344,7.86914576 14.6777344,6.84179688 C14.6777344,5.80663545 14.9326146,4.98437805 15.4423828,4.375 C15.952151,3.76562195 16.6367145,3.4609375 17.4960938,3.4609375 C18.3007853,3.4609375 18.9374977,3.72558329 19.40625,4.25488281 C19.8750023,4.78418233 20.109375,5.48241754 20.109375,6.34960938 L20.109375,6.96484375 L15.6855469,6.96484375 C15.7050782,7.71875377 15.895506,8.29101367 16.2568359,8.68164062 C16.6181659,9.07226758 17.1269498,9.26757812 17.7832031,9.26757812 C18.4746128,9.26757812 19.1581997,9.12304832 19.8339844,8.83398438 L19.8339844,9.70117188 C19.4902327,9.84961012 19.1650406,9.95605437 18.8583984,10.0205078 C18.5517563,10.0849613 18.1816428,10.1171875 17.7480469,10.1171875 L17.7480469,10.1171875 Z M17.484375,4.27539062 C16.9687474,4.27539062 16.5576187,4.4433577 16.2509766,4.77929688 C15.9443344,5.11523605 15.7636721,5.58007516 15.7089844,6.17382812 L19.0664062,6.17382812 C19.0664062,5.56054381 18.9296889,5.09082194 18.65625,4.76464844 C18.3828111,4.43847493 17.99219,4.27539062 17.484375,4.27539062 L17.484375,4.27539062 Z M29.2558594,9.13867188 L29.203125,9.13867188 C28.753904,9.79101889 28.0820357,10.1171875 27.1875,10.1171875 C26.3476521,10.1171875 25.6943383,9.830081 25.2275391,9.25585938 C24.7607399,8.68163775 24.5273438,7.86523967 24.5273438,6.80664062 C24.5273438,5.74804158 24.7617164,4.92578418 25.2304688,4.33984375 C25.6992211,3.75390332 26.3515583,3.4609375 27.1875,3.4609375 C28.0585981,3.4609375 28.7265602,3.77734059 29.1914062,4.41015625 L29.2675781,4.41015625 L29.2265625,3.94726562 L29.203125,3.49609375 L29.203125,0.8828125 L30.1757812,0.8828125 L30.1757812,10 L29.3847656,10 L29.2558594,9.13867188 Z M27.3105469,9.30273438 C27.9746127,9.30273438 28.4560532,9.12207212 28.7548828,8.76074219 C29.0537124,8.39941226 29.203125,7.81641027 29.203125,7.01171875 L29.203125,6.80664062 C29.203125,5.89647982 29.0517593,5.24707226 28.7490234,4.85839844 C28.4462875,4.46972462 27.9628939,4.27539062 27.2988281,4.27539062 C26.7285128,4.27539062 26.2919937,4.4970681 25.9892578,4.94042969 C25.6865219,5.38379128 25.5351562,6.00976158 25.5351562,6.81835938 C25.5351562,7.63867598 25.6855454,8.25781041 25.9863281,8.67578125 C26.2871109,9.09375209 26.7285127,9.30273438 27.3105469,9.30273438 L27.3105469,9.30273438 Z M35.1679688,3.4609375 C35.4531264,3.4609375 35.7089832,3.48437477 35.9355469,3.53125 L35.8007812,4.43359375 C35.5351549,4.37499971 35.3007823,4.34570312 35.0976562,4.34570312 C34.5781224,4.34570312 34.1337909,4.55663852 33.7646484,4.97851562 C33.395506,5.40039273 33.2109375,5.92577811 33.2109375,6.5546875 L33.2109375,10 L32.2382812,10 L32.2382812,3.578125 L33.0410156,3.578125 L33.1523438,4.76757812 L33.1992188,4.76757812 C33.4375012,4.34960729 33.7246077,4.02734488 34.0605469,3.80078125 C34.3964861,3.57421762 34.765623,3.4609375 35.1679688,3.4609375 L35.1679688,3.4609375 Z M38.0507812,3.578125 L38.0507812,7.74414062 C38.0507812,8.26758074 38.1699207,8.65820184 38.4082031,8.91601562 C38.6464856,9.17382941 39.0195287,9.30273438 39.5273438,9.30273438 C40.1992221,9.30273438 40.6904281,9.11914246 41.0009766,8.75195312 C41.311525,8.38476379 41.4667969,7.78516041 41.4667969,6.953125 L41.4667969,3.578125 L42.4394531,3.578125 L42.4394531,10 L41.6367188,10 L41.4960938,9.13867188 L41.4433594,9.13867188 C41.2441396,9.45507971 40.9677752,9.69726479 40.6142578,9.86523438 C40.2607404,10.033204 39.8574241,10.1171875 39.4042969,10.1171875 C38.623043,10.1171875 38.0380879,9.93164248 37.6494141,9.56054688 C37.2607402,9.18945127 37.0664062,8.59570721 37.0664062,7.77929688 L37.0664062,3.578125 L38.0507812,3.578125 Z M49.7578125,3.578125 L49.7578125,4.19335938 L48.5683594,4.33398438 C48.6777349,4.47070381 48.7753902,4.64941296 48.8613281,4.87011719 C48.9472661,5.09082142 48.9902344,5.33984236 48.9902344,5.6171875 C48.9902344,6.24609689 48.7753928,6.748045 48.3457031,7.12304688 C47.9160135,7.49804875 47.3261756,7.68554688 46.5761719,7.68554688 C46.3847647,7.68554688 46.205079,7.66992203 46.0371094,7.63867188 C45.6230448,7.85742297 45.4160156,8.13281084 45.4160156,8.46484375 C45.4160156,8.64062588 45.4882805,8.77050739 45.6328125,8.85449219 C45.7773445,8.93847698 46.0253889,8.98046875 46.3769531,8.98046875 L47.5136719,8.98046875 C48.2089879,8.98046875 48.7431622,9.12695166 49.1162109,9.41992188 C49.4892597,9.71289209 49.6757812,10.1386691 49.6757812,10.6972656 C49.6757812,11.4082067 49.3906279,11.9501934 48.8203125,12.3232422 C48.2499971,12.6962909 47.4179742,12.8828125 46.3242188,12.8828125 C45.4843708,12.8828125 44.8369163,12.7265641 44.3818359,12.4140625 C43.9267555,12.1015609 43.6992188,11.6601591 43.6992188,11.0898438 C43.6992188,10.6992168 43.8242175,10.3613296 44.0742188,10.0761719 C44.32422,9.7910142 44.675779,9.59765676 45.1289062,9.49609375 C44.9648429,9.42187463 44.827149,9.30664141 44.7158203,9.15039062 C44.6044916,8.99413984 44.5488281,8.81250104 44.5488281,8.60546875 C44.5488281,8.37109258 44.6113275,8.1660165 44.7363281,7.99023438 C44.8613287,7.81445225 45.0585924,7.64453207 45.328125,7.48046875 C44.9960921,7.34374932 44.725587,7.11132977 44.5166016,6.78320312 C44.3076161,6.45507648 44.203125,6.08008023 44.203125,5.65820312 C44.203125,4.95507461 44.4140604,4.41308784 44.8359375,4.03222656 C45.2578146,3.65136528 45.8554649,3.4609375 46.6289062,3.4609375 C46.9648454,3.4609375 47.2675768,3.49999961 47.5371094,3.578125 L49.7578125,3.578125 Z M44.6367188,11.078125 C44.6367188,11.425783 44.7832017,11.6894522 45.0761719,11.8691406 C45.3691421,12.048829 45.7890598,12.1386719 46.3359375,12.1386719 C47.1523478,12.1386719 47.756834,12.0166028 48.1494141,11.7724609 C48.5419942,11.5283191 48.7382812,11.1972677 48.7382812,10.7792969 C48.7382812,10.4316389 48.6308604,10.1904304 48.4160156,10.0556641 C48.2011708,9.92089776 47.796878,9.85351562 47.203125,9.85351562 L46.0371094,9.85351562 C45.5957009,9.85351562 45.2519544,9.95898332 45.0058594,10.1699219 C44.7597644,10.3808604 44.6367188,10.6835918 44.6367188,11.078125 L44.6367188,11.078125 Z M45.1640625,5.63476562 C45.1640625,6.08398662 45.2910144,6.42382697 45.5449219,6.65429688 C45.7988294,6.88476678 46.1523415,7 46.6054688,7 C47.5546922,7 48.0292969,6.53906711 48.0292969,5.6171875 C48.0292969,4.65233893 47.5488329,4.16992188 46.5878906,4.16992188 C46.1308571,4.16992188 45.7792981,4.29296752 45.5332031,4.5390625 C45.2871081,4.78515748 45.1640625,5.1503882 45.1640625,5.63476562 L45.1640625,5.63476562 Z M50.9355469,9.37890625 C50.9355469,9.11718619 50.9951166,8.91894599 51.1142578,8.78417969 C51.233399,8.64941339 51.4042958,8.58203125 51.6269531,8.58203125 C51.8535168,8.58203125 52.0302728,8.64941339 52.1572266,8.78417969 C52.2841803,8.91894599 52.3476562,9.11718619 52.3476562,9.37890625 C52.3476562,9.63281377 52.2832038,9.82812432 52.1542969,9.96484375 C52.02539,10.1015632 51.8496105,10.1699219 51.6269531,10.1699219 C51.4277334,10.1699219 51.262696,10.1083991 51.1318359,9.98535156 C51.0009759,9.86230407 50.9355469,9.66015766 50.9355469,9.37890625 L50.9355469,9.37890625 Z" id="The-drug." fill="#000000" sketch:type="MSShapeGroup"></path>
    </g>
</svg>