<?xml version="1.0" encoding="UTF-8" standalone="no"?>
<svg width="123px" height="11px" viewBox="0 0 123 11" version="1.1" xmlns="http://www.w3.org/2000/svg" xmlns:xlink="http://www.w3.org/1999/xlink" xmlns:sketch="http://www.bohemiancoding.com/sketch/ns">
    <!-- Generator: Sketch 3.1.1 (8761) - http://www.bohemiancoding.com/sketch -->
    <title>You hear the screams</title>
    <desc>Created with Sketch.</desc>
    <defs></defs>
    <g id="Page-1" stroke="none" stroke-width="1" fill="none" fill-rule="evenodd" sketch:type="MSPage">
        <path d="M3.35742188,5.71679688 L5.64257812,1.43359375 L6.72070312,1.43359375 L3.86132812,6.67773438 L3.86132812,10 L2.85351562,10 L2.85351562,6.72460938 L0,1.43359375 L1.08984375,1.43359375 L3.35742188,5.71679688 Z M12.6972656,6.78320312 C12.6972656,7.83008336 12.4335964,8.647458 11.90625,9.23535156 C11.3789036,9.82324513 10.6503953,10.1171875 9.72070312,10.1171875 C9.1464815,10.1171875 8.63672098,9.98242322 8.19140625,9.71289062 C7.74609152,9.44335803 7.40234496,9.05664314 7.16015625,8.55273438 C6.91796754,8.04882561 6.796875,7.45898775 6.796875,6.78320312 C6.796875,5.73632289 7.05859113,4.92090136 7.58203125,4.33691406 C8.10547137,3.75292677 8.8320266,3.4609375 9.76171875,3.4609375 C10.6601607,3.4609375 11.3740208,3.75976264 11.9033203,4.35742188 C12.4326198,4.95508111 12.6972656,5.76366678 12.6972656,6.78320312 L12.6972656,6.78320312 Z M7.8046875,6.78320312 C7.8046875,7.60351973 7.96874836,8.22851348 8.296875,8.65820312 C8.62500164,9.08789277 9.10741869,9.30273438 9.74414062,9.30273438 C10.3808626,9.30273438 10.8642562,9.08886933 11.1943359,8.66113281 C11.5244157,8.2333963 11.6894531,7.607426 11.6894531,6.78320312 C11.6894531,5.96679279 11.5244157,5.34668181 11.1943359,4.92285156 C10.8642562,4.49902132 10.3769563,4.28710938 9.73242188,4.28710938 C9.09569994,4.28710938 8.615236,4.49609166 8.29101562,4.9140625 C7.96679525,5.33203334 7.8046875,5.95507398 7.8046875,6.78320312 L7.8046875,6.78320312 Z M15.3164062,3.578125 L15.3164062,7.74414062 C15.3164062,8.26758074 15.4355457,8.65820184 15.6738281,8.91601562 C15.9121106,9.17382941 16.2851537,9.30273438 16.7929688,9.30273438 C17.4648471,9.30273438 17.9560531,9.11914246 18.2666016,8.75195312 C18.57715,8.38476379 18.7324219,7.78516041 18.7324219,6.953125 L18.7324219,3.578125 L19.7050781,3.578125 L19.7050781,10 L18.9023438,10 L18.7617188,9.13867188 L18.7089844,9.13867188 C18.5097646,9.45507971 18.2334002,9.69726479 17.8798828,9.86523438 C17.5263654,10.033204 17.1230491,10.1171875 16.6699219,10.1171875 C15.888668,10.1171875 15.3037129,9.93164248 14.9150391,9.56054688 C14.5263652,9.18945127 14.3320312,8.59570721 14.3320312,7.77929688 L14.3320312,3.578125 L15.3164062,3.578125 Z M29.2792969,10 L29.2792969,5.84570312 C29.2792969,5.32226301 29.1601574,4.93164191 28.921875,4.67382812 C28.6835926,4.41601434 28.3105494,4.28710938 27.8027344,4.28710938 C27.1269497,4.28710938 26.6337906,4.47070129 26.3232422,4.83789062 C26.0126938,5.20507996 25.8574219,5.80663645 25.8574219,6.64257813 L25.8574219,10 L24.8847656,10 L24.8847656,0.8828125 L25.8574219,0.8828125 L25.8574219,3.64257812 C25.8574219,3.97461104 25.841797,4.24999891 25.8105469,4.46875 L25.8691406,4.46875 C26.0605478,4.16015471 26.333006,3.91699308 26.6865234,3.73925781 C27.0400408,3.56152255 27.4433571,3.47265625 27.8964844,3.47265625 C28.6816446,3.47265625 29.2705058,3.65917782 29.6630859,4.03222656 C30.055666,4.4052753 30.2519531,4.99804281 30.2519531,5.81054688 L30.2519531,10 L29.2792969,10 Z M34.9628906,10.1171875 C34.0136671,10.1171875 33.2646512,9.82812789 32.7158203,9.25 C32.1669894,8.67187211 31.8925781,7.86914576 31.8925781,6.84179688 C31.8925781,5.80663545 32.1474584,4.98437805 32.6572266,4.375 C33.1669947,3.76562195 33.8515582,3.4609375 34.7109375,3.4609375 C35.515629,3.4609375 36.1523414,3.72558329 36.6210938,4.25488281 C37.0898461,4.78418233 37.3242188,5.48241754 37.3242188,6.34960938 L37.3242188,6.96484375 L32.9003906,6.96484375 C32.919922,7.71875377 33.1103498,8.29101367 33.4716797,8.68164062 C33.8330096,9.07226758 34.3417936,9.26757812 34.9980469,9.26757812 C35.6894566,9.26757812 36.3730435,9.12304832 37.0488281,8.83398438 L37.0488281,9.70117188 C36.7050764,9.84961012 36.3798843,9.95605437 36.0732422,10.0205078 C35.7666,10.0849613 35.3964865,10.1171875 34.9628906,10.1171875 L34.9628906,10.1171875 Z M34.6992188,4.27539062 C34.1835912,4.27539062 33.7724625,4.4433577 33.4658203,4.77929688 C33.1591782,5.11523605 32.9785159,5.58007516 32.9238281,6.17382812 L36.28125,6.17382812 C36.28125,5.56054381 36.1445326,5.09082194 35.8710938,4.76464844 C35.5976549,4.43847493 35.2070338,4.27539062 34.6992188,4.27539062 L34.6992188,4.27539062 Z M42.9316406,10 L42.7382812,9.0859375 L42.6914062,9.0859375 C42.3710921,9.48828326 42.0517594,9.76074147 41.7333984,9.90332031 C41.4150375,10.0458992 41.0175805,10.1171875 40.5410156,10.1171875 C39.9042937,10.1171875 39.4052752,9.95312664 39.0439453,9.625 C38.6826154,9.29687336 38.5019531,8.83008115 38.5019531,8.22460938 C38.5019531,6.92772789 39.5390521,6.24804719 41.6132812,6.18554688 L42.703125,6.15039062 L42.703125,5.75195312 C42.703125,5.24804436 42.5947276,4.87597776 42.3779297,4.63574219 C42.1611317,4.39550661 41.8144555,4.27539062 41.3378906,4.27539062 C40.8027317,4.27539062 40.197269,4.43945148 39.5214844,4.76757812 L39.2226562,4.0234375 C39.5390641,3.85156164 39.8857403,3.71679736 40.2626953,3.61914063 C40.6396503,3.52148389 41.0175762,3.47265625 41.3964844,3.47265625 C42.1621132,3.47265625 42.7294903,3.64257643 43.0986328,3.98242188 C43.4677753,4.32226732 43.6523438,4.86718375 43.6523438,5.6171875 L43.6523438,10 L42.9316406,10 Z M40.734375,9.31445312 C41.3398468,9.31445312 41.815428,9.14843916 42.1611328,8.81640625 C42.5068377,8.48437334 42.6796875,8.01953424 42.6796875,7.421875 L42.6796875,6.84179688 L41.7070312,6.8828125 C40.9335899,6.91015639 40.3759783,7.03027237 40.0341797,7.24316406 C39.6923811,7.45605575 39.5214844,7.78710713 39.5214844,8.23632812 C39.5214844,8.58789238 39.6279286,8.85546783 39.8408203,9.0390625 C40.053712,9.22265717 40.3515606,9.31445312 40.734375,9.31445312 L40.734375,9.31445312 Z M48.5859375,3.4609375 C48.8710952,3.4609375 49.126952,3.48437477 49.3535156,3.53125 L49.21875,4.43359375 C48.9531237,4.37499971 48.718751,4.34570312 48.515625,4.34570312 C47.9960912,4.34570312 47.5517597,4.55663852 47.1826172,4.97851562 C46.8134747,5.40039273 46.6289062,5.92577811 46.6289062,6.5546875 L46.6289062,10 L45.65625,10 L45.65625,3.578125 L46.4589844,3.578125 L46.5703125,4.76757812 L46.6171875,4.76757812 C46.8554699,4.34960729 47.1425764,4.02734488 47.4785156,3.80078125 C47.8144548,3.57421762 48.1835917,3.4609375 48.5859375,3.4609375 L48.5859375,3.4609375 Z M55.7460938,9.31445312 C55.9179696,9.31445312 56.0839836,9.30175794 56.2441406,9.27636719 C56.4042977,9.25097644 56.5312495,9.22460951 56.625,9.19726562 L56.625,9.94140625 C56.5195307,9.99218775 56.3642588,10.0341795 56.1591797,10.0673828 C55.9541005,10.1005861 55.7695321,10.1171875 55.6054688,10.1171875 C54.363275,10.1171875 53.7421875,9.46289717 53.7421875,8.15429688 L53.7421875,4.33398438 L52.8222656,4.33398438 L52.8222656,3.86523438 L53.7421875,3.4609375 L54.1523438,2.08984375 L54.7148438,2.08984375 L54.7148438,3.578125 L56.578125,3.578125 L56.578125,4.33398438 L54.7148438,4.33398438 L54.7148438,8.11328125 C54.7148438,8.50000193 54.8066397,8.79687396 54.9902344,9.00390625 C55.173829,9.21093854 55.4257796,9.31445312 55.7460938,9.31445312 L55.7460938,9.31445312 Z M62.3027344,10 L62.3027344,5.84570312 C62.3027344,5.32226301 62.1835949,4.93164191 61.9453125,4.67382812 C61.7070301,4.41601434 61.3339869,4.28710938 60.8261719,4.28710938 C60.1503872,4.28710938 59.6572281,4.47070129 59.3466797,4.83789062 C59.0361313,5.20507996 58.8808594,5.80663645 58.8808594,6.64257813 L58.8808594,10 L57.9082031,10 L57.9082031,0.8828125 L58.8808594,0.8828125 L58.8808594,3.64257812 C58.8808594,3.97461104 58.8652345,4.24999891 58.8339844,4.46875 L58.8925781,4.46875 C59.0839853,4.16015471 59.3564435,3.91699308 59.7099609,3.73925781 C60.0634783,3.56152255 60.4667946,3.47265625 60.9199219,3.47265625 C61.7050821,3.47265625 62.2939433,3.65917782 62.6865234,4.03222656 C63.0791035,4.4052753 63.2753906,4.99804281 63.2753906,5.81054688 L63.2753906,10 L62.3027344,10 Z M67.9863281,10.1171875 C67.0371046,10.1171875 66.2880887,9.82812789 65.7392578,9.25 C65.1904269,8.67187211 64.9160156,7.86914576 64.9160156,6.84179688 C64.9160156,5.80663545 65.1708959,4.98437805 65.6806641,4.375 C66.1904322,3.76562195 66.8749957,3.4609375 67.734375,3.4609375 C68.5390665,3.4609375 69.1757789,3.72558329 69.6445312,4.25488281 C70.1132836,4.78418233 70.3476562,5.48241754 70.3476562,6.34960938 L70.3476562,6.96484375 L65.9238281,6.96484375 C65.9433595,7.71875377 66.1337873,8.29101367 66.4951172,8.68164062 C66.8564471,9.07226758 67.3652311,9.26757812 68.0214844,9.26757812 C68.7128941,9.26757812 69.396481,9.12304832 70.0722656,8.83398438 L70.0722656,9.70117188 C69.7285139,9.84961012 69.4033218,9.95605437 69.0966797,10.0205078 C68.7900375,10.0849613 68.419924,10.1171875 67.9863281,10.1171875 L67.9863281,10.1171875 Z M67.7226562,4.27539062 C67.2070287,4.27539062 66.7959,4.4433577 66.4892578,4.77929688 C66.1826157,5.11523605 66.0019534,5.58007516 65.9472656,6.17382812 L69.3046875,6.17382812 C69.3046875,5.56054381 69.1679701,5.09082194 68.8945312,4.76464844 C68.6210924,4.43847493 68.2304713,4.27539062 67.7226562,4.27539062 L67.7226562,4.27539062 Z M79.265625,8.24804688 C79.265625,8.84570611 79.042971,9.306639 78.5976562,9.63085938 C78.1523415,9.95507975 77.5273478,10.1171875 76.7226562,10.1171875 C75.8710895,10.1171875 75.2070336,9.98242322 74.7304688,9.71289062 L74.7304688,8.81054688 C75.039064,8.96679766 75.3701154,9.0898433 75.7236328,9.1796875 C76.0771502,9.2695317 76.4179671,9.31445312 76.7460938,9.31445312 C77.2539088,9.31445312 77.6445299,9.23339925 77.9179688,9.07128906 C78.1914076,8.90917888 78.328125,8.66211104 78.328125,8.33007812 C78.328125,8.08007688 78.2197276,7.86621183 78.0029297,7.68847656 C77.7861317,7.5107413 77.3632844,7.30078246 76.734375,7.05859375 C76.1367158,6.83593639 75.7119153,6.64160239 75.4599609,6.47558594 C75.2080066,6.30956948 75.0205084,6.1210948 74.8974609,5.91015625 C74.7744134,5.6992177 74.7128906,5.44726709 74.7128906,5.15429688 C74.7128906,4.63085676 74.9257791,4.21777495 75.3515625,3.91503906 C75.7773459,3.61230317 76.3613244,3.4609375 77.1035156,3.4609375 C77.7949253,3.4609375 78.4706998,3.60156109 79.1308594,3.8828125 L78.7851562,4.67382812 C78.1406218,4.4082018 77.5566432,4.27539062 77.0332031,4.27539062 C76.5722633,4.27539062 76.2246105,4.34765553 75.9902344,4.4921875 C75.7558582,4.63671947 75.6386719,4.83593623 75.6386719,5.08984375 C75.6386719,5.26171961 75.6826167,5.40820252 75.7705078,5.52929688 C75.8583989,5.65039123 75.999999,5.76562445 76.1953125,5.875 C76.390626,5.98437555 76.7656222,6.14257709 77.3203125,6.34960938 C78.0820351,6.62695451 78.5966783,6.90624859 78.8642578,7.1875 C79.1318373,7.46875141 79.265625,7.8222635 79.265625,8.24804688 L79.265625,8.24804688 Z M83.4140625,10.1171875 C82.4843704,10.1171875 81.764651,9.83105755 81.2548828,9.25878906 C80.7451146,8.68652058 80.4902344,7.87695836 80.4902344,6.83007812 C80.4902344,5.755854 80.7490208,4.92578418 81.2666016,4.33984375 C81.7841823,3.75390332 82.5214796,3.4609375 83.4785156,3.4609375 C83.7871109,3.4609375 84.0957016,3.49414029 84.4042969,3.56054688 C84.7128922,3.62695346 84.9550772,3.70507768 85.1308594,3.79492188 L84.8320312,4.62109375 C84.6171864,4.53515582 84.3828138,4.46386747 84.1289062,4.40722656 C83.8749987,4.35058565 83.6503916,4.32226562 83.4550781,4.32226562 C82.1503841,4.32226562 81.4980469,5.15428855 81.4980469,6.81835938 C81.4980469,7.60742582 81.657225,8.21288852 81.9755859,8.63476562 C82.2939469,9.05664273 82.7656219,9.26757812 83.390625,9.26757812 C83.9257839,9.26757812 84.4746066,9.1523449 85.0371094,8.921875 L85.0371094,9.78320312 C84.6074197,10.0058605 84.0664095,10.1171875 83.4140625,10.1171875 L83.4140625,10.1171875 Z M89.4902344,3.4609375 C89.7753921,3.4609375 90.0312489,3.48437477 90.2578125,3.53125 L90.1230469,4.43359375 C89.8574205,4.37499971 89.6230479,4.34570312 89.4199219,4.34570312 C88.900388,4.34570312 88.4560565,4.55663852 88.0869141,4.97851562 C87.7177716,5.40039273 87.5332031,5.92577811 87.5332031,6.5546875 L87.5332031,10 L86.5605469,10 L86.5605469,3.578125 L87.3632812,3.578125 L87.4746094,4.76757812 L87.5214844,4.76757812 C87.7597668,4.34960729 88.0468733,4.02734488 88.3828125,3.80078125 C88.7187517,3.57421762 89.0878886,3.4609375 89.4902344,3.4609375 L89.4902344,3.4609375 Z M93.9316406,10.1171875 C92.9824171,10.1171875 92.2334012,9.82812789 91.6845703,9.25 C91.1357394,8.67187211 90.8613281,7.86914576 90.8613281,6.84179688 C90.8613281,5.80663545 91.1162084,4.98437805 91.6259766,4.375 C92.1357447,3.76562195 92.8203082,3.4609375 93.6796875,3.4609375 C94.484379,3.4609375 95.1210914,3.72558329 95.5898438,4.25488281 C96.0585961,4.78418233 96.2929688,5.48241754 96.2929688,6.34960938 L96.2929688,6.96484375 L91.8691406,6.96484375 C91.888672,7.71875377 92.0790998,8.29101367 92.4404297,8.68164062 C92.8017596,9.07226758 93.3105436,9.26757812 93.9667969,9.26757812 C94.6582066,9.26757812 95.3417935,9.12304832 96.0175781,8.83398438 L96.0175781,9.70117188 C95.6738264,9.84961012 95.3486343,9.95605437 95.0419922,10.0205078 C94.73535,10.0849613 94.3652365,10.1171875 93.9316406,10.1171875 L93.9316406,10.1171875 Z M93.6679688,4.27539062 C93.1523412,4.27539062 92.7412125,4.4433577 92.4345703,4.77929688 C92.1279282,5.11523605 91.9472659,5.58007516 91.8925781,6.17382812 L95.25,6.17382812 C95.25,5.56054381 95.1132826,5.09082194 94.8398438,4.76464844 C94.5664049,4.43847493 94.1757838,4.27539062 93.6679688,4.27539062 L93.6679688,4.27539062 Z M101.900391,10 L101.707031,9.0859375 L101.660156,9.0859375 C101.339842,9.48828326 101.020509,9.76074147 100.702148,9.90332031 C100.383787,10.0458992 99.9863305,10.1171875 99.5097656,10.1171875 C98.8730437,10.1171875 98.3740252,9.95312664 98.0126953,9.625 C97.6513654,9.29687336 97.4707031,8.83008115 97.4707031,8.22460938 C97.4707031,6.92772789 98.5078021,6.24804719 100.582031,6.18554688 L101.671875,6.15039062 L101.671875,5.75195312 C101.671875,5.24804436 101.563478,4.87597776 101.34668,4.63574219 C101.129882,4.39550661 100.783206,4.27539062 100.306641,4.27539062 C99.7714817,4.27539062 99.166019,4.43945148 98.4902344,4.76757812 L98.1914062,4.0234375 C98.5078141,3.85156164 98.8544903,3.71679736 99.2314453,3.61914063 C99.6084003,3.52148389 99.9863262,3.47265625 100.365234,3.47265625 C101.130863,3.47265625 101.69824,3.64257643 102.067383,3.98242188 C102.436525,4.32226732 102.621094,4.86718375 102.621094,5.6171875 L102.621094,10 L101.900391,10 Z M99.703125,9.31445312 C100.308597,9.31445312 100.784178,9.14843916 101.129883,8.81640625 C101.475588,8.48437334 101.648438,8.01953424 101.648438,7.421875 L101.648438,6.84179688 L100.675781,6.8828125 C99.9023399,6.91015639 99.3447283,7.03027237 99.0029297,7.24316406 C98.6611311,7.45605575 98.4902344,7.78710713 98.4902344,8.23632812 C98.4902344,8.58789238 98.5966786,8.85546783 98.8095703,9.0390625 C99.022462,9.22265717 99.3203106,9.31445312 99.703125,9.31445312 L99.703125,9.31445312 Z M112.810547,10 L112.810547,5.82226562 C112.810547,5.31054432 112.701173,4.92675909 112.482422,4.67089844 C112.263671,4.41503778 111.92383,4.28710938 111.462891,4.28710938 C110.857419,4.28710938 110.410158,4.46093576 110.121094,4.80859375 C109.83203,5.15625174 109.6875,5.69140264 109.6875,6.4140625 L109.6875,10 L108.714844,10 L108.714844,5.82226562 C108.714844,5.31054432 108.60547,4.92675909 108.386719,4.67089844 C108.167968,4.41503778 107.826174,4.28710938 107.361328,4.28710938 C106.75195,4.28710938 106.305665,4.46972474 106.022461,4.83496094 C105.739256,5.20019714 105.597656,5.79882396 105.597656,6.63085938 L105.597656,10 L104.625,10 L104.625,3.578125 L105.416016,3.578125 L105.574219,4.45703125 L105.621094,4.45703125 C105.804688,4.14452969 106.063475,3.9003915 106.397461,3.72460938 C106.731447,3.54882725 107.105467,3.4609375 107.519531,3.4609375 C108.523443,3.4609375 109.179686,3.82421512 109.488281,4.55078125 L109.535156,4.55078125 C109.726563,4.21484207 110.003904,3.94921973 110.367188,3.75390625 C110.730471,3.55859277 111.144529,3.4609375 111.609375,3.4609375 C112.335941,3.4609375 112.879881,3.64745907 113.241211,4.02050781 C113.602541,4.39355655 113.783203,4.99023027 113.783203,5.81054688 L113.783203,10 L112.810547,10 Z M119.929688,8.24804688 C119.929688,8.84570611 119.707033,9.306639 119.261719,9.63085938 C118.816404,9.95507975 118.19141,10.1171875 117.386719,10.1171875 C116.535152,10.1171875 115.871096,9.98242322 115.394531,9.71289062 L115.394531,8.81054688 C115.703127,8.96679766 116.034178,9.0898433 116.387695,9.1796875 C116.741213,9.2695317 117.08203,9.31445312 117.410156,9.31445312 C117.917971,9.31445312 118.308592,9.23339925 118.582031,9.07128906 C118.85547,8.90917888 118.992188,8.66211104 118.992188,8.33007812 C118.992188,8.08007688 118.88379,7.86621183 118.666992,7.68847656 C118.450194,7.5107413 118.027347,7.30078246 117.398438,7.05859375 C116.800778,6.83593639 116.375978,6.64160239 116.124023,6.47558594 C115.872069,6.30956948 115.684571,6.1210948 115.561523,5.91015625 C115.438476,5.6992177 115.376953,5.44726709 115.376953,5.15429688 C115.376953,4.63085676 115.589842,4.21777495 116.015625,3.91503906 C116.441408,3.61230317 117.025387,3.4609375 117.767578,3.4609375 C118.458988,3.4609375 119.134762,3.60156109 119.794922,3.8828125 L119.449219,4.67382812 C118.804684,4.4082018 118.220706,4.27539062 117.697266,4.27539062 C117.236326,4.27539062 116.888673,4.34765553 116.654297,4.4921875 C116.419921,4.63671947 116.302734,4.83593623 116.302734,5.08984375 C116.302734,5.26171961 116.346679,5.40820252 116.43457,5.52929688 C116.522461,5.65039123 116.664062,5.76562445 116.859375,5.875 C117.054688,5.98437555 117.429685,6.14257709 117.984375,6.34960938 C118.746098,6.62695451 119.260741,6.90624859 119.52832,7.1875 C119.7959,7.46875141 119.929688,7.8222635 119.929688,8.24804688 L119.929688,8.24804688 Z M121.371094,9.37890625 C121.371094,9.11718619 121.430663,8.91894599 121.549805,8.78417969 C121.668946,8.64941339 121.839843,8.58203125 122.0625,8.58203125 C122.289064,8.58203125 122.46582,8.64941339 122.592773,8.78417969 C122.719727,8.91894599 122.783203,9.11718619 122.783203,9.37890625 C122.783203,9.63281377 122.718751,9.82812432 122.589844,9.96484375 C122.460937,10.1015632 122.285157,10.1699219 122.0625,10.1699219 C121.86328,10.1699219 121.698243,10.1083991 121.567383,9.98535156 C121.436523,9.86230407 121.371094,9.66015766 121.371094,9.37890625 L121.371094,9.37890625 Z" id="You-hear-the-screams" fill="#000000" sketch:type="MSShapeGroup"></path>
    </g>
</svg>