<?xml version="1.0" encoding="UTF-8" standalone="no"?>
<svg width="62px" height="13px" viewBox="0 0 62 13" version="1.1" xmlns="http://www.w3.org/2000/svg" xmlns:xlink="http://www.w3.org/1999/xlink" xmlns:sketch="http://www.bohemiancoding.com/sketch/ns">
    <!-- Generator: Sketch 3.1.1 (8761) - http://www.bohemiancoding.com/sketch -->
    <title>First, of joy.</title>
    <desc>Created with Sketch.</desc>
    <defs></defs>
    <g id="Page-1" stroke="none" stroke-width="1" fill="none" fill-rule="evenodd" sketch:type="MSPage">
        <path d="M1.17382812,10 L0.177734375,10 L0.177734375,1.43359375 L4.953125,1.43359375 L4.953125,2.31835938 L1.17382812,2.31835938 L1.17382812,5.453125 L4.72460938,5.453125 L4.72460938,6.33789062 L1.17382812,6.33789062 L1.17382812,10 Z M7.19726562,10 L6.22460938,10 L6.22460938,3.578125 L7.19726562,3.578125 L7.19726562,10 Z M6.14257812,1.83789062 C6.14257812,1.61523326 6.19726508,1.45214896 6.30664062,1.34863281 C6.41601617,1.24511667 6.55273355,1.19335938 6.71679688,1.19335938 C6.87304766,1.19335938 7.00781193,1.24609322 7.12109375,1.3515625 C7.23437557,1.45703178 7.29101562,1.61913953 7.29101562,1.83789062 C7.29101562,2.05664172 7.23437557,2.21972603 7.12109375,2.32714844 C7.00781193,2.43457085 6.87304766,2.48828125 6.71679688,2.48828125 C6.55273355,2.48828125 6.41601617,2.43457085 6.30664062,2.32714844 C6.19726508,2.21972603 6.14257812,2.05664172 6.14257812,1.83789062 L6.14257812,1.83789062 Z M12.1894531,3.4609375 C12.4746108,3.4609375 12.7304676,3.48437477 12.9570312,3.53125 L12.8222656,4.43359375 C12.5566393,4.37499971 12.3222666,4.34570312 12.1191406,4.34570312 C11.5996068,4.34570312 11.1552753,4.55663852 10.7861328,4.97851562 C10.4169903,5.40039273 10.2324219,5.92577811 10.2324219,6.5546875 L10.2324219,10 L9.25976562,10 L9.25976562,3.578125 L10.0625,3.578125 L10.1738281,4.76757812 L10.2207031,4.76757812 C10.4589856,4.34960729 10.7460921,4.02734488 11.0820312,3.80078125 C11.4179704,3.57421762 11.7871074,3.4609375 12.1894531,3.4609375 L12.1894531,3.4609375 Z M18.3007812,8.24804688 C18.3007812,8.84570611 18.0781272,9.306639 17.6328125,9.63085938 C17.1874978,9.95507975 16.562504,10.1171875 15.7578125,10.1171875 C14.9062457,10.1171875 14.2421899,9.98242322 13.765625,9.71289062 L13.765625,8.81054688 C14.0742203,8.96679766 14.4052717,9.0898433 14.7587891,9.1796875 C15.1123065,9.2695317 15.4531234,9.31445312 15.78125,9.31445312 C16.289065,9.31445312 16.6796861,9.23339925 16.953125,9.07128906 C17.2265639,8.90917888 17.3632812,8.66211104 17.3632812,8.33007812 C17.3632812,8.08007687 17.2548839,7.86621183 17.0380859,7.68847656 C16.821288,7.5107413 16.3984406,7.30078246 15.7695312,7.05859375 C15.171872,6.83593639 14.7470716,6.64160239 14.4951172,6.47558594 C14.2431628,6.30956948 14.0556647,6.1210948 13.9326172,5.91015625 C13.8095697,5.6992177 13.7480469,5.44726709 13.7480469,5.15429688 C13.7480469,4.63085676 13.9609354,4.21777495 14.3867188,3.91503906 C14.8125021,3.61230317 15.3964807,3.4609375 16.1386719,3.4609375 C16.8300816,3.4609375 17.5058561,3.60156109 18.1660156,3.8828125 L17.8203125,4.67382812 C17.175778,4.4082018 16.5917995,4.27539062 16.0683594,4.27539062 C15.6074196,4.27539062 15.2597668,4.34765553 15.0253906,4.4921875 C14.7910145,4.63671947 14.6738281,4.83593623 14.6738281,5.08984375 C14.6738281,5.26171961 14.717773,5.40820252 14.8056641,5.52929688 C14.8935551,5.65039123 15.0351553,5.76562445 15.2304688,5.875 C15.4257822,5.98437555 15.8007785,6.14257709 16.3554688,6.34960938 C17.1171913,6.62695451 17.6318346,6.90624859 17.8994141,7.1875 C18.1669935,7.46875141 18.3007812,7.8222635 18.3007812,8.24804688 L18.3007812,8.24804688 Z M21.9570312,9.31445312 C22.1289071,9.31445312 22.2949211,9.30175794 22.4550781,9.27636719 C22.6152352,9.25097644 22.742187,9.22460951 22.8359375,9.19726562 L22.8359375,9.94140625 C22.7304682,9.99218775 22.5751963,10.0341795 22.3701172,10.0673828 C22.165038,10.1005861 21.9804696,10.1171875 21.8164062,10.1171875 C20.5742125,10.1171875 19.953125,9.46289717 19.953125,8.15429688 L19.953125,4.33398438 L19.0332031,4.33398438 L19.0332031,3.86523438 L19.953125,3.4609375 L20.3632812,2.08984375 L20.9257812,2.08984375 L20.9257812,3.578125 L22.7890625,3.578125 L22.7890625,4.33398438 L20.9257812,4.33398438 L20.9257812,8.11328125 C20.9257812,8.50000193 21.0175772,8.79687396 21.2011719,9.00390625 C21.3847665,9.21093854 21.6367171,9.31445312 21.9570312,9.31445312 L21.9570312,9.31445312 Z M25.1386719,8.60546875 L25.2265625,8.74023438 C25.1249995,9.13086133 24.9785166,9.58495835 24.7871094,10.1025391 C24.5957022,10.6201198 24.3964854,11.1015603 24.1894531,11.546875 L23.4570312,11.546875 C23.5625005,11.140623 23.6787103,10.6386749 23.8056641,10.0410156 C23.9326178,9.44335639 24.0214841,8.96484555 24.0722656,8.60546875 L25.1386719,8.60546875 Z M35.7207031,6.78320312 C35.7207031,7.83008336 35.4570339,8.647458 34.9296875,9.23535156 C34.4023411,9.82324513 33.6738328,10.1171875 32.7441406,10.1171875 C32.169919,10.1171875 31.6601585,9.98242322 31.2148438,9.71289062 C30.769529,9.44335803 30.4257825,9.05664314 30.1835938,8.55273438 C29.941405,8.04882561 29.8203125,7.45898775 29.8203125,6.78320312 C29.8203125,5.73632289 30.0820286,4.92090136 30.6054688,4.33691406 C31.1289089,3.75292677 31.8554641,3.4609375 32.7851562,3.4609375 C33.6835982,3.4609375 34.3974583,3.75976264 34.9267578,4.35742188 C35.4560573,4.95508111 35.7207031,5.76366678 35.7207031,6.78320312 L35.7207031,6.78320312 Z M30.828125,6.78320312 C30.828125,7.60351973 30.9921859,8.22851348 31.3203125,8.65820312 C31.6484391,9.08789277 32.1308562,9.30273438 32.7675781,9.30273438 C33.4043001,9.30273438 33.8876937,9.08886933 34.2177734,8.66113281 C34.5478532,8.2333963 34.7128906,7.607426 34.7128906,6.78320312 C34.7128906,5.96679279 34.5478532,5.34668181 34.2177734,4.92285156 C33.8876937,4.49902132 33.4003938,4.28710938 32.7558594,4.28710938 C32.1191374,4.28710938 31.6386735,4.49609166 31.3144531,4.9140625 C30.9902328,5.33203334 30.828125,5.95507398 30.828125,6.78320312 L30.828125,6.78320312 Z M40.3203125,4.33398438 L38.6855469,4.33398438 L38.6855469,10 L37.7128906,10 L37.7128906,4.33398438 L36.5644531,4.33398438 L36.5644531,3.89453125 L37.7128906,3.54296875 L37.7128906,3.18554688 C37.7128906,1.60741398 38.4023369,0.818359375 39.78125,0.818359375 C40.1210954,0.818359375 40.519529,0.886718066 40.9765625,1.0234375 L40.7246094,1.80273438 C40.3496075,1.68164002 40.0292982,1.62109375 39.7636719,1.62109375 C39.3964825,1.62109375 39.1250009,1.74316284 38.9492188,1.98730469 C38.7734366,2.23144653 38.6855469,2.62304418 38.6855469,3.16210938 L38.6855469,3.578125 L40.3203125,3.578125 L40.3203125,4.33398438 Z M43.8300781,12.8828125 C43.4589825,12.8828125 43.1582043,12.8339849 42.9277344,12.7363281 L42.9277344,11.9453125 C43.197267,12.0234379 43.4628893,12.0625 43.7246094,12.0625 C44.0292984,12.0625 44.252929,11.979493 44.3955078,11.8134766 C44.5380867,11.6474601 44.609375,11.3945329 44.609375,11.0546875 L44.609375,3.578125 L45.5820312,3.578125 L45.5820312,10.984375 C45.5820312,12.2500063 44.9980527,12.8828125 43.8300781,12.8828125 L43.8300781,12.8828125 Z M44.5273438,1.83789062 C44.5273438,1.61523326 44.5820307,1.45214896 44.6914062,1.34863281 C44.8007818,1.24511667 44.9374992,1.19335938 45.1015625,1.19335938 C45.2578133,1.19335938 45.3925776,1.24609322 45.5058594,1.3515625 C45.6191412,1.45703178 45.6757812,1.61913953 45.6757812,1.83789062 C45.6757812,2.05664172 45.6191412,2.21972603 45.5058594,2.32714844 C45.3925776,2.43457085 45.2578133,2.48828125 45.1015625,2.48828125 C44.9374992,2.48828125 44.8007818,2.43457085 44.6914062,2.32714844 C44.5820307,2.21972603 44.5273438,2.05664172 44.5273438,1.83789062 L44.5273438,1.83789062 Z M53.1875,6.78320312 C53.1875,7.83008336 52.9238308,8.647458 52.3964844,9.23535156 C51.869138,9.82324513 51.1406296,10.1171875 50.2109375,10.1171875 C49.6367159,10.1171875 49.1269554,9.98242322 48.6816406,9.71289062 C48.2363259,9.44335803 47.8925793,9.05664314 47.6503906,8.55273438 C47.4082019,8.04882561 47.2871094,7.45898775 47.2871094,6.78320312 C47.2871094,5.73632289 47.5488255,4.92090136 48.0722656,4.33691406 C48.5957057,3.75292677 49.322261,3.4609375 50.2519531,3.4609375 C51.1503951,3.4609375 51.8642552,3.75976264 52.3935547,4.35742188 C52.9228542,4.95508111 53.1875,5.76366678 53.1875,6.78320312 L53.1875,6.78320312 Z M48.2949219,6.78320312 C48.2949219,7.60351973 48.4589827,8.22851348 48.7871094,8.65820312 C49.115236,9.08789277 49.5976531,9.30273438 50.234375,9.30273438 C50.8710969,9.30273438 51.3544905,9.08886933 51.6845703,8.66113281 C52.0146501,8.2333963 52.1796875,7.607426 52.1796875,6.78320312 C52.1796875,5.96679279 52.0146501,5.34668181 51.6845703,4.92285156 C51.3544905,4.49902132 50.8671907,4.28710938 50.2226562,4.28710938 C49.5859343,4.28710938 49.1054704,4.49609166 48.78125,4.9140625 C48.4570296,5.33203334 48.2949219,5.95507398 48.2949219,6.78320312 L48.2949219,6.78320312 Z M53.6328125,3.578125 L54.6757812,3.578125 L56.0820312,7.24023438 C56.3906265,8.07617605 56.5820309,8.67968564 56.65625,9.05078125 L56.703125,9.05078125 C56.7539065,8.8515615 56.8603508,8.5107446 57.0224609,8.02832031 C57.1845711,7.54589603 57.7148393,6.06251242 58.6132812,3.578125 L59.65625,3.578125 L56.8964844,10.890625 C56.6230455,11.6132849 56.3037128,12.125975 55.9384766,12.4287109 C55.5732404,12.7314468 55.1250027,12.8828125 54.59375,12.8828125 C54.2968735,12.8828125 54.0039077,12.8496097 53.7148438,12.7832031 L53.7148438,12.0039062 C53.9296886,12.0507815 54.1699205,12.0742188 54.4355469,12.0742188 C55.103519,12.0742188 55.5800767,11.6992225 55.8652344,10.9492188 L56.2226562,10.0351562 L53.6328125,3.578125 Z M60.078125,9.37890625 C60.078125,9.11718619 60.1376947,8.91894599 60.2568359,8.78417969 C60.3759772,8.64941339 60.5468739,8.58203125 60.7695312,8.58203125 C60.9960949,8.58203125 61.1728509,8.64941339 61.2998047,8.78417969 C61.4267584,8.91894599 61.4902344,9.11718619 61.4902344,9.37890625 C61.4902344,9.63281377 61.4257819,9.82812432 61.296875,9.96484375 C61.1679681,10.1015632 60.9921886,10.1699219 60.7695312,10.1699219 C60.5703115,10.1699219 60.4052741,10.1083991 60.2744141,9.98535156 C60.143554,9.86230407 60.078125,9.66015766 60.078125,9.37890625 L60.078125,9.37890625 Z" id="First,-of-joy." fill="#000000" sketch:type="MSShapeGroup"></path>
    </g>
</svg>