<?xml version="1.0" encoding="UTF-8" standalone="no"?>
<svg width="110px" height="12px" viewBox="0 0 110 12" version="1.1" xmlns="http://www.w3.org/2000/svg" xmlns:xlink="http://www.w3.org/1999/xlink" xmlns:sketch="http://www.bohemiancoding.com/sketch/ns">
    <!-- Generator: Sketch 3.1.1 (8761) - http://www.bohemiancoding.com/sketch -->
    <title>Next, of excitement.</title>
    <desc>Created with Sketch.</desc>
    <defs></defs>
    <g id="Page-1" stroke="none" stroke-width="1" fill="none" fill-rule="evenodd" sketch:type="MSPage">
        <path d="M6.86914062,10 L5.73242188,10 L1.05078125,2.81054688 L1.00390625,2.81054688 C1.06640656,3.65430109 1.09765625,4.42773086 1.09765625,5.13085938 L1.09765625,10 L0.177734375,10 L0.177734375,1.43359375 L1.30273438,1.43359375 L5.97265625,8.59375 L6.01953125,8.59375 C6.01171871,8.48828072 5.99414076,8.14941692 5.96679688,7.57714844 C5.93945299,7.00487995 5.92968746,6.59570436 5.9375,6.34960938 L5.9375,1.43359375 L6.86914062,1.43359375 L6.86914062,10 Z M11.7910156,10.1171875 C10.8417921,10.1171875 10.0927762,9.82812789 9.54394531,9.25 C8.99511444,8.67187211 8.72070312,7.86914576 8.72070312,6.84179688 C8.72070312,5.80663545 8.97558339,4.98437805 9.48535156,4.375 C9.99511974,3.76562195 10.6796832,3.4609375 11.5390625,3.4609375 C12.343754,3.4609375 12.9804664,3.72558329 13.4492188,4.25488281 C13.9179711,4.78418233 14.1523438,5.48241754 14.1523438,6.34960938 L14.1523438,6.96484375 L9.72851562,6.96484375 C9.74804697,7.71875377 9.93847476,8.29101367 10.2998047,8.68164062 C10.6611346,9.07226758 11.1699186,9.26757812 11.8261719,9.26757812 C12.5175816,9.26757812 13.2011685,9.12304832 13.8769531,8.83398438 L13.8769531,9.70117188 C13.5332014,9.84961012 13.2080093,9.95605437 12.9013672,10.0205078 C12.594725,10.0849613 12.2246115,10.1171875 11.7910156,10.1171875 L11.7910156,10.1171875 Z M11.5273438,4.27539062 C11.0117162,4.27539062 10.6005875,4.4433577 10.2939453,4.77929688 C9.98730315,5.11523605 9.8066409,5.58007516 9.75195312,6.17382812 L13.109375,6.17382812 C13.109375,5.56054381 12.9726576,5.09082194 12.6992188,4.76464844 C12.4257799,4.43847493 12.0351588,4.27539062 11.5273438,4.27539062 L11.5273438,4.27539062 Z M17.1171875,6.71289062 L14.8847656,3.578125 L15.9921875,3.578125 L17.6855469,6.0390625 L19.3730469,3.578125 L20.46875,3.578125 L18.2363281,6.71289062 L20.5859375,10 L19.484375,10 L17.6855469,7.3984375 L15.8691406,10 L14.7675781,10 L17.1171875,6.71289062 Z M23.9316406,9.31445312 C24.1035165,9.31445312 24.2695304,9.30175794 24.4296875,9.27636719 C24.5898446,9.25097644 24.7167964,9.22460951 24.8105469,9.19726562 L24.8105469,9.94140625 C24.7050776,9.99218775 24.5498057,10.0341795 24.3447266,10.0673828 C24.1396474,10.1005861 23.9550789,10.1171875 23.7910156,10.1171875 C22.5488219,10.1171875 21.9277344,9.46289717 21.9277344,8.15429688 L21.9277344,4.33398438 L21.0078125,4.33398438 L21.0078125,3.86523438 L21.9277344,3.4609375 L22.3378906,2.08984375 L22.9003906,2.08984375 L22.9003906,3.578125 L24.7636719,3.578125 L24.7636719,4.33398438 L22.9003906,4.33398438 L22.9003906,8.11328125 C22.9003906,8.50000193 22.9921866,8.79687396 23.1757812,9.00390625 C23.3593759,9.21093854 23.6113265,9.31445312 23.9316406,9.31445312 L23.9316406,9.31445312 Z M27.1132812,8.60546875 L27.2011719,8.74023438 C27.0996089,9.13086133 26.953126,9.58495835 26.7617188,10.1025391 C26.5703115,10.6201198 26.3710948,11.1015603 26.1640625,11.546875 L25.4316406,11.546875 C25.5371099,11.140623 25.6533197,10.6386749 25.7802734,10.0410156 C25.9072272,9.44335639 25.9960935,8.96484555 26.046875,8.60546875 L27.1132812,8.60546875 Z M37.6953125,6.78320312 C37.6953125,7.83008336 37.4316433,8.647458 36.9042969,9.23535156 C36.3769505,9.82324513 35.6484421,10.1171875 34.71875,10.1171875 C34.1445284,10.1171875 33.6347679,9.98242322 33.1894531,9.71289062 C32.7441384,9.44335803 32.4003918,9.05664314 32.1582031,8.55273438 C31.9160144,8.04882561 31.7949219,7.45898775 31.7949219,6.78320312 C31.7949219,5.73632289 32.056638,4.92090136 32.5800781,4.33691406 C33.1035182,3.75292677 33.8300735,3.4609375 34.7597656,3.4609375 C35.6582076,3.4609375 36.3720677,3.75976264 36.9013672,4.35742188 C37.4306667,4.95508111 37.6953125,5.76366678 37.6953125,6.78320312 L37.6953125,6.78320312 Z M32.8027344,6.78320312 C32.8027344,7.60351973 32.9667952,8.22851348 33.2949219,8.65820312 C33.6230485,9.08789277 34.1054656,9.30273438 34.7421875,9.30273438 C35.3789094,9.30273438 35.862303,9.08886933 36.1923828,8.66113281 C36.5224626,8.2333963 36.6875,7.607426 36.6875,6.78320312 C36.6875,5.96679279 36.5224626,5.34668181 36.1923828,4.92285156 C35.862303,4.49902132 35.3750032,4.28710938 34.7304688,4.28710938 C34.0937468,4.28710938 33.6132829,4.49609166 33.2890625,4.9140625 C32.9648421,5.33203334 32.8027344,5.95507398 32.8027344,6.78320312 L32.8027344,6.78320312 Z M42.2949219,4.33398438 L40.6601562,4.33398438 L40.6601562,10 L39.6875,10 L39.6875,4.33398438 L38.5390625,4.33398438 L38.5390625,3.89453125 L39.6875,3.54296875 L39.6875,3.18554688 C39.6875,1.60741398 40.3769462,0.818359375 41.7558594,0.818359375 C42.0957048,0.818359375 42.4941383,0.886718066 42.9511719,1.0234375 L42.6992188,1.80273438 C42.3242169,1.68164002 42.0039076,1.62109375 41.7382812,1.62109375 C41.3710919,1.62109375 41.0996103,1.74316284 40.9238281,1.98730469 C40.748046,2.23144653 40.6601562,2.62304418 40.6601562,3.16210938 L40.6601562,3.578125 L42.2949219,3.578125 L42.2949219,4.33398438 Z M49.296875,10.1171875 C48.3476515,10.1171875 47.5986356,9.82812789 47.0498047,9.25 C46.5009738,8.67187211 46.2265625,7.86914576 46.2265625,6.84179688 C46.2265625,5.80663545 46.4814428,4.98437805 46.9912109,4.375 C47.5009791,3.76562195 48.1855426,3.4609375 49.0449219,3.4609375 C49.8496134,3.4609375 50.4863258,3.72558329 50.9550781,4.25488281 C51.4238305,4.78418233 51.6582031,5.48241754 51.6582031,6.34960938 L51.6582031,6.96484375 L47.234375,6.96484375 C47.2539063,7.71875377 47.4443341,8.29101367 47.8056641,8.68164062 C48.166994,9.07226758 48.675778,9.26757812 49.3320312,9.26757812 C50.023441,9.26757812 50.7070279,9.12304832 51.3828125,8.83398438 L51.3828125,9.70117188 C51.0390608,9.84961012 50.7138687,9.95605437 50.4072266,10.0205078 C50.1005844,10.0849613 49.7304709,10.1171875 49.296875,10.1171875 L49.296875,10.1171875 Z M49.0332031,4.27539062 C48.5175755,4.27539062 48.1064468,4.4433577 47.7998047,4.77929688 C47.4931625,5.11523605 47.3125003,5.58007516 47.2578125,6.17382812 L50.6152344,6.17382812 C50.6152344,5.56054381 50.478517,5.09082194 50.2050781,4.76464844 C49.9316393,4.43847493 49.5410182,4.27539062 49.0332031,4.27539062 L49.0332031,4.27539062 Z M54.6230469,6.71289062 L52.390625,3.578125 L53.4980469,3.578125 L55.1914062,6.0390625 L56.8789062,3.578125 L57.9746094,3.578125 L55.7421875,6.71289062 L58.0917969,10 L56.9902344,10 L55.1914062,7.3984375 L53.375,10 L52.2734375,10 L54.6230469,6.71289062 Z M61.6894531,10.1171875 C60.759761,10.1171875 60.0400416,9.83105755 59.5302734,9.25878906 C59.0205053,8.68652058 58.765625,7.87695836 58.765625,6.83007812 C58.765625,5.755854 59.0244115,4.92578418 59.5419922,4.33984375 C60.0595729,3.75390332 60.7968702,3.4609375 61.7539062,3.4609375 C62.0625015,3.4609375 62.3710922,3.49414029 62.6796875,3.56054688 C62.9882828,3.62695346 63.2304679,3.70507768 63.40625,3.79492188 L63.1074219,4.62109375 C62.8925771,4.53515582 62.6582044,4.46386747 62.4042969,4.40722656 C62.1503894,4.35058565 61.9257822,4.32226562 61.7304687,4.32226562 C60.4257747,4.32226562 59.7734375,5.15428855 59.7734375,6.81835938 C59.7734375,7.60742582 59.9326156,8.21288852 60.2509766,8.63476562 C60.5693375,9.05664273 61.0410125,9.26757812 61.6660156,9.26757812 C62.2011746,9.26757812 62.7499972,9.1523449 63.3125,8.921875 L63.3125,9.78320312 C62.8828104,10.0058605 62.3418001,10.1171875 61.6894531,10.1171875 L61.6894531,10.1171875 Z M65.8085938,10 L64.8359375,10 L64.8359375,3.578125 L65.8085938,3.578125 L65.8085938,10 Z M64.7539062,1.83789062 C64.7539062,1.61523326 64.8085932,1.45214896 64.9179688,1.34863281 C65.0273443,1.24511667 65.1640617,1.19335938 65.328125,1.19335938 C65.4843758,1.19335938 65.6191401,1.24609322 65.7324219,1.3515625 C65.8457037,1.45703178 65.9023438,1.61913953 65.9023438,1.83789062 C65.9023438,2.05664172 65.8457037,2.21972603 65.7324219,2.32714844 C65.6191401,2.43457085 65.4843758,2.48828125 65.328125,2.48828125 C65.1640617,2.48828125 65.0273443,2.43457085 64.9179688,2.32714844 C64.8085932,2.21972603 64.7539062,2.05664172 64.7539062,1.83789062 L64.7539062,1.83789062 Z M69.9453125,9.31445312 C70.1171884,9.31445312 70.2832023,9.30175794 70.4433594,9.27636719 C70.6035164,9.25097644 70.7304683,9.22460951 70.8242188,9.19726562 L70.8242188,9.94140625 C70.7187495,9.99218775 70.5634776,10.0341795 70.3583984,10.0673828 C70.1533193,10.1005861 69.9687508,10.1171875 69.8046875,10.1171875 C68.5624938,10.1171875 67.9414062,9.46289717 67.9414062,8.15429688 L67.9414062,4.33398438 L67.0214844,4.33398438 L67.0214844,3.86523438 L67.9414062,3.4609375 L68.3515625,2.08984375 L68.9140625,2.08984375 L68.9140625,3.578125 L70.7773438,3.578125 L70.7773438,4.33398438 L68.9140625,4.33398438 L68.9140625,8.11328125 C68.9140625,8.50000193 69.0058585,8.79687396 69.1894531,9.00390625 C69.3730478,9.21093854 69.6249984,9.31445312 69.9453125,9.31445312 L69.9453125,9.31445312 Z M74.8203125,10.1171875 C73.871089,10.1171875 73.1220731,9.82812789 72.5732422,9.25 C72.0244113,8.67187211 71.75,7.86914576 71.75,6.84179688 C71.75,5.80663545 72.0048803,4.98437805 72.5146484,4.375 C73.0244166,3.76562195 73.7089801,3.4609375 74.5683594,3.4609375 C75.3730509,3.4609375 76.0097633,3.72558329 76.4785156,4.25488281 C76.947268,4.78418233 77.1816406,5.48241754 77.1816406,6.34960938 L77.1816406,6.96484375 L72.7578125,6.96484375 C72.7773438,7.71875377 72.9677716,8.29101367 73.3291016,8.68164062 C73.6904315,9.07226758 74.1992155,9.26757812 74.8554688,9.26757812 C75.5468785,9.26757812 76.2304654,9.12304832 76.90625,8.83398438 L76.90625,9.70117188 C76.5624983,9.84961012 76.2373062,9.95605437 75.9306641,10.0205078 C75.6240219,10.0849613 75.2539084,10.1171875 74.8203125,10.1171875 L74.8203125,10.1171875 Z M74.5566406,4.27539062 C74.041013,4.27539062 73.6298843,4.4433577 73.3232422,4.77929688 C73.0166,5.11523605 72.8359378,5.58007516 72.78125,6.17382812 L76.1386719,6.17382812 C76.1386719,5.56054381 76.0019545,5.09082194 75.7285156,4.76464844 C75.4550768,4.43847493 75.0644557,4.27539062 74.5566406,4.27539062 L74.5566406,4.27539062 Z M87.0253906,10 L87.0253906,5.82226562 C87.0253906,5.31054432 86.9160167,4.92675909 86.6972656,4.67089844 C86.4785145,4.41503778 86.1386742,4.28710938 85.6777344,4.28710938 C85.0722626,4.28710938 84.6250014,4.46093576 84.3359375,4.80859375 C84.0468736,5.15625174 83.9023438,5.69140264 83.9023438,6.4140625 L83.9023438,10 L82.9296875,10 L82.9296875,5.82226562 C82.9296875,5.31054432 82.8203136,4.92675909 82.6015625,4.67089844 C82.3828114,4.41503778 82.0410179,4.28710938 81.5761719,4.28710938 C80.9667938,4.28710938 80.5205092,4.46972474 80.2373047,4.83496094 C79.9541001,5.20019714 79.8125,5.79882396 79.8125,6.63085938 L79.8125,10 L78.8398438,10 L78.8398438,3.578125 L79.6308594,3.578125 L79.7890625,4.45703125 L79.8359375,4.45703125 C80.0195322,4.14452969 80.2783186,3.9003915 80.6123047,3.72460937 C80.9462907,3.54882725 81.3203104,3.4609375 81.734375,3.4609375 C82.7382863,3.4609375 83.3945297,3.82421512 83.703125,4.55078125 L83.75,4.55078125 C83.9414072,4.21484207 84.2187482,3.94921973 84.5820312,3.75390625 C84.9453143,3.55859277 85.3593727,3.4609375 85.8242188,3.4609375 C86.5507849,3.4609375 87.0947248,3.64745907 87.4560547,4.02050781 C87.8173846,4.39355655 87.9980469,4.99023027 87.9980469,5.81054688 L87.9980469,10 L87.0253906,10 Z M92.7148438,10.1171875 C91.7656203,10.1171875 91.0166043,9.82812789 90.4677734,9.25 C89.9189426,8.67187211 89.6445312,7.86914576 89.6445312,6.84179688 C89.6445312,5.80663545 89.8994115,4.98437805 90.4091797,4.375 C90.9189479,3.76562195 91.6035113,3.4609375 92.4628906,3.4609375 C93.2675821,3.4609375 93.9042945,3.72558329 94.3730469,4.25488281 C94.8417992,4.78418233 95.0761719,5.48241754 95.0761719,6.34960938 L95.0761719,6.96484375 L90.6523438,6.96484375 C90.6718751,7.71875377 90.8623029,8.29101367 91.2236328,8.68164062 C91.5849627,9.07226758 92.0937467,9.26757812 92.75,9.26757812 C93.4414097,9.26757812 94.1249966,9.12304832 94.8007812,8.83398438 L94.8007812,9.70117188 C94.4570295,9.84961012 94.1318375,9.95605437 93.8251953,10.0205078 C93.5185532,10.0849613 93.1484397,10.1171875 92.7148438,10.1171875 L92.7148438,10.1171875 Z M92.4511719,4.27539062 C91.9355443,4.27539062 91.5244156,4.4433577 91.2177734,4.77929688 C90.9111313,5.11523605 90.730469,5.58007516 90.6757812,6.17382812 L94.0332031,6.17382812 C94.0332031,5.56054381 93.8964857,5.09082194 93.6230469,4.76464844 C93.349608,4.43847493 92.9589869,4.27539062 92.4511719,4.27539062 L92.4511719,4.27539062 Z M101.128906,10 L101.128906,5.84570312 C101.128906,5.32226301 101.009767,4.93164191 100.771484,4.67382812 C100.533202,4.41601434 100.160159,4.28710938 99.6523438,4.28710938 C98.9804654,4.28710938 98.4882828,4.46874818 98.1757812,4.83203125 C97.8632797,5.19531432 97.7070312,5.7949177 97.7070312,6.63085938 L97.7070312,10 L96.734375,10 L96.734375,3.578125 L97.5253906,3.578125 L97.6835938,4.45703125 L97.7304688,4.45703125 C97.9296885,4.14062342 98.2089826,3.89550868 98.5683594,3.72167969 C98.9277362,3.54785069 99.3281228,3.4609375 99.7695312,3.4609375 C100.542973,3.4609375 101.124998,3.64745907 101.515625,4.02050781 C101.906252,4.39355655 102.101562,4.99023027 102.101562,5.81054688 L102.101562,10 L101.128906,10 Z M106.173828,9.31445312 C106.345704,9.31445312 106.511718,9.30175794 106.671875,9.27636719 C106.832032,9.25097644 106.958984,9.22460951 107.052734,9.19726562 L107.052734,9.94140625 C106.947265,9.99218775 106.791993,10.0341795 106.586914,10.0673828 C106.381835,10.1005861 106.197266,10.1171875 106.033203,10.1171875 C104.791009,10.1171875 104.169922,9.46289717 104.169922,8.15429688 L104.169922,4.33398438 L103.25,4.33398438 L103.25,3.86523438 L104.169922,3.4609375 L104.580078,2.08984375 L105.142578,2.08984375 L105.142578,3.578125 L107.005859,3.578125 L107.005859,4.33398438 L105.142578,4.33398438 L105.142578,8.11328125 C105.142578,8.50000193 105.234374,8.79687396 105.417969,9.00390625 C105.601563,9.21093854 105.853514,9.31445312 106.173828,9.31445312 L106.173828,9.31445312 Z M108.195312,9.37890625 C108.195312,9.11718619 108.254882,8.91894599 108.374023,8.78417969 C108.493165,8.64941339 108.664061,8.58203125 108.886719,8.58203125 C109.113282,8.58203125 109.290038,8.64941339 109.416992,8.78417969 C109.543946,8.91894599 109.607422,9.11718619 109.607422,9.37890625 C109.607422,9.63281377 109.542969,9.82812432 109.414062,9.96484375 C109.285156,10.1015632 109.109376,10.1699219 108.886719,10.1699219 C108.687499,10.1699219 108.522462,10.1083991 108.391602,9.98535156 C108.260742,9.86230407 108.195312,9.66015766 108.195312,9.37890625 L108.195312,9.37890625 Z" id="Next,-of-excitement." fill="#000000" sketch:type="MSShapeGroup"></path>
    </g>
</svg>