<?xml version="1.0" encoding="UTF-8" standalone="no"?>
<svg width="93px" height="13px" viewBox="0 0 93 13" version="1.1" xmlns="http://www.w3.org/2000/svg" xmlns:xlink="http://www.w3.org/1999/xlink" xmlns:sketch="http://www.bohemiancoding.com/sketch/ns">
    <!-- Generator: Sketch 3.1.1 (8761) - http://www.bohemiancoding.com/sketch -->
    <title>Finally, of horror.</title>
    <desc>Created with Sketch.</desc>
    <defs></defs>
    <g id="Page-1" stroke="none" stroke-width="1" fill="none" fill-rule="evenodd" sketch:type="MSPage">
        <path d="M1.17382812,10 L0.177734375,10 L0.177734375,1.43359375 L4.953125,1.43359375 L4.953125,2.31835938 L1.17382812,2.31835938 L1.17382812,5.453125 L4.72460938,5.453125 L4.72460938,6.33789062 L1.17382812,6.33789062 L1.17382812,10 Z M7.19726562,10 L6.22460938,10 L6.22460938,3.578125 L7.19726562,3.578125 L7.19726562,10 Z M6.14257812,1.83789062 C6.14257812,1.61523326 6.19726508,1.45214896 6.30664062,1.34863281 C6.41601617,1.24511667 6.55273355,1.19335938 6.71679688,1.19335938 C6.87304766,1.19335938 7.00781193,1.24609322 7.12109375,1.3515625 C7.23437557,1.45703178 7.29101562,1.61913953 7.29101562,1.83789062 C7.29101562,2.05664172 7.23437557,2.21972603 7.12109375,2.32714844 C7.00781193,2.43457085 6.87304766,2.48828125 6.71679688,2.48828125 C6.55273355,2.48828125 6.41601617,2.43457085 6.30664062,2.32714844 C6.19726508,2.21972603 6.14257812,2.05664172 6.14257812,1.83789062 L6.14257812,1.83789062 Z M13.6542969,10 L13.6542969,5.84570312 C13.6542969,5.32226301 13.5351574,4.93164191 13.296875,4.67382812 C13.0585926,4.41601434 12.6855494,4.28710938 12.1777344,4.28710938 C11.505856,4.28710938 11.0136734,4.46874818 10.7011719,4.83203125 C10.3886703,5.19531432 10.2324219,5.7949177 10.2324219,6.63085938 L10.2324219,10 L9.25976562,10 L9.25976562,3.578125 L10.0507812,3.578125 L10.2089844,4.45703125 L10.2558594,4.45703125 C10.4550791,4.14062342 10.7343732,3.89550868 11.09375,3.72167969 C11.4531268,3.54785069 11.8535134,3.4609375 12.2949219,3.4609375 C13.0683632,3.4609375 13.6503887,3.64745907 14.0410156,4.02050781 C14.4316426,4.39355655 14.6269531,4.99023027 14.6269531,5.81054688 L14.6269531,10 L13.6542969,10 Z M20.5742188,10 L20.3808594,9.0859375 L20.3339844,9.0859375 C20.0136703,9.48828326 19.6943375,9.76074147 19.3759766,9.90332031 C19.0576156,10.0458992 18.6601586,10.1171875 18.1835938,10.1171875 C17.5468718,10.1171875 17.0478534,9.95312664 16.6865234,9.625 C16.3251935,9.29687336 16.1445312,8.83008115 16.1445312,8.22460938 C16.1445312,6.92772789 17.1816303,6.24804719 19.2558594,6.18554688 L20.3457031,6.15039062 L20.3457031,5.75195312 C20.3457031,5.24804436 20.2373058,4.87597776 20.0205078,4.63574219 C19.8037099,4.39550661 19.4570336,4.27539062 18.9804688,4.27539062 C18.4453098,4.27539062 17.8398471,4.43945148 17.1640625,4.76757812 L16.8652344,4.0234375 C17.1816422,3.85156164 17.5283184,3.71679736 17.9052734,3.61914062 C18.2822284,3.52148389 18.6601544,3.47265625 19.0390625,3.47265625 C19.8046913,3.47265625 20.3720685,3.64257643 20.7412109,3.98242188 C21.1103534,4.32226732 21.2949219,4.86718375 21.2949219,5.6171875 L21.2949219,10 L20.5742188,10 Z M18.3769531,9.31445312 C18.9824249,9.31445312 19.4580061,9.14843916 19.8037109,8.81640625 C20.1494158,8.48437334 20.3222656,8.01953424 20.3222656,7.421875 L20.3222656,6.84179688 L19.3496094,6.8828125 C18.576168,6.91015639 18.0185564,7.03027237 17.6767578,7.24316406 C17.3349592,7.45605575 17.1640625,7.78710713 17.1640625,8.23632812 C17.1640625,8.58789238 17.2705067,8.85546783 17.4833984,9.0390625 C17.6962901,9.22265717 17.9941387,9.31445312 18.3769531,9.31445312 L18.3769531,9.31445312 Z M24.2714844,10 L23.2988281,10 L23.2988281,0.8828125 L24.2714844,0.8828125 L24.2714844,10 Z M27.3066406,10 L26.3339844,10 L26.3339844,0.8828125 L27.3066406,0.8828125 L27.3066406,10 Z M28.3496094,3.578125 L29.3925781,3.578125 L30.7988281,7.24023438 C31.1074234,8.07617605 31.2988278,8.67968564 31.3730469,9.05078125 L31.4199219,9.05078125 C31.4707034,8.8515615 31.5771476,8.5107446 31.7392578,8.02832031 C31.901368,7.54589603 32.4316361,6.06251242 33.3300781,3.578125 L34.3730469,3.578125 L31.6132812,10.890625 C31.3398424,11.6132849 31.0205096,12.125975 30.6552734,12.4287109 C30.2900372,12.7314468 29.8417995,12.8828125 29.3105469,12.8828125 C29.0136704,12.8828125 28.7207046,12.8496097 28.4316406,12.7832031 L28.4316406,12.0039062 C28.6464854,12.0507815 28.8867174,12.0742188 29.1523437,12.0742188 C29.8203158,12.0742188 30.2968736,11.6992225 30.5820312,10.9492188 L30.9394531,10.0351562 L28.3496094,3.578125 Z M35.9550781,8.60546875 L36.0429688,8.74023438 C35.9414057,9.13086133 35.7949228,9.58495835 35.6035156,10.1025391 C35.4121084,10.6201198 35.2128917,11.1015603 35.0058594,11.546875 L34.2734375,11.546875 C34.3789068,11.140623 34.4951166,10.6386749 34.6220703,10.0410156 C34.7490241,9.44335639 34.8378904,8.96484555 34.8886719,8.60546875 L35.9550781,8.60546875 Z M46.5371094,6.78320312 C46.5371094,7.83008336 46.2734401,8.647458 45.7460938,9.23535156 C45.2187474,9.82324513 44.490239,10.1171875 43.5605469,10.1171875 C42.9863253,10.1171875 42.4765647,9.98242322 42.03125,9.71289062 C41.5859353,9.44335803 41.2421887,9.05664314 41,8.55273438 C40.7578113,8.04882561 40.6367188,7.45898775 40.6367188,6.78320312 C40.6367188,5.73632289 40.8984349,4.92090136 41.421875,4.33691406 C41.9453151,3.75292677 42.6718704,3.4609375 43.6015625,3.4609375 C44.5000045,3.4609375 45.2138645,3.75976264 45.7431641,4.35742188 C46.2724636,4.95508111 46.5371094,5.76366678 46.5371094,6.78320312 L46.5371094,6.78320312 Z M41.6445312,6.78320312 C41.6445312,7.60351973 41.8085921,8.22851348 42.1367188,8.65820312 C42.4648454,9.08789277 42.9472624,9.30273438 43.5839844,9.30273438 C44.2207063,9.30273438 44.7040999,9.08886933 45.0341797,8.66113281 C45.3642595,8.2333963 45.5292969,7.607426 45.5292969,6.78320312 C45.5292969,5.96679279 45.3642595,5.34668181 45.0341797,4.92285156 C44.7040999,4.49902132 44.2168001,4.28710938 43.5722656,4.28710938 C42.9355437,4.28710938 42.4550797,4.49609166 42.1308594,4.9140625 C41.806639,5.33203334 41.6445312,5.95507398 41.6445312,6.78320312 L41.6445312,6.78320312 Z M51.1367188,4.33398438 L49.5019531,4.33398438 L49.5019531,10 L48.5292969,10 L48.5292969,4.33398438 L47.3808594,4.33398438 L47.3808594,3.89453125 L48.5292969,3.54296875 L48.5292969,3.18554688 C48.5292969,1.60741398 49.2187431,0.818359375 50.5976563,0.818359375 C50.9375017,0.818359375 51.3359352,0.886718066 51.7929688,1.0234375 L51.5410156,1.80273438 C51.1660138,1.68164002 50.8457045,1.62109375 50.5800781,1.62109375 C50.2128888,1.62109375 49.9414071,1.74316284 49.765625,1.98730469 C49.5898429,2.23144653 49.5019531,2.62304418 49.5019531,3.16210938 L49.5019531,3.578125 L51.1367188,3.578125 L51.1367188,4.33398438 Z M59.8203125,10 L59.8203125,5.84570312 C59.8203125,5.32226301 59.7011731,4.93164191 59.4628906,4.67382812 C59.2246082,4.41601434 58.851565,4.28710938 58.34375,4.28710938 C57.6679654,4.28710938 57.1748062,4.47070129 56.8642578,4.83789062 C56.5537094,5.20507996 56.3984375,5.80663645 56.3984375,6.64257813 L56.3984375,10 L55.4257812,10 L55.4257812,0.8828125 L56.3984375,0.8828125 L56.3984375,3.64257812 C56.3984375,3.97461104 56.3828127,4.24999891 56.3515625,4.46875 L56.4101562,4.46875 C56.6015635,4.16015471 56.8740217,3.91699308 57.2275391,3.73925781 C57.5810565,3.56152255 57.9843727,3.47265625 58.4375,3.47265625 C59.2226602,3.47265625 59.8115215,3.65917782 60.2041016,4.03222656 C60.5966817,4.4052753 60.7929688,4.99804281 60.7929688,5.81054688 L60.7929688,10 L59.8203125,10 Z M68.3339844,6.78320312 C68.3339844,7.83008336 68.0703151,8.647458 67.5429688,9.23535156 C67.0156224,9.82324513 66.287114,10.1171875 65.3574219,10.1171875 C64.7832003,10.1171875 64.2734397,9.98242322 63.828125,9.71289062 C63.3828103,9.44335803 63.0390637,9.05664314 62.796875,8.55273438 C62.5546863,8.04882561 62.4335938,7.45898775 62.4335938,6.78320312 C62.4335938,5.73632289 62.6953099,4.92090136 63.21875,4.33691406 C63.7421901,3.75292677 64.4687454,3.4609375 65.3984375,3.4609375 C66.2968795,3.4609375 67.0107395,3.75976264 67.5400391,4.35742188 C68.0693386,4.95508111 68.3339844,5.76366678 68.3339844,6.78320312 L68.3339844,6.78320312 Z M63.4414062,6.78320312 C63.4414062,7.60351973 63.6054671,8.22851348 63.9335938,8.65820312 C64.2617204,9.08789277 64.7441374,9.30273438 65.3808594,9.30273438 C66.0175813,9.30273438 66.5009749,9.08886933 66.8310547,8.66113281 C67.1611345,8.2333963 67.3261719,7.607426 67.3261719,6.78320312 C67.3261719,5.96679279 67.1611345,5.34668181 66.8310547,4.92285156 C66.5009749,4.49902132 66.0136751,4.28710938 65.3691406,4.28710938 C64.7324187,4.28710938 64.2519547,4.49609166 63.9277344,4.9140625 C63.603514,5.33203334 63.4414062,5.95507398 63.4414062,6.78320312 L63.4414062,6.78320312 Z M72.96875,3.4609375 C73.2539077,3.4609375 73.5097645,3.48437477 73.7363281,3.53125 L73.6015625,4.43359375 C73.3359362,4.37499971 73.1015635,4.34570312 72.8984375,4.34570312 C72.3789037,4.34570312 71.9345722,4.55663852 71.5654297,4.97851562 C71.1962872,5.40039273 71.0117188,5.92577811 71.0117188,6.5546875 L71.0117188,10 L70.0390625,10 L70.0390625,3.578125 L70.8417969,3.578125 L70.953125,4.76757812 L71,4.76757812 C71.2382824,4.34960729 71.5253889,4.02734488 71.8613281,3.80078125 C72.1972673,3.57421762 72.5664042,3.4609375 72.96875,3.4609375 L72.96875,3.4609375 Z M77.8671875,3.4609375 C78.1523452,3.4609375 78.408202,3.48437477 78.6347656,3.53125 L78.5,4.43359375 C78.2343737,4.37499971 78.000001,4.34570312 77.796875,4.34570312 C77.2773412,4.34570312 76.8330097,4.55663852 76.4638672,4.97851562 C76.0947247,5.40039273 75.9101562,5.92577811 75.9101562,6.5546875 L75.9101562,10 L74.9375,10 L74.9375,3.578125 L75.7402344,3.578125 L75.8515625,4.76757812 L75.8984375,4.76757812 C76.1367199,4.34960729 76.4238264,4.02734488 76.7597656,3.80078125 C77.0957048,3.57421762 77.4648417,3.4609375 77.8671875,3.4609375 L77.8671875,3.4609375 Z M85.1386719,6.78320312 C85.1386719,7.83008336 84.8750026,8.647458 84.3476562,9.23535156 C83.8203099,9.82324513 83.0918015,10.1171875 82.1621094,10.1171875 C81.5878878,10.1171875 81.0781272,9.98242322 80.6328125,9.71289062 C80.1874978,9.44335803 79.8437512,9.05664314 79.6015625,8.55273438 C79.3593738,8.04882561 79.2382812,7.45898775 79.2382812,6.78320312 C79.2382812,5.73632289 79.4999974,4.92090136 80.0234375,4.33691406 C80.5468776,3.75292677 81.2734329,3.4609375 82.203125,3.4609375 C83.101567,3.4609375 83.815427,3.75976264 84.3447266,4.35742188 C84.8740261,4.95508111 85.1386719,5.76366678 85.1386719,6.78320312 L85.1386719,6.78320312 Z M80.2460938,6.78320312 C80.2460938,7.60351973 80.4101546,8.22851348 80.7382812,8.65820312 C81.0664079,9.08789277 81.5488249,9.30273438 82.1855469,9.30273438 C82.8222688,9.30273438 83.3056624,9.08886933 83.6357422,8.66113281 C83.965822,8.2333963 84.1308594,7.607426 84.1308594,6.78320312 C84.1308594,5.96679279 83.965822,5.34668181 83.6357422,4.92285156 C83.3056624,4.49902132 82.8183626,4.28710938 82.1738281,4.28710938 C81.5371062,4.28710938 81.0566422,4.49609166 80.7324219,4.9140625 C80.4082015,5.33203334 80.2460938,5.95507398 80.2460938,6.78320312 L80.2460938,6.78320312 Z M89.7734375,3.4609375 C90.0585952,3.4609375 90.314452,3.48437477 90.5410156,3.53125 L90.40625,4.43359375 C90.1406237,4.37499971 89.906251,4.34570312 89.703125,4.34570312 C89.1835912,4.34570312 88.7392597,4.55663852 88.3701172,4.97851562 C88.0009747,5.40039273 87.8164062,5.92577811 87.8164062,6.5546875 L87.8164062,10 L86.84375,10 L86.84375,3.578125 L87.6464844,3.578125 L87.7578125,4.76757812 L87.8046875,4.76757812 C88.0429699,4.34960729 88.3300764,4.02734488 88.6660156,3.80078125 C89.0019548,3.57421762 89.3710917,3.4609375 89.7734375,3.4609375 L89.7734375,3.4609375 Z M91.6015625,9.37890625 C91.6015625,9.11718619 91.6611322,8.91894599 91.7802734,8.78417969 C91.8994147,8.64941339 92.0703114,8.58203125 92.2929688,8.58203125 C92.5195324,8.58203125 92.6962884,8.64941339 92.8232422,8.78417969 C92.9501959,8.91894599 93.0136719,9.11718619 93.0136719,9.37890625 C93.0136719,9.63281377 92.9492194,9.82812432 92.8203125,9.96484375 C92.6914056,10.1015632 92.5156261,10.1699219 92.2929688,10.1699219 C92.093749,10.1699219 91.9287116,10.1083991 91.7978516,9.98535156 C91.6669915,9.86230407 91.6015625,9.66015766 91.6015625,9.37890625 L91.6015625,9.37890625 Z" id="Finally,-of-horror." fill="#000000" sketch:type="MSShapeGroup"></path>
    </g>
</svg>