<?xml version="1.0" encoding="UTF-8" standalone="no"?>
<svg width="34px" height="11px" viewBox="0 0 34 11" version="1.1" xmlns="http://www.w3.org/2000/svg" xmlns:xlink="http://www.w3.org/1999/xlink" xmlns:sketch="http://www.bohemiancoding.com/sketch/ns">
    <!-- Generator: Sketch 3.1.1 (8761) - http://www.bohemiancoding.com/sketch -->
    <title>Blood.</title>
    <desc>Created with Sketch.</desc>
    <defs></defs>
    <g id="Page-1" stroke="none" stroke-width="1" fill="none" fill-rule="evenodd" sketch:type="MSPage">
        <path d="M0.177734375,1.43359375 L2.59765625,1.43359375 C3.73438068,1.43359375 4.55663809,1.60351393 5.06445312,1.94335938 C5.57226816,2.28320482 5.82617188,2.82030883 5.82617188,3.5546875 C5.82617188,4.06250254 5.68457173,4.48144366 5.40136719,4.81152344 C5.11816265,5.14160321 4.70508084,5.35546826 4.16210938,5.453125 L4.16210938,5.51171875 C5.46289713,5.73437611 6.11328125,6.41796303 6.11328125,7.5625 C6.11328125,8.32812883 5.85449478,8.9257791 5.33691406,9.35546875 C4.81933335,9.7851584 4.09570777,10 3.16601563,10 L0.177734375,10 L0.177734375,1.43359375 Z M1.17382812,5.1015625 L2.81445312,5.1015625 C3.51758164,5.1015625 4.02343596,4.99121204 4.33203125,4.77050781 C4.64062654,4.54980358 4.79492188,4.17773699 4.79492188,3.65429688 C4.79492188,3.17382572 4.62304859,2.8271495 4.27929688,2.61425781 C3.93554516,2.40136612 3.38867562,2.29492188 2.63867188,2.29492188 L1.17382812,2.29492188 L1.17382812,5.1015625 Z M1.17382812,5.9453125 L1.17382812,9.15039062 L2.9609375,9.15039062 C3.65234721,9.15039062 4.17284981,9.0166029 4.52246094,8.74902344 C4.87207206,8.48144397 5.046875,8.06250285 5.046875,7.4921875 C5.046875,6.96093484 4.86816585,6.57031375 4.51074219,6.3203125 C4.15331853,6.07031125 3.60937865,5.9453125 2.87890625,5.9453125 L1.17382812,5.9453125 Z M8.77929688,10 L7.80664062,10 L7.80664062,0.8828125 L8.77929688,0.8828125 L8.77929688,10 Z M16.3847656,6.78320312 C16.3847656,7.83008336 16.1210964,8.647458 15.59375,9.23535156 C15.0664036,9.82324513 14.3378953,10.1171875 13.4082031,10.1171875 C12.8339815,10.1171875 12.324221,9.98242322 11.8789062,9.71289062 C11.4335915,9.44335803 11.089845,9.05664314 10.8476562,8.55273438 C10.6054675,8.04882561 10.484375,7.45898775 10.484375,6.78320312 C10.484375,5.73632289 10.7460911,4.92090136 11.2695312,4.33691406 C11.7929714,3.75292677 12.5195266,3.4609375 13.4492187,3.4609375 C14.3476607,3.4609375 15.0615208,3.75976264 15.5908203,4.35742188 C16.1201198,4.95508111 16.3847656,5.76366678 16.3847656,6.78320312 L16.3847656,6.78320312 Z M11.4921875,6.78320312 C11.4921875,7.60351973 11.6562484,8.22851348 11.984375,8.65820312 C12.3125016,9.08789277 12.7949187,9.30273438 13.4316406,9.30273438 C14.0683626,9.30273438 14.5517562,9.08886933 14.8818359,8.66113281 C15.2119157,8.2333963 15.3769531,7.607426 15.3769531,6.78320312 C15.3769531,5.96679279 15.2119157,5.34668181 14.8818359,4.92285156 C14.5517562,4.49902132 14.0644563,4.28710938 13.4199219,4.28710938 C12.7831999,4.28710938 12.302736,4.49609166 11.9785156,4.9140625 C11.6542953,5.33203334 11.4921875,5.95507398 11.4921875,6.78320312 L11.4921875,6.78320312 Z M23.6328125,6.78320312 C23.6328125,7.83008336 23.3691433,8.647458 22.8417969,9.23535156 C22.3144505,9.82324513 21.5859421,10.1171875 20.65625,10.1171875 C20.0820284,10.1171875 19.5722679,9.98242322 19.1269531,9.71289062 C18.6816384,9.44335803 18.3378918,9.05664314 18.0957031,8.55273438 C17.8535144,8.04882561 17.7324219,7.45898775 17.7324219,6.78320312 C17.7324219,5.73632289 17.994138,4.92090136 18.5175781,4.33691406 C19.0410182,3.75292677 19.7675735,3.4609375 20.6972656,3.4609375 C21.5957076,3.4609375 22.3095677,3.75976264 22.8388672,4.35742188 C23.3681667,4.95508111 23.6328125,5.76366678 23.6328125,6.78320312 L23.6328125,6.78320312 Z M18.7402344,6.78320312 C18.7402344,7.60351973 18.9042952,8.22851348 19.2324219,8.65820312 C19.5605485,9.08789277 20.0429656,9.30273438 20.6796875,9.30273438 C21.3164094,9.30273438 21.799803,9.08886933 22.1298828,8.66113281 C22.4599626,8.2333963 22.625,7.607426 22.625,6.78320312 C22.625,5.96679279 22.4599626,5.34668181 22.1298828,4.92285156 C21.799803,4.49902132 21.3125032,4.28710938 20.6679687,4.28710938 C20.0312468,4.28710938 19.5507829,4.49609166 19.2265625,4.9140625 C18.9023421,5.33203334 18.7402344,5.95507398 18.7402344,6.78320312 L18.7402344,6.78320312 Z M29.7089844,9.13867188 L29.65625,9.13867188 C29.207029,9.79101889 28.5351607,10.1171875 27.640625,10.1171875 C26.8007771,10.1171875 26.1474633,9.830081 25.6806641,9.25585938 C25.2138649,8.68163775 24.9804687,7.86523967 24.9804687,6.80664062 C24.9804687,5.74804158 25.2148414,4.92578418 25.6835937,4.33984375 C26.1523461,3.75390332 26.8046833,3.4609375 27.640625,3.4609375 C28.5117231,3.4609375 29.1796852,3.77734059 29.6445312,4.41015625 L29.7207031,4.41015625 L29.6796875,3.94726562 L29.65625,3.49609375 L29.65625,0.8828125 L30.6289062,0.8828125 L30.6289062,10 L29.8378906,10 L29.7089844,9.13867188 Z M27.7636719,9.30273438 C28.4277377,9.30273438 28.9091782,9.12207212 29.2080078,8.76074219 C29.5068374,8.39941226 29.65625,7.81641027 29.65625,7.01171875 L29.65625,6.80664062 C29.65625,5.89647982 29.5048843,5.24707226 29.2021484,4.85839844 C28.8994125,4.46972462 28.4160189,4.27539062 27.7519531,4.27539062 C27.1816378,4.27539062 26.7451187,4.4970681 26.4423828,4.94042969 C26.1396469,5.38379128 25.9882812,6.00976158 25.9882812,6.81835938 C25.9882812,7.63867598 26.1386704,8.25781041 26.4394531,8.67578125 C26.7402359,9.09375209 27.1816377,9.30273438 27.7636719,9.30273438 L27.7636719,9.30273438 Z M32.5507812,9.37890625 C32.5507812,9.11718619 32.610351,8.91894599 32.7294922,8.78417969 C32.8486334,8.64941339 33.0195301,8.58203125 33.2421875,8.58203125 C33.4687511,8.58203125 33.6455072,8.64941339 33.7724609,8.78417969 C33.8994147,8.91894599 33.9628906,9.11718619 33.9628906,9.37890625 C33.9628906,9.63281377 33.8984381,9.82812432 33.7695312,9.96484375 C33.6406244,10.1015632 33.4648449,10.1699219 33.2421875,10.1699219 C33.0429678,10.1699219 32.8779303,10.1083991 32.7470703,9.98535156 C32.6162103,9.86230407 32.5507812,9.66015766 32.5507812,9.37890625 L32.5507812,9.37890625 Z" id="Blood." fill="#000000" sketch:type="MSShapeGroup"></path>
    </g>
</svg>