<?xml version="1.0" encoding="UTF-8" standalone="no"?>
<svg width="69px" height="10px" viewBox="0 0 69 10" version="1.1" xmlns="http://www.w3.org/2000/svg" xmlns:xlink="http://www.w3.org/1999/xlink" xmlns:sketch="http://www.bohemiancoding.com/sketch/ns">
    <!-- Generator: Sketch 3.1.1 (8761) - http://www.bohemiancoding.com/sketch -->
    <title>Mum is nice.</title>
    <desc>Created with Sketch.</desc>
    <defs></defs>
    <g id="Page-1" stroke="none" stroke-width="1" fill="none" fill-rule="evenodd" sketch:type="MSPage">
        <path d="M3.96875,9 L1.0625,1.40625 L1.015625,1.40625 C1.07031277,2.00781551 1.09765625,2.72265211 1.09765625,3.55078125 L1.09765625,9 L0.177734375,9 L0.177734375,0.43359375 L1.67773438,0.43359375 L4.390625,7.5 L4.4375,7.5 L7.17382812,0.43359375 L8.66210938,0.43359375 L8.66210938,9 L7.66601562,9 L7.66601562,3.48046875 C7.66601562,2.84765309 7.6933591,2.16015996 7.74804688,1.41796875 L7.70117188,1.41796875 L4.77148438,9 L3.96875,9 Z M11.7792969,2.578125 L11.7792969,6.74414062 C11.7792969,7.26758074 11.8984363,7.65820184 12.1367188,7.91601562 C12.3750012,8.17382941 12.7480443,8.30273438 13.2558594,8.30273438 C13.9277377,8.30273438 14.4189438,8.11914246 14.7294922,7.75195312 C15.0400406,7.38476379 15.1953125,6.78516041 15.1953125,5.953125 L15.1953125,2.578125 L16.1679688,2.578125 L16.1679688,9 L15.3652344,9 L15.2246094,8.13867188 L15.171875,8.13867188 C14.9726553,8.45507971 14.6962908,8.69726479 14.3427734,8.86523438 C13.989256,9.03320396 13.5859398,9.1171875 13.1328125,9.1171875 C12.3515586,9.1171875 11.7666035,8.93164248 11.3779297,8.56054688 C10.9892559,8.18945127 10.7949219,7.59570721 10.7949219,6.77929688 L10.7949219,2.578125 L11.7792969,2.578125 Z M26.4160156,9 L26.4160156,4.82226562 C26.4160156,4.31054432 26.3066417,3.92675909 26.0878906,3.67089844 C25.8691395,3.41503778 25.5292992,3.28710938 25.0683594,3.28710938 C24.4628876,3.28710938 24.0156264,3.46093576 23.7265625,3.80859375 C23.4374986,4.15625174 23.2929688,4.69140264 23.2929688,5.4140625 L23.2929688,9 L22.3203125,9 L22.3203125,4.82226562 C22.3203125,4.31054432 22.2109386,3.92675909 21.9921875,3.67089844 C21.7734364,3.41503778 21.4316429,3.28710938 20.9667969,3.28710938 C20.3574188,3.28710938 19.9111342,3.46972474 19.6279297,3.83496094 C19.3447251,4.20019714 19.203125,4.79882396 19.203125,5.63085938 L19.203125,9 L18.2304688,9 L18.2304688,2.578125 L19.0214844,2.578125 L19.1796875,3.45703125 L19.2265625,3.45703125 C19.4101572,3.14452969 19.6689436,2.9003915 20.0029297,2.72460938 C20.3369157,2.54882725 20.7109354,2.4609375 21.125,2.4609375 C22.1289113,2.4609375 22.7851547,2.82421512 23.09375,3.55078125 L23.140625,3.55078125 C23.3320322,3.21484207 23.6093732,2.94921973 23.9726562,2.75390625 C24.3359393,2.55859277 24.7499977,2.4609375 25.2148438,2.4609375 C25.9414099,2.4609375 26.4853498,2.64745907 26.8466797,3.02050781 C27.2080096,3.39355655 27.3886719,3.99023027 27.3886719,4.81054688 L27.3886719,9 L26.4160156,9 Z M33.4824219,9 L32.5097656,9 L32.5097656,2.578125 L33.4824219,2.578125 L33.4824219,9 Z M32.4277344,0.837890625 C32.4277344,0.615233262 32.4824213,0.452148955 32.5917969,0.348632812 C32.7011724,0.24511667 32.8378898,0.193359375 33.0019531,0.193359375 C33.1582039,0.193359375 33.2929682,0.246093223 33.40625,0.3515625 C33.5195318,0.457031777 33.5761719,0.619139531 33.5761719,0.837890625 C33.5761719,1.05664172 33.5195318,1.21972603 33.40625,1.32714844 C33.2929682,1.43457085 33.1582039,1.48828125 33.0019531,1.48828125 C32.8378898,1.48828125 32.7011724,1.43457085 32.5917969,1.32714844 C32.4824213,1.21972603 32.4277344,1.05664172 32.4277344,0.837890625 L32.4277344,0.837890625 Z M39.6875,7.24804688 C39.6875,7.84570611 39.464846,8.306639 39.0195312,8.63085938 C38.5742165,8.95507975 37.9492228,9.1171875 37.1445312,9.1171875 C36.2929645,9.1171875 35.6289086,8.98242322 35.1523438,8.71289062 L35.1523438,7.81054688 C35.460939,7.96679766 35.7919904,8.0898433 36.1455078,8.1796875 C36.4990252,8.2695317 36.8398421,8.31445312 37.1679688,8.31445312 C37.6757838,8.31445312 38.0664049,8.23339925 38.3398438,8.07128906 C38.6132826,7.90917888 38.75,7.66211104 38.75,7.33007812 C38.75,7.08007687 38.6416026,6.86621183 38.4248047,6.68847656 C38.2080067,6.5107413 37.7851594,6.30078246 37.15625,6.05859375 C36.5585908,5.83593639 36.1337903,5.64160239 35.8818359,5.47558594 C35.6298816,5.30956948 35.4423834,5.1210948 35.3193359,4.91015625 C35.1962884,4.6992177 35.1347656,4.44726709 35.1347656,4.15429688 C35.1347656,3.63085676 35.3476541,3.21777495 35.7734375,2.91503906 C36.1992209,2.61230317 36.7831994,2.4609375 37.5253906,2.4609375 C38.2168003,2.4609375 38.8925748,2.60156109 39.5527344,2.8828125 L39.2070312,3.67382812 C38.5624968,3.4082018 37.9785182,3.27539062 37.4550781,3.27539062 C36.9941383,3.27539062 36.6464855,3.34765553 36.4121094,3.4921875 C36.1777332,3.63671947 36.0605469,3.83593623 36.0605469,4.08984375 C36.0605469,4.26171961 36.1044917,4.40820252 36.1923828,4.52929688 C36.2802739,4.65039123 36.421874,4.76562445 36.6171875,4.875 C36.812501,4.98437555 37.1874972,5.14257709 37.7421875,5.34960938 C38.5039101,5.62695451 39.0185533,5.90624859 39.2861328,6.1875 C39.5537123,6.46875141 39.6875,6.8222635 39.6875,7.24804688 L39.6875,7.24804688 Z M48.78125,9 L48.78125,4.84570312 C48.78125,4.32226301 48.6621106,3.93164191 48.4238281,3.67382812 C48.1855457,3.41601434 47.8125025,3.28710938 47.3046875,3.28710938 C46.6328091,3.28710938 46.1406266,3.46874818 45.828125,3.83203125 C45.5156234,4.19531432 45.359375,4.7949177 45.359375,5.63085938 L45.359375,9 L44.3867188,9 L44.3867188,2.578125 L45.1777344,2.578125 L45.3359375,3.45703125 L45.3828125,3.45703125 C45.5820322,3.14062342 45.8613263,2.89550868 46.2207031,2.72167969 C46.5800799,2.54785069 46.9804665,2.4609375 47.421875,2.4609375 C48.1953164,2.4609375 48.7773418,2.64745907 49.1679688,3.02050781 C49.5585957,3.39355655 49.7539062,3.99023027 49.7539062,4.81054688 L49.7539062,9 L48.78125,9 Z M52.7246094,9 L51.7519531,9 L51.7519531,2.578125 L52.7246094,2.578125 L52.7246094,9 Z M51.6699219,0.837890625 C51.6699219,0.615233262 51.7246088,0.452148955 51.8339844,0.348632812 C51.9433599,0.24511667 52.0800773,0.193359375 52.2441406,0.193359375 C52.4003914,0.193359375 52.5351557,0.246093223 52.6484375,0.3515625 C52.7617193,0.457031777 52.8183594,0.619139531 52.8183594,0.837890625 C52.8183594,1.05664172 52.7617193,1.21972603 52.6484375,1.32714844 C52.5351557,1.43457085 52.4003914,1.48828125 52.2441406,1.48828125 C52.0800773,1.48828125 51.9433599,1.43457085 51.8339844,1.32714844 C51.7246088,1.21972603 51.6699219,1.05664172 51.6699219,0.837890625 L51.6699219,0.837890625 Z M57.3535156,9.1171875 C56.4238235,9.1171875 55.7041041,8.83105755 55.1943359,8.25878906 C54.6845678,7.68652058 54.4296875,6.87695836 54.4296875,5.83007812 C54.4296875,4.755854 54.688474,3.92578418 55.2060547,3.33984375 C55.7236354,2.75390332 56.4609327,2.4609375 57.4179688,2.4609375 C57.726564,2.4609375 58.0351547,2.49414029 58.34375,2.56054688 C58.6523453,2.62695346 58.8945304,2.70507768 59.0703125,2.79492188 L58.7714844,3.62109375 C58.5566396,3.53515582 58.3222669,3.46386747 58.0683594,3.40722656 C57.8144519,3.35058565 57.5898447,3.32226562 57.3945312,3.32226562 C56.0898372,3.32226562 55.4375,4.15428855 55.4375,5.81835938 C55.4375,6.60742582 55.5966781,7.21288852 55.9150391,7.63476562 C56.2334,8.05664273 56.705075,8.26757812 57.3300781,8.26757812 C57.8652371,8.26757812 58.4140597,8.1523449 58.9765625,7.921875 L58.9765625,8.78320312 C58.5468729,9.00586049 58.0058626,9.1171875 57.3535156,9.1171875 L57.3535156,9.1171875 Z M63.2128906,9.1171875 C62.2636671,9.1171875 61.5146512,8.82812789 60.9658203,8.25 C60.4169894,7.67187211 60.1425781,6.86914576 60.1425781,5.84179688 C60.1425781,4.80663545 60.3974584,3.98437805 60.9072266,3.375 C61.4169947,2.76562195 62.1015582,2.4609375 62.9609375,2.4609375 C63.765629,2.4609375 64.4023414,2.72558329 64.8710938,3.25488281 C65.3398461,3.78418233 65.5742188,4.48241754 65.5742188,5.34960938 L65.5742188,5.96484375 L61.1503906,5.96484375 C61.169922,6.71875377 61.3603498,7.29101367 61.7216797,7.68164062 C62.0830096,8.07226758 62.5917936,8.26757812 63.2480469,8.26757812 C63.9394566,8.26757812 64.6230435,8.12304832 65.2988281,7.83398438 L65.2988281,8.70117188 C64.9550764,8.84961012 64.6298843,8.95605437 64.3232422,9.02050781 C64.0166,9.08496126 63.6464865,9.1171875 63.2128906,9.1171875 L63.2128906,9.1171875 Z M62.9492188,3.27539062 C62.4335912,3.27539062 62.0224625,3.4433577 61.7158203,3.77929688 C61.4091782,4.11523605 61.2285159,4.58007516 61.1738281,5.17382812 L64.53125,5.17382812 C64.53125,4.56054381 64.3945326,4.09082194 64.1210938,3.76464844 C63.8476549,3.43847493 63.4570338,3.27539062 62.9492188,3.27539062 L62.9492188,3.27539062 Z M67.0917969,8.37890625 C67.0917969,8.11718619 67.1513666,7.91894599 67.2705078,7.78417969 C67.389649,7.64941339 67.5605458,7.58203125 67.7832031,7.58203125 C68.0097668,7.58203125 68.1865228,7.64941339 68.3134766,7.78417969 C68.4404303,7.91894599 68.5039062,8.11718619 68.5039062,8.37890625 C68.5039062,8.63281377 68.4394538,8.82812432 68.3105469,8.96484375 C68.18164,9.10156318 68.0058605,9.16992188 67.7832031,9.16992188 C67.5839834,9.16992188 67.418946,9.10839905 67.2880859,8.98535156 C67.1572259,8.86230407 67.0917969,8.66015766 67.0917969,8.37890625 L67.0917969,8.37890625 Z" id="Mum-is-nice." fill="#000000" sketch:type="MSShapeGroup"></path>
    </g>
</svg>