<?xml version="1.0" encoding="UTF-8" standalone="no"?>
<svg width="56px" height="13px" viewBox="0 0 56 13" version="1.1" xmlns="http://www.w3.org/2000/svg" xmlns:xlink="http://www.w3.org/1999/xlink" xmlns:sketch="http://www.bohemiancoding.com/sketch/ns">
    <!-- Generator: Sketch 3.1.1 (8761) - http://www.bohemiancoding.com/sketch -->
    <title>“It’s okay.”</title>
    <desc>Created with Sketch.</desc>
    <defs></defs>
    <g id="Page-1" stroke="none" stroke-width="1" fill="none" fill-rule="evenodd" sketch:type="MSPage">
        <path d="M2.37890625,4.36914062 L2.29101562,4.24023438 C2.50976672,3.40038643 2.85741949,2.46484891 3.33398438,1.43359375 L4.0546875,1.43359375 C3.93749941,1.88281475 3.82128964,2.38964562 3.70605469,2.95410156 C3.59081974,3.51855751 3.50781275,3.99023248 3.45703125,4.36914062 L2.37890625,4.36914062 Z M0.216796875,4.36914062 L0.146484375,4.24023438 C0.232422305,3.88867012 0.371092793,3.45117449 0.5625,2.92773438 C0.753907207,2.40429426 0.958983281,1.90625236 1.17773438,1.43359375 L1.8984375,1.43359375 C1.64062371,2.42578621 1.43945385,3.40429205 1.29492188,4.36914062 L0.216796875,4.36914062 Z M5.37890625,10 L5.37890625,1.43359375 L6.375,1.43359375 L6.375,10 L5.37890625,10 Z M10.6523438,9.31445312 C10.8242196,9.31445312 10.9902336,9.30175794 11.1503906,9.27636719 C11.3105477,9.25097644 11.4374995,9.22460951 11.53125,9.19726562 L11.53125,9.94140625 C11.4257807,9.99218775 11.2705088,10.0341795 11.0654297,10.0673828 C10.8603505,10.1005861 10.6757821,10.1171875 10.5117188,10.1171875 C9.26952504,10.1171875 8.6484375,9.46289717 8.6484375,8.15429688 L8.6484375,4.33398438 L7.72851562,4.33398438 L7.72851562,3.86523438 L8.6484375,3.4609375 L9.05859375,2.08984375 L9.62109375,2.08984375 L9.62109375,3.578125 L11.484375,3.578125 L11.484375,4.33398438 L9.62109375,4.33398438 L9.62109375,8.11328125 C9.62109375,8.50000193 9.71288971,8.79687396 9.89648438,9.00390625 C10.080079,9.21093854 10.3320296,9.31445312 10.6523438,9.31445312 L10.6523438,9.31445312 Z M13.8339844,1.43359375 L13.921875,1.5625 C13.820312,1.95312695 13.6738291,2.40722397 13.4824219,2.92480469 C13.2910147,3.4423854 13.0917979,3.9238259 12.8847656,4.36914062 L12.1699219,4.36914062 C12.4433607,3.25585381 12.6425775,2.27734797 12.7675781,1.43359375 L13.8339844,1.43359375 Z M18.8789062,8.24804688 C18.8789062,8.84570611 18.6562522,9.306639 18.2109375,9.63085938 C17.7656228,9.95507975 17.140629,10.1171875 16.3359375,10.1171875 C15.4843707,10.1171875 14.8203149,9.98242322 14.34375,9.71289062 L14.34375,8.81054688 C14.6523453,8.96679766 14.9833967,9.0898433 15.3369141,9.1796875 C15.6904315,9.2695317 16.0312484,9.31445312 16.359375,9.31445312 C16.86719,9.31445312 17.2578111,9.23339925 17.53125,9.07128906 C17.8046889,8.90917888 17.9414062,8.66211104 17.9414062,8.33007812 C17.9414062,8.08007688 17.8330089,7.86621183 17.6162109,7.68847656 C17.399413,7.5107413 16.9765656,7.30078246 16.3476562,7.05859375 C15.749997,6.83593639 15.3251966,6.64160239 15.0732422,6.47558594 C14.8212878,6.30956948 14.6337897,6.1210948 14.5107422,5.91015625 C14.3876947,5.6992177 14.3261719,5.44726709 14.3261719,5.15429688 C14.3261719,4.63085676 14.5390604,4.21777495 14.9648438,3.91503906 C15.3906271,3.61230317 15.9746057,3.4609375 16.7167969,3.4609375 C17.4082066,3.4609375 18.0839811,3.60156109 18.7441406,3.8828125 L18.3984375,4.67382812 C17.753903,4.4082018 17.1699245,4.27539062 16.6464844,4.27539062 C16.1855446,4.27539062 15.8378918,4.34765553 15.6035156,4.4921875 C15.3691395,4.63671947 15.2519531,4.83593623 15.2519531,5.08984375 C15.2519531,5.26171961 15.295898,5.40820252 15.3837891,5.52929688 C15.4716801,5.65039123 15.6132803,5.76562445 15.8085938,5.875 C16.0039072,5.98437555 16.3789035,6.14257709 16.9335938,6.34960938 C17.6953163,6.62695451 18.2099596,6.90624859 18.4775391,7.1875 C18.7451185,7.46875141 18.8789062,7.8222635 18.8789062,8.24804688 L18.8789062,8.24804688 Z M29.1210938,6.78320312 C29.1210938,7.83008336 28.8574245,8.647458 28.3300781,9.23535156 C27.8027317,9.82324513 27.0742234,10.1171875 26.1445312,10.1171875 C25.5703096,10.1171875 25.0605491,9.98242322 24.6152344,9.71289062 C24.1699196,9.44335803 23.8261731,9.05664314 23.5839844,8.55273438 C23.3417957,8.04882561 23.2207031,7.45898775 23.2207031,6.78320312 C23.2207031,5.73632289 23.4824193,4.92090136 24.0058594,4.33691406 C24.5292995,3.75292677 25.2558547,3.4609375 26.1855469,3.4609375 C27.0839889,3.4609375 27.7978489,3.75976264 28.3271484,4.35742188 C28.856448,4.95508111 29.1210938,5.76366678 29.1210938,6.78320312 L29.1210938,6.78320312 Z M24.2285156,6.78320312 C24.2285156,7.60351973 24.3925765,8.22851348 24.7207031,8.65820312 C25.0488298,9.08789277 25.5312468,9.30273438 26.1679688,9.30273438 C26.8046907,9.30273438 27.2880843,9.08886933 27.6181641,8.66113281 C27.9482438,8.2333963 28.1132812,7.607426 28.1132812,6.78320312 C28.1132812,5.96679279 27.9482438,5.34668181 27.6181641,4.92285156 C27.2880843,4.49902132 26.8007845,4.28710938 26.15625,4.28710938 C25.5195281,4.28710938 25.0390641,4.49609166 24.7148438,4.9140625 C24.3906234,5.33203334 24.2285156,5.95507398 24.2285156,6.78320312 L24.2285156,6.78320312 Z M31.7871094,6.71289062 C31.955079,6.47460818 32.2109358,6.16211131 32.5546875,5.77539062 L34.6289062,3.578125 L35.7832031,3.578125 L33.1816406,6.31445312 L35.9648438,10 L34.7871094,10 L32.5195312,6.96484375 L31.7871094,7.59765625 L31.7871094,10 L30.8261719,10 L30.8261719,0.8828125 L31.7871094,0.8828125 L31.7871094,5.71679688 C31.7871094,5.9316417 31.7714845,6.26366963 31.7402344,6.71289062 L31.7871094,6.71289062 Z M41.0742188,10 L40.8808594,9.0859375 L40.8339844,9.0859375 C40.5136703,9.48828326 40.1943375,9.76074147 39.8759766,9.90332031 C39.5576156,10.0458992 39.1601586,10.1171875 38.6835938,10.1171875 C38.0468718,10.1171875 37.5478534,9.95312664 37.1865234,9.625 C36.8251935,9.29687336 36.6445312,8.83008115 36.6445312,8.22460938 C36.6445312,6.92772789 37.6816303,6.24804719 39.7558594,6.18554688 L40.8457031,6.15039062 L40.8457031,5.75195312 C40.8457031,5.24804436 40.7373058,4.87597776 40.5205078,4.63574219 C40.3037099,4.39550661 39.9570336,4.27539062 39.4804688,4.27539062 C38.9453098,4.27539062 38.3398471,4.43945148 37.6640625,4.76757812 L37.3652344,4.0234375 C37.6816422,3.85156164 38.0283184,3.71679736 38.4052734,3.61914062 C38.7822284,3.52148389 39.1601544,3.47265625 39.5390625,3.47265625 C40.3046913,3.47265625 40.8720685,3.64257643 41.2412109,3.98242188 C41.6103534,4.32226732 41.7949219,4.86718375 41.7949219,5.6171875 L41.7949219,10 L41.0742188,10 Z M38.8769531,9.31445312 C39.4824249,9.31445312 39.9580061,9.14843916 40.3037109,8.81640625 C40.6494158,8.48437334 40.8222656,8.01953424 40.8222656,7.421875 L40.8222656,6.84179688 L39.8496094,6.8828125 C39.076168,6.91015639 38.5185564,7.03027237 38.1767578,7.24316406 C37.8349592,7.45605575 37.6640625,7.78710713 37.6640625,8.23632812 C37.6640625,8.58789238 37.7705067,8.85546783 37.9833984,9.0390625 C38.1962901,9.22265717 38.4941387,9.31445312 38.8769531,9.31445312 L38.8769531,9.31445312 Z M42.7792969,3.578125 L43.8222656,3.578125 L45.2285156,7.24023438 C45.5371109,8.07617605 45.7285153,8.67968564 45.8027344,9.05078125 L45.8496094,9.05078125 C45.9003909,8.8515615 46.0068351,8.5107446 46.1689453,8.02832031 C46.3310555,7.54589603 46.8613236,6.06251242 47.7597656,3.578125 L48.8027344,3.578125 L46.0429688,10.890625 C45.7695299,11.6132849 45.4501971,12.125975 45.0849609,12.4287109 C44.7197247,12.7314468 44.271487,12.8828125 43.7402344,12.8828125 C43.4433579,12.8828125 43.1503921,12.8496097 42.8613281,12.7832031 L42.8613281,12.0039062 C43.0761729,12.0507815 43.3164049,12.0742188 43.5820312,12.0742188 C44.2500033,12.0742188 44.7265611,11.6992225 45.0117188,10.9492188 L45.3691406,10.0351562 L42.7792969,3.578125 Z M49.2246094,9.37890625 C49.2246094,9.11718619 49.2841791,8.91894599 49.4033203,8.78417969 C49.5224615,8.64941339 49.6933583,8.58203125 49.9160156,8.58203125 C50.1425793,8.58203125 50.3193353,8.64941339 50.4462891,8.78417969 C50.5732428,8.91894599 50.6367188,9.11718619 50.6367188,9.37890625 C50.6367188,9.63281377 50.5722663,9.82812432 50.4433594,9.96484375 C50.3144525,10.1015632 50.138673,10.1699219 49.9160156,10.1699219 C49.7167959,10.1699219 49.5517585,10.1083991 49.4208984,9.98535156 C49.2900384,9.86230407 49.2246094,9.66015766 49.2246094,9.37890625 L49.2246094,9.37890625 Z M53.3378906,1.43359375 L53.4257812,1.5625 C53.3242182,1.95312695 53.1777353,2.40722397 52.9863281,2.92480469 C52.7949209,3.4423854 52.5957042,3.9238259 52.3886719,4.36914062 L51.6738281,4.36914062 C51.947267,3.25585381 52.1464838,2.27734797 52.2714844,1.43359375 L53.3378906,1.43359375 Z M55.5,1.43359375 L55.5820312,1.5625 C55.4882808,1.91797053 55.3476572,2.35546615 55.1601562,2.875 C54.9726553,3.39453385 54.7695323,3.89257574 54.5507812,4.36914062 L53.8183594,4.36914062 C53.9199224,3.97851367 54.0351556,3.48242488 54.1640625,2.88085938 C54.2929694,2.27929387 54.3828122,1.79687682 54.4335938,1.43359375 L55.5,1.43359375 Z" id="“It’s-okay.”" fill="#000000" sketch:type="MSShapeGroup"></path>
    </g>
</svg>