<?xml version="1.0" encoding="UTF-8" standalone="no"?>
<svg width="37px" height="22px" viewBox="0 0 37 22" version="1.1" xmlns="http://www.w3.org/2000/svg" xmlns:xlink="http://www.w3.org/1999/xlink" xmlns:sketch="http://www.bohemiancoding.com/sketch/ns">
    <!-- Generator: Sketch 3.1.1 (8761) - http://www.bohemiancoding.com/sketch -->
    <title>T I C K</title>
    <desc>Created with Sketch.</desc>
    <defs></defs>
    <g id="Page-1" stroke="none" stroke-width="1" fill="none" fill-rule="evenodd" sketch:type="MSPage">
        <path d="M4.70507812,20.7767239 L2.390625,20.7767239 L2.390625,5.05792711 L0.298828125,5.05792711 L0.298828125,0.600357878 L6.79101562,0.600357878 L6.79101562,5.05792711 L4.70507812,5.05792711 L4.70507812,20.7767239 Z M11.1328125,20.7767239 L11.1328125,0.600357878 L13.4589844,0.600357878 L13.4589844,20.7767239 L11.1328125,20.7767239 Z M22.2421875,4.78191664 C21.6914035,4.78191664 21.2617203,5.31323149 20.953125,6.37587715 C20.6445297,7.43852281 20.4902344,8.90366378 20.4902344,10.771344 C20.4902344,14.6539108 21.1171812,16.5951651 22.3710938,16.5951651 C22.7500019,16.5951651 23.1171857,16.4709617 23.4726562,16.222551 C23.8281268,15.9741403 24.1855451,15.675132 24.5449219,15.3255169 L24.5449219,19.9348919 C23.8300746,20.680124 23.0214889,21.0527344 22.1191406,21.0527344 C20.8261654,21.0527344 19.8349644,20.1695097 19.1455078,18.4030338 C18.4560512,16.6365579 18.1113281,14.0834865 18.1113281,10.743743 C18.1113281,8.65525325 18.2783186,6.81980192 18.6123047,5.23733393 C18.9462907,3.65486593 19.4267547,2.43813191 20.0537109,1.58709534 C20.6806672,0.736058775 21.4179645,0.310546875 22.265625,0.310546875 C23.1914109,0.310546875 24.0761677,0.784360126 24.9199219,1.73200084 L24.2109375,6.02396379 C23.8945297,5.67434877 23.5781266,5.37994054 23.2617188,5.14073026 C22.9453109,4.90151998 22.6054706,4.78191664 22.2421875,4.78191664 L22.2421875,4.78191664 Z M36.6503906,20.7767239 L34.0371094,20.7767239 L32.34375,13.062231 L31.6582031,14.0282677 L31.6582031,20.7767239 L29.3320312,20.7767239 L29.3320312,0.600357878 L31.6582031,0.600357878 L31.6582031,9.36369059 C31.7753912,8.82086726 32.011717,7.96064321 32.3671875,6.78299261 L34.1660156,0.600357878 L36.6972656,0.600357878 L33.9960938,9.63970107 L36.6503906,20.7767239 Z" id="T-I-C-K" fill="#000000" sketch:type="MSShapeGroup"></path>
    </g>
</svg>