<?xml version="1.0" encoding="UTF-8" standalone="no"?>
<svg width="31px" height="10px" viewBox="0 0 31 10" version="1.1" xmlns="http://www.w3.org/2000/svg" xmlns:xlink="http://www.w3.org/1999/xlink" xmlns:sketch="http://www.bohemiancoding.com/sketch/ns">
    <!-- Generator: Sketch 3.1.1 (8761) - http://www.bohemiancoding.com/sketch -->
    <title>TOCK</title>
    <desc>Created with Sketch.</desc>
    <defs></defs>
    <g id="Page-1" stroke="none" stroke-width="1" fill="none" fill-rule="evenodd" sketch:type="MSPage">
        <path d="M3.81445312,9 L2.81835938,9 L2.81835938,1.31835938 L0.10546875,1.31835938 L0.10546875,0.43359375 L6.52734375,0.43359375 L6.52734375,1.31835938 L3.81445312,1.31835938 L3.81445312,9 Z M15.0117188,4.70507812 C15.0117188,6.07617873 14.6650425,7.15429295 13.9716797,7.93945312 C13.2783168,8.7246133 12.3144593,9.1171875 11.0800781,9.1171875 C9.81835307,9.1171875 8.84472999,8.73144917 8.15917969,7.95996094 C7.47362938,7.18847271 7.13085938,6.09961641 7.13085938,4.69335938 C7.13085938,3.29882115 7.47460594,2.21777728 8.16210938,1.45019531 C8.84961281,0.68261335 9.82616555,0.298828125 11.0917969,0.298828125 C12.3222718,0.298828125 13.2831997,0.689449219 13.9746094,1.47070312 C14.6660191,2.25195703 15.0117188,3.33007125 15.0117188,4.70507812 L15.0117188,4.70507812 Z M8.18554688,4.70507812 C8.18554688,5.86524018 8.43261472,6.74511419 8.92675781,7.34472656 C9.42090091,7.94433894 10.1386672,8.24414062 11.0800781,8.24414062 C12.0293016,8.24414062 12.7460913,7.94531549 13.2304688,7.34765625 C13.7148462,6.74999701 13.9570312,5.86914645 13.9570312,4.70507812 C13.9570312,3.55272861 13.7158227,2.67871392 13.2333984,2.08300781 C12.7509742,1.48730171 12.0371141,1.18945312 11.0917969,1.18945312 C10.1425734,1.18945312 9.42090091,1.48925481 8.92675781,2.08886719 C8.43261472,2.68847956 8.18554688,3.56054115 8.18554688,4.70507812 L8.18554688,4.70507812 Z M20.5898438,1.20117188 C19.6484328,1.20117188 18.9052762,1.5146453 18.3603516,2.14160156 C17.815427,2.76855782 17.5429688,3.62694768 17.5429688,4.71679688 C17.5429688,5.83789623 17.8056614,6.70409851 18.3310547,7.31542969 C18.8564479,7.92676087 19.6054639,8.23242188 20.578125,8.23242188 C21.1757842,8.23242188 21.857418,8.12500107 22.6230469,7.91015625 L22.6230469,8.78320312 C22.0292939,9.00586049 21.2968794,9.1171875 20.4257812,9.1171875 C19.1640562,9.1171875 18.1904331,8.73437883 17.5048828,7.96875 C16.8193325,7.20312117 16.4765625,6.11524143 16.4765625,4.70507812 C16.4765625,3.82226121 16.6415999,3.04883145 16.9716797,2.38476562 C17.3017595,1.7206998 17.7783172,1.20898617 18.4013672,0.849609375 C19.0244172,0.490232578 19.7578083,0.310546875 20.6015625,0.310546875 C21.5000045,0.310546875 22.2851529,0.474607734 22.9570312,0.802734375 L22.5351562,1.65820312 C21.8867155,1.3535141 21.2382845,1.20117188 20.5898438,1.20117188 L20.5898438,1.20117188 Z M30.6796875,9 L29.5078125,9 L26.3847656,4.84570312 L25.4882812,5.64257812 L25.4882812,9 L24.4921875,9 L24.4921875,0.43359375 L25.4882812,0.43359375 L25.4882812,4.68164062 L29.3730469,0.43359375 L30.5507812,0.43359375 L27.1054688,4.15429688 L30.6796875,9 Z" id="TOCK" fill="#000000" sketch:type="MSShapeGroup"></path>
    </g>
</svg>