<?xml version="1.0" encoding="UTF-8" standalone="no"?>
<svg width="28px" height="11px" viewBox="0 0 28 11" version="1.1" xmlns="http://www.w3.org/2000/svg" xmlns:xlink="http://www.w3.org/1999/xlink" xmlns:sketch="http://www.bohemiancoding.com/sketch/ns">
    <!-- Generator: Sketch 3.1.1 (8761) - http://www.bohemiancoding.com/sketch -->
    <title>Tock.</title>
    <desc>Created with Sketch.</desc>
    <defs></defs>
    <g id="Page-1" stroke="none" stroke-width="1" fill="none" fill-rule="evenodd" sketch:type="MSPage">
        <path d="M3.81445312,10 L2.81835938,10 L2.81835938,2.31835938 L0.10546875,2.31835938 L0.10546875,1.43359375 L6.52734375,1.43359375 L6.52734375,2.31835938 L3.81445312,2.31835938 L3.81445312,10 Z M12.375,6.78320312 C12.375,7.83008336 12.1113308,8.647458 11.5839844,9.23535156 C11.056638,9.82324513 10.3281296,10.1171875 9.3984375,10.1171875 C8.82421588,10.1171875 8.31445535,9.98242322 7.86914062,9.71289062 C7.4238259,9.44335803 7.08007934,9.05664314 6.83789062,8.55273438 C6.59570191,8.04882561 6.47460938,7.45898775 6.47460938,6.78320312 C6.47460938,5.73632289 6.73632551,4.92090136 7.25976562,4.33691406 C7.78320574,3.75292677 8.50976098,3.4609375 9.43945312,3.4609375 C10.3378951,3.4609375 11.0517552,3.75976264 11.5810547,4.35742188 C12.1103542,4.95508111 12.375,5.76366678 12.375,6.78320312 L12.375,6.78320312 Z M7.48242188,6.78320312 C7.48242188,7.60351973 7.64648273,8.22851348 7.97460938,8.65820312 C8.30273602,9.08789277 8.78515307,9.30273438 9.421875,9.30273438 C10.0585969,9.30273438 10.5419905,9.08886933 10.8720703,8.66113281 C11.2021501,8.2333963 11.3671875,7.607426 11.3671875,6.78320312 C11.3671875,5.96679279 11.2021501,5.34668181 10.8720703,4.92285156 C10.5419905,4.49902132 10.0546907,4.28710938 9.41015625,4.28710938 C8.77343432,4.28710938 8.29297037,4.49609166 7.96875,4.9140625 C7.64452963,5.33203334 7.48242188,5.95507398 7.48242188,6.78320312 L7.48242188,6.78320312 Z M16.6464844,10.1171875 C15.7167922,10.1171875 14.9970729,9.83105755 14.4873047,9.25878906 C13.9775365,8.68652058 13.7226562,7.87695836 13.7226562,6.83007812 C13.7226562,5.755854 13.9814427,4.92578418 14.4990234,4.33984375 C15.0166042,3.75390332 15.7539015,3.4609375 16.7109375,3.4609375 C17.0195328,3.4609375 17.3281235,3.49414029 17.6367188,3.56054688 C17.945314,3.62695346 18.1874991,3.70507768 18.3632812,3.79492188 L18.0644531,4.62109375 C17.8496083,4.53515582 17.6152356,4.46386747 17.3613281,4.40722656 C17.1074206,4.35058565 16.8828135,4.32226562 16.6875,4.32226562 C15.382806,4.32226562 14.7304688,5.15428855 14.7304688,6.81835938 C14.7304688,7.60742582 14.8896468,8.21288852 15.2080078,8.63476562 C15.5263688,9.05664273 15.9980438,9.26757812 16.6230469,9.26757812 C17.1582058,9.26757812 17.7070284,9.1523449 18.2695312,8.921875 L18.2695312,9.78320312 C17.8398416,10.0058605 17.2988314,10.1171875 16.6464844,10.1171875 L16.6464844,10.1171875 Z M20.7539062,6.71289062 C20.9218758,6.47460818 21.1777327,6.16211131 21.5214844,5.77539062 L23.5957031,3.578125 L24.75,3.578125 L22.1484375,6.31445312 L24.9316406,10 L23.7539062,10 L21.4863281,6.96484375 L20.7539062,7.59765625 L20.7539062,10 L19.7929688,10 L19.7929688,0.8828125 L20.7539062,0.8828125 L20.7539062,5.71679688 C20.7539062,5.9316417 20.7382814,6.26366963 20.7070312,6.71289062 L20.7539062,6.71289062 Z M25.9511719,9.37890625 C25.9511719,9.11718619 26.0107416,8.91894599 26.1298828,8.78417969 C26.249024,8.64941339 26.4199208,8.58203125 26.6425781,8.58203125 C26.8691418,8.58203125 27.0458978,8.64941339 27.1728516,8.78417969 C27.2998053,8.91894599 27.3632812,9.11718619 27.3632812,9.37890625 C27.3632812,9.63281377 27.2988288,9.82812432 27.1699219,9.96484375 C27.041015,10.1015632 26.8652355,10.1699219 26.6425781,10.1699219 C26.4433584,10.1699219 26.278321,10.1083991 26.1474609,9.98535156 C26.0166009,9.86230407 25.9511719,9.66015766 25.9511719,9.37890625 L25.9511719,9.37890625 Z" id="Tock." fill="#000000" sketch:type="MSShapeGroup"></path>
    </g>
</svg>