<?xml version="1.0" encoding="UTF-8" standalone="no"?>
<svg width="43px" height="22px" viewBox="0 0 43 22" version="1.1" xmlns="http://www.w3.org/2000/svg" xmlns:xlink="http://www.w3.org/1999/xlink" xmlns:sketch="http://www.bohemiancoding.com/sketch/ns">
    <!-- Generator: Sketch 3.1.1 (8761) - http://www.bohemiancoding.com/sketch -->
    <title>T O C K</title>
    <desc>Created with Sketch.</desc>
    <defs></defs>
    <g id="Page-1" stroke="none" stroke-width="1" fill="none" fill-rule="evenodd" sketch:type="MSPage">
        <path d="M4.70507812,20.776935 L2.390625,20.776935 L2.390625,5.07015807 L0.298828125,5.07015807 L0.298828125,0.615997456 L6.79101562,0.615997456 L6.79101562,5.07015807 L4.70507812,5.07015807 L4.70507812,20.776935 Z M19.1484375,10.6688863 C19.1484375,14.0612361 18.7949254,16.6399349 18.0878906,18.40506 C17.3808558,20.1701851 16.3457099,21.0527344 14.9824219,21.0527344 C13.6386652,21.0527344 12.608402,20.1655885 11.8916016,18.39127 C11.1748011,16.6169515 10.8164062,14.0336561 10.8164062,10.6413063 C10.8164062,7.28572995 11.172848,4.72311931 11.8857422,2.95339753 C12.5986364,1.18367574 13.6347588,0.298828125 14.9941406,0.298828125 C16.3574287,0.298828125 17.3906215,1.17678083 18.09375,2.93271257 C18.7968785,4.68864432 19.1484375,7.26734309 19.1484375,10.6688863 L19.1484375,10.6688863 Z M13.2539062,10.6688863 C13.2539062,14.5668709 13.8300724,16.5158339 14.9824219,16.5158339 C15.5683623,16.5158339 16.0029283,16.042383 16.2861328,15.0954669 C16.5693374,14.1485509 16.7109375,12.6730387 16.7109375,10.6688863 C16.7109375,8.65554044 16.5673842,7.16853678 16.2802734,6.20783067 C15.9931626,5.24712456 15.564456,4.76677871 14.9941406,4.76677871 C13.8339786,4.76677871 13.2539062,6.73412822 13.2539062,10.6688863 L13.2539062,10.6688863 Z M27.6269531,4.79435865 C27.0761691,4.79435865 26.6464859,5.32526722 26.3378906,6.38710029 C26.0292953,7.44893336 25.875,8.91295397 25.875,10.779206 C25.875,14.6588039 26.5019469,16.5985738 27.7558594,16.5985738 C28.1347675,16.5985738 28.5019513,16.4744653 28.8574219,16.2262445 C29.2128924,15.9780238 29.5703107,15.6792441 29.9296875,15.3298964 L29.9296875,19.9357467 C29.2148402,20.6804089 28.4062545,21.0527344 27.5039062,21.0527344 C26.210931,21.0527344 25.21973,20.1701851 24.5302734,18.40506 C23.8408169,16.6399349 23.4960938,14.0888157 23.4960938,10.7516261 C23.4960938,8.66473339 23.6630843,6.8306856 23.9970703,5.24942769 C24.3310564,3.66816978 24.8115203,2.45236617 25.4384766,1.60198038 C26.0654328,0.751594585 26.8027301,0.326408067 27.6503906,0.326408067 C28.5761765,0.326408067 29.4609333,0.799859001 30.3046875,1.74677507 L29.5957031,6.03545603 C29.2792953,5.68610836 28.9628922,5.39192525 28.6464844,5.15289789 C28.3300765,4.91387053 27.9902362,4.79435865 27.6269531,4.79435865 L27.6269531,4.79435865 Z M42.0351562,20.776935 L39.421875,20.776935 L37.7285156,13.0683412 L37.0429688,14.0336392 L37.0429688,20.776935 L34.7167969,20.776935 L34.7167969,0.615997456 L37.0429688,0.615997456 L37.0429688,9.372629 C37.1601568,8.83022076 37.3964826,7.9706545 37.7519531,6.79390443 L39.5507812,0.615997456 L42.0820312,0.615997456 L39.3808594,9.64842842 L42.0351562,20.776935 Z" id="T-O-C-K" fill="#000000" sketch:type="MSShapeGroup"></path>
    </g>
</svg>