<?xml version="1.0" encoding="UTF-8" standalone="no"?>
<svg width="86px" height="13px" viewBox="0 0 86 13" version="1.1" xmlns="http://www.w3.org/2000/svg" xmlns:xlink="http://www.w3.org/1999/xlink" xmlns:sketch="http://www.bohemiancoding.com/sketch/ns">
    <!-- Generator: Sketch 3.1.1 (8761) - http://www.bohemiancoding.com/sketch -->
    <title>“But stay here.”</title>
    <desc>Created with Sketch.</desc>
    <defs></defs>
    <g id="Page-1" stroke="none" stroke-width="1" fill="none" fill-rule="evenodd" sketch:type="MSPage">
        <path d="M2.37890625,4.36914062 L2.29101562,4.24023438 C2.50976672,3.40038643 2.85741949,2.46484891 3.33398438,1.43359375 L4.0546875,1.43359375 C3.93749941,1.88281475 3.82128964,2.38964562 3.70605469,2.95410156 C3.59081974,3.51855751 3.50781275,3.99023248 3.45703125,4.36914062 L2.37890625,4.36914062 Z M0.216796875,4.36914062 L0.146484375,4.24023438 C0.232422305,3.88867012 0.371092793,3.45117449 0.5625,2.92773438 C0.753907207,2.40429426 0.958983281,1.90625236 1.17773438,1.43359375 L1.8984375,1.43359375 C1.64062371,2.42578621 1.43945385,3.40429205 1.29492188,4.36914062 L0.216796875,4.36914062 Z M5.37890625,1.43359375 L7.79882812,1.43359375 C8.93555256,1.43359375 9.75780996,1.60351393 10.265625,1.94335938 C10.77344,2.28320482 11.0273438,2.82030883 11.0273438,3.5546875 C11.0273438,4.06250254 10.8857436,4.48144366 10.6025391,4.81152344 C10.3193345,5.14160321 9.90625271,5.35546826 9.36328125,5.453125 L9.36328125,5.51171875 C10.664069,5.73437611 11.3144531,6.41796303 11.3144531,7.5625 C11.3144531,8.32812883 11.0556667,8.9257791 10.5380859,9.35546875 C10.0205052,9.7851584 9.29687965,10 8.3671875,10 L5.37890625,10 L5.37890625,1.43359375 Z M6.375,5.1015625 L8.015625,5.1015625 C8.71875352,5.1015625 9.22460783,4.99121204 9.53320312,4.77050781 C9.84179842,4.54980358 9.99609375,4.17773699 9.99609375,3.65429688 C9.99609375,3.17382572 9.82422047,2.8271495 9.48046875,2.61425781 C9.13671703,2.40136612 8.5898475,2.29492188 7.83984375,2.29492188 L6.375,2.29492188 L6.375,5.1015625 Z M6.375,5.9453125 L6.375,9.15039062 L8.16210938,9.15039062 C8.85351908,9.15039062 9.37402169,9.0166029 9.72363281,8.74902344 C10.0732439,8.48144397 10.2480469,8.06250285 10.2480469,7.4921875 C10.2480469,6.96093484 10.0693377,6.57031375 9.71191406,6.3203125 C9.3544904,6.07031125 8.81055053,5.9453125 8.08007812,5.9453125 L6.375,5.9453125 Z M13.921875,3.578125 L13.921875,7.74414062 C13.921875,8.26758074 14.0410144,8.65820184 14.2792969,8.91601562 C14.5175793,9.17382941 14.8906225,9.30273438 15.3984375,9.30273438 C16.0703159,9.30273438 16.5615219,9.11914246 16.8720703,8.75195312 C17.1826187,8.38476379 17.3378906,7.78516041 17.3378906,6.953125 L17.3378906,3.578125 L18.3105469,3.578125 L18.3105469,10 L17.5078125,10 L17.3671875,9.13867188 L17.3144531,9.13867188 C17.1152334,9.45507971 16.838869,9.69726479 16.4853516,9.86523438 C16.1318342,10.033204 15.7285179,10.1171875 15.2753906,10.1171875 C14.4941367,10.1171875 13.9091816,9.93164248 13.5205078,9.56054688 C13.131834,9.18945127 12.9375,8.59570721 12.9375,7.77929688 L12.9375,3.578125 L13.921875,3.578125 Z M22.4472656,9.31445312 C22.6191415,9.31445312 22.7851554,9.30175794 22.9453125,9.27636719 C23.1054696,9.25097644 23.2324214,9.22460951 23.3261719,9.19726562 L23.3261719,9.94140625 C23.2207026,9.99218775 23.0654307,10.0341795 22.8603516,10.0673828 C22.6552724,10.1005861 22.4707039,10.1171875 22.3066406,10.1171875 C21.0644469,10.1171875 20.4433594,9.46289717 20.4433594,8.15429688 L20.4433594,4.33398438 L19.5234375,4.33398438 L19.5234375,3.86523438 L20.4433594,3.4609375 L20.8535156,2.08984375 L21.4160156,2.08984375 L21.4160156,3.578125 L23.2792969,3.578125 L23.2792969,4.33398438 L21.4160156,4.33398438 L21.4160156,8.11328125 C21.4160156,8.50000193 21.5078116,8.79687396 21.6914062,9.00390625 C21.8750009,9.21093854 22.1269515,9.31445312 22.4472656,9.31445312 L22.4472656,9.31445312 Z M31.8691406,8.24804688 C31.8691406,8.84570611 31.6464866,9.306639 31.2011719,9.63085938 C30.7558571,9.95507975 30.1308634,10.1171875 29.3261719,10.1171875 C28.4746051,10.1171875 27.8105493,9.98242322 27.3339844,9.71289062 L27.3339844,8.81054688 C27.6425797,8.96679766 27.973631,9.0898433 28.3271484,9.1796875 C28.6806658,9.2695317 29.0214827,9.31445312 29.3496094,9.31445312 C29.8574244,9.31445312 30.2480455,9.23339925 30.5214844,9.07128906 C30.7949232,8.90917888 30.9316406,8.66211104 30.9316406,8.33007812 C30.9316406,8.08007688 30.8232433,7.86621183 30.6064453,7.68847656 C30.3896474,7.5107413 29.9668,7.30078246 29.3378906,7.05859375 C28.7402314,6.83593639 28.3154309,6.64160239 28.0634766,6.47558594 C27.8115222,6.30956948 27.6240241,6.1210948 27.5009766,5.91015625 C27.3779291,5.6992177 27.3164062,5.44726709 27.3164062,5.15429688 C27.3164062,4.63085676 27.5292947,4.21777495 27.9550781,3.91503906 C28.3808615,3.61230317 28.96484,3.4609375 29.7070312,3.4609375 C30.398441,3.4609375 31.0742154,3.60156109 31.734375,3.8828125 L31.3886719,4.67382812 C30.7441374,4.4082018 30.1601589,4.27539062 29.6367188,4.27539062 C29.1757789,4.27539062 28.8281262,4.34765553 28.59375,4.4921875 C28.3593738,4.63671947 28.2421875,4.83593623 28.2421875,5.08984375 C28.2421875,5.26171961 28.2861324,5.40820252 28.3740234,5.52929688 C28.4619145,5.65039123 28.6035146,5.76562445 28.7988281,5.875 C28.9941416,5.98437555 29.3691379,6.14257709 29.9238281,6.34960938 C30.6855507,6.62695451 31.200194,6.90624859 31.4677734,7.1875 C31.7353529,7.46875141 31.8691406,7.8222635 31.8691406,8.24804688 L31.8691406,8.24804688 Z M35.5253906,9.31445312 C35.6972665,9.31445312 35.8632804,9.30175794 36.0234375,9.27636719 C36.1835946,9.25097644 36.3105464,9.22460951 36.4042969,9.19726562 L36.4042969,9.94140625 C36.2988276,9.99218775 36.1435557,10.0341795 35.9384766,10.0673828 C35.7333974,10.1005861 35.5488289,10.1171875 35.3847656,10.1171875 C34.1425719,10.1171875 33.5214844,9.46289717 33.5214844,8.15429688 L33.5214844,4.33398438 L32.6015625,4.33398438 L32.6015625,3.86523438 L33.5214844,3.4609375 L33.9316406,2.08984375 L34.4941406,2.08984375 L34.4941406,3.578125 L36.3574219,3.578125 L36.3574219,4.33398438 L34.4941406,4.33398438 L34.4941406,8.11328125 C34.4941406,8.50000193 34.5859366,8.79687396 34.7695312,9.00390625 C34.9531259,9.21093854 35.2050765,9.31445312 35.5253906,9.31445312 L35.5253906,9.31445312 Z M41.6367188,10 L41.4433594,9.0859375 L41.3964844,9.0859375 C41.0761703,9.48828326 40.7568375,9.76074147 40.4384766,9.90332031 C40.1201156,10.0458992 39.7226586,10.1171875 39.2460938,10.1171875 C38.6093718,10.1171875 38.1103534,9.95312664 37.7490234,9.625 C37.3876935,9.29687336 37.2070312,8.83008115 37.2070312,8.22460938 C37.2070312,6.92772789 38.2441303,6.24804719 40.3183594,6.18554688 L41.4082031,6.15039062 L41.4082031,5.75195312 C41.4082031,5.24804436 41.2998058,4.87597776 41.0830078,4.63574219 C40.8662099,4.39550661 40.5195336,4.27539062 40.0429688,4.27539062 C39.5078098,4.27539062 38.9023471,4.43945148 38.2265625,4.76757812 L37.9277344,4.0234375 C38.2441422,3.85156164 38.5908184,3.71679736 38.9677734,3.61914062 C39.3447284,3.52148389 39.7226544,3.47265625 40.1015625,3.47265625 C40.8671913,3.47265625 41.4345685,3.64257643 41.8037109,3.98242188 C42.1728534,4.32226732 42.3574219,4.86718375 42.3574219,5.6171875 L42.3574219,10 L41.6367188,10 Z M39.4394531,9.31445312 C40.0449249,9.31445312 40.5205061,9.14843916 40.8662109,8.81640625 C41.2119158,8.48437334 41.3847656,8.01953424 41.3847656,7.421875 L41.3847656,6.84179688 L40.4121094,6.8828125 C39.638668,6.91015639 39.0810564,7.03027237 38.7392578,7.24316406 C38.3974592,7.45605575 38.2265625,7.78710713 38.2265625,8.23632812 C38.2265625,8.58789238 38.3330067,8.85546783 38.5458984,9.0390625 C38.7587901,9.22265717 39.0566387,9.31445312 39.4394531,9.31445312 L39.4394531,9.31445312 Z M43.3417969,3.578125 L44.3847656,3.578125 L45.7910156,7.24023438 C46.0996109,8.07617605 46.2910153,8.67968564 46.3652344,9.05078125 L46.4121094,9.05078125 C46.4628909,8.8515615 46.5693351,8.5107446 46.7314453,8.02832031 C46.8935555,7.54589603 47.4238236,6.06251242 48.3222656,3.578125 L49.3652344,3.578125 L46.6054688,10.890625 C46.3320299,11.6132849 46.0126971,12.125975 45.6474609,12.4287109 C45.2822247,12.7314468 44.833987,12.8828125 44.3027344,12.8828125 C44.0058579,12.8828125 43.7128921,12.8496097 43.4238281,12.7832031 L43.4238281,12.0039062 C43.6386729,12.0507815 43.8789049,12.0742188 44.1445312,12.0742188 C44.8125033,12.0742188 45.2890611,11.6992225 45.5742188,10.9492188 L45.9316406,10.0351562 L43.3417969,3.578125 Z M57.9199219,10 L57.9199219,5.84570312 C57.9199219,5.32226301 57.8007824,4.93164191 57.5625,4.67382812 C57.3242176,4.41601434 56.9511744,4.28710938 56.4433594,4.28710938 C55.7675747,4.28710938 55.2744156,4.47070129 54.9638672,4.83789062 C54.6533188,5.20507996 54.4980469,5.80663645 54.4980469,6.64257813 L54.4980469,10 L53.5253906,10 L53.5253906,0.8828125 L54.4980469,0.8828125 L54.4980469,3.64257812 C54.4980469,3.97461104 54.482422,4.24999891 54.4511719,4.46875 L54.5097656,4.46875 C54.7011728,4.16015471 54.973631,3.91699308 55.3271484,3.73925781 C55.6806658,3.56152255 56.0839821,3.47265625 56.5371094,3.47265625 C57.3222696,3.47265625 57.9111308,3.65917782 58.3037109,4.03222656 C58.696291,4.4052753 58.8925781,4.99804281 58.8925781,5.81054688 L58.8925781,10 L57.9199219,10 Z M63.6035156,10.1171875 C62.6542921,10.1171875 61.9052762,9.82812789 61.3564453,9.25 C60.8076144,8.67187211 60.5332031,7.86914576 60.5332031,6.84179688 C60.5332031,5.80663545 60.7880834,4.98437805 61.2978516,4.375 C61.8076197,3.76562195 62.4921832,3.4609375 63.3515625,3.4609375 C64.156254,3.4609375 64.7929664,3.72558329 65.2617188,4.25488281 C65.7304711,4.78418233 65.9648438,5.48241754 65.9648438,6.34960938 L65.9648438,6.96484375 L61.5410156,6.96484375 C61.560547,7.71875377 61.7509748,8.29101367 62.1123047,8.68164062 C62.4736346,9.07226758 62.9824186,9.26757812 63.6386719,9.26757812 C64.3300816,9.26757812 65.0136685,9.12304832 65.6894531,8.83398438 L65.6894531,9.70117188 C65.3457014,9.84961012 65.0205093,9.95605437 64.7138672,10.0205078 C64.407225,10.0849613 64.0371115,10.1171875 63.6035156,10.1171875 L63.6035156,10.1171875 Z M63.3398438,4.27539062 C62.8242162,4.27539062 62.4130875,4.4433577 62.1064453,4.77929688 C61.7998032,5.11523605 61.6191409,5.58007516 61.5644531,6.17382812 L64.921875,6.17382812 C64.921875,5.56054381 64.7851576,5.09082194 64.5117188,4.76464844 C64.2382799,4.43847493 63.8476588,4.27539062 63.3398438,4.27539062 L63.3398438,4.27539062 Z M70.5527344,3.4609375 C70.8378921,3.4609375 71.0937489,3.48437477 71.3203125,3.53125 L71.1855469,4.43359375 C70.9199205,4.37499971 70.6855479,4.34570312 70.4824219,4.34570312 C69.962888,4.34570312 69.5185565,4.55663852 69.1494141,4.97851562 C68.7802716,5.40039273 68.5957031,5.92577811 68.5957031,6.5546875 L68.5957031,10 L67.6230469,10 L67.6230469,3.578125 L68.4257812,3.578125 L68.5371094,4.76757812 L68.5839844,4.76757812 C68.8222668,4.34960729 69.1093733,4.02734488 69.4453125,3.80078125 C69.7812517,3.57421762 70.1503886,3.4609375 70.5527344,3.4609375 L70.5527344,3.4609375 Z M74.9941406,10.1171875 C74.0449171,10.1171875 73.2959012,9.82812789 72.7470703,9.25 C72.1982394,8.67187211 71.9238281,7.86914576 71.9238281,6.84179688 C71.9238281,5.80663545 72.1787084,4.98437805 72.6884766,4.375 C73.1982447,3.76562195 73.8828082,3.4609375 74.7421875,3.4609375 C75.546879,3.4609375 76.1835914,3.72558329 76.6523438,4.25488281 C77.1210961,4.78418233 77.3554688,5.48241754 77.3554688,6.34960938 L77.3554688,6.96484375 L72.9316406,6.96484375 C72.951172,7.71875377 73.1415998,8.29101367 73.5029297,8.68164062 C73.8642596,9.07226758 74.3730436,9.26757812 75.0292969,9.26757812 C75.7207066,9.26757812 76.4042935,9.12304832 77.0800781,8.83398438 L77.0800781,9.70117188 C76.7363264,9.84961012 76.4111343,9.95605437 76.1044922,10.0205078 C75.79785,10.0849613 75.4277365,10.1171875 74.9941406,10.1171875 L74.9941406,10.1171875 Z M74.7304688,4.27539062 C74.2148412,4.27539062 73.8037125,4.4433577 73.4970703,4.77929688 C73.1904282,5.11523605 73.0097659,5.58007516 72.9550781,6.17382812 L76.3125,6.17382812 C76.3125,5.56054381 76.1757826,5.09082194 75.9023438,4.76464844 C75.6289049,4.43847493 75.2382838,4.27539062 74.7304688,4.27539062 L74.7304688,4.27539062 Z M78.8730469,9.37890625 C78.8730469,9.11718619 78.9326166,8.91894599 79.0517578,8.78417969 C79.170899,8.64941339 79.3417958,8.58203125 79.5644531,8.58203125 C79.7910168,8.58203125 79.9677728,8.64941339 80.0947266,8.78417969 C80.2216803,8.91894599 80.2851562,9.11718619 80.2851562,9.37890625 C80.2851562,9.63281377 80.2207038,9.82812432 80.0917969,9.96484375 C79.96289,10.1015632 79.7871105,10.1699219 79.5644531,10.1699219 C79.3652334,10.1699219 79.200196,10.1083991 79.0693359,9.98535156 C78.9384759,9.86230407 78.8730469,9.66015766 78.8730469,9.37890625 L78.8730469,9.37890625 Z M82.9863281,1.43359375 L83.0742188,1.5625 C82.9726557,1.95312695 82.8261728,2.40722397 82.6347656,2.92480469 C82.4433584,3.4423854 82.2441417,3.9238259 82.0371094,4.36914062 L81.3222656,4.36914062 C81.5957045,3.25585381 81.7949213,2.27734797 81.9199219,1.43359375 L82.9863281,1.43359375 Z M85.1484375,1.43359375 L85.2304688,1.5625 C85.1367183,1.91797053 84.9960947,2.35546615 84.8085938,2.875 C84.6210928,3.39453385 84.4179698,3.89257574 84.1992188,4.36914062 L83.4667969,4.36914062 C83.5683599,3.97851367 83.6835931,3.48242488 83.8125,2.88085938 C83.9414069,2.27929387 84.0312497,1.79687682 84.0820312,1.43359375 L85.1484375,1.43359375 Z" id="“But-stay-here.”" fill="#000000" sketch:type="MSShapeGroup"></path>
    </g>
</svg>