<?xml version="1.0" encoding="UTF-8" standalone="no"?>
<svg width="94px" height="11px" viewBox="0 0 94 11" version="1.1" xmlns="http://www.w3.org/2000/svg" xmlns:xlink="http://www.w3.org/1999/xlink" xmlns:sketch="http://www.bohemiancoding.com/sketch/ns">
    <!-- Generator: Sketch 3.1.1 (8761) - http://www.bohemiancoding.com/sketch -->
    <title>“Lock the doors.”</title>
    <desc>Created with Sketch.</desc>
    <defs></defs>
    <g id="Page-1" stroke="none" stroke-width="1" fill="none" fill-rule="evenodd" sketch:type="MSPage">
        <path d="M2.37890625,4.36914062 L2.29101562,4.24023438 C2.50976672,3.40038643 2.85741949,2.46484891 3.33398438,1.43359375 L4.0546875,1.43359375 C3.93749941,1.88281475 3.82128964,2.38964562 3.70605469,2.95410156 C3.59081974,3.51855751 3.50781275,3.99023248 3.45703125,4.36914062 L2.37890625,4.36914062 Z M0.216796875,4.36914062 L0.146484375,4.24023438 C0.232422305,3.88867012 0.371092793,3.45117449 0.5625,2.92773438 C0.753907207,2.40429426 0.958983281,1.90625236 1.17773438,1.43359375 L1.8984375,1.43359375 C1.64062371,2.42578621 1.43945385,3.40429205 1.29492188,4.36914062 L0.216796875,4.36914062 Z M5.37890625,10 L5.37890625,1.43359375 L6.375,1.43359375 L6.375,9.09765625 L10.1542969,9.09765625 L10.1542969,10 L5.37890625,10 Z M17.0039062,6.78320312 C17.0039062,7.83008336 16.740237,8.647458 16.2128906,9.23535156 C15.6855442,9.82324513 14.9570359,10.1171875 14.0273438,10.1171875 C13.4531221,10.1171875 12.9433616,9.98242322 12.4980469,9.71289062 C12.0527321,9.44335803 11.7089856,9.05664314 11.4667969,8.55273438 C11.2246082,8.04882561 11.1035156,7.45898775 11.1035156,6.78320312 C11.1035156,5.73632289 11.3652318,4.92090136 11.8886719,4.33691406 C12.412112,3.75292677 13.1386672,3.4609375 14.0683594,3.4609375 C14.9668014,3.4609375 15.6806614,3.75976264 16.2099609,4.35742188 C16.7392605,4.95508111 17.0039062,5.76366678 17.0039062,6.78320312 L17.0039062,6.78320312 Z M12.1113281,6.78320312 C12.1113281,7.60351973 12.275389,8.22851348 12.6035156,8.65820312 C12.9316423,9.08789277 13.4140593,9.30273438 14.0507812,9.30273438 C14.6875032,9.30273438 15.1708968,9.08886933 15.5009766,8.66113281 C15.8310563,8.2333963 15.9960938,7.607426 15.9960938,6.78320312 C15.9960938,5.96679279 15.8310563,5.34668181 15.5009766,4.92285156 C15.1708968,4.49902132 14.683597,4.28710938 14.0390625,4.28710938 C13.4023406,4.28710938 12.9218766,4.49609166 12.5976562,4.9140625 C12.2734359,5.33203334 12.1113281,5.95507398 12.1113281,6.78320312 L12.1113281,6.78320312 Z M21.2753906,10.1171875 C20.3456985,10.1171875 19.6259791,9.83105755 19.1162109,9.25878906 C18.6064428,8.68652058 18.3515625,7.87695836 18.3515625,6.83007812 C18.3515625,5.755854 18.610349,4.92578418 19.1279297,4.33984375 C19.6455104,3.75390332 20.3828077,3.4609375 21.3398438,3.4609375 C21.648439,3.4609375 21.9570297,3.49414029 22.265625,3.56054688 C22.5742203,3.62695346 22.8164054,3.70507768 22.9921875,3.79492188 L22.6933594,4.62109375 C22.4785146,4.53515582 22.2441419,4.46386747 21.9902344,4.40722656 C21.7363269,4.35058565 21.5117197,4.32226562 21.3164062,4.32226562 C20.0117122,4.32226562 19.359375,5.15428855 19.359375,6.81835938 C19.359375,7.60742582 19.5185531,8.21288852 19.8369141,8.63476562 C20.155275,9.05664273 20.62695,9.26757812 21.2519531,9.26757812 C21.7871121,9.26757812 22.3359347,9.1523449 22.8984375,8.921875 L22.8984375,9.78320312 C22.4687479,10.0058605 21.9277376,10.1171875 21.2753906,10.1171875 L21.2753906,10.1171875 Z M25.3828125,6.71289062 C25.5507821,6.47460818 25.8066389,6.16211131 26.1503906,5.77539062 L28.2246094,3.578125 L29.3789062,3.578125 L26.7773438,6.31445312 L29.5605469,10 L28.3828125,10 L26.1152344,6.96484375 L25.3828125,7.59765625 L25.3828125,10 L24.421875,10 L24.421875,0.8828125 L25.3828125,0.8828125 L25.3828125,5.71679688 C25.3828125,5.9316417 25.3671877,6.26366963 25.3359375,6.71289062 L25.3828125,6.71289062 Z M35.9121094,9.31445312 C36.0839852,9.31445312 36.2499992,9.30175794 36.4101562,9.27636719 C36.5703133,9.25097644 36.6972652,9.22460951 36.7910156,9.19726562 L36.7910156,9.94140625 C36.6855463,9.99218775 36.5302745,10.0341795 36.3251953,10.0673828 C36.1201162,10.1005861 35.9355477,10.1171875 35.7714844,10.1171875 C34.5292907,10.1171875 33.9082031,9.46289717 33.9082031,8.15429688 L33.9082031,4.33398438 L32.9882812,4.33398438 L32.9882812,3.86523438 L33.9082031,3.4609375 L34.3183594,2.08984375 L34.8808594,2.08984375 L34.8808594,3.578125 L36.7441406,3.578125 L36.7441406,4.33398438 L34.8808594,4.33398438 L34.8808594,8.11328125 C34.8808594,8.50000193 34.9726553,8.79687396 35.15625,9.00390625 C35.3398447,9.21093854 35.5917953,9.31445312 35.9121094,9.31445312 L35.9121094,9.31445312 Z M42.46875,10 L42.46875,5.84570312 C42.46875,5.32226301 42.3496106,4.93164191 42.1113281,4.67382812 C41.8730457,4.41601434 41.5000025,4.28710938 40.9921875,4.28710938 C40.3164029,4.28710938 39.8232437,4.47070129 39.5126953,4.83789062 C39.2021469,5.20507996 39.046875,5.80663645 39.046875,6.64257813 L39.046875,10 L38.0742188,10 L38.0742188,0.8828125 L39.046875,0.8828125 L39.046875,3.64257812 C39.046875,3.97461104 39.0312502,4.24999891 39,4.46875 L39.0585938,4.46875 C39.250001,4.16015471 39.5224592,3.91699308 39.8759766,3.73925781 C40.229494,3.56152255 40.6328102,3.47265625 41.0859375,3.47265625 C41.8710977,3.47265625 42.459959,3.65917782 42.8525391,4.03222656 C43.2451192,4.4052753 43.4414062,4.99804281 43.4414062,5.81054688 L43.4414062,10 L42.46875,10 Z M48.1523438,10.1171875 C47.2031203,10.1171875 46.4541043,9.82812789 45.9052734,9.25 C45.3564426,8.67187211 45.0820312,7.86914576 45.0820312,6.84179688 C45.0820312,5.80663545 45.3369115,4.98437805 45.8466797,4.375 C46.3564479,3.76562195 47.0410113,3.4609375 47.9003906,3.4609375 C48.7050821,3.4609375 49.3417945,3.72558329 49.8105469,4.25488281 C50.2792992,4.78418233 50.5136719,5.48241754 50.5136719,6.34960938 L50.5136719,6.96484375 L46.0898438,6.96484375 C46.1093751,7.71875377 46.2998029,8.29101367 46.6611328,8.68164062 C47.0224627,9.07226758 47.5312467,9.26757812 48.1875,9.26757812 C48.8789097,9.26757812 49.5624966,9.12304832 50.2382812,8.83398438 L50.2382812,9.70117188 C49.8945295,9.84961012 49.5693375,9.95605437 49.2626953,10.0205078 C48.9560532,10.0849613 48.5859397,10.1171875 48.1523438,10.1171875 L48.1523438,10.1171875 Z M47.8886719,4.27539062 C47.3730443,4.27539062 46.9619156,4.4433577 46.6552734,4.77929688 C46.3486313,5.11523605 46.167969,5.58007516 46.1132812,6.17382812 L49.4707031,6.17382812 C49.4707031,5.56054381 49.3339857,5.09082194 49.0605469,4.76464844 C48.787108,4.43847493 48.3964869,4.27539062 47.8886719,4.27539062 L47.8886719,4.27539062 Z M59.6601562,9.13867188 L59.6074219,9.13867188 C59.1582009,9.79101889 58.4863326,10.1171875 57.5917969,10.1171875 C56.7519489,10.1171875 56.0986351,9.830081 55.6318359,9.25585938 C55.1650367,8.68163775 54.9316406,7.86523967 54.9316406,6.80664062 C54.9316406,5.74804158 55.1660133,4.92578418 55.6347656,4.33984375 C56.103518,3.75390332 56.7558552,3.4609375 57.5917969,3.4609375 C58.462895,3.4609375 59.1308571,3.77734059 59.5957031,4.41015625 L59.671875,4.41015625 L59.6308594,3.94726562 L59.6074219,3.49609375 L59.6074219,0.8828125 L60.5800781,0.8828125 L60.5800781,10 L59.7890625,10 L59.6601562,9.13867188 Z M57.7148438,9.30273438 C58.3789096,9.30273438 58.8603501,9.12207212 59.1591797,8.76074219 C59.4580093,8.39941226 59.6074219,7.81641027 59.6074219,7.01171875 L59.6074219,6.80664062 C59.6074219,5.89647982 59.4560562,5.24707226 59.1533203,4.85839844 C58.8505844,4.46972462 58.3671908,4.27539062 57.703125,4.27539062 C57.1328096,4.27539062 56.6962906,4.4970681 56.3935547,4.94042969 C56.0908188,5.38379128 55.9394531,6.00976158 55.9394531,6.81835938 C55.9394531,7.63867598 56.0898422,8.25781041 56.390625,8.67578125 C56.6914078,9.09375209 57.1328096,9.30273438 57.7148438,9.30273438 L57.7148438,9.30273438 Z M68.1855469,6.78320312 C68.1855469,7.83008336 67.9218776,8.647458 67.3945312,9.23535156 C66.8671849,9.82324513 66.1386765,10.1171875 65.2089844,10.1171875 C64.6347628,10.1171875 64.1250022,9.98242322 63.6796875,9.71289062 C63.2343728,9.44335803 62.8906262,9.05664314 62.6484375,8.55273438 C62.4062488,8.04882561 62.2851562,7.45898775 62.2851562,6.78320312 C62.2851562,5.73632289 62.5468724,4.92090136 63.0703125,4.33691406 C63.5937526,3.75292677 64.3203079,3.4609375 65.25,3.4609375 C66.148442,3.4609375 66.862302,3.75976264 67.3916016,4.35742188 C67.9209011,4.95508111 68.1855469,5.76366678 68.1855469,6.78320312 L68.1855469,6.78320312 Z M63.2929688,6.78320312 C63.2929688,7.60351973 63.4570296,8.22851348 63.7851562,8.65820312 C64.1132829,9.08789277 64.5956999,9.30273438 65.2324219,9.30273438 C65.8691438,9.30273438 66.3525374,9.08886933 66.6826172,8.66113281 C67.012697,8.2333963 67.1777344,7.607426 67.1777344,6.78320312 C67.1777344,5.96679279 67.012697,5.34668181 66.6826172,4.92285156 C66.3525374,4.49902132 65.8652376,4.28710938 65.2207031,4.28710938 C64.5839812,4.28710938 64.1035172,4.49609166 63.7792969,4.9140625 C63.4550765,5.33203334 63.2929688,5.95507398 63.2929688,6.78320312 L63.2929688,6.78320312 Z M75.4335938,6.78320312 C75.4335938,7.83008336 75.1699245,8.647458 74.6425781,9.23535156 C74.1152317,9.82324513 73.3867234,10.1171875 72.4570312,10.1171875 C71.8828096,10.1171875 71.3730491,9.98242322 70.9277344,9.71289062 C70.4824196,9.44335803 70.1386731,9.05664314 69.8964844,8.55273438 C69.6542957,8.04882561 69.5332031,7.45898775 69.5332031,6.78320312 C69.5332031,5.73632289 69.7949193,4.92090136 70.3183594,4.33691406 C70.8417995,3.75292677 71.5683547,3.4609375 72.4980469,3.4609375 C73.3964889,3.4609375 74.1103489,3.75976264 74.6396484,4.35742188 C75.168948,4.95508111 75.4335938,5.76366678 75.4335938,6.78320312 L75.4335938,6.78320312 Z M70.5410156,6.78320312 C70.5410156,7.60351973 70.7050765,8.22851348 71.0332031,8.65820312 C71.3613298,9.08789277 71.8437468,9.30273438 72.4804688,9.30273438 C73.1171907,9.30273438 73.6005843,9.08886933 73.9306641,8.66113281 C74.2607438,8.2333963 74.4257812,7.607426 74.4257812,6.78320312 C74.4257812,5.96679279 74.2607438,5.34668181 73.9306641,4.92285156 C73.6005843,4.49902132 73.1132845,4.28710938 72.46875,4.28710938 C71.8320281,4.28710938 71.3515641,4.49609166 71.0273438,4.9140625 C70.7031234,5.33203334 70.5410156,5.95507398 70.5410156,6.78320312 L70.5410156,6.78320312 Z M80.0683594,3.4609375 C80.3535171,3.4609375 80.6093739,3.48437477 80.8359375,3.53125 L80.7011719,4.43359375 C80.4355455,4.37499971 80.2011729,4.34570312 79.9980469,4.34570312 C79.478513,4.34570312 79.0341815,4.55663852 78.6650391,4.97851562 C78.2958966,5.40039273 78.1113281,5.92577811 78.1113281,6.5546875 L78.1113281,10 L77.1386719,10 L77.1386719,3.578125 L77.9414062,3.578125 L78.0527344,4.76757812 L78.0996094,4.76757812 C78.3378918,4.34960729 78.6249983,4.02734488 78.9609375,3.80078125 C79.2968767,3.57421762 79.6660136,3.4609375 80.0683594,3.4609375 L80.0683594,3.4609375 Z M86.1796875,8.24804688 C86.1796875,8.84570611 85.9570335,9.306639 85.5117188,9.63085938 C85.066404,9.95507975 84.4414103,10.1171875 83.6367188,10.1171875 C82.785152,10.1171875 82.1210961,9.98242322 81.6445312,9.71289062 L81.6445312,8.81054688 C81.9531265,8.96679766 82.2841779,9.0898433 82.6376953,9.1796875 C82.9912127,9.2695317 83.3320296,9.31445312 83.6601562,9.31445312 C84.1679713,9.31445312 84.5585924,9.23339925 84.8320312,9.07128906 C85.1054701,8.90917888 85.2421875,8.66211104 85.2421875,8.33007812 C85.2421875,8.08007688 85.1337901,7.86621183 84.9169922,7.68847656 C84.7001942,7.5107413 84.2773469,7.30078246 83.6484375,7.05859375 C83.0507783,6.83593639 82.6259778,6.64160239 82.3740234,6.47558594 C82.1220691,6.30956948 81.9345709,6.1210948 81.8115234,5.91015625 C81.6884759,5.6992177 81.6269531,5.44726709 81.6269531,5.15429688 C81.6269531,4.63085676 81.8398416,4.21777495 82.265625,3.91503906 C82.6914084,3.61230317 83.2753869,3.4609375 84.0175781,3.4609375 C84.7089878,3.4609375 85.3847623,3.60156109 86.0449219,3.8828125 L85.6992188,4.67382812 C85.0546843,4.4082018 84.4707057,4.27539062 83.9472656,4.27539062 C83.4863258,4.27539062 83.138673,4.34765553 82.9042969,4.4921875 C82.6699207,4.63671947 82.5527344,4.83593623 82.5527344,5.08984375 C82.5527344,5.26171961 82.5966792,5.40820252 82.6845703,5.52929688 C82.7724614,5.65039123 82.9140615,5.76562445 83.109375,5.875 C83.3046885,5.98437555 83.6796847,6.14257709 84.234375,6.34960938 C84.9960976,6.62695451 85.5107408,6.90624859 85.7783203,7.1875 C86.0458998,7.46875141 86.1796875,7.8222635 86.1796875,8.24804688 L86.1796875,8.24804688 Z M87.6210938,9.37890625 C87.6210938,9.11718619 87.6806635,8.91894599 87.7998047,8.78417969 C87.9189459,8.64941339 88.0898426,8.58203125 88.3125,8.58203125 C88.5390636,8.58203125 88.7158197,8.64941339 88.8427734,8.78417969 C88.9697272,8.91894599 89.0332031,9.11718619 89.0332031,9.37890625 C89.0332031,9.63281377 88.9687506,9.82812432 88.8398438,9.96484375 C88.7109369,10.1015632 88.5351574,10.1699219 88.3125,10.1699219 C88.1132803,10.1699219 87.9482428,10.1083991 87.8173828,9.98535156 C87.6865228,9.86230407 87.6210938,9.66015766 87.6210938,9.37890625 L87.6210938,9.37890625 Z M91.734375,1.43359375 L91.8222656,1.5625 C91.7207026,1.95312695 91.5742197,2.40722397 91.3828125,2.92480469 C91.1914053,3.4423854 90.9921885,3.9238259 90.7851562,4.36914062 L90.0703125,4.36914062 C90.3437514,3.25585381 90.5429681,2.27734797 90.6679688,1.43359375 L91.734375,1.43359375 Z M93.8964844,1.43359375 L93.9785156,1.5625 C93.8847652,1.91797053 93.7441416,2.35546615 93.5566406,2.875 C93.3691397,3.39453385 93.1660167,3.89257574 92.9472656,4.36914062 L92.2148438,4.36914062 C92.3164068,3.97851367 92.43164,3.48242488 92.5605469,2.88085938 C92.6894538,2.27929387 92.7792966,1.79687682 92.8300781,1.43359375 L93.8964844,1.43359375 Z" id="“Lock-the-doors.”" fill="#000000" sketch:type="MSShapeGroup"></path>
    </g>
</svg>