<?xml version="1.0" encoding="UTF-8" standalone="no"?>
<svg width="116px" height="13px" viewBox="0 0 116 13" version="1.1" xmlns="http://www.w3.org/2000/svg" xmlns:xlink="http://www.w3.org/1999/xlink" xmlns:sketch="http://www.bohemiancoding.com/sketch/ns">
    <!-- Generator: Sketch 3.1.1 (8761) - http://www.bohemiancoding.com/sketch -->
    <title>“Even if we beg you.</title>
    <desc>Created with Sketch.</desc>
    <defs></defs>
    <g id="Page-1" stroke="none" stroke-width="1" fill="none" fill-rule="evenodd" sketch:type="MSPage">
        <path d="M2.37890625,4.36914062 L2.29101562,4.24023438 C2.50976672,3.40038643 2.85741949,2.46484891 3.33398438,1.43359375 L4.0546875,1.43359375 C3.93749941,1.88281475 3.82128964,2.38964562 3.70605469,2.95410156 C3.59081974,3.51855751 3.50781275,3.99023248 3.45703125,4.36914062 L2.37890625,4.36914062 Z M0.216796875,4.36914062 L0.146484375,4.24023438 C0.232422305,3.88867012 0.371092793,3.45117449 0.5625,2.92773438 C0.753907207,2.40429426 0.958983281,1.90625236 1.17773438,1.43359375 L1.8984375,1.43359375 C1.64062371,2.42578621 1.43945385,3.40429205 1.29492188,4.36914062 L0.216796875,4.36914062 Z M10.1542969,10 L5.37890625,10 L5.37890625,1.43359375 L10.1542969,1.43359375 L10.1542969,2.31835938 L6.375,2.31835938 L6.375,5.078125 L9.92578125,5.078125 L9.92578125,5.95703125 L6.375,5.95703125 L6.375,9.109375 L10.1542969,9.109375 L10.1542969,10 Z M13.3125,10 L10.875,3.578125 L11.9179688,3.578125 L13.3007812,7.38671875 C13.6132828,8.2773482 13.7968747,8.85546742 13.8515625,9.12109375 L13.8984375,9.12109375 C13.9414065,8.91406146 14.0771473,8.48535481 14.3056641,7.83496094 C14.5341808,7.18456706 15.046871,5.76563594 15.84375,3.578125 L16.8867188,3.578125 L14.4492188,10 L13.3125,10 Z M20.6308594,10.1171875 C19.6816359,10.1171875 18.9326199,9.82812789 18.3837891,9.25 C17.8349582,8.67187211 17.5605469,7.86914576 17.5605469,6.84179688 C17.5605469,5.80663545 17.8154271,4.98437805 18.3251953,4.375 C18.8349635,3.76562195 19.519527,3.4609375 20.3789062,3.4609375 C21.1835978,3.4609375 21.8203102,3.72558329 22.2890625,4.25488281 C22.7578148,4.78418233 22.9921875,5.48241754 22.9921875,6.34960938 L22.9921875,6.96484375 L18.5683594,6.96484375 C18.5878907,7.71875377 18.7783185,8.29101367 19.1396484,8.68164062 C19.5009784,9.07226758 20.0097623,9.26757812 20.6660156,9.26757812 C21.3574253,9.26757812 22.0410122,9.12304832 22.7167969,8.83398438 L22.7167969,9.70117188 C22.3730452,9.84961012 22.0478531,9.95605437 21.7412109,10.0205078 C21.4345688,10.0849613 21.0644553,10.1171875 20.6308594,10.1171875 L20.6308594,10.1171875 Z M20.3671875,4.27539062 C19.8515599,4.27539062 19.4404312,4.4433577 19.1337891,4.77929688 C18.8271469,5.11523605 18.6464846,5.58007516 18.5917969,6.17382812 L21.9492188,6.17382812 C21.9492188,5.56054381 21.8125014,5.09082194 21.5390625,4.76464844 C21.2656236,4.43847493 20.8750025,4.27539062 20.3671875,4.27539062 L20.3671875,4.27539062 Z M29.0449219,10 L29.0449219,5.84570312 C29.0449219,5.32226301 28.9257824,4.93164191 28.6875,4.67382812 C28.4492176,4.41601434 28.0761744,4.28710938 27.5683594,4.28710938 C26.896481,4.28710938 26.4042984,4.46874818 26.0917969,4.83203125 C25.7792953,5.19531432 25.6230469,5.7949177 25.6230469,6.63085938 L25.6230469,10 L24.6503906,10 L24.6503906,3.578125 L25.4414062,3.578125 L25.5996094,4.45703125 L25.6464844,4.45703125 C25.8457041,4.14062342 26.1249982,3.89550868 26.484375,3.72167969 C26.8437518,3.54785069 27.2441384,3.4609375 27.6855469,3.4609375 C28.4589882,3.4609375 29.0410137,3.64745907 29.4316406,4.02050781 C29.8222676,4.39355655 30.0175781,4.99023027 30.0175781,5.81054688 L30.0175781,10 L29.0449219,10 Z M36.1054688,10 L35.1328125,10 L35.1328125,3.578125 L36.1054688,3.578125 L36.1054688,10 Z M35.0507812,1.83789062 C35.0507812,1.61523326 35.1054682,1.45214896 35.2148438,1.34863281 C35.3242193,1.24511667 35.4609367,1.19335938 35.625,1.19335938 C35.7812508,1.19335938 35.9160151,1.24609322 36.0292969,1.3515625 C36.1425787,1.45703178 36.1992188,1.61913953 36.1992188,1.83789062 C36.1992188,2.05664172 36.1425787,2.21972603 36.0292969,2.32714844 C35.9160151,2.43457085 35.7812508,2.48828125 35.625,2.48828125 C35.4609367,2.48828125 35.3242193,2.43457085 35.2148438,2.32714844 C35.1054682,2.21972603 35.0507812,2.05664172 35.0507812,1.83789062 L35.0507812,1.83789062 Z M41.0625,4.33398438 L39.4277344,4.33398438 L39.4277344,10 L38.4550781,10 L38.4550781,4.33398438 L37.3066406,4.33398438 L37.3066406,3.89453125 L38.4550781,3.54296875 L38.4550781,3.18554688 C38.4550781,1.60741398 39.1445244,0.818359375 40.5234375,0.818359375 C40.8632829,0.818359375 41.2617165,0.886718066 41.71875,1.0234375 L41.4667969,1.80273438 C41.091795,1.68164002 40.7714857,1.62109375 40.5058594,1.62109375 C40.13867,1.62109375 39.8671884,1.74316284 39.6914062,1.98730469 C39.5156241,2.23144653 39.4277344,2.62304418 39.4277344,3.16210938 L39.4277344,3.578125 L41.0625,3.578125 L41.0625,4.33398438 Z M50.5957031,10 L49.4179688,6.23242188 C49.3437496,6.00195197 49.2050791,5.47851971 49.0019531,4.66210938 L48.9550781,4.66210938 C48.7988273,5.34570654 48.66211,5.87304502 48.5449219,6.24414062 L47.3320312,10 L46.2070312,10 L44.4550781,3.578125 L45.4746094,3.578125 C45.8886739,5.19141432 46.2041005,6.41991766 46.4208984,7.26367188 C46.6376964,8.10742609 46.7617186,8.67577979 46.7929688,8.96875 L46.8398438,8.96875 C46.8828127,8.74609264 46.952148,8.45800958 47.0478516,8.10449219 C47.1435552,7.75097479 47.2265621,7.47070416 47.296875,7.26367188 L48.4746094,3.578125 L49.5292969,3.578125 L50.6777344,7.26367188 C50.8964855,7.93555023 51.0449215,8.49999771 51.1230469,8.95703125 L51.1699219,8.95703125 C51.185547,8.81640555 51.2275387,8.59961084 51.2958984,8.30664062 C51.3642582,8.01367041 51.7714806,6.4375143 52.5175781,3.578125 L53.5253906,3.578125 L51.75,10 L50.5957031,10 Z M57.3984375,10.1171875 C56.449214,10.1171875 55.7001981,9.82812789 55.1513672,9.25 C54.6025363,8.67187211 54.328125,7.86914576 54.328125,6.84179688 C54.328125,5.80663545 54.5830053,4.98437805 55.0927734,4.375 C55.6025416,3.76562195 56.2871051,3.4609375 57.1464844,3.4609375 C57.9511759,3.4609375 58.5878883,3.72558329 59.0566406,4.25488281 C59.525393,4.78418233 59.7597656,5.48241754 59.7597656,6.34960938 L59.7597656,6.96484375 L55.3359375,6.96484375 C55.3554688,7.71875377 55.5458966,8.29101367 55.9072266,8.68164062 C56.2685565,9.07226758 56.7773405,9.26757812 57.4335938,9.26757812 C58.1250035,9.26757812 58.8085904,9.12304832 59.484375,8.83398438 L59.484375,9.70117188 C59.1406233,9.84961012 58.8154312,9.95605437 58.5087891,10.0205078 C58.2021469,10.0849613 57.8320334,10.1171875 57.3984375,10.1171875 L57.3984375,10.1171875 Z M57.1347656,4.27539062 C56.619138,4.27539062 56.2080093,4.4433577 55.9013672,4.77929688 C55.594725,5.11523605 55.4140628,5.58007516 55.359375,6.17382812 L58.7167969,6.17382812 C58.7167969,5.56054381 58.5800795,5.09082194 58.3066406,4.76464844 C58.0332018,4.43847493 57.6425807,4.27539062 57.1347656,4.27539062 L57.1347656,4.27539062 Z M67.5234375,3.47265625 C68.3671917,3.47265625 69.0224586,3.76073931 69.4892578,4.33691406 C69.956057,4.91308882 70.1894531,5.72851035 70.1894531,6.78320312 C70.1894531,7.8378959 69.9541039,8.65722364 69.4833984,9.24121094 C69.012693,9.82519823 68.3593792,10.1171875 67.5234375,10.1171875 C67.1054667,10.1171875 66.7236345,10.0400398 66.3779297,9.88574219 C66.0322248,9.73144454 65.7421887,9.49414223 65.5078125,9.17382812 L65.4375,9.17382812 L65.2324219,10 L64.5351562,10 L64.5351562,0.8828125 L65.5078125,0.8828125 L65.5078125,3.09765625 C65.5078125,3.59375248 65.4921877,4.03906053 65.4609375,4.43359375 L65.5078125,4.43359375 C65.9609398,3.79296555 66.632808,3.47265625 67.5234375,3.47265625 L67.5234375,3.47265625 Z M67.3828125,4.28710938 C66.7187467,4.28710938 66.2402358,4.47753716 65.9472656,4.85839844 C65.6542954,5.23925972 65.5078125,5.88085486 65.5078125,6.78320312 C65.5078125,7.68555139 65.6582016,8.33105274 65.9589844,8.71972656 C66.2597671,9.10840038 66.7421842,9.30273438 67.40625,9.30273438 C68.0039092,9.30273438 68.4492173,9.08496312 68.7421875,8.64941406 C69.0351577,8.21386501 69.1816406,7.58789471 69.1816406,6.77148438 C69.1816406,5.9355427 69.0351577,5.31250205 68.7421875,4.90234375 C68.4492173,4.49218545 67.9960968,4.28710938 67.3828125,4.28710938 L67.3828125,4.28710938 Z M74.6015625,10.1171875 C73.652339,10.1171875 72.9033231,9.82812789 72.3544922,9.25 C71.8056613,8.67187211 71.53125,7.86914576 71.53125,6.84179688 C71.53125,5.80663545 71.7861303,4.98437805 72.2958984,4.375 C72.8056666,3.76562195 73.4902301,3.4609375 74.3496094,3.4609375 C75.1543009,3.4609375 75.7910133,3.72558329 76.2597656,4.25488281 C76.728518,4.78418233 76.9628906,5.48241754 76.9628906,6.34960938 L76.9628906,6.96484375 L72.5390625,6.96484375 C72.5585938,7.71875377 72.7490216,8.29101367 73.1103516,8.68164062 C73.4716815,9.07226758 73.9804655,9.26757812 74.6367188,9.26757812 C75.3281285,9.26757812 76.0117154,9.12304832 76.6875,8.83398438 L76.6875,9.70117188 C76.3437483,9.84961012 76.0185562,9.95605437 75.7119141,10.0205078 C75.4052719,10.0849613 75.0351584,10.1171875 74.6015625,10.1171875 L74.6015625,10.1171875 Z M74.3378906,4.27539062 C73.822263,4.27539062 73.4111343,4.4433577 73.1044922,4.77929688 C72.79785,5.11523605 72.6171878,5.58007516 72.5625,6.17382812 L75.9199219,6.17382812 C75.9199219,5.56054381 75.7832045,5.09082194 75.5097656,4.76464844 C75.2363268,4.43847493 74.8457057,4.27539062 74.3378906,4.27539062 L74.3378906,4.27539062 Z M83.8769531,3.578125 L83.8769531,4.19335938 L82.6875,4.33398438 C82.7968755,4.47070381 82.8945308,4.64941296 82.9804688,4.87011719 C83.0664067,5.09082142 83.109375,5.33984236 83.109375,5.6171875 C83.109375,6.24609689 82.8945334,6.748045 82.4648438,7.12304688 C82.0351541,7.49804875 81.4453162,7.68554688 80.6953125,7.68554688 C80.5039053,7.68554688 80.3242196,7.66992203 80.15625,7.63867188 C79.7421854,7.85742297 79.5351562,8.13281084 79.5351562,8.46484375 C79.5351562,8.64062588 79.6074212,8.77050739 79.7519531,8.85449219 C79.8964851,8.93847698 80.1445295,8.98046875 80.4960938,8.98046875 L81.6328125,8.98046875 C82.3281285,8.98046875 82.8623028,9.12695166 83.2353516,9.41992188 C83.6084003,9.71289209 83.7949219,10.1386691 83.7949219,10.6972656 C83.7949219,11.4082067 83.5097685,11.9501934 82.9394531,12.3232422 C82.3691378,12.6962909 81.5371148,12.8828125 80.4433594,12.8828125 C79.6035114,12.8828125 78.956057,12.7265641 78.5009766,12.4140625 C78.0458962,12.1015609 77.8183594,11.6601591 77.8183594,11.0898438 C77.8183594,10.6992168 77.9433581,10.3613296 78.1933594,10.0761719 C78.4433606,9.7910142 78.7949196,9.59765676 79.2480469,9.49609375 C79.0839836,9.42187463 78.9462896,9.30664141 78.8349609,9.15039062 C78.7236323,8.99413984 78.6679688,8.81250104 78.6679688,8.60546875 C78.6679688,8.37109258 78.7304681,8.1660165 78.8554688,7.99023438 C78.9804694,7.81445225 79.177733,7.64453207 79.4472656,7.48046875 C79.1152327,7.34374932 78.8447276,7.11132977 78.6357422,6.78320312 C78.4267568,6.45507648 78.3222656,6.08008023 78.3222656,5.65820312 C78.3222656,4.95507461 78.533201,4.41308784 78.9550781,4.03222656 C79.3769552,3.65136528 79.9746055,3.4609375 80.7480469,3.4609375 C81.0839861,3.4609375 81.3867174,3.49999961 81.65625,3.578125 L83.8769531,3.578125 Z M78.7558594,11.078125 C78.7558594,11.425783 78.9023423,11.6894522 79.1953125,11.8691406 C79.4882827,12.048829 79.9082004,12.1386719 80.4550781,12.1386719 C81.2714885,12.1386719 81.8759746,12.0166028 82.2685547,11.7724609 C82.6611348,11.5283191 82.8574219,11.1972677 82.8574219,10.7792969 C82.8574219,10.4316389 82.7500011,10.1904304 82.5351562,10.0556641 C82.3203114,9.92089776 81.9160186,9.85351562 81.3222656,9.85351562 L80.15625,9.85351562 C79.7148415,9.85351562 79.371095,9.95898332 79.125,10.1699219 C78.878905,10.3808604 78.7558594,10.6835918 78.7558594,11.078125 L78.7558594,11.078125 Z M79.2832031,5.63476562 C79.2832031,6.08398662 79.410155,6.42382697 79.6640625,6.65429688 C79.91797,6.88476678 80.2714821,7 80.7246094,7 C81.6738329,7 82.1484375,6.53906711 82.1484375,5.6171875 C82.1484375,4.65233893 81.6679736,4.16992188 80.7070312,4.16992188 C80.2499977,4.16992188 79.8984387,4.29296752 79.6523438,4.5390625 C79.4062488,4.78515748 79.2832031,5.1503882 79.2832031,5.63476562 L79.2832031,5.63476562 Z M87.2929688,3.578125 L88.3359375,3.578125 L89.7421875,7.24023438 C90.0507828,8.07617605 90.2421871,8.67968564 90.3164062,9.05078125 L90.3632812,9.05078125 C90.4140628,8.8515615 90.520507,8.5107446 90.6826172,8.02832031 C90.8447274,7.54589603 91.3749955,6.06251242 92.2734375,3.578125 L93.3164062,3.578125 L90.5566406,10.890625 C90.2832018,11.6132849 89.963869,12.125975 89.5986328,12.4287109 C89.2333966,12.7314468 88.7851589,12.8828125 88.2539062,12.8828125 C87.9570298,12.8828125 87.6640639,12.8496097 87.375,12.7832031 L87.375,12.0039062 C87.5898448,12.0507815 87.8300768,12.0742188 88.0957031,12.0742188 C88.7636752,12.0742188 89.2402329,11.6992225 89.5253906,10.9492188 L89.8828125,10.0351562 L87.2929688,3.578125 Z M99.9023438,6.78320312 C99.9023438,7.83008336 99.6386745,8.647458 99.1113281,9.23535156 C98.5839817,9.82324513 97.8554734,10.1171875 96.9257812,10.1171875 C96.3515596,10.1171875 95.8417991,9.98242322 95.3964844,9.71289062 C94.9511696,9.44335803 94.6074231,9.05664314 94.3652344,8.55273438 C94.1230457,8.04882561 94.0019531,7.45898775 94.0019531,6.78320312 C94.0019531,5.73632289 94.2636693,4.92090136 94.7871094,4.33691406 C95.3105495,3.75292677 96.0371047,3.4609375 96.9667969,3.4609375 C97.8652389,3.4609375 98.5790989,3.75976264 99.1083984,4.35742188 C99.637698,4.95508111 99.9023438,5.76366678 99.9023438,6.78320312 L99.9023438,6.78320312 Z M95.0097656,6.78320312 C95.0097656,7.60351973 95.1738265,8.22851348 95.5019531,8.65820312 C95.8300798,9.08789277 96.3124968,9.30273438 96.9492188,9.30273438 C97.5859407,9.30273438 98.0693343,9.08886933 98.3994141,8.66113281 C98.7294938,8.2333963 98.8945312,7.607426 98.8945312,6.78320312 C98.8945312,5.96679279 98.7294938,5.34668181 98.3994141,4.92285156 C98.0693343,4.49902132 97.5820345,4.28710938 96.9375,4.28710938 C96.3007781,4.28710938 95.8203141,4.49609166 95.4960938,4.9140625 C95.1718734,5.33203334 95.0097656,5.95507398 95.0097656,6.78320312 L95.0097656,6.78320312 Z M102.521484,3.578125 L102.521484,7.74414062 C102.521484,8.26758074 102.640624,8.65820184 102.878906,8.91601562 C103.117189,9.17382941 103.490232,9.30273438 103.998047,9.30273438 C104.669925,9.30273438 105.161131,9.11914246 105.47168,8.75195312 C105.782228,8.38476379 105.9375,7.78516041 105.9375,6.953125 L105.9375,3.578125 L106.910156,3.578125 L106.910156,10 L106.107422,10 L105.966797,9.13867188 L105.914062,9.13867188 C105.714843,9.45507971 105.438478,9.69726479 105.084961,9.86523438 C104.731444,10.033204 104.328127,10.1171875 103.875,10.1171875 C103.093746,10.1171875 102.508791,9.93164248 102.120117,9.56054688 C101.731443,9.18945127 101.537109,8.59570721 101.537109,7.77929688 L101.537109,3.578125 L102.521484,3.578125 Z M108.832031,9.37890625 C108.832031,9.11718619 108.891601,8.91894599 109.010742,8.78417969 C109.129883,8.64941339 109.30078,8.58203125 109.523438,8.58203125 C109.750001,8.58203125 109.926757,8.64941339 110.053711,8.78417969 C110.180665,8.91894599 110.244141,9.11718619 110.244141,9.37890625 C110.244141,9.63281377 110.179688,9.82812432 110.050781,9.96484375 C109.921874,10.1015632 109.746095,10.1699219 109.523438,10.1699219 C109.324218,10.1699219 109.15918,10.1083991 109.02832,9.98535156 C108.89746,9.86230407 108.832031,9.66015766 108.832031,9.37890625 L108.832031,9.37890625 Z M112.945312,1.43359375 L113.033203,1.5625 C112.93164,1.95312695 112.785157,2.40722397 112.59375,2.92480469 C112.402343,3.4423854 112.203126,3.9238259 111.996094,4.36914062 L111.28125,4.36914062 C111.554689,3.25585381 111.753906,2.27734797 111.878906,1.43359375 L112.945312,1.43359375 Z M115.107422,1.43359375 L115.189453,1.5625 C115.095703,1.91797053 114.955079,2.35546615 114.767578,2.875 C114.580077,3.39453385 114.376954,3.89257574 114.158203,4.36914062 L113.425781,4.36914062 C113.527344,3.97851367 113.642577,3.48242488 113.771484,2.88085938 C113.900391,2.27929387 113.990234,1.79687682 114.041016,1.43359375 L115.107422,1.43359375 Z" id="“Even-if-we-beg-you." fill="#000000" sketch:type="MSShapeGroup"></path>
    </g>
</svg>