<?xml version="1.0" encoding="UTF-8" standalone="no"?>
<svg width="100px" height="11px" viewBox="0 0 100 11" version="1.1" xmlns="http://www.w3.org/2000/svg" xmlns:xlink="http://www.w3.org/1999/xlink" xmlns:sketch="http://www.bohemiancoding.com/sketch/ns">
    <!-- Generator: Sketch 3.1.1 (8761) - http://www.bohemiancoding.com/sketch -->
    <title>“Watch the clock.”</title>
    <desc>Created with Sketch.</desc>
    <defs></defs>
    <g id="Page-1" stroke="none" stroke-width="1" fill="none" fill-rule="evenodd" sketch:type="MSPage">
        <path d="M2.37890625,4.36914062 L2.29101562,4.24023438 C2.50976672,3.40038643 2.85741949,2.46484891 3.33398438,1.43359375 L4.0546875,1.43359375 C3.93749941,1.88281475 3.82128964,2.38964562 3.70605469,2.95410156 C3.59081974,3.51855751 3.50781275,3.99023248 3.45703125,4.36914062 L2.37890625,4.36914062 Z M0.216796875,4.36914062 L0.146484375,4.24023438 C0.232422305,3.88867012 0.371092793,3.45117449 0.5625,2.92773438 C0.753907207,2.40429426 0.958983281,1.90625236 1.17773438,1.43359375 L1.8984375,1.43359375 C1.64062371,2.42578621 1.43945385,3.40429205 1.29492188,4.36914062 L0.216796875,4.36914062 Z M13.0957031,10 L12.1113281,10 L10.3828125,4.26367188 C10.3007808,4.00976436 10.2089849,3.68945506 10.1074219,3.30273438 C10.0058589,2.91601369 9.95312502,2.68359414 9.94921875,2.60546875 C9.86328082,3.12109633 9.72656344,3.68554381 9.5390625,4.29882812 L7.86328125,10 L6.87890625,10 L4.59960938,1.43359375 L5.65429688,1.43359375 L7.0078125,6.72460938 C7.19531344,7.46680059 7.33203082,8.13866887 7.41796875,8.74023438 C7.52343803,8.02538705 7.67968646,7.32617529 7.88671875,6.64257812 L9.421875,1.43359375 L10.4765625,1.43359375 L12.0878906,6.68945312 C12.2753916,7.2949249 12.4335931,7.97851182 12.5625,8.74023438 C12.6367191,8.1855441 12.7773427,7.50976961 12.984375,6.71289062 L14.3320312,1.43359375 L15.3867188,1.43359375 L13.0957031,10 Z M20.2910156,10 L20.0976562,9.0859375 L20.0507812,9.0859375 C19.7304671,9.48828326 19.4111344,9.76074147 19.0927734,9.90332031 C18.7744125,10.0458992 18.3769555,10.1171875 17.9003906,10.1171875 C17.2636687,10.1171875 16.7646502,9.95312664 16.4033203,9.625 C16.0419904,9.29687336 15.8613281,8.83008115 15.8613281,8.22460938 C15.8613281,6.92772789 16.8984271,6.24804719 18.9726562,6.18554688 L20.0625,6.15039062 L20.0625,5.75195312 C20.0625,5.24804436 19.9541026,4.87597776 19.7373047,4.63574219 C19.5205067,4.39550661 19.1738305,4.27539062 18.6972656,4.27539062 C18.1621067,4.27539062 17.556644,4.43945148 16.8808594,4.76757812 L16.5820312,4.0234375 C16.8984391,3.85156164 17.2451153,3.71679736 17.6220703,3.61914063 C17.9990253,3.52148389 18.3769512,3.47265625 18.7558594,3.47265625 C19.5214882,3.47265625 20.0888653,3.64257643 20.4580078,3.98242188 C20.8271503,4.32226732 21.0117188,4.86718375 21.0117188,5.6171875 L21.0117188,10 L20.2910156,10 Z M18.09375,9.31445312 C18.6992218,9.31445312 19.174803,9.14843916 19.5205078,8.81640625 C19.8662127,8.48437334 20.0390625,8.01953424 20.0390625,7.421875 L20.0390625,6.84179688 L19.0664062,6.8828125 C18.2929649,6.91015639 17.7353533,7.03027237 17.3935547,7.24316406 C17.0517561,7.45605575 16.8808594,7.78710713 16.8808594,8.23632812 C16.8808594,8.58789238 16.9873036,8.85546783 17.2001953,9.0390625 C17.413087,9.22265717 17.7109356,9.31445312 18.09375,9.31445312 L18.09375,9.31445312 Z M25.0898438,9.31445312 C25.2617196,9.31445312 25.4277336,9.30175794 25.5878906,9.27636719 C25.7480477,9.25097644 25.8749995,9.22460951 25.96875,9.19726562 L25.96875,9.94140625 C25.8632807,9.99218775 25.7080088,10.0341795 25.5029297,10.0673828 C25.2978505,10.1005861 25.1132821,10.1171875 24.9492188,10.1171875 C23.707025,10.1171875 23.0859375,9.46289717 23.0859375,8.15429688 L23.0859375,4.33398438 L22.1660156,4.33398438 L22.1660156,3.86523438 L23.0859375,3.4609375 L23.4960938,2.08984375 L24.0585938,2.08984375 L24.0585938,3.578125 L25.921875,3.578125 L25.921875,4.33398438 L24.0585938,4.33398438 L24.0585938,8.11328125 C24.0585938,8.50000193 24.1503897,8.79687396 24.3339844,9.00390625 C24.517579,9.21093854 24.7695296,9.31445312 25.0898438,9.31445312 L25.0898438,9.31445312 Z M29.8183594,10.1171875 C28.8886672,10.1171875 28.1689479,9.83105755 27.6591797,9.25878906 C27.1494115,8.68652058 26.8945312,7.87695836 26.8945312,6.83007812 C26.8945312,5.755854 27.1533177,4.92578418 27.6708984,4.33984375 C28.1884792,3.75390332 28.9257765,3.4609375 29.8828125,3.4609375 C30.1914078,3.4609375 30.4999985,3.49414029 30.8085938,3.56054688 C31.117189,3.62695346 31.3593741,3.70507768 31.5351562,3.79492188 L31.2363281,4.62109375 C31.0214833,4.53515582 30.7871106,4.46386747 30.5332031,4.40722656 C30.2792956,4.35058565 30.0546885,4.32226562 29.859375,4.32226562 C28.554681,4.32226562 27.9023438,5.15428855 27.9023438,6.81835938 C27.9023438,7.60742582 28.0615218,8.21288852 28.3798828,8.63476562 C28.6982438,9.05664273 29.1699187,9.26757812 29.7949219,9.26757812 C30.3300808,9.26757812 30.8789034,9.1523449 31.4414062,8.921875 L31.4414062,9.78320312 C31.0117166,10.0058605 30.4707064,10.1171875 29.8183594,10.1171875 L29.8183594,10.1171875 Z M37.359375,10 L37.359375,5.84570312 C37.359375,5.32226301 37.2402356,4.93164191 37.0019531,4.67382812 C36.7636707,4.41601434 36.3906275,4.28710938 35.8828125,4.28710938 C35.2070279,4.28710938 34.7138687,4.47070129 34.4033203,4.83789062 C34.0927719,5.20507996 33.9375,5.80663645 33.9375,6.64257813 L33.9375,10 L32.9648438,10 L32.9648438,0.8828125 L33.9375,0.8828125 L33.9375,3.64257812 C33.9375,3.97461104 33.9218752,4.24999891 33.890625,4.46875 L33.9492188,4.46875 C34.140626,4.16015471 34.4130842,3.91699308 34.7666016,3.73925781 C35.120119,3.56152255 35.5234352,3.47265625 35.9765625,3.47265625 C36.7617227,3.47265625 37.350584,3.65917782 37.7431641,4.03222656 C38.1357442,4.4052753 38.3320312,4.99804281 38.3320312,5.81054688 L38.3320312,10 L37.359375,10 Z M45.5214844,9.31445312 C45.6933602,9.31445312 45.8593742,9.30175794 46.0195312,9.27636719 C46.1796883,9.25097644 46.3066402,9.22460951 46.4003906,9.19726562 L46.4003906,9.94140625 C46.2949213,9.99218775 46.1396495,10.0341795 45.9345703,10.0673828 C45.7294912,10.1005861 45.5449227,10.1171875 45.3808594,10.1171875 C44.1386657,10.1171875 43.5175781,9.46289717 43.5175781,8.15429688 L43.5175781,4.33398438 L42.5976562,4.33398438 L42.5976562,3.86523438 L43.5175781,3.4609375 L43.9277344,2.08984375 L44.4902344,2.08984375 L44.4902344,3.578125 L46.3535156,3.578125 L46.3535156,4.33398438 L44.4902344,4.33398438 L44.4902344,8.11328125 C44.4902344,8.50000193 44.5820303,8.79687396 44.765625,9.00390625 C44.9492197,9.21093854 45.2011703,9.31445312 45.5214844,9.31445312 L45.5214844,9.31445312 Z M52.078125,10 L52.078125,5.84570312 C52.078125,5.32226301 51.9589856,4.93164191 51.7207031,4.67382812 C51.4824207,4.41601434 51.1093775,4.28710938 50.6015625,4.28710938 C49.9257779,4.28710938 49.4326187,4.47070129 49.1220703,4.83789062 C48.8115219,5.20507996 48.65625,5.80663645 48.65625,6.64257813 L48.65625,10 L47.6835938,10 L47.6835938,0.8828125 L48.65625,0.8828125 L48.65625,3.64257812 C48.65625,3.97461104 48.6406252,4.24999891 48.609375,4.46875 L48.6679688,4.46875 C48.859376,4.16015471 49.1318342,3.91699308 49.4853516,3.73925781 C49.838869,3.56152255 50.2421852,3.47265625 50.6953125,3.47265625 C51.4804727,3.47265625 52.069334,3.65917782 52.4619141,4.03222656 C52.8544942,4.4052753 53.0507812,4.99804281 53.0507812,5.81054688 L53.0507812,10 L52.078125,10 Z M57.7617187,10.1171875 C56.8124953,10.1171875 56.0634793,9.82812789 55.5146484,9.25 C54.9658176,8.67187211 54.6914062,7.86914576 54.6914062,6.84179688 C54.6914062,5.80663545 54.9462865,4.98437805 55.4560547,4.375 C55.9658229,3.76562195 56.6503863,3.4609375 57.5097656,3.4609375 C58.3144571,3.4609375 58.9511695,3.72558329 59.4199219,4.25488281 C59.8886742,4.78418233 60.1230469,5.48241754 60.1230469,6.34960938 L60.1230469,6.96484375 L55.6992187,6.96484375 C55.7187501,7.71875377 55.9091779,8.29101367 56.2705078,8.68164062 C56.6318377,9.07226758 57.1406217,9.26757812 57.796875,9.26757812 C58.4882847,9.26757812 59.1718716,9.12304832 59.8476562,8.83398438 L59.8476562,9.70117188 C59.5039045,9.84961012 59.1787125,9.95605437 58.8720703,10.0205078 C58.5654282,10.0849613 58.1953147,10.1171875 57.7617187,10.1171875 L57.7617187,10.1171875 Z M57.4980469,4.27539062 C56.9824193,4.27539062 56.5712906,4.4433577 56.2646484,4.77929688 C55.9580063,5.11523605 55.777344,5.58007516 55.7226562,6.17382812 L59.0800781,6.17382812 C59.0800781,5.56054381 58.9433607,5.09082194 58.6699219,4.76464844 C58.396483,4.43847493 58.0058619,4.27539062 57.4980469,4.27539062 L57.4980469,4.27539062 Z M67.4648438,10.1171875 C66.5351516,10.1171875 65.8154322,9.83105755 65.3056641,9.25878906 C64.7958959,8.68652058 64.5410156,7.87695836 64.5410156,6.83007812 C64.5410156,5.755854 64.7998021,4.92578418 65.3173828,4.33984375 C65.8349635,3.75390332 66.5722608,3.4609375 67.5292969,3.4609375 C67.8378922,3.4609375 68.1464828,3.49414029 68.4550781,3.56054688 C68.7636734,3.62695346 69.0058585,3.70507768 69.1816406,3.79492188 L68.8828125,4.62109375 C68.6679677,4.53515582 68.433595,4.46386747 68.1796875,4.40722656 C67.92578,4.35058565 67.7011729,4.32226562 67.5058594,4.32226562 C66.2011654,4.32226562 65.5488281,5.15428855 65.5488281,6.81835938 C65.5488281,7.60742582 65.7080062,8.21288852 66.0263672,8.63476562 C66.3447282,9.05664273 66.8164031,9.26757812 67.4414062,9.26757812 C67.9765652,9.26757812 68.5253878,9.1523449 69.0878906,8.921875 L69.0878906,9.78320312 C68.658201,10.0058605 68.1171908,10.1171875 67.4648438,10.1171875 L67.4648438,10.1171875 Z M71.5839844,10 L70.6113281,10 L70.6113281,0.8828125 L71.5839844,0.8828125 L71.5839844,10 Z M79.1894531,6.78320312 C79.1894531,7.83008336 78.9257839,8.647458 78.3984375,9.23535156 C77.8710911,9.82324513 77.1425828,10.1171875 76.2128906,10.1171875 C75.638669,10.1171875 75.1289085,9.98242322 74.6835938,9.71289062 C74.238279,9.44335803 73.8945325,9.05664314 73.6523438,8.55273438 C73.410155,8.04882561 73.2890625,7.45898775 73.2890625,6.78320312 C73.2890625,5.73632289 73.5507786,4.92090136 74.0742188,4.33691406 C74.5976589,3.75292677 75.3242141,3.4609375 76.2539062,3.4609375 C77.1523482,3.4609375 77.8662083,3.75976264 78.3955078,4.35742188 C78.9248073,4.95508111 79.1894531,5.76366678 79.1894531,6.78320312 L79.1894531,6.78320312 Z M74.296875,6.78320312 C74.296875,7.60351973 74.4609359,8.22851348 74.7890625,8.65820312 C75.1171891,9.08789277 75.5996062,9.30273438 76.2363281,9.30273438 C76.8730501,9.30273438 77.3564437,9.08886933 77.6865234,8.66113281 C78.0166032,8.2333963 78.1816406,7.607426 78.1816406,6.78320312 C78.1816406,5.96679279 78.0166032,5.34668181 77.6865234,4.92285156 C77.3564437,4.49902132 76.8691438,4.28710938 76.2246094,4.28710938 C75.5878874,4.28710938 75.1074235,4.49609166 74.7832031,4.9140625 C74.4589828,5.33203334 74.296875,5.95507398 74.296875,6.78320312 L74.296875,6.78320312 Z M83.4609375,10.1171875 C82.5312454,10.1171875 81.811526,9.83105755 81.3017578,9.25878906 C80.7919896,8.68652058 80.5371094,7.87695836 80.5371094,6.83007812 C80.5371094,5.755854 80.7958958,4.92578418 81.3134766,4.33984375 C81.8310573,3.75390332 82.5683546,3.4609375 83.5253906,3.4609375 C83.8339859,3.4609375 84.1425766,3.49414029 84.4511719,3.56054688 C84.7597672,3.62695346 85.0019522,3.70507768 85.1777344,3.79492188 L84.8789062,4.62109375 C84.6640614,4.53515582 84.4296888,4.46386747 84.1757812,4.40722656 C83.9218737,4.35058565 83.6972666,4.32226562 83.5019531,4.32226562 C82.1972591,4.32226562 81.5449219,5.15428855 81.5449219,6.81835938 C81.5449219,7.60742582 81.7041,8.21288852 82.0224609,8.63476562 C82.3408219,9.05664273 82.8124969,9.26757812 83.4375,9.26757812 C83.9726589,9.26757812 84.5214816,9.1523449 85.0839844,8.921875 L85.0839844,9.78320312 C84.6542947,10.0058605 84.1132845,10.1171875 83.4609375,10.1171875 L83.4609375,10.1171875 Z M87.5683594,6.71289062 C87.736329,6.47460818 87.9921858,6.16211131 88.3359375,5.77539062 L90.4101562,3.578125 L91.5644531,3.578125 L88.9628906,6.31445312 L91.7460938,10 L90.5683594,10 L88.3007812,6.96484375 L87.5683594,7.59765625 L87.5683594,10 L86.6074219,10 L86.6074219,0.8828125 L87.5683594,0.8828125 L87.5683594,5.71679688 C87.5683594,5.9316417 87.5527345,6.26366963 87.5214844,6.71289062 L87.5683594,6.71289062 Z M92.765625,9.37890625 C92.765625,9.11718619 92.8251947,8.91894599 92.9443359,8.78417969 C93.0634772,8.64941339 93.2343739,8.58203125 93.4570312,8.58203125 C93.6835949,8.58203125 93.8603509,8.64941339 93.9873047,8.78417969 C94.1142584,8.91894599 94.1777344,9.11718619 94.1777344,9.37890625 C94.1777344,9.63281377 94.1132819,9.82812432 93.984375,9.96484375 C93.8554681,10.1015632 93.6796886,10.1699219 93.4570312,10.1699219 C93.2578115,10.1699219 93.0927741,10.1083991 92.9619141,9.98535156 C92.831054,9.86230407 92.765625,9.66015766 92.765625,9.37890625 L92.765625,9.37890625 Z M96.8789062,1.43359375 L96.9667969,1.5625 C96.8652339,1.95312695 96.718751,2.40722397 96.5273438,2.92480469 C96.3359365,3.4423854 96.1367198,3.9238259 95.9296875,4.36914062 L95.2148438,4.36914062 C95.4882826,3.25585381 95.6874994,2.27734797 95.8125,1.43359375 L96.8789062,1.43359375 Z M99.0410156,1.43359375 L99.1230469,1.5625 C99.0292964,1.91797053 98.8886728,2.35546615 98.7011719,2.875 C98.5136709,3.39453385 98.310548,3.89257574 98.0917969,4.36914062 L97.359375,4.36914062 C97.460938,3.97851367 97.5761712,3.48242488 97.7050781,2.88085938 C97.833985,2.27929387 97.9238279,1.79687682 97.9746094,1.43359375 L99.0410156,1.43359375 Z" id="“Watch-the-clock.”" fill="#000000" sketch:type="MSShapeGroup"></path>
    </g>
</svg>