<?xml version="1.0" encoding="UTF-8" standalone="no"?>
<svg width="158px" height="14px" viewBox="0 0 158 14" version="1.1" xmlns="http://www.w3.org/2000/svg" xmlns:xlink="http://www.w3.org/1999/xlink" xmlns:sketch="http://www.bohemiancoding.com/sketch/ns">
    <!-- Generator: Sketch 3.1.1 (8761) - http://www.bohemiancoding.com/sketch -->
    <title>Vector 2</title>
    <desc>Created with Sketch.</desc>
    <defs></defs>
    <g id="Page-1" stroke="none" stroke-width="1" fill="none" fill-rule="evenodd" sketch:type="MSPage">
        <path d="M3.81445312,10 L2.81835937,10 L2.81835937,2.31835938 L0.10546875,2.31835938 L0.10546875,1.43359375 L6.52734375,1.43359375 L6.52734375,2.31835938 L3.81445312,2.31835938 L3.81445312,10 Z M12.0644531,10 L12.0644531,5.84570312 C12.0644531,5.32226301 11.9453137,4.93164191 11.7070312,4.67382812 C11.4687488,4.41601434 11.0957057,4.28710938 10.5878906,4.28710938 C9.912106,4.28710938 9.41894687,4.47070129 9.10839844,4.83789062 C8.79785001,5.20507996 8.64257812,5.80663645 8.64257812,6.64257813 L8.64257812,10 L7.66992188,10 L7.66992188,0.8828125 L8.64257812,0.8828125 L8.64257812,3.64257812 C8.64257812,3.97461104 8.62695328,4.24999891 8.59570312,4.46875 L8.65429688,4.46875 C8.84570408,4.16015471 9.11816229,3.91699308 9.47167969,3.73925781 C9.82519708,3.56152255 10.2285134,3.47265625 10.6816406,3.47265625 C11.4668008,3.47265625 12.0556621,3.65917782 12.4482422,4.03222656 C12.8408223,4.4052753 13.0371094,4.99804281 13.0371094,5.81054688 L13.0371094,10 L12.0644531,10 Z M17.7480469,10.1171875 C16.7988234,10.1171875 16.0498074,9.82812789 15.5009766,9.25 C14.9521457,8.67187211 14.6777344,7.86914576 14.6777344,6.84179688 C14.6777344,5.80663545 14.9326146,4.98437805 15.4423828,4.375 C15.952151,3.76562195 16.6367145,3.4609375 17.4960938,3.4609375 C18.3007853,3.4609375 18.9374977,3.72558329 19.40625,4.25488281 C19.8750023,4.78418233 20.109375,5.48241754 20.109375,6.34960938 L20.109375,6.96484375 L15.6855469,6.96484375 C15.7050782,7.71875377 15.895506,8.29101367 16.2568359,8.68164062 C16.6181659,9.07226758 17.1269498,9.26757812 17.7832031,9.26757812 C18.4746128,9.26757812 19.1581997,9.12304832 19.8339844,8.83398438 L19.8339844,9.70117188 C19.4902327,9.84961012 19.1650406,9.95605437 18.8583984,10.0205078 C18.5517563,10.0849613 18.1816428,10.1171875 17.7480469,10.1171875 L17.7480469,10.1171875 Z M17.484375,4.27539062 C16.9687474,4.27539062 16.5576187,4.4433577 16.2509766,4.77929688 C15.9443344,5.11523605 15.7636721,5.58007516 15.7089844,6.17382812 L19.0664062,6.17382812 C19.0664062,5.56054381 18.9296889,5.09082194 18.65625,4.76464844 C18.3828111,4.43847493 17.99219,4.27539062 17.484375,4.27539062 L17.484375,4.27539062 Z M27.8730469,10.1171875 C27.455076,10.1171875 27.0732439,10.0400398 26.7275391,9.88574219 C26.3818342,9.73144454 26.091798,9.49414223 25.8574219,9.17382812 L25.7871094,9.17382812 C25.8339846,9.54883 25.8574219,9.9042952 25.8574219,10.2402344 L25.8574219,12.8828125 L24.8847656,12.8828125 L24.8847656,3.578125 L25.6757812,3.578125 L25.8105469,4.45703125 L25.8574219,4.45703125 C26.1074231,4.10546699 26.3984358,3.85156328 26.7304688,3.6953125 C27.0625017,3.53906172 27.4433572,3.4609375 27.8730469,3.4609375 C28.7246136,3.4609375 29.3818336,3.75195021 29.8447266,4.33398438 C30.3076195,4.91601854 30.5390625,5.73241662 30.5390625,6.78320312 C30.5390625,7.8378959 30.3037133,8.65722364 29.8330078,9.24121094 C29.3623023,9.82519823 28.7089886,10.1171875 27.8730469,10.1171875 L27.8730469,10.1171875 Z M27.7324219,4.28710938 C27.0761686,4.28710938 26.601564,4.46874818 26.3085938,4.83203125 C26.0156235,5.19531432 25.8652344,5.77343354 25.8574219,6.56640625 L25.8574219,6.78320312 C25.8574219,7.68555139 26.007811,8.33105274 26.3085938,8.71972656 C26.6093765,9.10840038 27.0917936,9.30273438 27.7558594,9.30273438 C28.3105496,9.30273438 28.7451156,9.07812725 29.0595703,8.62890625 C29.374025,8.17968525 29.53125,7.56055082 29.53125,6.77148438 C29.53125,5.97069912 29.374025,5.35644745 29.0595703,4.92871094 C28.7451156,4.50097442 28.3027372,4.28710938 27.7324219,4.28710938 L27.7324219,4.28710938 Z M36.1875,10 L35.9941406,9.0859375 L35.9472656,9.0859375 C35.6269515,9.48828326 35.3076188,9.76074147 34.9892578,9.90332031 C34.6708968,10.0458992 34.2734399,10.1171875 33.796875,10.1171875 C33.1601531,10.1171875 32.6611346,9.95312664 32.2998047,9.625 C31.9384748,9.29687336 31.7578125,8.83008115 31.7578125,8.22460938 C31.7578125,6.92772789 32.7949115,6.24804719 34.8691406,6.18554688 L35.9589844,6.15039062 L35.9589844,5.75195312 C35.9589844,5.24804436 35.850587,4.87597776 35.6337891,4.63574219 C35.4169911,4.39550661 35.0703149,4.27539062 34.59375,4.27539062 C34.0585911,4.27539062 33.4531284,4.43945148 32.7773438,4.76757812 L32.4785156,4.0234375 C32.7949235,3.85156164 33.1415997,3.71679736 33.5185547,3.61914062 C33.8955097,3.52148389 34.2734356,3.47265625 34.6523438,3.47265625 C35.4179726,3.47265625 35.9853497,3.64257643 36.3544922,3.98242188 C36.7236347,4.32226732 36.9082031,4.86718375 36.9082031,5.6171875 L36.9082031,10 L36.1875,10 Z M33.9902344,9.31445312 C34.5957062,9.31445312 35.0712873,9.14843916 35.4169922,8.81640625 C35.762697,8.48437334 35.9355469,8.01953424 35.9355469,7.421875 L35.9355469,6.84179688 L34.9628906,6.8828125 C34.1894493,6.91015639 33.6318376,7.03027237 33.2900391,7.24316406 C32.9482405,7.45605575 32.7773438,7.78710713 32.7773438,8.23632812 C32.7773438,8.58789238 32.883788,8.85546783 33.0966797,9.0390625 C33.3095714,9.22265717 33.60742,9.31445312 33.9902344,9.31445312 L33.9902344,9.31445312 Z M41.8417969,3.4609375 C42.1269546,3.4609375 42.3828114,3.48437477 42.609375,3.53125 L42.4746094,4.43359375 C42.208983,4.37499971 41.9746104,4.34570312 41.7714844,4.34570312 C41.2519505,4.34570312 40.807619,4.55663852 40.4384766,4.97851562 C40.0693341,5.40039273 39.8847656,5.92577811 39.8847656,6.5546875 L39.8847656,10 L38.9121094,10 L38.9121094,3.578125 L39.7148438,3.578125 L39.8261719,4.76757812 L39.8730469,4.76757812 C40.1113293,4.34960729 40.3984358,4.02734488 40.734375,3.80078125 C41.0703142,3.57421762 41.4394511,3.4609375 41.8417969,3.4609375 L41.8417969,3.4609375 Z M46.2832031,10.1171875 C45.3339796,10.1171875 44.5849637,9.82812789 44.0361328,9.25 C43.4873019,8.67187211 43.2128906,7.86914576 43.2128906,6.84179688 C43.2128906,5.80663545 43.4677709,4.98437805 43.9775391,4.375 C44.4873072,3.76562195 45.1718707,3.4609375 46.03125,3.4609375 C46.8359415,3.4609375 47.4726539,3.72558329 47.9414062,4.25488281 C48.4101586,4.78418233 48.6445312,5.48241754 48.6445312,6.34960938 L48.6445312,6.96484375 L44.2207031,6.96484375 C44.2402345,7.71875377 44.4306623,8.29101367 44.7919922,8.68164062 C45.1533221,9.07226758 45.6621061,9.26757812 46.3183594,9.26757812 C47.0097691,9.26757812 47.693356,9.12304832 48.3691406,8.83398438 L48.3691406,9.70117188 C48.0253889,9.84961012 47.7001968,9.95605437 47.3935547,10.0205078 C47.0869125,10.0849613 46.716799,10.1171875 46.2832031,10.1171875 L46.2832031,10.1171875 Z M46.0195312,4.27539062 C45.5039037,4.27539062 45.092775,4.4433577 44.7861328,4.77929688 C44.4794907,5.11523605 44.2988284,5.58007516 44.2441406,6.17382812 L47.6015625,6.17382812 C47.6015625,5.56054381 47.4648451,5.09082194 47.1914062,4.76464844 C46.9179674,4.43847493 46.5273463,4.27539062 46.0195312,4.27539062 L46.0195312,4.27539062 Z M54.6972656,10 L54.6972656,5.84570312 C54.6972656,5.32226301 54.5781262,4.93164191 54.3398438,4.67382812 C54.1015613,4.41601434 53.7285182,4.28710938 53.2207031,4.28710938 C52.5488248,4.28710938 52.0566422,4.46874818 51.7441406,4.83203125 C51.4316391,5.19531432 51.2753906,5.7949177 51.2753906,6.63085938 L51.2753906,10 L50.3027344,10 L50.3027344,3.578125 L51.09375,3.578125 L51.2519531,4.45703125 L51.2988281,4.45703125 C51.4980479,4.14062342 51.777342,3.89550868 52.1367188,3.72167969 C52.4960955,3.54785069 52.8964822,3.4609375 53.3378906,3.4609375 C54.111332,3.4609375 54.6933574,3.64745907 55.0839844,4.02050781 C55.4746113,4.39355655 55.6699219,4.99023027 55.6699219,5.81054688 L55.6699219,10 L54.6972656,10 Z M59.7421875,9.31445312 C59.9140634,9.31445312 60.0800773,9.30175794 60.2402344,9.27636719 C60.4003914,9.25097644 60.5273433,9.22460951 60.6210938,9.19726562 L60.6210938,9.94140625 C60.5156245,9.99218775 60.3603526,10.0341795 60.1552734,10.0673828 C59.9501943,10.1005861 59.7656258,10.1171875 59.6015625,10.1171875 C58.3593688,10.1171875 57.7382812,9.46289717 57.7382812,8.15429688 L57.7382812,4.33398438 L56.8183594,4.33398438 L56.8183594,3.86523438 L57.7382812,3.4609375 L58.1484375,2.08984375 L58.7109375,2.08984375 L58.7109375,3.578125 L60.5742188,3.578125 L60.5742188,4.33398438 L58.7109375,4.33398438 L58.7109375,8.11328125 C58.7109375,8.50000193 58.8027335,8.79687396 58.9863281,9.00390625 C59.1699228,9.21093854 59.4218734,9.31445312 59.7421875,9.31445312 L59.7421875,9.31445312 Z M66.046875,8.24804688 C66.046875,8.84570611 65.824221,9.306639 65.3789062,9.63085938 C64.9335915,9.95507975 64.3085978,10.1171875 63.5039062,10.1171875 C62.6523395,10.1171875 61.9882836,9.98242322 61.5117188,9.71289062 L61.5117188,8.81054688 C61.820314,8.96679766 62.1513654,9.0898433 62.5048828,9.1796875 C62.8584002,9.2695317 63.1992171,9.31445312 63.5273438,9.31445312 C64.0351588,9.31445312 64.4257799,9.23339925 64.6992188,9.07128906 C64.9726576,8.90917888 65.109375,8.66211104 65.109375,8.33007812 C65.109375,8.08007688 65.0009776,7.86621183 64.7841797,7.68847656 C64.5673817,7.5107413 64.1445344,7.30078246 63.515625,7.05859375 C62.9179658,6.83593639 62.4931653,6.64160239 62.2412109,6.47558594 C61.9892566,6.30956948 61.8017584,6.1210948 61.6787109,5.91015625 C61.5556634,5.6992177 61.4941406,5.44726709 61.4941406,5.15429688 C61.4941406,4.63085676 61.7070291,4.21777495 62.1328125,3.91503906 C62.5585959,3.61230317 63.1425744,3.4609375 63.8847656,3.4609375 C64.5761753,3.4609375 65.2519498,3.60156109 65.9121094,3.8828125 L65.5664062,4.67382812 C64.9218718,4.4082018 64.3378932,4.27539062 63.8144531,4.27539062 C63.3535133,4.27539062 63.0058605,4.34765553 62.7714844,4.4921875 C62.5371082,4.63671947 62.4199219,4.83593623 62.4199219,5.08984375 C62.4199219,5.26171961 62.4638667,5.40820252 62.5517578,5.52929688 C62.6396489,5.65039123 62.781249,5.76562445 62.9765625,5.875 C63.171876,5.98437555 63.5468722,6.14257709 64.1015625,6.34960938 C64.8632851,6.62695451 65.3779283,6.90624859 65.6455078,7.1875 C65.9130873,7.46875141 66.046875,7.8222635 66.046875,8.24804688 L66.046875,8.24804688 Z M75.140625,10 L75.140625,5.84570312 C75.140625,5.32226301 75.0214856,4.93164191 74.7832031,4.67382812 C74.5449207,4.41601434 74.1718775,4.28710938 73.6640625,4.28710938 C72.9882779,4.28710938 72.4951187,4.47070129 72.1845703,4.83789062 C71.8740219,5.20507996 71.71875,5.80663645 71.71875,6.64257813 L71.71875,10 L70.7460938,10 L70.7460938,0.8828125 L71.71875,0.8828125 L71.71875,3.64257812 C71.71875,3.97461104 71.7031252,4.24999891 71.671875,4.46875 L71.7304688,4.46875 C71.921876,4.16015471 72.1943342,3.91699308 72.5478516,3.73925781 C72.901369,3.56152255 73.3046852,3.47265625 73.7578125,3.47265625 C74.5429727,3.47265625 75.131834,3.65917782 75.5244141,4.03222656 C75.9169942,4.4052753 76.1132812,4.99804281 76.1132812,5.81054688 L76.1132812,10 L75.140625,10 Z M82.0605469,10 L81.8671875,9.0859375 L81.8203125,9.0859375 C81.4999984,9.48828326 81.1806657,9.76074147 80.8623047,9.90332031 C80.5439437,10.0458992 80.1464868,10.1171875 79.6699219,10.1171875 C79.0331999,10.1171875 78.5341815,9.95312664 78.1728516,9.625 C77.8115216,9.29687336 77.6308594,8.83008115 77.6308594,8.22460938 C77.6308594,6.92772789 78.6679584,6.24804719 80.7421875,6.18554688 L81.8320312,6.15039062 L81.8320312,5.75195312 C81.8320312,5.24804436 81.7236339,4.87597776 81.5068359,4.63574219 C81.290038,4.39550661 80.9433618,4.27539062 80.4667969,4.27539062 C79.9316379,4.27539062 79.3261753,4.43945148 78.6503906,4.76757812 L78.3515625,4.0234375 C78.6679703,3.85156164 79.0146466,3.71679736 79.3916016,3.61914062 C79.7685566,3.52148389 80.1464825,3.47265625 80.5253906,3.47265625 C81.2910195,3.47265625 81.8583966,3.64257643 82.2275391,3.98242188 C82.5966815,4.32226732 82.78125,4.86718375 82.78125,5.6171875 L82.78125,10 L82.0605469,10 Z M79.8632812,9.31445312 C80.468753,9.31445312 80.9443342,9.14843916 81.2900391,8.81640625 C81.6357439,8.48437334 81.8085938,8.01953424 81.8085938,7.421875 L81.8085938,6.84179688 L80.8359375,6.8828125 C80.0624961,6.91015639 79.5048845,7.03027237 79.1630859,7.24316406 C78.8212874,7.45605575 78.6503906,7.78710713 78.6503906,8.23632812 C78.6503906,8.58789238 78.7568349,8.85546783 78.9697266,9.0390625 C79.1826183,9.22265717 79.4804668,9.31445312 79.8632812,9.31445312 L79.8632812,9.31445312 Z M86.1914062,10 L83.7539062,3.578125 L84.796875,3.578125 L86.1796875,7.38671875 C86.4921891,8.2773482 86.675781,8.85546742 86.7304688,9.12109375 L86.7773438,9.12109375 C86.8203127,8.91406146 86.9560535,8.48535481 87.1845703,7.83496094 C87.4130871,7.18456706 87.9257773,5.76563594 88.7226562,3.578125 L89.765625,3.578125 L87.328125,10 L86.1914062,10 Z M93.5097656,10.1171875 C92.5605421,10.1171875 91.8115262,9.82812789 91.2626953,9.25 C90.7138644,8.67187211 90.4394531,7.86914576 90.4394531,6.84179688 C90.4394531,5.80663545 90.6943334,4.98437805 91.2041016,4.375 C91.7138697,3.76562195 92.3984332,3.4609375 93.2578125,3.4609375 C94.062504,3.4609375 94.6992164,3.72558329 95.1679687,4.25488281 C95.6367211,4.78418233 95.8710937,5.48241754 95.8710937,6.34960938 L95.8710937,6.96484375 L91.4472656,6.96484375 C91.466797,7.71875377 91.6572248,8.29101367 92.0185547,8.68164062 C92.3798846,9.07226758 92.8886686,9.26757812 93.5449219,9.26757812 C94.2363316,9.26757812 94.9199185,9.12304832 95.5957031,8.83398438 L95.5957031,9.70117188 C95.2519514,9.84961012 94.9267593,9.95605437 94.6201172,10.0205078 C94.313475,10.0849613 93.9433615,10.1171875 93.5097656,10.1171875 L93.5097656,10.1171875 Z M93.2460938,4.27539062 C92.7304662,4.27539062 92.3193375,4.4433577 92.0126953,4.77929688 C91.7060532,5.11523605 91.5253909,5.58007516 91.4707031,6.17382812 L94.828125,6.17382812 C94.828125,5.56054381 94.6914076,5.09082194 94.4179688,4.76464844 C94.1445299,4.43847493 93.7539088,4.27539062 93.2460938,4.27539062 L93.2460938,4.27539062 Z M101.619141,10 L100.646484,10 L100.646484,0.8828125 L101.619141,0.8828125 L101.619141,10 Z M106.394531,10.1171875 C105.445308,10.1171875 104.696292,9.82812789 104.147461,9.25 C103.59863,8.67187211 103.324219,7.86914576 103.324219,6.84179688 C103.324219,5.80663545 103.579099,4.98437805 104.088867,4.375 C104.598635,3.76562195 105.283199,3.4609375 106.142578,3.4609375 C106.94727,3.4609375 107.583982,3.72558329 108.052734,4.25488281 C108.521487,4.78418233 108.755859,5.48241754 108.755859,6.34960938 L108.755859,6.96484375 L104.332031,6.96484375 C104.351563,7.71875377 104.54199,8.29101367 104.90332,8.68164062 C105.26465,9.07226758 105.773434,9.26757812 106.429688,9.26757812 C107.121097,9.26757812 107.804684,9.12304832 108.480469,8.83398438 L108.480469,9.70117188 C108.136717,9.84961012 107.811525,9.95605437 107.504883,10.0205078 C107.198241,10.0849613 106.828127,10.1171875 106.394531,10.1171875 L106.394531,10.1171875 Z M106.130859,4.27539062 C105.615232,4.27539062 105.204103,4.4433577 104.897461,4.77929688 C104.590819,5.11523605 104.410157,5.58007516 104.355469,6.17382812 L107.712891,6.17382812 C107.712891,5.56054381 107.576173,5.09082194 107.302734,4.76464844 C107.029296,4.43847493 106.638674,4.27539062 106.130859,4.27539062 L106.130859,4.27539062 Z M113.308594,4.33398438 L111.673828,4.33398438 L111.673828,10 L110.701172,10 L110.701172,4.33398438 L109.552734,4.33398438 L109.552734,3.89453125 L110.701172,3.54296875 L110.701172,3.18554688 C110.701172,1.60741398 111.390618,0.818359375 112.769531,0.818359375 C113.109377,0.818359375 113.50781,0.886718066 113.964844,1.0234375 L113.712891,1.80273438 C113.337889,1.68164002 113.017579,1.62109375 112.751953,1.62109375 C112.384764,1.62109375 112.113282,1.74316284 111.9375,1.98730469 C111.761718,2.23144653 111.673828,2.62304418 111.673828,3.16210938 L111.673828,3.578125 L113.308594,3.578125 L113.308594,4.33398438 Z M116.554688,9.31445312 C116.726563,9.31445312 116.892577,9.30175794 117.052734,9.27636719 C117.212891,9.25097644 117.339843,9.22460951 117.433594,9.19726562 L117.433594,9.94140625 C117.328124,9.99218775 117.172853,10.0341795 116.967773,10.0673828 C116.762694,10.1005861 116.578126,10.1171875 116.414062,10.1171875 C115.171869,10.1171875 114.550781,9.46289717 114.550781,8.15429688 L114.550781,4.33398438 L113.630859,4.33398438 L113.630859,3.86523438 L114.550781,3.4609375 L114.960938,2.08984375 L115.523438,2.08984375 L115.523438,3.578125 L117.386719,3.578125 L117.386719,4.33398438 L115.523438,4.33398438 L115.523438,8.11328125 C115.523438,8.50000193 115.615233,8.79687396 115.798828,9.00390625 C115.982423,9.21093854 116.234373,9.31445312 116.554688,9.31445312 L116.554688,9.31445312 Z M125.783203,10 L125.589844,9.0859375 L125.542969,9.0859375 C125.222655,9.48828326 124.903322,9.76074147 124.584961,9.90332031 C124.2666,10.0458992 123.869143,10.1171875 123.392578,10.1171875 C122.755856,10.1171875 122.256838,9.95312664 121.895508,9.625 C121.534178,9.29687336 121.353516,8.83008115 121.353516,8.22460938 C121.353516,6.92772789 122.390615,6.24804719 124.464844,6.18554688 L125.554688,6.15039062 L125.554688,5.75195312 C125.554688,5.24804436 125.44629,4.87597776 125.229492,4.63574219 C125.012694,4.39550661 124.666018,4.27539062 124.189453,4.27539062 C123.654294,4.27539062 123.048832,4.43945148 122.373047,4.76757812 L122.074219,4.0234375 C122.390627,3.85156164 122.737303,3.71679736 123.114258,3.61914062 C123.491213,3.52148389 123.869139,3.47265625 124.248047,3.47265625 C125.013676,3.47265625 125.581053,3.64257643 125.950195,3.98242188 C126.319338,4.32226732 126.503906,4.86718375 126.503906,5.6171875 L126.503906,10 L125.783203,10 Z M123.585938,9.31445312 C124.191409,9.31445312 124.66699,9.14843916 125.012695,8.81640625 C125.3584,8.48437334 125.53125,8.01953424 125.53125,7.421875 L125.53125,6.84179688 L124.558594,6.8828125 C123.785152,6.91015639 123.227541,7.03027237 122.885742,7.24316406 C122.543944,7.45605575 122.373047,7.78710713 122.373047,8.23632812 C122.373047,8.58789238 122.479491,8.85546783 122.692383,9.0390625 C122.905275,9.22265717 123.203123,9.31445312 123.585938,9.31445312 L123.585938,9.31445312 Z M133.763672,3.578125 L133.763672,4.19335938 L132.574219,4.33398438 C132.683594,4.47070381 132.78125,4.64941296 132.867188,4.87011719 C132.953125,5.09082142 132.996094,5.33984236 132.996094,5.6171875 C132.996094,6.24609689 132.781252,6.748045 132.351562,7.12304688 C131.921873,7.49804875 131.332035,7.68554688 130.582031,7.68554688 C130.390624,7.68554688 130.210938,7.66992203 130.042969,7.63867188 C129.628904,7.85742297 129.421875,8.13281084 129.421875,8.46484375 C129.421875,8.64062588 129.49414,8.77050739 129.638672,8.85449219 C129.783204,8.93847698 130.031248,8.98046875 130.382812,8.98046875 L131.519531,8.98046875 C132.214847,8.98046875 132.749022,9.12695166 133.12207,9.41992188 C133.495119,9.71289209 133.681641,10.1386691 133.681641,10.6972656 C133.681641,11.4082067 133.396487,11.9501934 132.826172,12.3232422 C132.255857,12.6962909 131.423834,12.8828125 130.330078,12.8828125 C129.49023,12.8828125 128.842776,12.7265641 128.387695,12.4140625 C127.932615,12.1015609 127.705078,11.6601591 127.705078,11.0898438 C127.705078,10.6992168 127.830077,10.3613296 128.080078,10.0761719 C128.330079,9.7910142 128.681638,9.59765676 129.134766,9.49609375 C128.970702,9.42187463 128.833008,9.30664141 128.72168,9.15039062 C128.610351,8.99413984 128.554688,8.81250104 128.554688,8.60546875 C128.554688,8.37109258 128.617187,8.1660165 128.742188,7.99023438 C128.867188,7.81445225 129.064452,7.64453207 129.333984,7.48046875 C129.001951,7.34374932 128.731446,7.11132977 128.522461,6.78320312 C128.313476,6.45507648 128.208984,6.08008023 128.208984,5.65820312 C128.208984,4.95507461 128.41992,4.41308784 128.841797,4.03222656 C129.263674,3.65136528 129.861324,3.4609375 130.634766,3.4609375 C130.970705,3.4609375 131.273436,3.49999961 131.542969,3.578125 L133.763672,3.578125 Z M128.642578,11.078125 C128.642578,11.425783 128.789061,11.6894522 129.082031,11.8691406 C129.375001,12.048829 129.794919,12.1386719 130.341797,12.1386719 C131.158207,12.1386719 131.762693,12.0166028 132.155273,11.7724609 C132.547854,11.5283191 132.744141,11.1972677 132.744141,10.7792969 C132.744141,10.4316389 132.63672,10.1904304 132.421875,10.0556641 C132.20703,9.92089776 131.802737,9.85351562 131.208984,9.85351562 L130.042969,9.85351562 C129.60156,9.85351562 129.257814,9.95898332 129.011719,10.1699219 C128.765624,10.3808604 128.642578,10.6835918 128.642578,11.078125 L128.642578,11.078125 Z M129.169922,5.63476562 C129.169922,6.08398662 129.296874,6.42382697 129.550781,6.65429688 C129.804689,6.88476678 130.158201,7 130.611328,7 C131.560552,7 132.035156,6.53906711 132.035156,5.6171875 C132.035156,4.65233893 131.554692,4.16992188 130.59375,4.16992188 C130.136716,4.16992188 129.785157,4.29296752 129.539062,4.5390625 C129.292968,4.78515748 129.169922,5.1503882 129.169922,5.63476562 L129.169922,5.63476562 Z M139.03125,10 L138.837891,9.0859375 L138.791016,9.0859375 C138.470702,9.48828326 138.151369,9.76074147 137.833008,9.90332031 C137.514647,10.0458992 137.11719,10.1171875 136.640625,10.1171875 C136.003903,10.1171875 135.504885,9.95312664 135.143555,9.625 C134.782225,9.29687336 134.601562,8.83008115 134.601562,8.22460938 C134.601562,6.92772789 135.638662,6.24804719 137.712891,6.18554688 L138.802734,6.15039062 L138.802734,5.75195312 C138.802734,5.24804436 138.694337,4.87597776 138.477539,4.63574219 C138.260741,4.39550661 137.914065,4.27539062 137.4375,4.27539062 C136.902341,4.27539062 136.296878,4.43945148 135.621094,4.76757812 L135.322266,4.0234375 C135.638673,3.85156164 135.98535,3.71679736 136.362305,3.61914062 C136.73926,3.52148389 137.117186,3.47265625 137.496094,3.47265625 C138.261723,3.47265625 138.8291,3.64257643 139.198242,3.98242188 C139.567385,4.32226732 139.751953,4.86718375 139.751953,5.6171875 L139.751953,10 L139.03125,10 Z M136.833984,9.31445312 C137.439456,9.31445312 137.915037,9.14843916 138.260742,8.81640625 C138.606447,8.48437334 138.779297,8.01953424 138.779297,7.421875 L138.779297,6.84179688 L137.806641,6.8828125 C137.033199,6.91015639 136.475588,7.03027237 136.133789,7.24316406 C135.79199,7.45605575 135.621094,7.78710713 135.621094,8.23632812 C135.621094,8.58789238 135.727538,8.85546783 135.94043,9.0390625 C136.153321,9.22265717 136.45117,9.31445312 136.833984,9.31445312 L136.833984,9.31445312 Z M142.728516,10 L141.755859,10 L141.755859,3.578125 L142.728516,3.578125 L142.728516,10 Z M141.673828,1.83789062 C141.673828,1.61523326 141.728515,1.45214896 141.837891,1.34863281 C141.947266,1.24511667 142.083984,1.19335938 142.248047,1.19335938 C142.404298,1.19335938 142.539062,1.24609322 142.652344,1.3515625 C142.765626,1.45703178 142.822266,1.61913953 142.822266,1.83789062 C142.822266,2.05664172 142.765626,2.21972603 142.652344,2.32714844 C142.539062,2.43457085 142.404298,2.48828125 142.248047,2.48828125 C142.083984,2.48828125 141.947266,2.43457085 141.837891,2.32714844 C141.728515,2.21972603 141.673828,2.05664172 141.673828,1.83789062 L141.673828,1.83789062 Z M149.185547,10 L149.185547,5.84570312 C149.185547,5.32226301 149.066407,4.93164191 148.828125,4.67382812 C148.589843,4.41601434 148.216799,4.28710938 147.708984,4.28710938 C147.037106,4.28710938 146.544923,4.46874818 146.232422,4.83203125 C145.91992,5.19531432 145.763672,5.7949177 145.763672,6.63085938 L145.763672,10 L144.791016,10 L144.791016,3.578125 L145.582031,3.578125 L145.740234,4.45703125 L145.787109,4.45703125 C145.986329,4.14062342 146.265623,3.89550868 146.625,3.72167969 C146.984377,3.54785069 147.384763,3.4609375 147.826172,3.4609375 C148.599613,3.4609375 149.181639,3.64745907 149.572266,4.02050781 C149.962893,4.39355655 150.158203,4.99023027 150.158203,5.81054688 L150.158203,10 L149.185547,10 Z M152.015625,9.37890625 C152.015625,9.11718619 152.075195,8.91894599 152.194336,8.78417969 C152.313477,8.64941339 152.484374,8.58203125 152.707031,8.58203125 C152.933595,8.58203125 153.110351,8.64941339 153.237305,8.78417969 C153.364258,8.91894599 153.427734,9.11718619 153.427734,9.37890625 C153.427734,9.63281377 153.363282,9.82812432 153.234375,9.96484375 C153.105468,10.1015632 152.929689,10.1699219 152.707031,10.1699219 C152.507812,10.1699219 152.342774,10.1083991 152.211914,9.98535156 C152.081054,9.86230407 152.015625,9.66015766 152.015625,9.37890625 L152.015625,9.37890625 Z" id="The-parents-have-lef" fill="#000000" sketch:type="MSShapeGroup"></path>
    </g>
</svg>