<?xml version="1.0" encoding="UTF-8" standalone="no"?>
<svg width="42px" height="10px" viewBox="0 0 42 10" version="1.1" xmlns="http://www.w3.org/2000/svg" xmlns:xlink="http://www.w3.org/1999/xlink" xmlns:sketch="http://www.bohemiancoding.com/sketch/ns">
    <!-- Generator: Sketch 3.1.1 (8761) - http://www.bohemiancoding.com/sketch -->
    <title>Distant.</title>
    <desc>Created with Sketch.</desc>
    <defs></defs>
    <g id="Page-1" stroke="none" stroke-width="1" fill="none" fill-rule="evenodd" sketch:type="MSPage">
        <path d="M7.015625,4.63476562 C7.015625,6.0488352 6.63183978,7.12987907 5.86425781,7.87792969 C5.09667585,8.6259803 3.99219471,9 2.55078125,9 L0.177734375,9 L0.177734375,0.43359375 L2.80273438,0.43359375 C4.13477229,0.43359375 5.16991818,0.802730684 5.90820312,1.54101562 C6.64648807,2.27930057 7.015625,3.31054025 7.015625,4.63476562 L7.015625,4.63476562 Z M5.9609375,4.66992188 C5.9609375,3.55272879 5.68066687,2.71094033 5.12011719,2.14453125 C4.55956751,1.57812217 3.72656803,1.29492188 2.62109375,1.29492188 L1.17382812,1.29492188 L1.17382812,8.13867188 L2.38671875,8.13867188 C3.57422469,8.13867188 4.46679389,7.84668261 5.06445312,7.26269531 C5.66211236,6.67870802 5.9609375,5.81445885 5.9609375,4.66992188 L5.9609375,4.66992188 Z M9.75195312,9 L8.77929688,9 L8.77929688,2.578125 L9.75195312,2.578125 L9.75195312,9 Z M8.69726562,0.837890625 C8.69726562,0.615233262 8.75195258,0.452148955 8.86132812,0.348632812 C8.97070367,0.24511667 9.10742105,0.193359375 9.27148438,0.193359375 C9.42773516,0.193359375 9.56249943,0.246093223 9.67578125,0.3515625 C9.78906307,0.457031777 9.84570312,0.619139531 9.84570312,0.837890625 C9.84570312,1.05664172 9.78906307,1.21972603 9.67578125,1.32714844 C9.56249943,1.43457085 9.42773516,1.48828125 9.27148438,1.48828125 C9.10742105,1.48828125 8.97070367,1.43457085 8.86132812,1.32714844 C8.75195258,1.21972603 8.69726562,1.05664172 8.69726562,0.837890625 L8.69726562,0.837890625 Z M15.9570313,7.24804688 C15.9570313,7.84570611 15.7343772,8.306639 15.2890625,8.63085938 C14.8437478,8.95507975 14.218754,9.1171875 13.4140625,9.1171875 C12.5624957,9.1171875 11.8984399,8.98242322 11.421875,8.71289062 L11.421875,7.81054688 C11.7304703,7.96679766 12.0615217,8.0898433 12.4150391,8.1796875 C12.7685565,8.2695317 13.1093734,8.31445312 13.4375,8.31445312 C13.945315,8.31445312 14.3359361,8.23339925 14.609375,8.07128906 C14.8828139,7.90917888 15.0195313,7.66211104 15.0195313,7.33007812 C15.0195313,7.08007688 14.9111339,6.86621183 14.6943359,6.68847656 C14.477538,6.5107413 14.0546906,6.30078246 13.4257813,6.05859375 C12.828122,5.83593639 12.4033216,5.64160239 12.1513672,5.47558594 C11.8994128,5.30956948 11.7119147,5.1210948 11.5888672,4.91015625 C11.4658197,4.6992177 11.4042969,4.44726709 11.4042969,4.15429688 C11.4042969,3.63085676 11.6171854,3.21777495 12.0429688,2.91503906 C12.4687521,2.61230317 13.0527307,2.4609375 13.7949219,2.4609375 C14.4863316,2.4609375 15.1621061,2.60156109 15.8222656,2.8828125 L15.4765625,3.67382812 C14.832028,3.4082018 14.2480495,3.27539062 13.7246094,3.27539062 C13.2636696,3.27539062 12.9160168,3.34765553 12.6816406,3.4921875 C12.4472645,3.63671947 12.3300781,3.83593623 12.3300781,4.08984375 C12.3300781,4.26171961 12.374023,4.40820252 12.4619141,4.52929688 C12.5498051,4.65039123 12.6914053,4.76562445 12.8867188,4.875 C13.0820322,4.98437555 13.4570285,5.14257709 14.0117188,5.34960938 C14.7734413,5.62695451 15.2880846,5.90624859 15.5556641,6.1875 C15.8232435,6.46875141 15.9570313,6.8222635 15.9570313,7.24804688 L15.9570313,7.24804688 Z M19.6132812,8.31445312 C19.7851571,8.31445312 19.9511711,8.30175794 20.1113281,8.27636719 C20.2714852,8.25097644 20.398437,8.22460951 20.4921875,8.19726562 L20.4921875,8.94140625 C20.3867182,8.99218775 20.2314463,9.03417952 20.0263672,9.06738281 C19.821288,9.1005861 19.6367196,9.1171875 19.4726562,9.1171875 C18.2304625,9.1171875 17.609375,8.46289717 17.609375,7.15429688 L17.609375,3.33398438 L16.6894531,3.33398438 L16.6894531,2.86523438 L17.609375,2.4609375 L18.0195312,1.08984375 L18.5820312,1.08984375 L18.5820312,2.578125 L20.4453125,2.578125 L20.4453125,3.33398438 L18.5820312,3.33398438 L18.5820312,7.11328125 C18.5820312,7.50000193 18.6738272,7.79687396 18.8574219,8.00390625 C19.0410165,8.21093854 19.2929671,8.31445312 19.6132812,8.31445312 L19.6132812,8.31445312 Z M25.7246094,9 L25.53125,8.0859375 L25.484375,8.0859375 C25.1640609,8.48828326 24.8447282,8.76074147 24.5263672,8.90332031 C24.2080062,9.04589915 23.8105493,9.1171875 23.3339844,9.1171875 C22.6972624,9.1171875 22.198244,8.95312664 21.8369141,8.625 C21.4755841,8.29687336 21.2949219,7.83008115 21.2949219,7.22460938 C21.2949219,5.92772789 22.3320209,5.24804719 24.40625,5.18554688 L25.4960938,5.15039062 L25.4960938,4.75195312 C25.4960938,4.24804436 25.3876964,3.87597776 25.1708984,3.63574219 C24.9541005,3.39550661 24.6074243,3.27539062 24.1308594,3.27539062 C23.5957004,3.27539062 22.9902378,3.43945148 22.3144531,3.76757812 L22.015625,3.0234375 C22.3320328,2.85156164 22.6787091,2.71679736 23.0556641,2.61914062 C23.4326191,2.52148389 23.810545,2.47265625 24.1894531,2.47265625 C24.955082,2.47265625 25.5224591,2.64257643 25.8916016,2.98242188 C26.260744,3.32226732 26.4453125,3.86718375 26.4453125,4.6171875 L26.4453125,9 L25.7246094,9 Z M23.5273438,8.31445312 C24.1328155,8.31445312 24.6083967,8.14843916 24.9541016,7.81640625 C25.2998064,7.48437334 25.4726563,7.01953424 25.4726563,6.421875 L25.4726563,5.84179688 L24.5,5.8828125 C23.7265586,5.91015639 23.168947,6.03027237 22.8271484,6.24316406 C22.4853499,6.45605575 22.3144531,6.78710713 22.3144531,7.23632812 C22.3144531,7.58789238 22.4208974,7.85546783 22.6337891,8.0390625 C22.8466808,8.22265717 23.1445293,8.31445312 23.5273438,8.31445312 L23.5273438,8.31445312 Z M32.84375,9 L32.84375,4.84570312 C32.84375,4.32226301 32.7246106,3.93164191 32.4863281,3.67382812 C32.2480457,3.41601434 31.8750025,3.28710938 31.3671875,3.28710938 C30.6953091,3.28710938 30.2031266,3.46874818 29.890625,3.83203125 C29.5781234,4.19531432 29.421875,4.7949177 29.421875,5.63085938 L29.421875,9 L28.4492188,9 L28.4492188,2.578125 L29.2402344,2.578125 L29.3984375,3.45703125 L29.4453125,3.45703125 C29.6445322,3.14062342 29.9238263,2.89550868 30.2832031,2.72167969 C30.6425799,2.54785069 31.0429665,2.4609375 31.484375,2.4609375 C32.2578164,2.4609375 32.8398418,2.64745907 33.2304688,3.02050781 C33.6210957,3.39355655 33.8164062,3.99023027 33.8164062,4.81054688 L33.8164062,9 L32.84375,9 Z M37.8886719,8.31445312 C38.0605477,8.31445312 38.2265617,8.30175794 38.3867188,8.27636719 C38.5468758,8.25097644 38.6738277,8.22460951 38.7675781,8.19726562 L38.7675781,8.94140625 C38.6621088,8.99218775 38.506837,9.03417952 38.3017578,9.06738281 C38.0966787,9.1005861 37.9121102,9.1171875 37.7480469,9.1171875 C36.5058532,9.1171875 35.8847656,8.46289717 35.8847656,7.15429688 L35.8847656,3.33398438 L34.9648438,3.33398438 L34.9648438,2.86523438 L35.8847656,2.4609375 L36.2949219,1.08984375 L36.8574219,1.08984375 L36.8574219,2.578125 L38.7207031,2.578125 L38.7207031,3.33398438 L36.8574219,3.33398438 L36.8574219,7.11328125 C36.8574219,7.50000193 36.9492178,7.79687396 37.1328125,8.00390625 C37.3164072,8.21093854 37.5683578,8.31445312 37.8886719,8.31445312 L37.8886719,8.31445312 Z M39.9101562,8.37890625 C39.9101562,8.11718619 39.969726,7.91894599 40.0888672,7.78417969 C40.2080084,7.64941339 40.3789051,7.58203125 40.6015625,7.58203125 C40.8281261,7.58203125 41.0048822,7.64941339 41.1318359,7.78417969 C41.2587897,7.91894599 41.3222656,8.11718619 41.3222656,8.37890625 C41.3222656,8.63281377 41.2578131,8.82812432 41.1289062,8.96484375 C40.9999994,9.10156318 40.8242199,9.16992188 40.6015625,9.16992188 C40.4023428,9.16992188 40.2373053,9.10839905 40.1064453,8.98535156 C39.9755853,8.86230407 39.9101562,8.66015766 39.9101562,8.37890625 L39.9101562,8.37890625 Z" id="Distant." fill="#000000" sketch:type="MSShapeGroup"></path>
    </g>
</svg>