<?xml version="1.0" encoding="UTF-8" standalone="no"?>
<svg width="73px" height="12px" viewBox="0 0 73 12" version="1.1" xmlns="http://www.w3.org/2000/svg" xmlns:xlink="http://www.w3.org/1999/xlink" xmlns:sketch="http://www.bohemiancoding.com/sketch/ns">
    <!-- Generator: Sketch 3.1.1 (8761) - http://www.bohemiancoding.com/sketch -->
    <title>“Don’t open.”</title>
    <desc>Created with Sketch.</desc>
    <defs></defs>
    <g id="Page-1" stroke="none" stroke-width="1" fill="none" fill-rule="evenodd" sketch:type="MSPage">
        <path d="M2.37890625,3.36914062 L2.29101562,3.24023438 C2.50976672,2.40038643 2.85741949,1.46484891 3.33398438,0.43359375 L4.0546875,0.43359375 C3.93749941,0.882814746 3.82128964,1.38964562 3.70605469,1.95410156 C3.59081974,2.51855751 3.50781275,2.99023248 3.45703125,3.36914062 L2.37890625,3.36914062 Z M0.216796875,3.36914062 L0.146484375,3.24023438 C0.232422305,2.88867012 0.371092793,2.45117449 0.5625,1.92773438 C0.753907207,1.40429426 0.958983281,0.906252363 1.17773438,0.43359375 L1.8984375,0.43359375 C1.64062371,1.42578621 1.43945385,2.40429205 1.29492188,3.36914062 L0.216796875,3.36914062 Z M12.2167969,4.63476562 C12.2167969,6.0488352 11.8330117,7.12987907 11.0654297,7.87792969 C10.2978477,8.6259803 9.19336658,9 7.75195312,9 L5.37890625,9 L5.37890625,0.43359375 L8.00390625,0.43359375 C9.33594416,0.43359375 10.3710901,0.802730684 11.109375,1.54101562 C11.8476599,2.27930057 12.2167969,3.31054025 12.2167969,4.63476562 L12.2167969,4.63476562 Z M11.1621094,4.66992188 C11.1621094,3.55272879 10.8818387,2.71094033 10.3212891,2.14453125 C9.76073938,1.57812217 8.9277399,1.29492188 7.82226562,1.29492188 L6.375,1.29492188 L6.375,8.13867188 L7.58789062,8.13867188 C8.77539656,8.13867188 9.66796576,7.84668261 10.265625,7.26269531 C10.8632842,6.67870802 11.1621094,5.81445885 11.1621094,4.66992188 L11.1621094,4.66992188 Z M19.5234375,5.78320312 C19.5234375,6.83008336 19.2597683,7.647458 18.7324219,8.23535156 C18.2050755,8.82324513 17.4765671,9.1171875 16.546875,9.1171875 C15.9726534,9.1171875 15.4628929,8.98242322 15.0175781,8.71289062 C14.5722634,8.44335803 14.2285168,8.05664314 13.9863281,7.55273438 C13.7441394,7.04882561 13.6230469,6.45898775 13.6230469,5.78320312 C13.6230469,4.73632289 13.884763,3.92090136 14.4082031,3.33691406 C14.9316432,2.75292677 15.6581985,2.4609375 16.5878906,2.4609375 C17.4863326,2.4609375 18.2001927,2.75976264 18.7294922,3.35742188 C19.2587917,3.95508111 19.5234375,4.76366678 19.5234375,5.78320312 L19.5234375,5.78320312 Z M14.6308594,5.78320312 C14.6308594,6.60351973 14.7949202,7.22851348 15.1230469,7.65820312 C15.4511735,8.08789277 15.9335906,8.30273438 16.5703125,8.30273438 C17.2070344,8.30273438 17.690428,8.08886933 18.0205078,7.66113281 C18.3505876,7.2333963 18.515625,6.607426 18.515625,5.78320312 C18.515625,4.96679279 18.3505876,4.34668181 18.0205078,3.92285156 C17.690428,3.49902132 17.2031282,3.28710938 16.5585938,3.28710938 C15.9218718,3.28710938 15.4414079,3.49609166 15.1171875,3.9140625 C14.7929671,4.33203334 14.6308594,4.95507398 14.6308594,5.78320312 L14.6308594,5.78320312 Z M25.6230469,9 L25.6230469,4.84570312 C25.6230469,4.32226301 25.5039074,3.93164191 25.265625,3.67382812 C25.0273426,3.41601434 24.6542994,3.28710938 24.1464844,3.28710938 C23.474606,3.28710938 22.9824234,3.46874818 22.6699219,3.83203125 C22.3574203,4.19531432 22.2011719,4.7949177 22.2011719,5.63085938 L22.2011719,9 L21.2285156,9 L21.2285156,2.578125 L22.0195312,2.578125 L22.1777344,3.45703125 L22.2246094,3.45703125 C22.4238291,3.14062342 22.7031232,2.89550868 23.0625,2.72167969 C23.4218768,2.54785069 23.8222634,2.4609375 24.2636719,2.4609375 C25.0371132,2.4609375 25.6191387,2.64745907 26.0097656,3.02050781 C26.4003926,3.39355655 26.5957031,3.99023027 26.5957031,4.81054688 L26.5957031,9 L25.6230469,9 Z M29.2558594,0.43359375 L29.34375,0.5625 C29.242187,0.953126953 29.0957041,1.40722397 28.9042969,1.92480469 C28.7128897,2.4423854 28.5136729,2.9238259 28.3066406,3.36914062 L27.5917969,3.36914062 C27.8652357,2.25585381 28.0644525,1.27734797 28.1894531,0.43359375 L29.2558594,0.43359375 Z M32.5898438,8.31445312 C32.7617196,8.31445312 32.9277336,8.30175794 33.0878906,8.27636719 C33.2480477,8.25097644 33.3749995,8.22460951 33.46875,8.19726562 L33.46875,8.94140625 C33.3632807,8.99218775 33.2080088,9.03417952 33.0029297,9.06738281 C32.7978505,9.1005861 32.6132821,9.1171875 32.4492188,9.1171875 C31.207025,9.1171875 30.5859375,8.46289717 30.5859375,7.15429688 L30.5859375,3.33398438 L29.6660156,3.33398438 L29.6660156,2.86523438 L30.5859375,2.4609375 L30.9960938,1.08984375 L31.5585938,1.08984375 L31.5585938,2.578125 L33.421875,2.578125 L33.421875,3.33398438 L31.5585938,3.33398438 L31.5585938,7.11328125 C31.5585938,7.50000193 31.6503897,7.79687396 31.8339844,8.00390625 C32.017579,8.21093854 32.2695296,8.31445312 32.5898438,8.31445312 L32.5898438,8.31445312 Z M43.4121094,5.78320312 C43.4121094,6.83008336 43.1484401,7.647458 42.6210938,8.23535156 C42.0937474,8.82324513 41.365239,9.1171875 40.4355469,9.1171875 C39.8613253,9.1171875 39.3515647,8.98242322 38.90625,8.71289062 C38.4609353,8.44335803 38.1171887,8.05664314 37.875,7.55273438 C37.6328113,7.04882561 37.5117188,6.45898775 37.5117188,5.78320312 C37.5117188,4.73632289 37.7734349,3.92090136 38.296875,3.33691406 C38.8203151,2.75292677 39.5468704,2.4609375 40.4765625,2.4609375 C41.3750045,2.4609375 42.0888645,2.75976264 42.6181641,3.35742188 C43.1474636,3.95508111 43.4121094,4.76366678 43.4121094,5.78320312 L43.4121094,5.78320312 Z M38.5195312,5.78320312 C38.5195312,6.60351973 38.6835921,7.22851348 39.0117188,7.65820312 C39.3398454,8.08789277 39.8222624,8.30273438 40.4589844,8.30273438 C41.0957063,8.30273438 41.5790999,8.08886933 41.9091797,7.66113281 C42.2392595,7.2333963 42.4042969,6.607426 42.4042969,5.78320312 C42.4042969,4.96679279 42.2392595,4.34668181 41.9091797,3.92285156 C41.5790999,3.49902132 41.0918001,3.28710938 40.4472656,3.28710938 C39.8105437,3.28710938 39.3300797,3.49609166 39.0058594,3.9140625 C38.681639,4.33203334 38.5195312,4.95507398 38.5195312,5.78320312 L38.5195312,5.78320312 Z M48.1054688,9.1171875 C47.6874979,9.1171875 47.3056658,9.04003983 46.9599609,8.88574219 C46.6142561,8.73144454 46.3242199,8.49414223 46.0898438,8.17382812 L46.0195312,8.17382812 C46.0664065,8.54883 46.0898438,8.9042952 46.0898438,9.24023438 L46.0898438,11.8828125 L45.1171875,11.8828125 L45.1171875,2.578125 L45.9082031,2.578125 L46.0429688,3.45703125 L46.0898438,3.45703125 C46.339845,3.10546699 46.6308577,2.85156328 46.9628906,2.6953125 C47.2949235,2.53906172 47.6757791,2.4609375 48.1054688,2.4609375 C48.9570355,2.4609375 49.6142555,2.75195021 50.0771484,3.33398438 C50.5400414,3.91601854 50.7714844,4.73241662 50.7714844,5.78320312 C50.7714844,6.8378959 50.5361352,7.65722364 50.0654297,8.24121094 C49.5947242,8.82519823 48.9414104,9.1171875 48.1054688,9.1171875 L48.1054688,9.1171875 Z M47.9648438,3.28710938 C47.3085905,3.28710938 46.8339858,3.46874818 46.5410156,3.83203125 C46.2480454,4.19531432 46.0976563,4.77343354 46.0898438,5.56640625 L46.0898438,5.78320312 C46.0898438,6.68555139 46.2402329,7.33105274 46.5410156,7.71972656 C46.8417984,8.10840038 47.3242154,8.30273438 47.9882812,8.30273438 C48.5429715,8.30273438 48.9775375,8.07812725 49.2919922,7.62890625 C49.6064469,7.17968525 49.7636719,6.56055082 49.7636719,5.77148438 C49.7636719,4.97069912 49.6064469,4.35644745 49.2919922,3.92871094 C48.9775375,3.50097442 48.5351591,3.28710938 47.9648438,3.28710938 L47.9648438,3.28710938 Z M55.1835938,9.1171875 C54.2343703,9.1171875 53.4853543,8.82812789 52.9365234,8.25 C52.3876926,7.67187211 52.1132812,6.86914576 52.1132812,5.84179688 C52.1132812,4.80663545 52.3681615,3.98437805 52.8779297,3.375 C53.3876979,2.76562195 54.0722613,2.4609375 54.9316406,2.4609375 C55.7363321,2.4609375 56.3730445,2.72558329 56.8417969,3.25488281 C57.3105492,3.78418233 57.5449219,4.48241754 57.5449219,5.34960938 L57.5449219,5.96484375 L53.1210938,5.96484375 C53.1406251,6.71875377 53.3310529,7.29101367 53.6923828,7.68164062 C54.0537127,8.07226758 54.5624967,8.26757812 55.21875,8.26757812 C55.9101597,8.26757812 56.5937466,8.12304832 57.2695312,7.83398438 L57.2695312,8.70117188 C56.9257795,8.84961012 56.6005875,8.95605437 56.2939453,9.02050781 C55.9873032,9.08496126 55.6171897,9.1171875 55.1835938,9.1171875 L55.1835938,9.1171875 Z M54.9199219,3.27539062 C54.4042943,3.27539062 53.9931656,3.4433577 53.6865234,3.77929688 C53.3798813,4.11523605 53.199219,4.58007516 53.1445312,5.17382812 L56.5019531,5.17382812 C56.5019531,4.56054381 56.3652357,4.09082194 56.0917969,3.76464844 C55.818358,3.43847493 55.4277369,3.27539062 54.9199219,3.27539062 L54.9199219,3.27539062 Z M63.5976562,9 L63.5976562,4.84570312 C63.5976562,4.32226301 63.4785168,3.93164191 63.2402344,3.67382812 C63.0019519,3.41601434 62.6289088,3.28710938 62.1210938,3.28710938 C61.4492154,3.28710938 60.9570328,3.46874818 60.6445312,3.83203125 C60.3320297,4.19531432 60.1757812,4.7949177 60.1757812,5.63085938 L60.1757812,9 L59.203125,9 L59.203125,2.578125 L59.9941406,2.578125 L60.1523438,3.45703125 L60.1992188,3.45703125 C60.3984385,3.14062342 60.6777326,2.89550868 61.0371094,2.72167969 C61.3964862,2.54785069 61.7968728,2.4609375 62.2382812,2.4609375 C63.0117226,2.4609375 63.593748,2.64745907 63.984375,3.02050781 C64.375002,3.39355655 64.5703125,3.99023027 64.5703125,4.81054688 L64.5703125,9 L63.5976562,9 Z M66.4277344,8.37890625 C66.4277344,8.11718619 66.4873041,7.91894599 66.6064453,7.78417969 C66.7255865,7.64941339 66.8964833,7.58203125 67.1191406,7.58203125 C67.3457043,7.58203125 67.5224603,7.64941339 67.6494141,7.78417969 C67.7763678,7.91894599 67.8398438,8.11718619 67.8398438,8.37890625 C67.8398438,8.63281377 67.7753913,8.82812432 67.6464844,8.96484375 C67.5175775,9.10156318 67.341798,9.16992188 67.1191406,9.16992188 C66.9199209,9.16992188 66.7548835,9.10839905 66.6240234,8.98535156 C66.4931634,8.86230407 66.4277344,8.66015766 66.4277344,8.37890625 L66.4277344,8.37890625 Z M70.5410156,0.43359375 L70.6289062,0.5625 C70.5273432,0.953126953 70.3808603,1.40722397 70.1894531,1.92480469 C69.9980459,2.4423854 69.7988292,2.9238259 69.5917969,3.36914062 L68.8769531,3.36914062 C69.150392,2.25585381 69.3496088,1.27734797 69.4746094,0.43359375 L70.5410156,0.43359375 Z M72.703125,0.43359375 L72.7851562,0.5625 C72.6914058,0.917970527 72.5507822,1.35546615 72.3632812,1.875 C72.1757803,2.39453385 71.9726573,2.89257574 71.7539062,3.36914062 L71.0214844,3.36914062 C71.1230474,2.97851367 71.2382806,2.48242488 71.3671875,1.88085938 C71.4960944,1.27929387 71.5859372,0.796876816 71.6367188,0.43359375 L72.703125,0.43359375 Z" id="“Don’t-open.”" fill="#000000" sketch:type="MSShapeGroup"></path>
    </g>
</svg>