<?xml version="1.0" encoding="UTF-8" standalone="no"?>
<svg width="137px" height="13px" viewBox="0 0 137 13" version="1.1" xmlns="http://www.w3.org/2000/svg" xmlns:xlink="http://www.w3.org/1999/xlink" xmlns:sketch="http://www.bohemiancoding.com/sketch/ns">
    <!-- Generator: Sketch 3.1.1 (8761) - http://www.bohemiancoding.com/sketch -->
    <title>“Practice your alpha</title>
    <desc>Created with Sketch.</desc>
    <defs></defs>
    <g id="Page-1" stroke="none" stroke-width="1" fill="none" fill-rule="evenodd" sketch:type="MSPage">
        <path d="M2.37890625,4.36914062 L2.29101562,4.24023438 C2.50976672,3.40038643 2.85741949,2.46484891 3.33398438,1.43359375 L4.0546875,1.43359375 C3.93749941,1.88281475 3.82128964,2.38964562 3.70605469,2.95410156 C3.59081974,3.51855751 3.50781275,3.99023248 3.45703125,4.36914062 L2.37890625,4.36914062 Z M0.216796875,4.36914062 L0.146484375,4.24023438 C0.232422305,3.88867012 0.371092793,3.45117449 0.5625,2.92773438 C0.753907207,2.40429426 0.958983281,1.90625236 1.17773438,1.43359375 L1.8984375,1.43359375 C1.64062371,2.42578621 1.43945385,3.40429205 1.29492188,4.36914062 L0.216796875,4.36914062 Z M10.8105469,3.9296875 C10.8105469,4.79687934 10.5146514,5.46386485 9.92285156,5.93066406 C9.33105173,6.39746327 8.48438051,6.63085938 7.3828125,6.63085938 L6.375,6.63085938 L6.375,10 L5.37890625,10 L5.37890625,1.43359375 L7.59960937,1.43359375 C9.74024508,1.43359375 10.8105469,2.26561668 10.8105469,3.9296875 L10.8105469,3.9296875 Z M6.375,5.77539062 L7.27148438,5.77539062 C8.15430129,5.77539062 8.79296678,5.63281393 9.1875,5.34765625 C9.58203322,5.06249857 9.77929688,4.60547189 9.77929688,3.9765625 C9.77929688,3.41015342 9.59375186,2.98828264 9.22265625,2.7109375 C8.85156064,2.43359236 8.27344143,2.29492188 7.48828125,2.29492188 L6.375,2.29492188 L6.375,5.77539062 Z M15.3867188,3.4609375 C15.6718764,3.4609375 15.9277332,3.48437477 16.1542969,3.53125 L16.0195312,4.43359375 C15.7539049,4.37499971 15.5195323,4.34570312 15.3164062,4.34570312 C14.7968724,4.34570312 14.3525409,4.55663852 13.9833984,4.97851562 C13.614256,5.40039273 13.4296875,5.92577811 13.4296875,6.5546875 L13.4296875,10 L12.4570312,10 L12.4570312,3.578125 L13.2597656,3.578125 L13.3710938,4.76757812 L13.4179688,4.76757812 C13.6562512,4.34960729 13.9433577,4.02734488 14.2792969,3.80078125 C14.6152361,3.57421762 14.984373,3.4609375 15.3867188,3.4609375 L15.3867188,3.4609375 Z M21.0644531,10 L20.8710938,9.0859375 L20.8242188,9.0859375 C20.5039046,9.48828326 20.1845719,9.76074147 19.8662109,9.90332031 C19.54785,10.0458992 19.150393,10.1171875 18.6738281,10.1171875 C18.0371062,10.1171875 17.5380877,9.95312664 17.1767578,9.625 C16.8154279,9.29687336 16.6347656,8.83008115 16.6347656,8.22460938 C16.6347656,6.92772789 17.6718646,6.24804719 19.7460938,6.18554688 L20.8359375,6.15039062 L20.8359375,5.75195312 C20.8359375,5.24804436 20.7275401,4.87597776 20.5107422,4.63574219 C20.2939442,4.39550661 19.947268,4.27539062 19.4707031,4.27539062 C18.9355442,4.27539062 18.3300815,4.43945148 17.6542969,4.76757812 L17.3554688,4.0234375 C17.6718766,3.85156164 18.0185528,3.71679736 18.3955078,3.61914062 C18.7724628,3.52148389 19.1503887,3.47265625 19.5292969,3.47265625 C20.2949257,3.47265625 20.8623028,3.64257643 21.2314453,3.98242188 C21.6005878,4.32226732 21.7851562,4.86718375 21.7851562,5.6171875 L21.7851562,10 L21.0644531,10 Z M18.8671875,9.31445312 C19.4726593,9.31445312 19.9482405,9.14843916 20.2939453,8.81640625 C20.6396502,8.48437334 20.8125,8.01953424 20.8125,7.421875 L20.8125,6.84179688 L19.8398438,6.8828125 C19.0664024,6.91015639 18.5087908,7.03027237 18.1669922,7.24316406 C17.8251936,7.45605575 17.6542969,7.78710713 17.6542969,8.23632812 C17.6542969,8.58789238 17.7607411,8.85546783 17.9736328,9.0390625 C18.1865245,9.22265717 18.4843731,9.31445312 18.8671875,9.31445312 L18.8671875,9.31445312 Z M26.3554688,10.1171875 C25.4257766,10.1171875 24.7060572,9.83105755 24.1962891,9.25878906 C23.6865209,8.68652058 23.4316406,7.87695836 23.4316406,6.83007812 C23.4316406,5.755854 23.6904271,4.92578418 24.2080078,4.33984375 C24.7255885,3.75390332 25.4628858,3.4609375 26.4199219,3.4609375 C26.7285172,3.4609375 27.0371078,3.49414029 27.3457031,3.56054688 C27.6542984,3.62695346 27.8964835,3.70507768 28.0722656,3.79492188 L27.7734375,4.62109375 C27.5585927,4.53515582 27.32422,4.46386747 27.0703125,4.40722656 C26.816405,4.35058565 26.5917979,4.32226562 26.3964844,4.32226562 C25.0917904,4.32226562 24.4394531,5.15428855 24.4394531,6.81835938 C24.4394531,7.60742582 24.5986312,8.21288852 24.9169922,8.63476562 C25.2353532,9.05664273 25.7070281,9.26757812 26.3320312,9.26757812 C26.8671902,9.26757812 27.4160128,9.1523449 27.9785156,8.921875 L27.9785156,9.78320312 C27.548826,10.0058605 27.0078158,10.1171875 26.3554688,10.1171875 L26.3554688,10.1171875 Z M31.5761719,9.31445312 C31.7480477,9.31445312 31.9140617,9.30175794 32.0742188,9.27636719 C32.2343758,9.25097644 32.3613277,9.22460951 32.4550781,9.19726562 L32.4550781,9.94140625 C32.3496088,9.99218775 32.194337,10.0341795 31.9892578,10.0673828 C31.7841787,10.1005861 31.5996102,10.1171875 31.4355469,10.1171875 C30.1933532,10.1171875 29.5722656,9.46289717 29.5722656,8.15429688 L29.5722656,4.33398438 L28.6523438,4.33398438 L28.6523438,3.86523438 L29.5722656,3.4609375 L29.9824219,2.08984375 L30.5449219,2.08984375 L30.5449219,3.578125 L32.4082031,3.578125 L32.4082031,4.33398438 L30.5449219,4.33398438 L30.5449219,8.11328125 C30.5449219,8.50000193 30.6367178,8.79687396 30.8203125,9.00390625 C31.0039072,9.21093854 31.2558578,9.31445312 31.5761719,9.31445312 L31.5761719,9.31445312 Z M34.7109375,10 L33.7382812,10 L33.7382812,3.578125 L34.7109375,3.578125 L34.7109375,10 Z M33.65625,1.83789062 C33.65625,1.61523326 33.710937,1.45214896 33.8203125,1.34863281 C33.929688,1.24511667 34.0664054,1.19335938 34.2304688,1.19335938 C34.3867195,1.19335938 34.5214838,1.24609322 34.6347656,1.3515625 C34.7480474,1.45703178 34.8046875,1.61913953 34.8046875,1.83789062 C34.8046875,2.05664172 34.7480474,2.21972603 34.6347656,2.32714844 C34.5214838,2.43457085 34.3867195,2.48828125 34.2304688,2.48828125 C34.0664054,2.48828125 33.929688,2.43457085 33.8203125,2.32714844 C33.710937,2.21972603 33.65625,2.05664172 33.65625,1.83789062 L33.65625,1.83789062 Z M39.3398438,10.1171875 C38.4101516,10.1171875 37.6904322,9.83105755 37.1806641,9.25878906 C36.6708959,8.68652058 36.4160156,7.87695836 36.4160156,6.83007812 C36.4160156,5.755854 36.6748021,4.92578418 37.1923828,4.33984375 C37.7099635,3.75390332 38.4472608,3.4609375 39.4042969,3.4609375 C39.7128922,3.4609375 40.0214828,3.49414029 40.3300781,3.56054688 C40.6386734,3.62695346 40.8808585,3.70507768 41.0566406,3.79492188 L40.7578125,4.62109375 C40.5429677,4.53515582 40.308595,4.46386747 40.0546875,4.40722656 C39.80078,4.35058565 39.5761729,4.32226562 39.3808594,4.32226562 C38.0761654,4.32226562 37.4238281,5.15428855 37.4238281,6.81835938 C37.4238281,7.60742582 37.5830062,8.21288852 37.9013672,8.63476562 C38.2197282,9.05664273 38.6914031,9.26757812 39.3164062,9.26757812 C39.8515652,9.26757812 40.4003878,9.1523449 40.9628906,8.921875 L40.9628906,9.78320312 C40.533201,10.0058605 39.9921908,10.1171875 39.3398438,10.1171875 L39.3398438,10.1171875 Z M45.1992188,10.1171875 C44.2499953,10.1171875 43.5009793,9.82812789 42.9521484,9.25 C42.4033176,8.67187211 42.1289062,7.86914576 42.1289062,6.84179688 C42.1289062,5.80663545 42.3837865,4.98437805 42.8935547,4.375 C43.4033229,3.76562195 44.0878863,3.4609375 44.9472656,3.4609375 C45.7519571,3.4609375 46.3886695,3.72558329 46.8574219,4.25488281 C47.3261742,4.78418233 47.5605469,5.48241754 47.5605469,6.34960938 L47.5605469,6.96484375 L43.1367188,6.96484375 C43.1562501,7.71875377 43.3466779,8.29101367 43.7080078,8.68164062 C44.0693377,9.07226758 44.5781217,9.26757812 45.234375,9.26757812 C45.9257847,9.26757812 46.6093716,9.12304832 47.2851562,8.83398438 L47.2851562,9.70117188 C46.9414045,9.84961012 46.6162125,9.95605437 46.3095703,10.0205078 C46.0029282,10.0849613 45.6328147,10.1171875 45.1992188,10.1171875 L45.1992188,10.1171875 Z M44.9355469,4.27539062 C44.4199193,4.27539062 44.0087906,4.4433577 43.7021484,4.77929688 C43.3955063,5.11523605 43.214844,5.58007516 43.1601562,6.17382812 L46.5175781,6.17382812 C46.5175781,5.56054381 46.3808607,5.09082194 46.1074219,4.76464844 C45.833983,4.43847493 45.4433619,4.27539062 44.9355469,4.27539062 L44.9355469,4.27539062 Z M51.3164062,3.578125 L52.359375,3.578125 L53.765625,7.24023438 C54.0742203,8.07617605 54.2656246,8.67968564 54.3398438,9.05078125 L54.3867188,9.05078125 C54.4375003,8.8515615 54.5439445,8.5107446 54.7060547,8.02832031 C54.8681649,7.54589603 55.398433,6.06251242 56.296875,3.578125 L57.3398438,3.578125 L54.5800781,10.890625 C54.3066393,11.6132849 53.9873065,12.125975 53.6220703,12.4287109 C53.2568341,12.7314468 52.8085964,12.8828125 52.2773438,12.8828125 C51.9804673,12.8828125 51.6875014,12.8496097 51.3984375,12.7832031 L51.3984375,12.0039062 C51.6132823,12.0507815 51.8535143,12.0742188 52.1191406,12.0742188 C52.7871127,12.0742188 53.2636704,11.6992225 53.5488281,10.9492188 L53.90625,10.0351562 L51.3164062,3.578125 Z M63.9257812,6.78320312 C63.9257812,7.83008336 63.662112,8.647458 63.1347656,9.23535156 C62.6074192,9.82324513 61.8789109,10.1171875 60.9492188,10.1171875 C60.3749971,10.1171875 59.8652366,9.98242322 59.4199219,9.71289062 C58.9746071,9.44335803 58.6308606,9.05664314 58.3886719,8.55273438 C58.1464832,8.04882561 58.0253906,7.45898775 58.0253906,6.78320312 C58.0253906,5.73632289 58.2871068,4.92090136 58.8105469,4.33691406 C59.333987,3.75292677 60.0605422,3.4609375 60.9902344,3.4609375 C61.8886764,3.4609375 62.6025364,3.75976264 63.1318359,4.35742188 C63.6611355,4.95508111 63.9257812,5.76366678 63.9257812,6.78320312 L63.9257812,6.78320312 Z M59.0332031,6.78320312 C59.0332031,7.60351973 59.197264,8.22851348 59.5253906,8.65820312 C59.8535173,9.08789277 60.3359343,9.30273438 60.9726562,9.30273438 C61.6093782,9.30273438 62.0927718,9.08886933 62.4228516,8.66113281 C62.7529313,8.2333963 62.9179688,7.607426 62.9179688,6.78320312 C62.9179688,5.96679279 62.7529313,5.34668181 62.4228516,4.92285156 C62.0927718,4.49902132 61.605472,4.28710938 60.9609375,4.28710938 C60.3242156,4.28710938 59.8437516,4.49609166 59.5195312,4.9140625 C59.1953109,5.33203334 59.0332031,5.95507398 59.0332031,6.78320312 L59.0332031,6.78320312 Z M66.5449219,3.578125 L66.5449219,7.74414062 C66.5449219,8.26758074 66.6640613,8.65820184 66.9023438,8.91601562 C67.1406262,9.17382941 67.5136693,9.30273438 68.0214844,9.30273438 C68.6933627,9.30273438 69.1845688,9.11914246 69.4951172,8.75195312 C69.8056656,8.38476379 69.9609375,7.78516041 69.9609375,6.953125 L69.9609375,3.578125 L70.9335938,3.578125 L70.9335938,10 L70.1308594,10 L69.9902344,9.13867188 L69.9375,9.13867188 C69.7382803,9.45507971 69.4619158,9.69726479 69.1083984,9.86523438 C68.754881,10.033204 68.3515648,10.1171875 67.8984375,10.1171875 C67.1171836,10.1171875 66.5322285,9.93164248 66.1435547,9.56054688 C65.7548809,9.18945127 65.5605469,8.59570721 65.5605469,7.77929688 L65.5605469,3.578125 L66.5449219,3.578125 Z M75.9257812,3.4609375 C76.2109389,3.4609375 76.4667957,3.48437477 76.6933594,3.53125 L76.5585938,4.43359375 C76.2929674,4.37499971 76.0585948,4.34570312 75.8554688,4.34570312 C75.3359349,4.34570312 74.8916034,4.55663852 74.5224609,4.97851562 C74.1533185,5.40039273 73.96875,5.92577811 73.96875,6.5546875 L73.96875,10 L72.9960938,10 L72.9960938,3.578125 L73.7988281,3.578125 L73.9101562,4.76757812 L73.9570312,4.76757812 C74.1953137,4.34960729 74.4824202,4.02734488 74.8183594,3.80078125 C75.1542986,3.57421762 75.5234355,3.4609375 75.9257812,3.4609375 L75.9257812,3.4609375 Z M84.9609375,10 L84.7675781,9.0859375 L84.7207031,9.0859375 C84.400389,9.48828326 84.0810563,9.76074147 83.7626953,9.90332031 C83.4443343,10.0458992 83.0468774,10.1171875 82.5703125,10.1171875 C81.9335906,10.1171875 81.4345721,9.95312664 81.0732422,9.625 C80.7119123,9.29687336 80.53125,8.83008115 80.53125,8.22460938 C80.53125,6.92772789 81.568349,6.24804719 83.6425781,6.18554688 L84.7324219,6.15039062 L84.7324219,5.75195312 C84.7324219,5.24804436 84.6240245,4.87597776 84.4072266,4.63574219 C84.1904286,4.39550661 83.8437524,4.27539062 83.3671875,4.27539062 C82.8320286,4.27539062 82.2265659,4.43945148 81.5507812,4.76757812 L81.2519531,4.0234375 C81.568361,3.85156164 81.9150372,3.71679736 82.2919922,3.61914062 C82.6689472,3.52148389 83.0468731,3.47265625 83.4257812,3.47265625 C84.1914101,3.47265625 84.7587872,3.64257643 85.1279297,3.98242188 C85.4970722,4.32226732 85.6816406,4.86718375 85.6816406,5.6171875 L85.6816406,10 L84.9609375,10 Z M82.7636719,9.31445312 C83.3691437,9.31445312 83.8447248,9.14843916 84.1904297,8.81640625 C84.5361345,8.48437334 84.7089844,8.01953424 84.7089844,7.421875 L84.7089844,6.84179688 L83.7363281,6.8828125 C82.9628868,6.91015639 82.4052751,7.03027237 82.0634766,7.24316406 C81.721678,7.45605575 81.5507812,7.78710713 81.5507812,8.23632812 C81.5507812,8.58789238 81.6572255,8.85546783 81.8701172,9.0390625 C82.0830089,9.22265717 82.3808575,9.31445312 82.7636719,9.31445312 L82.7636719,9.31445312 Z M88.6582031,10 L87.6855469,10 L87.6855469,0.8828125 L88.6582031,0.8828125 L88.6582031,10 Z M93.7089844,10.1171875 C93.2910135,10.1171875 92.9091814,10.0400398 92.5634766,9.88574219 C92.2177717,9.73144454 91.9277355,9.49414223 91.6933594,9.17382812 L91.6230469,9.17382812 C91.6699221,9.54883 91.6933594,9.9042952 91.6933594,10.2402344 L91.6933594,12.8828125 L90.7207031,12.8828125 L90.7207031,3.578125 L91.5117188,3.578125 L91.6464844,4.45703125 L91.6933594,4.45703125 C91.9433606,4.10546699 92.2343733,3.85156328 92.5664062,3.6953125 C92.8984392,3.53906172 93.2792947,3.4609375 93.7089844,3.4609375 C94.5605511,3.4609375 95.2177711,3.75195021 95.6806641,4.33398438 C96.143557,4.91601854 96.375,5.73241662 96.375,6.78320312 C96.375,7.8378959 96.1396508,8.65722364 95.6689453,9.24121094 C95.1982398,9.82519823 94.5449261,10.1171875 93.7089844,10.1171875 L93.7089844,10.1171875 Z M93.5683594,4.28710938 C92.9121061,4.28710938 92.4375015,4.46874818 92.1445312,4.83203125 C91.851561,5.19531432 91.7011719,5.77343354 91.6933594,6.56640625 L91.6933594,6.78320312 C91.6933594,7.68555139 91.8437485,8.33105274 92.1445312,8.71972656 C92.445314,9.10840038 92.9277311,9.30273438 93.5917969,9.30273438 C94.1464871,9.30273438 94.5810531,9.07812725 94.8955078,8.62890625 C95.2099625,8.17968525 95.3671875,7.56055082 95.3671875,6.77148438 C95.3671875,5.97069912 95.2099625,5.35644745 94.8955078,4.92871094 C94.5810531,4.50097442 94.1386747,4.28710938 93.5683594,4.28710938 L93.5683594,4.28710938 Z M102.46875,10 L102.46875,5.84570312 C102.46875,5.32226301 102.349611,4.93164191 102.111328,4.67382812 C101.873046,4.41601434 101.500003,4.28710938 100.992188,4.28710938 C100.316403,4.28710938 99.8232437,4.47070129 99.5126953,4.83789062 C99.2021469,5.20507996 99.046875,5.80663645 99.046875,6.64257813 L99.046875,10 L98.0742188,10 L98.0742188,0.8828125 L99.046875,0.8828125 L99.046875,3.64257812 C99.046875,3.97461104 99.0312502,4.24999891 99,4.46875 L99.0585938,4.46875 C99.250001,4.16015471 99.5224592,3.91699308 99.8759766,3.73925781 C100.229494,3.56152255 100.63281,3.47265625 101.085938,3.47265625 C101.871098,3.47265625 102.459959,3.65917782 102.852539,4.03222656 C103.245119,4.4052753 103.441406,4.99804281 103.441406,5.81054688 L103.441406,10 L102.46875,10 Z M109.388672,10 L109.195312,9.0859375 L109.148438,9.0859375 C108.828123,9.48828326 108.508791,9.76074147 108.19043,9.90332031 C107.872069,10.0458992 107.474612,10.1171875 106.998047,10.1171875 C106.361325,10.1171875 105.862306,9.95312664 105.500977,9.625 C105.139647,9.29687336 104.958984,8.83008115 104.958984,8.22460938 C104.958984,6.92772789 105.996083,6.24804719 108.070312,6.18554688 L109.160156,6.15039062 L109.160156,5.75195312 C109.160156,5.24804436 109.051759,4.87597776 108.834961,4.63574219 C108.618163,4.39550661 108.271487,4.27539062 107.794922,4.27539062 C107.259763,4.27539062 106.6543,4.43945148 105.978516,4.76757812 L105.679688,4.0234375 C105.996095,3.85156164 106.342772,3.71679736 106.719727,3.61914062 C107.096682,3.52148389 107.474607,3.47265625 107.853516,3.47265625 C108.619144,3.47265625 109.186522,3.64257643 109.555664,3.98242188 C109.924807,4.32226732 110.109375,4.86718375 110.109375,5.6171875 L110.109375,10 L109.388672,10 Z M107.191406,9.31445312 C107.796878,9.31445312 108.272459,9.14843916 108.618164,8.81640625 C108.963869,8.48437334 109.136719,8.01953424 109.136719,7.421875 L109.136719,6.84179688 L108.164062,6.8828125 C107.390621,6.91015639 106.83301,7.03027237 106.491211,7.24316406 C106.149412,7.45605575 105.978516,7.78710713 105.978516,8.23632812 C105.978516,8.58789238 106.08496,8.85546783 106.297852,9.0390625 C106.510743,9.22265717 106.808592,9.31445312 107.191406,9.31445312 L107.191406,9.31445312 Z M115.101562,3.47265625 C115.945317,3.47265625 116.600584,3.76073931 117.067383,4.33691406 C117.534182,4.91308882 117.767578,5.72851035 117.767578,6.78320312 C117.767578,7.8378959 117.532229,8.65722364 117.061523,9.24121094 C116.590818,9.82519823 115.937504,10.1171875 115.101562,10.1171875 C114.683592,10.1171875 114.30176,10.0400398 113.956055,9.88574219 C113.61035,9.73144454 113.320314,9.49414223 113.085938,9.17382812 L113.015625,9.17382812 L112.810547,10 L112.113281,10 L112.113281,0.8828125 L113.085938,0.8828125 L113.085938,3.09765625 C113.085938,3.59375248 113.070313,4.03906053 113.039062,4.43359375 L113.085938,4.43359375 C113.539065,3.79296555 114.210933,3.47265625 115.101562,3.47265625 L115.101562,3.47265625 Z M114.960938,4.28710938 C114.296872,4.28710938 113.818361,4.47753716 113.525391,4.85839844 C113.23242,5.23925972 113.085938,5.88085486 113.085938,6.78320312 C113.085938,7.68555139 113.236327,8.33105274 113.537109,8.71972656 C113.837892,9.10840038 114.320309,9.30273438 114.984375,9.30273438 C115.582034,9.30273438 116.027342,9.08496312 116.320312,8.64941406 C116.613283,8.21386501 116.759766,7.58789471 116.759766,6.77148438 C116.759766,5.9355427 116.613283,5.31250205 116.320312,4.90234375 C116.027342,4.49218545 115.574222,4.28710938 114.960938,4.28710938 L114.960938,4.28710938 Z M122.179688,10.1171875 C121.230464,10.1171875 120.481448,9.82812789 119.932617,9.25 C119.383786,8.67187211 119.109375,7.86914576 119.109375,6.84179688 C119.109375,5.80663545 119.364255,4.98437805 119.874023,4.375 C120.383792,3.76562195 121.068355,3.4609375 121.927734,3.4609375 C122.732426,3.4609375 123.369138,3.72558329 123.837891,4.25488281 C124.306643,4.78418233 124.541016,5.48241754 124.541016,6.34960938 L124.541016,6.96484375 L120.117188,6.96484375 C120.136719,7.71875377 120.327147,8.29101367 120.688477,8.68164062 C121.049806,9.07226758 121.55859,9.26757812 122.214844,9.26757812 C122.906253,9.26757812 123.58984,9.12304832 124.265625,8.83398438 L124.265625,9.70117188 C123.921873,9.84961012 123.596681,9.95605437 123.290039,10.0205078 C122.983397,10.0849613 122.613283,10.1171875 122.179688,10.1171875 L122.179688,10.1171875 Z M121.916016,4.27539062 C121.400388,4.27539062 120.989259,4.4433577 120.682617,4.77929688 C120.375975,5.11523605 120.195313,5.58007516 120.140625,6.17382812 L123.498047,6.17382812 C123.498047,5.56054381 123.361329,5.09082194 123.087891,4.76464844 C122.814452,4.43847493 122.423831,4.27539062 121.916016,4.27539062 L121.916016,4.27539062 Z M128.273438,9.31445312 C128.445313,9.31445312 128.611327,9.30175794 128.771484,9.27636719 C128.931641,9.25097644 129.058593,9.22460951 129.152344,9.19726562 L129.152344,9.94140625 C129.046874,9.99218775 128.891603,10.0341795 128.686523,10.0673828 C128.481444,10.1005861 128.296876,10.1171875 128.132812,10.1171875 C126.890619,10.1171875 126.269531,9.46289717 126.269531,8.15429688 L126.269531,4.33398438 L125.349609,4.33398438 L125.349609,3.86523438 L126.269531,3.4609375 L126.679688,2.08984375 L127.242188,2.08984375 L127.242188,3.578125 L129.105469,3.578125 L129.105469,4.33398438 L127.242188,4.33398438 L127.242188,8.11328125 C127.242188,8.50000193 127.333983,8.79687396 127.517578,9.00390625 C127.701173,9.21093854 127.953123,9.31445312 128.273438,9.31445312 L128.273438,9.31445312 Z M130.294922,9.37890625 C130.294922,9.11718619 130.354492,8.91894599 130.473633,8.78417969 C130.592774,8.64941339 130.763671,8.58203125 130.986328,8.58203125 C131.212892,8.58203125 131.389648,8.64941339 131.516602,8.78417969 C131.643555,8.91894599 131.707031,9.11718619 131.707031,9.37890625 C131.707031,9.63281377 131.642579,9.82812432 131.513672,9.96484375 C131.384765,10.1015632 131.208985,10.1699219 130.986328,10.1699219 C130.787108,10.1699219 130.622071,10.1083991 130.491211,9.98535156 C130.360351,9.86230407 130.294922,9.66015766 130.294922,9.37890625 L130.294922,9.37890625 Z M134.408203,1.43359375 L134.496094,1.5625 C134.394531,1.95312695 134.248048,2.40722397 134.056641,2.92480469 C133.865233,3.4423854 133.666017,3.9238259 133.458984,4.36914062 L132.744141,4.36914062 C133.017579,3.25585381 133.216796,2.27734797 133.341797,1.43359375 L134.408203,1.43359375 Z M136.570312,1.43359375 L136.652344,1.5625 C136.558593,1.91797053 136.41797,2.35546615 136.230469,2.875 C136.042968,3.39453385 135.839845,3.89257574 135.621094,4.36914062 L134.888672,4.36914062 C134.990235,3.97851367 135.105468,3.48242488 135.234375,2.88085938 C135.363282,2.27929387 135.453125,1.79687682 135.503906,1.43359375 L136.570312,1.43359375 Z" id="“Practice-your-alpha" fill="#000000" sketch:type="MSShapeGroup"></path>
    </g>
</svg>